<!-- Generated by IcoMoon.io -->
<svg version="1.1" xmlns="http://www.w3.org/2000/svg" width="32" height="32" viewBox="0 0 32 32">
<title>Cart</title>
<path d="M26.667 24c2.209 0 4 1.791 4 4s-1.791 4-4 4c-2.209 0-4-1.791-4-4s1.791-4 4-4zM9.333 24c2.209 0 4 1.791 4 4s-1.791 4-4 4c-2.209 0-4-1.791-4-4s1.791-4 4-4zM9.333 26.667c-0.736 0-1.333 0.597-1.333 1.333s0.597 1.333 1.333 1.333c0.736 0 1.333-0.597 1.333-1.333s-0.597-1.333-1.333-1.333zM26.667 26.667c-0.736 0-1.333 0.597-1.333 1.333s0.597 1.333 1.333 1.333c0.736 0 1.333-0.597 1.333-1.333s-0.597-1.333-1.333-1.333zM3.433 0c2.425 0 4.532 1.634 5.152 3.955l0.063 0.261 0.524 2.451h17.166c0.13 0 0.259 0.009 0.387 0.028l0.191 0.035c1.372 0.305 2.261 1.617 2.061 2.986l-0.036 0.196-1.842 8.289c-0.389 1.751-1.891 3.018-3.662 3.125l-0.243 0.007h-10.372c-1.804 0-3.374-1.206-3.853-2.924l-0.058-0.238-2.871-13.397c-0.248-1.157-1.225-2.003-2.387-2.099l-0.22-0.009h-4.766v-2.667h4.766zM26.338 9.333h-16.594l1.775 8.279c0.121 0.564 0.587 0.98 1.149 1.045l0.155 0.009h10.372c0.573 0 1.075-0.365 1.259-0.895l0.042-0.149 1.842-8.289z"></path>
</svg>
