<?xml version="1.0" encoding="UTF-8"?>
<svg width="56px" height="56px" viewBox="0 0 24 24" version="1.1" xmlns="http://www.w3.org/2000/svg" xmlns:xlink="http://www.w3.org/1999/xlink">
    <title>Combined Shape</title>
    <g id="Page-1" stroke="none" stroke-width="1" fill="none" fill-rule="evenodd">
        <g id="Customer-Landing-Page-Copy-57" transform="translate(-32.000000, -528.000000)" fill="#212B36" stroke="#212B36" stroke-width="3">
            <g id="Group-19" transform="translate(1.000000, 244.000000)">
                <g id="Group-30" transform="translate(15.000000, 200.000000)">
                    <path d="M28,85.5 C30.8994949,85.5 33.5244949,86.6752525 35.4246212,88.5753788 C37.3247475,90.4755051 38.5,93.1005051 38.5,96 C38.5,98.8994949 37.3247475,101.524495 35.4246212,103.424621 C33.5244949,105.324747 30.8994949,106.5 28,106.5 C25.1005051,106.5 22.4755051,105.324747 20.5753788,103.424621 C18.6752525,101.524495 17.5,98.8994949 17.5,96 C17.5,93.1005051 18.6752525,90.4755051 20.5753788,88.5753788 C22.4755051,86.6752525 25.1005051,85.5 28,85.5 Z M34.5898473,88.9303512 L26.5691615,96.0245268 L22.6140042,91.3169748 L18.9398122,94.4392001 L26.0588328,102.911783 L37.7618398,92.5563947 L34.5898473,88.9303512 Z" id="Combined-Shape"></path>
                </g>
            </g>
        </g>
    </g>
</svg>