<?xml version="1.0" encoding="UTF-8"?>
<svg width="17px" height="17px" viewBox="0 0 17 17" version="1.1" xmlns="http://www.w3.org/2000/svg" xmlns:xlink="http://www.w3.org/1999/xlink">
    <title>Group</title>
    <g id="Page-1" stroke="none" stroke-width="1" fill="none" fill-rule="evenodd">
        <g id="Momotaro-home-Copy-52-(1)-Copy-5" transform="translate(-197.000000, -235.000000)" fill="#888888" fill-rule="nonzero">
            <g id="Group-54" transform="translate(182.000000, 92.000000)">
                <g id="Group" transform="translate(15.000000, 143.000000)">
                    <path d="M4.97722222,0 L0,4.97722222 L0,12.0227778 L4.97722222,17 L12.0227778,17 C13.6944444,15.3377778 17,12.0227778 17,12.0227778 L17,4.97722222 L12.0227778,0 M5.76111111,1.88888889 L11.2388889,1.88888889 L15.1111111,5.76111111 L15.1111111,11.2388889 L11.2388889,15.1111111 L5.76111111,15.1111111 L1.88888889,11.2388889 L1.88888889,5.76111111 M5.78,4.44833333 L4.44833333,5.78 L7.16833333,8.5 L4.44833333,11.22 L5.78,12.5516667 L8.5,9.83166667 L11.22,12.5516667 L12.5516667,11.22 L9.83166667,8.5 L12.5516667,5.78 L11.22,4.44833333 L8.5,7.16833333" id="Shape"></path>
                </g>
            </g>
        </g>
    </g>
</svg>