<?xml version="1.0" encoding="UTF-8"?>
<svg width="20px" height="22px" viewBox="0 0 20 22" version="1.1" xmlns="http://www.w3.org/2000/svg" xmlns:xlink="http://www.w3.org/1999/xlink">
    <title>216E281F-5958-43AA-BB03-DF4F83998212</title>
    <g id="Page-1" stroke="none" stroke-width="1" fill="none" fill-rule="evenodd">
        <g id="1-Agent-Landing-Page-Copy-46" transform="translate(-331.000000, -65.000000)" fill="#000000" fill-rule="nonzero">
            <g id="Group-15" transform="translate(331.000000, 65.000000)">
                <path d="M2.22222222,21.8181818 L17.7777778,21.8181818 C19.0033333,21.8181818 20,20.8396364 20,19.6363636 L20,3.27272727 C20,2.06945455 19.0033333,1.09090909 17.7777778,1.09090909 L15.5555556,1.09090909 C15.5555556,0.488416637 15.0580942,0 14.4444444,0 L5.55555556,0 C4.94190583,0 4.44444444,0.488416637 4.44444444,1.09090909 L2.22222222,1.09090909 C0.996666667,1.09090909 0,2.06945455 0,3.27272727 L0,19.6363636 C0,20.8396364 0.996666667,21.8181818 2.22222222,21.8181818 Z M2.22222222,3.27272727 L4.44444444,3.27272727 L4.44444444,5.45454545 L15.5555556,5.45454545 L15.5555556,3.27272727 L17.7777778,3.27272727 L17.7777778,19.6363636 L2.22222222,19.6363636 L2.22222222,3.27272727 Z" id="Shape"></path>
                <g id="Group" transform="translate(5.000000, 8.000000)">
                    <path d="M3.98697837,9.00376926 L3.98697837,5.9933752 L3.98697837,5.9933752 L0.978231401,5.9933752 C0.437969116,5.9933752 6.61630477e-17,5.55540608 0,5.0151438 C-6.61630477e-17,4.47488151 0.437969116,4.0369124 0.978231401,4.0369124 L3.98697837,4.0369124 L3.98697837,4.0369124 L3.98697837,0.996230735 C3.98697837,0.446027693 4.43300606,1.01070659e-16 4.98320911,0 C5.53341215,-1.01070659e-16 5.97943984,0.446027693 5.97943984,0.996230735 L5.97943984,4.0369124 L5.97943984,4.0369124 L9.0217686,4.0369124 C9.56203088,4.0369124 10,4.47488151 10,5.0151438 C10,5.55540608 9.56203088,5.9933752 9.0217686,5.9933752 L5.97943984,5.9933752 L5.97943984,5.9933752 L5.97943984,9.00376926 C5.97943984,9.55397231 5.53341215,10 4.98320911,10 C4.43300606,10 3.98697837,9.55397231 3.98697837,9.00376926 Z" id="Path"></path>
                </g>
            </g>
        </g>
    </g>
</svg>