<?xml version="1.0" encoding="UTF-8"?>
<svg width="32px" height="25px" viewBox="0 0 32 25" version="1.1" xmlns="http://www.w3.org/2000/svg" xmlns:xlink="http://www.w3.org/1999/xlink">
    <title>Icon </title>
    <g id="Page-1" stroke="none" stroke-width="1" fill="none" fill-rule="evenodd">
        <g id="Momotaro-home-Copy-61" transform="translate(-171.000000, -110.000000)" fill="#2D3142" fill-rule="nonzero">
            <g id="Group-5" transform="translate(187.000000, 122.292893) scale(1, -1) translate(-187.000000, -122.292893) translate(157.000000, 92.292893)">
                <g id="Icon-" transform="translate(29.707107, 30.000000) rotate(-270.000000) translate(-29.707107, -30.000000) translate(17.707107, 14.585786)">
                    <g id="Group" transform="translate(0.000000, 3.000000)">
                        <path d="M23.4683713,0.54983246 C23.1282438,0.209006865 22.6665128,0.0174742455 22.185006,0.0174742455 C21.7034992,0.0174742455 21.2417681,0.209006865 20.9016406,0.54983246 L12,9.43326929 L3.09835942,0.531628696 C2.63985714,0.0731264013 1.9715755,-0.105939132 1.34524972,0.0618843495 C0.718923949,0.229707831 0.229707831,0.718923949 0.0618843495,1.34524972 C-0.105939132,1.9715755 0.0731264013,2.63985714 0.531628696,3.09835942 L9.43326929,12 L0.531628696,20.9016406 C0.0731264127,21.3601429 -0.105939112,22.0284245 0.061884371,22.6547503 C0.229707854,23.2810761 0.718923966,23.7702922 1.34524973,23.9381156 C1.9715755,24.1059391 2.63985714,23.9268736 3.09835942,23.4683713 L12,14.5667307 L20.9016406,23.4683713 C21.3601429,23.9268736 22.0284245,24.1059391 22.6547503,23.9381156 C23.2810761,23.7702922 23.7702922,23.2810761 23.9381156,22.6547503 C24.1059391,22.0284245 23.9268736,21.3601429 23.4683713,20.9016406 L14.5667307,12 L23.4683713,3.09835942 C24.1601144,2.40661639 24.1601144,1.24157549 23.4683713,0.54983246 Z" id="Path"></path>
                    </g>
                </g>
            </g>
        </g>
    </g>
</svg>