<?xml version="1.0" encoding="UTF-8"?>
<svg width="56px" height="56px" viewBox="0 0 24 24" version="1.1" xmlns="http://www.w3.org/2000/svg" xmlns:xlink="http://www.w3.org/1999/xlink">
    <title>Group</title>
    <g id="CLient-Landing" stroke="none" stroke-width="1" fill="none" fill-rule="evenodd">
        <g id="Momotaro-home-Copy-71" transform="translate(-326.000000, -462.000000)">
            <g id="Group" transform="translate(326.000000, 462.000000)">
                <rect id="Rectangle" x="0" y="0" width="24" height="24"></rect>
                <path d="M19.83,5.31818182 L16.32,5.31818182 L16.32,4.17272727 C16.3146518,2.69879505 15.0955165,1.50523604 13.59,1.5 L8.91,1.5 C7.40448351,1.50523604 6.18534824,2.69879505 6.18,4.17272727 L6.18,5.31818182 L2.67,5.31818182 C2.02382684,5.31818182 1.5,5.83101929 1.5,6.46363636 C1.5,7.09625344 2.02382684,7.60909091 2.67,7.60909091 L3.06,7.60909091 L3.06,20.5909091 C3.06533379,21.6431003 3.93526182,22.4947781 5.01,22.5 L17.49,22.5 C18.5647382,22.4947781 19.4346662,21.6431003 19.44,20.5909091 L19.44,7.60909091 L19.83,7.60909091 C20.4761732,7.60909091 21,7.09625344 21,6.46363636 C21,5.83101929 20.4761732,5.31818182 19.83,5.31818182 Z M8.52,4.17272727 C8.52,3.96185491 8.69460895,3.79090909 8.91,3.79090909 L13.59,3.79090909 C13.8053911,3.79090909 13.98,3.96185491 13.98,4.17272727 L13.98,5.31818182 L8.52,5.31818182 L8.52,4.17272727 Z M17.1,20.2090909 L5.4,20.2090909 L5.4,7.60909091 L17.1,7.60909091 L17.1,20.2090909 Z M10.08,10.6636364 L10.08,16.7727273 C10.08,17.4053443 9.55617316,17.9181818 8.91,17.9181818 C8.26382684,17.9181818 7.74,17.4053443 7.74,16.7727273 L7.74,10.6636364 C7.74,10.0310193 8.26382684,9.51818182 8.91,9.51818182 C9.55617316,9.51818182 10.08,10.0310193 10.08,10.6636364 Z M14.76,10.6636364 L14.76,16.7727273 C14.76,17.4053443 14.2361732,17.9181818 13.59,17.9181818 C12.9438268,17.9181818 12.42,17.4053443 12.42,16.7727273 L12.42,10.6636364 C12.42,10.0310193 12.9438268,9.51818182 13.59,9.51818182 C14.2361732,9.51818182 14.76,10.0310193 14.76,10.6636364 Z" id="Shape" fill="#FFFFFF" fill-rule="nonzero"></path>
            </g>
        </g>
    </g>
</svg>