<?xml version="1.0" encoding="UTF-8"?>
<svg width="268px" height="155px" viewBox="0 0 268 155" version="1.1" xmlns="http://www.w3.org/2000/svg" xmlns:xlink="http://www.w3.org/1999/xlink">
    <title>D06E05E7-E951-40B1-92F1-2B6C911595D8</title>
    <g id="Finbal_Final" stroke="none" stroke-width="1" fill="none" fill-rule="evenodd">
        <g id="Momotaro-home-Copy-89-(1)" transform="translate(-54.000000, -179.000000)" fill-rule="nonzero">
            <g id="10_wrong_paid" transform="translate(54.000000, 179.000000)">
                <g id="Group" fill="#000000">
                    <path d="M238.719479,88.2072905 C236.926101,86.7567105 192.302641,56.7956402 169.226088,42.2898404 C163.186624,38.4919582 158.017476,34.0874699 151.87252,30.4214587 C150.000023,29.3928656 150.026396,29.0763754 148.760482,29.3137431 C126.290513,33.5863605 103.820543,37.8589779 81.350574,42.1315953 C74.9155123,43.3448076 68.4804507,44.5843942 62.0717623,45.8503549 C61.2278197,46.0086 60.8585949,46.6415803 60.8849681,47.3009349 C60.6476093,47.8811669 60.7267289,48.5141472 61.2805662,48.9625083 C85.3065545,68.0310416 109.095184,87.3896908 132.409096,107.328572 C138.976024,112.946273 145.516578,118.643096 152.030759,124.339919 C152.399984,124.656409 152.795582,124.814654 153.19118,124.814654 C153.639525,125.131145 154.246108,125.210267 154.879065,124.893777 C162.685533,120.884901 170.597495,117.087019 178.588575,113.579253 C180.461073,120.383792 186.104938,126.027867 193.014717,127.636692 C201.058545,129.509259 209.023252,126.212486 214.007787,119.777186 C215.273701,118.168361 216.355003,116.427665 217.330811,114.607846 C221.497777,117.377135 228.935021,118.722219 230.728398,113.500131 C231.651461,110.862712 230.41192,108.119798 228.249317,106.537347 C225.71749,104.691154 222.157107,104.453786 219.150562,104.98127 C218.649471,105.060392 218.332993,105.324134 218.14838,105.666999 C217.911022,105.79887 217.700036,105.983489 217.56817,106.273605 C216.82972,107.750559 216.117644,109.253887 215.379194,110.730842 C215.220955,110.915461 215.115462,111.152828 215.036342,111.390196 C213.875921,113.711124 212.610008,115.979304 210.948496,117.983741 C208.152936,121.438759 204.434315,123.812436 200.003616,124.47179 C191.616938,125.737751 183.915962,120.251921 181.621494,112.23417 C188.742259,109.174765 195.942143,106.326353 203.24752,103.715309 C204.6453,106.827463 207.124381,109.834119 209.893568,111.522067 C211.423213,112.445163 213.242965,110.256106 211.871558,108.990146 C210.579271,107.776933 209.234238,106.669218 208.126563,105.271386 C207.467233,104.427412 206.939769,103.53069 206.465051,102.581219 C210.500151,101.183388 214.535251,99.8910529 218.623098,98.6514664 C224.873547,96.7525253 231.176743,94.9063326 237.532685,93.4293784 C239.985393,92.8755206 239.326063,88.6820257 238.719479,88.2072905 Z M220.337356,108.119798 C222.051614,108.19892 223.765873,108.067049 225.401011,108.8319 C226.719671,109.438507 228.143824,110.889087 227.431748,112.497912 C226.719671,114.080363 223.976858,113.447382 222.710945,113.104518 C221.286792,112.735279 220.126371,112.049551 218.96595,111.337448 C219.467041,110.256106 219.915385,109.174765 220.337356,108.119798 Z M121.569709,93.2711333 C119.143375,91.4249406 116.743413,89.5523737 114.501691,87.4951876 C113.156657,86.2819752 115.002782,83.9082989 116.453308,84.9896403 C118.906016,86.7830847 121.226858,88.7875225 123.494953,90.7919603 C124.813613,91.9787984 122.967489,94.3524748 121.569709,93.2711333 Z M151.661534,118.590348 C147.230836,115.029833 143.037497,111.179203 138.765038,107.460443 C134.466206,103.741683 130.193747,99.9965496 125.894915,96.2514158 C124.312522,94.8799584 126.211393,92.2161661 127.820159,93.5876235 C132.118991,97.3063831 136.417823,101.025143 140.716655,104.743902 C145.015487,108.462662 149.419812,112.075925 153.560405,115.952929 C155.010931,117.350761 153.296673,119.909057 151.661534,118.590348 Z M224.346083,90.2908508 C218.464859,91.8469275 212.583634,93.508501 206.649664,94.959081 C206.227692,95.1964486 205.673855,95.1964486 205.120018,94.82721 C199.238793,90.7919603 193.515808,86.4929687 187.740077,82.2994738 C167.43271,67.6354289 147.046224,53.0768806 126.870723,38.2282164 C125.578436,37.2787459 126.264139,35.3534306 127.477307,35.1424372 C127.556426,35.116063 127.635546,35.0896888 127.714666,35.0633146 C131.169555,34.3775859 134.598072,33.6391088 138.079335,33.0588768 C138.606799,32.9797543 139.055143,33.085251 139.397995,33.3489928 C139.60898,33.375367 139.819966,33.4544896 140.057325,33.5863605 C145.85943,37.1996233 151.582415,40.9183829 157.331773,44.5843942 C177.56002,57.5341173 197.788267,70.5102146 218.042888,83.4599378 C220.337356,84.5676534 222.552705,85.8863625 224.794428,87.0468265 C226.139461,87.7853036 225.743863,89.9216123 224.346083,90.2908508 Z" id="Shape"></path>
                    <path d="M249.084148,95.987674 C247.607249,94.088733 245.3919,92.9546432 243.018311,92.8491464 C242.939192,92.8491464 242.860072,92.8491464 242.780952,92.8491464 C242.411728,92.7436497 241.989756,92.7700239 241.515039,93.0337657 C238.350254,94.7217133 236.978848,98.4932213 236.58325,101.869117 C236.134905,105.877992 237.110714,110.176984 235.633814,114.027614 C234.499767,117.034271 231.756953,119.355199 228.644915,120.067302 C225.216399,120.832153 221.998868,119.513444 219.440667,117.298013 C217.884648,115.952929 215.827538,117.983741 217.172572,119.566192 C222.104361,125.421261 231.73058,124.709158 236.477757,119.091457 C239.115077,115.979304 239.827154,112.23417 239.827154,108.251668 C239.827154,106.352727 239.721661,104.295541 239.932646,102.370226 C241.119441,103.187826 242.490847,103.715309 243.888627,103.952677 C245.945737,104.295541 248.556684,104.110922 249.875344,102.238355 C251.246751,100.260291 250.402808,97.7019958 249.084148,95.987674 Z M246.842426,100.444911 C245.998483,100.972394 244.363345,100.603156 243.493029,100.339414 C242.438101,99.9965496 241.673278,99.4163176 240.882082,98.7305889 C241.356799,97.7547442 242.01613,96.858022 242.965565,96.0931708 C242.965565,96.0931708 242.991938,96.0931708 242.991938,96.0931708 C244.178732,96.2514158 245.31278,96.8052737 246.130349,97.6756217 C246.684187,98.2558536 247.844607,99.8119304 246.842426,100.444911 Z" id="Shape"></path>
                    <path d="M265.488281,131.909309 C247.659995,142.379859 227.589987,148.920656 207.018889,150.766849 C186.948881,152.560293 166.69426,149.870127 147.7583,142.933717 C129.297058,136.181927 112.339088,125.447635 98.3085438,111.627564 C84.8845833,98.4140987 74.0715698,82.8533316 63.0211976,67.661803 C52.0235717,52.5230228 40.6303478,37.3842426 26.1778323,25.3576158 C25.3338898,24.6455129 24.4635741,23.93341 23.5668852,23.2476813 C35.988664,20.2146504 48.5159357,17.6563548 61.2278197,15.8629105 C76.8935026,13.6474792 92.6910515,12.4078927 108.4886,12.1441509 C111.917117,14.8606916 115.24014,17.7354774 118.404925,20.7948824 C119.987317,22.3245849 121.543336,23.8806617 123.046609,25.4894867 C124.549881,27.0983118 125.921288,28.865382 127.477307,30.3950845 C128.769594,31.6610452 131.195929,29.9994718 130.061881,28.4170209 C127.477307,24.7510096 123.996044,21.5069853 120.778513,18.4212061 C118.484044,16.232149 116.110456,14.1222145 113.657748,12.0914025 C116.400561,12.0914025 119.143375,12.0914025 121.886188,12.1441509 C133.279412,12.3287701 144.672636,13.0144989 156.013113,14.2540854 C158.149342,14.491453 158.175716,11.0891836 156.039486,10.8781901 C135.811239,8.7946298 115.451126,8.21439781 95.1173862,9.26936507 C74.7572731,10.3243323 54.4762797,12.9881247 34.5117646,17.2079937 C23.27678,19.5816701 12.0681685,22.3509591 1.12328905,25.9114736 C-0.828328008,26.544454 -0.0371319036,29.6038591 1.96723156,29.0236271 C7.79570953,27.3620536 13.5978143,25.7796027 19.4526655,24.2762744 C34.432645,35.7754175 46.3005866,50.7823268 57.4037052,65.9474812 C68.6386899,81.2972549 79.3725837,97.1745122 92.5328123,110.968209 C106.273251,125.342138 122.80925,136.656662 141.138626,144.2788 C159.837228,152.059184 180.197341,155.725195 200.425588,154.881221 C221.234045,154.010873 241.910637,148.551418 260.319133,138.792971 C262.639975,137.553384 264.90807,136.261049 267.149792,134.889592 C269.075036,133.755502 267.387151,130.801594 265.488281,131.909309 Z" id="Path"></path>
                    <path d="M210.843003,13.911221 C209.919941,13.040873 208.83864,12.2760218 207.810085,11.5375447 C208.574908,10.851816 209.366104,10.1660872 209.999061,9.34848762 C211.027615,8.00340436 209.128745,6.57919855 207.889204,7.18580473 C206.834276,7.71328836 205.884841,8.58363635 205.014525,9.48035852 C204.117836,8.82100399 203.194774,8.13527527 202.271712,7.52866909 C200.794812,6.55282437 198.922315,8.87375235 200.320095,10.0342163 C201.111291,10.6935709 201.92886,11.3265512 202.74643,11.9331574 C201.92886,12.8826279 201.137664,13.8848468 200.372841,14.8870657 C199.106927,16.6013875 201.92886,18.2102126 203.194774,16.5750134 C203.880477,15.6782912 204.6453,14.781569 205.410123,13.9375952 C206.544171,14.8079432 207.678219,15.7310396 208.917759,16.4431425 C210.421032,17.3398646 212.21441,15.1771817 210.843003,13.911221 Z" id="Path"></path>
                    <path d="M60.8849681,120.383792 C59.961906,119.513444 58.8806046,118.748593 57.8520497,118.010116 C58.6168726,117.324387 59.4080687,116.638658 60.0410256,115.821059 C61.0695805,114.475975 59.1707099,113.05177 57.9311693,113.658376 C56.8762412,114.185859 55.9268059,115.056207 55.0564901,115.952929 C54.1598012,115.293575 53.2367391,114.607846 52.313677,114.00124 C50.8367776,113.025395 48.9642801,115.346323 50.3620599,116.506787 C51.153256,117.166142 51.9708253,117.799122 52.7883946,118.405728 C51.9708253,119.355199 51.1796292,120.357418 50.4148063,121.359637 C49.1488926,123.073958 51.9708253,124.682784 53.2367391,123.047584 C53.9224424,122.150862 54.6872653,121.25414 55.4520882,120.410166 C56.5861359,121.280514 57.7201837,122.203611 58.9597243,122.915713 C60.4629968,123.812436 62.2563747,121.649753 60.8849681,120.383792 Z" id="Path"></path>
                    <path d="M35.1710947,6.86931455 C34.2480326,5.99896656 33.1667313,5.23411529 32.1381763,4.49563821 C32.9029992,3.80990949 33.6941953,3.12418077 34.3271522,2.30658114 C35.3557071,0.961497881 33.4568365,-0.462707923 32.2172959,0.143898253 C31.1623678,0.671381884 30.2129325,1.54172988 29.3426168,2.43845205 C28.4459278,1.77909751 27.5228657,1.09336879 26.5998036,0.486762613 C25.1229042,-0.489082104 23.2504068,1.83184587 24.6481865,2.99230986 C25.4393826,3.6516644 26.256952,4.28464476 27.0745213,4.89125093 C26.256952,5.84072147 25.4657558,6.84294037 24.7009329,7.84515927 C23.4350192,9.55948107 26.256952,11.1683061 27.5228657,9.53310689 C28.208569,8.63638471 28.9733919,7.73966254 29.7382148,6.89568873 C30.8722626,7.76603672 32.0063103,8.68913308 33.2458509,9.40123598 C34.7491235,10.2979582 36.5425013,8.13527527 35.1710947,6.86931455 Z" id="Path"></path>
                </g>
                <g id="Group" transform="translate(50.154861, 17.198304)" fill="#8276EE">
                    <path d="M137.796202,81.2949177 C130.253465,75.0442367 109.866979,58.6922442 108.020855,58.3230056 C105.937372,57.9010187 91.7222151,63.0176099 87.0014117,64.4418157 C85.7354979,64.8110543 85.9464836,65.8396474 87.1069045,66.8418663 C88.5574307,68.0550786 106.464836,83.510349 114.060318,91.2907326 C114.508663,91.7654678 114.957007,92.8468093 116.275668,92.1083322 C122.130519,88.7588111 128.460088,86.0422704 134.763283,83.5367232 C135.712719,83.1674846 138.77201,82.1125174 137.796202,81.2949177 Z" id="Path"></path>
                    <path d="M122.236012,19.8958231 C121.761294,17.8122627 120.732739,15.8078249 119.414079,14.1198773 C116.644892,10.585737 112.557046,8.39667992 108.521946,6.60323558 C103.985755,4.59879778 99.2649513,2.9899727 94.4386551,1.90863126 C92.1178132,1.38114763 89.7705981,0.985534904 87.423383,0.695418906 C84.8915554,0.378928728 82.2278619,-0.0166839956 79.6960343,0.194309457 C77.5070585,0.378928728 77.5598049,3.2800887 79.6696611,3.5702047 C81.858637,3.86032069 84.1003593,3.86032069 86.3157084,4.09768833 C88.4519379,4.33505596 90.5881674,4.67792032 92.6980237,5.12628141 C96.9441094,6.02300358 101.111076,7.2889643 105.146176,8.92416355 C110.869161,11.2450915 119.282213,15.4913348 119.282213,22.5068671 C119.044854,24.6431758 117.805313,26.7531103 115.484471,28.7311739 C108.864797,34.3752488 95.599076,38.0148858 79.6169147,39.5709625 C62.7116913,41.232536 44.8306594,40.8105491 29.6660674,37.9093891 C17.7717526,35.6412095 9.06859547,31.8697015 5.64007902,27.0959746 C5.58733261,27.0168521 5.5609594,26.9377296 5.48183979,26.8322328 C5.21810776,26.4629943 5.00712213,26.1201299 4.82250971,25.7508914 C4.7961365,25.698143 4.7697633,25.6453947 4.7433901,25.5926463 C2.95001226,21.6365191 5.74557183,17.1792824 9.12134187,14.8319802 C13.5784133,11.7725752 19.1695324,10.005505 24.2859339,8.39667992 C35.3363061,4.91528796 46.8350228,3.2800887 58.4128592,3.43833379 C60.601835,3.46470797 60.6282082,0.0624385491 58.4392324,0.00969018597 C48.2591758,-0.122180722 38.0791193,1.09103163 28.2419144,3.7020756 C23.3101253,4.9944105 18.5102023,6.65598394 13.8157721,8.63404756 C9.75429876,10.3483694 5.61370581,12.4319297 3.00275867,16.1770635 C2.39617499,17.0474115 1.92145733,17.9705078 1.57860568,18.9199784 C0.813782781,20.1331907 0.312691915,21.3727772 0.101706287,22.638738 C-0.847729037,28.5729288 4.87525611,34.0851328 16.2157336,37.9093891 C29.7979334,42.4984967 48.285549,44.1336959 67.1951359,43.4743414 C86.6321869,42.8149869 104.460472,39.6500851 114.877888,33.4521524 C121.629428,29.469651 124.214002,24.6431758 122.236012,19.8958231 Z" id="Path"></path>
                    <path d="M75.5554414,28.4146837 C74.6323793,27.5443357 73.5510779,26.7794845 72.522523,26.0410074 C73.2873459,25.3552787 74.078542,24.6695499 74.7114989,23.8519503 C75.7400538,22.5068671 73.8411832,21.0826613 72.6016426,21.6892674 C71.5467145,22.2167511 70.5972792,23.087099 69.7269634,23.9838212 C68.8302745,23.3244667 67.9072124,22.638738 66.9841503,22.0321318 C65.5072509,21.0562871 63.6347534,23.377215 65.0325332,24.537679 C65.8237293,25.1970336 66.6412986,25.8300139 67.4588679,26.4366201 C66.6412986,27.3860906 65.8501025,28.3883095 65.0852796,29.3905284 C63.8193659,31.1048502 66.6412986,32.7136753 67.9072124,31.0784761 C68.5929157,30.1817539 69.3577386,29.2850317 70.1225615,28.4410579 C71.2566092,29.3114059 72.390657,30.2345023 73.6301976,30.9466052 C75.1334701,31.8433273 76.926848,29.7070186 75.5554414,28.4146837 Z" id="Path"></path>
                    <path d="M186.955853,41.390781 C186.032791,40.5204331 184.951489,39.7555818 183.922934,39.0171047 C184.687757,38.331376 185.478953,37.6456473 186.11191,36.8280476 C187.140465,35.4829644 185.241595,34.0587586 184.002054,34.6653648 C182.947126,35.1928484 181.997691,36.0631964 181.127375,36.9599185 C180.230686,36.300564 179.307624,35.6148353 178.384562,35.0082291 C176.907662,34.0323844 175.035165,36.3533124 176.432945,37.5137764 C177.224141,38.1731309 178.04171,38.8061113 178.859279,39.4127174 C178.04171,40.362188 177.250514,41.3644069 176.485691,42.3666258 C175.219777,44.0809476 178.04171,45.6897726 179.307624,44.0545734 C179.993327,43.1578512 180.75815,42.261129 181.522973,41.4171552 C182.657021,42.2875032 183.791068,43.2105996 185.030609,43.9227025 C186.533882,44.8194247 188.327259,42.6831159 186.955853,41.390781 Z" id="Path"></path>
                    <path d="M66.0610882,55.7910842 C65.138026,54.9207362 64.0567247,54.1558849 63.0281698,53.4174078 C63.7929927,52.7316791 64.5841888,52.0459504 65.2171456,51.2283508 C66.2457006,49.8832675 64.3468299,48.4590617 63.1072894,49.0656679 C62.0523612,49.5931515 61.1029259,50.4634995 60.2326102,51.3602217 C59.3359213,50.7008671 58.4128592,50.0151384 57.489797,49.4085322 C56.0128976,48.4326875 54.1404002,50.7536155 55.53818,51.9140795 C56.3293761,52.573434 57.1469454,53.2064144 57.9645147,53.8130206 C57.1469454,54.7624911 56.3557493,55.76471 55.5909264,56.7669289 C54.3250126,58.4812507 57.1469454,60.0900758 58.4128592,58.4548765 C59.0985624,57.5581543 59.8633853,56.6614322 60.6282082,55.8174584 C61.762256,56.6878064 62.8963037,57.6109027 64.1358443,58.3230056 C65.6391169,59.2197278 67.4061215,57.0570449 66.0610882,55.7910842 Z" id="Path"></path>
                    <path d="M41.929607,15.675954 C41.0065449,14.805606 39.9252435,14.0407548 38.8966886,13.3022777 C39.6615115,12.616549 40.4527076,11.9308203 41.0856645,11.1132206 C42.1142194,9.76813736 40.2153488,8.34393156 38.9758082,8.95053773 C37.9208801,9.47802137 36.9714447,10.3483694 36.101129,11.2450915 C35.2044401,10.585737 34.281378,9.90000827 33.3583159,9.29340209 C31.8814165,8.31755738 30.008919,10.6384854 31.4066988,11.7989493 C32.1978949,12.4583039 33.0154642,13.0912842 33.8330335,13.6978904 C33.0154642,14.647361 32.2242681,15.6495798 31.4594452,16.6517987 C30.1935314,18.3661206 33.0154642,19.9749456 34.281378,18.3397464 C34.9670813,17.4430242 35.7319042,16.546302 36.4967271,15.7023282 C37.6307748,16.5726762 38.7648226,17.4957726 40.0043631,18.2078755 C41.5076357,19.1045976 43.3010136,16.9419147 41.929607,15.675954 Z" id="Path"></path>
                </g>
            </g>
        </g>
    </g>
</svg>