<?xml version="1.0" encoding="UTF-8"?>
<svg width="22px" height="24px" viewBox="0 0 22 24" version="1.1" xmlns="http://www.w3.org/2000/svg" xmlns:xlink="http://www.w3.org/1999/xlink">
    <title>Icon</title>
    <g id="Finbal_Final" stroke="none" stroke-width="1" fill="none" fill-rule="evenodd">
        <g id="Customer-Landing-Page-Copy-55" transform="translate(-333.000000, -336.000000)" fill="#2D3142" fill-rule="nonzero" stroke="#FFFFFF" stroke-width="0.5">
            <g id="Group-6" transform="translate(0.000000, 316.000000)">
                <g id="Icon-3" transform="translate(313.000000, 1.000000)">
                    <g id="Icon" transform="translate(21.000000, 19.997060)">
                        <path d="M13.7494624,20.6283102 C13.7994552,20.9949271 13.6744731,21.3859851 13.3870144,21.6426169 C13.1534921,21.8714202 12.8364801,22 12.5058907,22 C12.1753013,22 11.8582893,21.8714202 11.624767,21.6426169 L6.61298564,16.7421712 C6.33666407,16.4780507 6.20256481,16.1027755 6.2505376,15.7278645 L6.2505376,9.47093626 L0.26389598,1.97973119 C-0.158621788,1.44937556 -0.0636862033,0.68492112 0.476365516,0.268852384 C0.713831467,0.0977645034 0.976293835,0 1.25125441,0 L18.7487456,0 C19.0237062,0 19.2861685,0.0977645034 19.5236345,0.268852384 C20.0636862,0.68492112 20.1586218,1.44937556 19.736104,1.97973119 L13.7494624,9.47093626 L13.7494624,20.6283102 M3.80088884,2.44411258 L8.7501792,8.62771742 L8.7501792,15.3734682 L11.2498208,17.8175807 L11.2498208,8.61549686 L16.1991112,2.44411258 L3.80088884,2.44411258 Z" id="Shape"></path>
                    </g>
                </g>
            </g>
        </g>
    </g>
</svg>