<?xml version="1.0" encoding="UTF-8"?>
<svg width="70px" height="70px" viewBox="0 0 70 70" version="1.1" xmlns="http://www.w3.org/2000/svg" xmlns:xlink="http://www.w3.org/1999/xlink">
    <title>A607B420-4F7C-4F33-9B48-D92B4BE5CEAF</title>
    <defs>
        <polygon id="path-1" points="0.00016091954 0.353738636 69.641954 0.353738636 69.641954 69.2043068 0.00016091954 69.2043068"></polygon>
    </defs>
    <g id="Bin" stroke="none" stroke-width="1" fill="none" fill-rule="evenodd">
        <g id="Customer-Landing-Page-Copy-126" transform="translate(-154.000000, -299.000000)">
            <g id="Group-2" transform="translate(53.000000, 223.000000)">
                <g id="Smile-Copy" transform="translate(101.000000, 76.442034)">
                    <g id="Group-3">
                        <mask id="mask-2" fill="white">
                            <use xlink:href="#path-1"></use>
                        </mask>
                        <g id="Clip-2"></g>
                        <path d="M69.6421149,34.778625 C69.6421149,53.792375 54.0530345,69.2043068 34.8207356,69.2043068 C15.5884368,69.2043068 0.00016091954,53.792375 0.00016091954,34.778625 C0.00016091954,15.7656705 15.5884368,0.353738636 34.8207356,0.353738636 C54.0530345,0.353738636 69.6421149,15.7656705 69.6421149,34.778625" id="Fill-1" fill="#CDB8FF" mask="url(#mask-2)"></path>
                    </g>
                    <path d="M57.8403563,30.3407045 C58.1984023,30.5610455 58.6747241,30.3104773 58.6747241,29.8912727 L58.6747241,29.8809318 C58.6747241,27.3696818 56.6165632,25.3333182 54.0756437,25.3333182 C51.5355287,25.3333182 49.4765632,27.3696818 49.4765632,29.8809318 L49.4765632,29.8912727 C49.4765632,30.3104773 49.9528851,30.5610455 50.3141494,30.3407045 C51.4075977,29.6725227 52.694954,29.2867273 54.0756437,29.2867273 C55.4563333,29.2867273 56.7444943,29.6725227 57.8403563,30.3407045" id="Fill-4" fill="#8C80F8"></path>
                    <path d="M19.328046,30.3407045 C19.6877011,30.5610455 20.1632184,30.3104773 20.1656322,29.8912727 L20.1656322,29.8809318 C20.1656322,27.3696818 18.1050575,25.3333182 15.5633333,25.3333182 C13.0232184,25.3333182 10.9642529,27.3696818 10.9642529,29.8809318 L10.9642529,29.8912727 C10.9650575,30.3104773 11.4405747,30.5610455 11.8018391,30.3407045 C12.8952874,29.6725227 14.1826437,29.2867273 15.5633333,29.2867273 C16.9456322,29.2867273 18.2337931,29.6725227 19.328046,30.3407045" id="Fill-6" fill="#8C80F8"></path>
                    <path d="M17.0156322,39.9941023 C15.9036782,40.366375 15.2696552,41.5643295 15.7017241,42.6453523 C18.2965517,49.1330795 25.8967816,54.5986477 34.8213793,54.5986477 C43.7427586,54.5986477 51.3454023,49.1330795 53.9402299,42.6453523 C54.3698851,41.5643295 53.7374713,40.366375 52.6263218,39.9941023 C41.8704598,36.3970568 27.7706897,36.3970568 17.0156322,39.9941023" id="Fill-8" fill="#8C80F8"></path>
                </g>
            </g>
        </g>
    </g>
</svg>