<?xml version="1.0" encoding="UTF-8"?>
<svg width="17px" height="17px" viewBox="0 0 17 17" version="1.1" xmlns="http://www.w3.org/2000/svg" xmlns:xlink="http://www.w3.org/1999/xlink">
    <title>icon1</title>
    <g id="Page-1" stroke="none" stroke-width="1" fill="none" fill-rule="evenodd">
        <g id="1-Agent-Landing-Page-Copy-10" transform="translate(-96.000000, -888.000000)" fill="#2D3142">
            <g id="Menu" transform="translate(0.000000, 845.039216)">
                <g id="icon1" transform="translate(96.000000, 43.421569)">
                    <path d="M16.9558824,1.29345238 L16.9558824,3.11488095 C16.9558824,3.78551243 16.3832165,4.32916667 15.6767974,4.32916667 L6.72320261,4.32916667 C6.01678349,4.32916667 5.44411765,3.78551243 5.44411765,3.11488095 L5.44411765,1.29345238 C5.44411765,0.622820899 6.01678349,0.0791666667 6.72320261,0.0791666667 L15.6767974,0.0791666667 C16.3832165,0.0791666667 16.9558824,0.622820899 16.9558824,1.29345238 Z M16.9558824,7.24345238 L16.9558824,9.06488095 C16.9558824,9.73551243 16.3832165,10.2791667 15.6767974,10.2791667 L6.72320261,10.2791667 C6.01678349,10.2791667 5.44411765,9.73551243 5.44411765,9.06488095 L5.44411765,7.24345238 C5.44411765,6.5728209 6.01678349,6.02916667 6.72320261,6.02916667 L15.6767974,6.02916667 C16.3832165,6.02916667 16.9558824,6.5728209 16.9558824,7.24345238 Z M16.9558824,13.1934524 L16.9558824,15.014881 C16.9558824,15.6855124 16.3832165,16.2291667 15.6767974,16.2291667 L6.72320261,16.2291667 C6.01678349,16.2291667 5.44411765,15.6855124 5.44411765,15.014881 L5.44411765,13.1934524 C5.44411765,12.5228209 6.01678349,11.9791667 6.72320261,11.9791667 L15.6767974,11.9791667 C16.3832165,11.9791667 16.9558824,12.5228209 16.9558824,13.1934524 Z M2.125,-7.10542736e-15 C3.29860509,-7.32101512e-15 4.25,0.951394907 4.25,2.125 L4.25,2.16666667 C4.25,3.34027176 3.29860509,4.29166667 2.125,4.29166667 C0.951394907,4.29166667 1.43725172e-16,3.34027176 0,2.16666667 L0,2.125 C-1.43725172e-16,0.951394907 0.951394907,-6.8898396e-15 2.125,-7.10542736e-15 Z M2.125,6.00833333 C3.29860509,6.00833333 4.25,6.95972824 4.25,8.13333333 L4.25,8.175 C4.25,9.34860509 3.29860509,10.3 2.125,10.3 C0.951394907,10.3 -3.00364038e-16,9.34860509 0,8.175 L0,8.13333333 C-1.43725172e-16,6.95972824 0.951394907,6.00833333 2.125,6.00833333 Z M2.125,12.0166667 C3.29860509,12.0166667 4.25,12.9680616 4.25,14.1416667 L4.25,14.1833333 C4.25,15.3569384 3.29860509,16.3083333 2.125,16.3083333 C0.951394907,16.3083333 -3.00364038e-16,15.3569384 0,14.1833333 L0,14.1416667 C-1.43725172e-16,12.9680616 0.951394907,12.0166667 2.125,12.0166667 Z" id="Shape"></path>
                </g>
            </g>
        </g>
    </g>
</svg>