<!-- Generated by IcoMoon.io -->
<svg version="1.1" xmlns="http://www.w3.org/2000/svg" width="32" height="32" viewBox="0 0 32 32">
<title>more</title>
<path d="M3.84 19.68c2.121 0 3.84-1.719 3.84-3.84s-1.719-3.84-3.84-3.84c-2.121 0-3.84 1.719-3.84 3.84s1.719 3.84 3.84 3.84zM16.64 19.68c2.121 0 3.84-1.719 3.84-3.84s-1.719-3.84-3.84-3.84c-2.121 0-3.84 1.719-3.84 3.84s1.719 3.84 3.84 3.84zM28.16 19.68c2.121 0 3.84-1.719 3.84-3.84s-1.719-3.84-3.84-3.84c-2.121 0-3.84 1.719-3.84 3.84s1.719 3.84 3.84 3.84z"></path>
</svg>
