<?xml version="1.0" encoding="UTF-8"?>
<svg width="188px" height="218px" viewBox="0 0 188 218" version="1.1" xmlns="http://www.w3.org/2000/svg" xmlns:xlink="http://www.w3.org/1999/xlink">
    <title>277858DF-5116-4BC9-8B68-26213B5E6642</title>
    <g id="Page-1" stroke="none" stroke-width="1" fill="none" fill-rule="evenodd">
        <g id="Momotaro-home-Copy-57" transform="translate(-93.000000, -482.000000)" fill-rule="nonzero">
            <g id="Group-2" transform="translate(88.000000, 482.000000)">
                <g id="08_nothing_not_found-copy" transform="translate(5.000000, 0.000000)">
                    <g id="Group">
                        <g transform="translate(26.101846, 49.953754)" id="Path">
                            <path d="M9.82768528,47.5033612 C8.1701326,48.906979 6.80084995,50.7964643 5.61173607,52.6139693 C4.4226222,54.4314743 3.44971084,56.374945 2.63895138,58.3903961 C1.84620879,60.4058471 1.26966873,62.4932786 0.909331191,64.6346954 C0.729162421,65.6964062 0.603044283,66.758117 0.548993652,67.8198279 C0.476926144,68.935524 0.350808005,70.1951809 0.693128667,71.292882 C0.999415576,72.3006075 2.6209345,72.4265732 2.87317078,71.292882 C3.0893733,70.2491662 2.98127204,69.1694603 3.03532267,68.1077495 C3.07135642,67.1540092 3.16144081,66.2182641 3.30557582,65.2825189 C3.61186273,63.2310777 4.15236904,61.2336217 4.85502724,59.290151 C5.53966857,57.4006656 6.44051241,55.5831606 7.52152503,53.8736262 C8.6385714,52.0921115 9.98983717,50.5805232 11.3230861,48.9789594 C12.1878962,47.9532387 10.8726641,46.6216014 9.82768528,47.5033612 Z" fill="#000000"></path>
                            <path d="M109.08266,1.957766 C107.497175,1.25595715 105.659454,0.968035567 103.965867,0.680113985 C102.21823,0.392192403 100.452576,0.176251217 98.6869224,0.0862757225 C95.227682,-0.0936752662 91.4621547,-0.0576850685 88.0929987,0.842069875 C87.030003,1.12999146 87.1921549,2.94749644 88.3632519,2.83952585 C90.0208046,2.69556506 91.6783573,2.40764348 93.3359099,2.29967288 C95.0114795,2.19170229 96.687049,2.17370719 98.3446017,2.26368269 C100.020171,2.35365818 101.713758,2.51561407 103.37131,2.80353565 C105.010846,3.09145723 106.632365,3.6493053 108.271901,3.88324158 C109.334897,4.04519747 110.289791,2.49761897 109.08266,1.957766 Z" fill="#000000"></path>
                            <path d="M121.280086,6.33057503 C119.496415,5.01693281 117.100171,4.17116317 114.974179,3.6493053 C113.676964,3.32539352 113.154475,5.232874 114.433673,5.64676127 C116.487597,6.29458483 118.307301,7.24832507 120.253124,8.11208982 C121.460255,8.65194278 122.343082,7.12235938 121.280086,6.33057503 Z" fill="#000000"></path>
                            <path d="M128.937259,123.856566 C127.820212,125.5661 126.865318,127.347615 125.64017,128.985169 C124.415023,130.622723 123.009706,132.116316 121.65844,133.627904 C120.73958,134.63563 122.108862,135.949272 123.135824,135.103503 C124.829411,133.71788 126.252744,132.026341 127.549959,130.280816 C128.829158,128.553287 130.090339,126.681796 130.865065,124.666345 C131.29747,123.496664 129.549833,122.902826 128.937259,123.856566 Z" fill="#000000"></path>
                            <path d="M117.532576,138.090689 C116.307428,139.044429 115.172365,140.124135 114.073335,141.203841 C113.100424,142.139586 114.541774,143.507214 115.532702,142.661444 C116.703799,141.671714 117.892913,140.627998 118.955909,139.512302 C119.856753,138.540566 118.523504,137.3169 117.532576,138.090689 Z" fill="#000000"></path>
                            <path d="M139.206879,75.5757155 C137.188988,63.842911 131.513672,52.5059987 122.595318,44.4981797 C118.829791,41.1151011 114.487723,38.3258608 109.821352,36.2744195 C107.623293,35.1947136 105.353167,34.2769636 103.010973,33.5571596 C99.6598337,32.531439 96.1645596,31.7756448 92.6692855,31.5776987 C92.5611842,31.5776987 92.453083,31.5776987 92.3629986,31.6136889 C91.9486104,31.5776987 91.5342222,31.5597036 91.1198341,31.5597036 C78.093632,31.253787 65.5538857,38.4338314 57.2661223,48.1151946 C52.8159537,53.3157782 49.3386964,59.4161167 47.35684,65.9663327 C47.3027893,66.1282886 47.3027893,66.2902445 47.3208062,66.4162102 C46.4920299,69.1514652 46.0776417,72.030681 46.1316923,74.9278919 C46.1677261,76.8353724 46.3839286,78.7788431 46.8163337,80.6863236 C46.7442661,80.7223138 46.762283,80.7223138 46.6902155,80.758304 C46.1136755,80.0564951 45.6452367,79.2467157 45.2668822,78.4189411 C44.7624097,77.303245 44.420089,76.1155684 44.1858696,74.9098968 C43.7714815,72.7684801 43.7354477,70.5910731 44.0057009,68.4316612 C44.9065447,61.107656 47.5189919,54.0895674 51.7349411,47.9172485 C52.8339706,46.3156847 54.0230844,44.7861013 55.3202996,43.3284983 C59.6984007,38.8297236 64.8332106,35.0687479 70.4184425,32.171537 C79.1386109,27.6547672 88.9037582,25.4773602 98.7229561,25.8912475 C108.866458,26.3051348 118.829791,29.4002918 127.423841,34.7988214 C128.504854,35.4826352 129.567849,36.2024392 130.612828,36.9582333 C131.513672,37.6060569 134.360339,36.5623411 132.360465,34.0970126 C124.505107,24.4516396 112.415783,19.2330609 100.236374,18.0093942 C87.8587793,16.7677324 74.9767123,19.2330609 63.8602992,24.7935465 C53.3384431,30.0661104 44.3840553,38.4158363 39.1951947,49.0509397 C34.1865029,59.3081461 32.2947308,72.030681 36.4205957,82.9177158 C38.3123677,87.9203533 41.6995406,92.7070496 46.762283,94.8484664 C51.1944348,96.7199567 57.0319029,96.7019616 60.9235483,93.6068045 C61.7162909,92.9769761 62.3829153,92.239177 62.9774723,91.4293976 C62.9774723,91.4293976 62.9954892,91.4293976 62.9954892,91.4293976 C63.1035904,91.4293976 63.1936748,91.4114025 63.3017761,91.3934074 C62.8153204,92.1132113 62.292831,92.7970251 61.698274,93.4448487 C58.5092868,96.9179027 54.1131688,98.8073881 49.4107639,98.8613734 C44.6362915,98.9153587 39.8438023,97.2238194 36.078275,94.2906183 C32.1686127,91.2494466 29.3579799,86.8586425 27.7724947,82.1979119 C24.1330856,71.5088231 26.9257015,59.8839893 32.0424946,50.1666359 C36.9430851,40.8451747 44.0417346,32.8553508 51.9871773,25.9992181 C60.7974302,18.4052864 70.6886956,12.1609871 80.5799611,6.09663875 C81.8231256,5.34084459 83.0482732,4.58505044 84.2914377,3.82925629 C84.3454883,3.79326609 84.399539,3.75727589 84.4355727,3.72128569 C85.4625347,3.23541802 84.8679778,1.48989343 83.6248133,1.74182482 C68.8149404,4.71101613 54.383422,10.7033841 42.2940975,19.8268992 C30.22279,28.9324192 20.8179802,41.1510913 15.9894572,55.5471704 C11.3230861,69.4933721 11.1068835,85.311064 17.3227061,98.8253832 C20.3855752,105.48357 25.2861657,111.601903 31.9343933,114.948992 C38.2403002,118.116129 45.6632535,118.763953 52.473633,116.964443 C59.2299619,115.182928 65.0133794,110.900095 68.6888223,104.979707 C72.3102145,99.1312999 73.7875984,92.0412309 72.7966702,85.2390836 C72.688569,84.5192796 72.5444339,83.7994757 72.382282,83.0976668 C75.0487798,85.0411375 75.9676406,88.7301328 76.0757418,92.0052407 C76.2198768,96.2700792 75.2289486,100.588903 73.3371765,104.421859 C69.5716492,112.105766 62.6711854,117.612266 54.9419452,120.97735 C46.7262493,124.558375 36.961102,126.231919 28.4030854,122.920821 C21.142284,120.113585 15.4849846,114.067232 11.7014405,107.409045 C6.54861368,98.3575107 4.60279097,87.9563435 2.63895138,77.861093 C2.40473198,76.6914116 0.85528056,76.9613381 0.585027406,77.9150783 C0.476926144,78.0590391 0.404858636,78.2569852 0.368824882,78.4729264 C-0.730204611,90.7995691 0.44089239,103.72005 6.42249554,114.769041 C9.08899333,119.681703 12.6923687,124.036517 17.1245204,127.43759 C21.3404696,130.658713 26.2410602,132.962086 31.3578532,134.311718 C41.7535912,137.028978 52.761903,135.643356 62.2748141,130.694703 C71.7697082,125.746051 79.8412691,117.41432 84.1833364,107.588996 C86.5615642,102.208462 87.6786106,96.1441135 85.9670073,90.3856819 C84.399539,85.1491081 80.3637585,80.6863236 74.9406786,79.3906764 C74.4722398,79.2827058 74.003801,79.1927304 73.5353622,79.1387451 C76.3820287,78.2749803 80.0754885,79.6426078 82.4356994,81.3341471 C85.9129566,83.8174708 87.9488637,87.7943876 88.9037582,91.8252898 C90.9576822,100.462937 88.8497076,110.720144 85.6787372,119.033879 C82.9942226,126.069963 78.4179358,132.404238 72.5624508,137.154944 C65.9862907,142.481493 57.8426623,145.270733 49.4287808,145.594645 C38.6006378,146.008532 28.0787816,142.571469 18.4757862,137.802767 C17.628993,137.38888 16.8722842,138.126679 16.9083179,138.828488 C16.8722842,139.044429 16.9263348,139.26037 17.0884867,139.476312 C20.7278958,144.263008 26.0969252,148.059974 31.4839714,150.633273 C35.6819037,152.648724 41.7175575,153.962366 44.1858696,154.592195 C54.7257426,157.255469 65.9142232,155.258013 75.4992018,150.273371 C85.2823659,145.180758 92.9935893,136.795042 97.9302136,127.023703 C103.02899,116.928453 105.425234,105.465575 105.082914,94.1826477 C104.75861,82.8457354 100.542661,70.1591907 89.7865852,64.6167003 C84.831944,62.0613962 78.7242227,61.3056021 73.4632947,63.4110286 C68.8329573,65.2645238 64.9953625,69.2054505 63.6440967,74.0461321 C63.4999617,74.5679899 63.3918604,75.0898478 63.3017761,75.6117057 C62.9234216,73.5062791 63.2297086,71.3828574 64.0224511,69.4393868 C67.8059953,64.1128375 73.8236322,60.4418373 80.4538429,59.9379746 C84.8139271,59.6140628 89.2100451,60.5318128 93.0476399,62.6192443 C96.7230828,64.6346954 99.7138844,67.6758671 101.947977,71.2209016 C106.740466,78.7968382 108.50612,88.1902798 108.650255,97.0438684 C108.812407,106.653251 106.830551,116.316619 102.74072,125.044242 C98.5247705,134.023797 92.2368804,141.995625 84.6157415,148.347895 C83.8410158,148.995719 84.5977246,150.273371 85.4445178,150.219386 C85.6787372,150.291366 85.9489904,150.273371 86.2192435,150.147405 C87.7326612,149.445596 89.1920282,148.671807 90.6153615,147.826037 C100.20034,143.003351 108.1638,135.427414 113.911183,126.37588 C120.253124,116.3886 123.820466,104.52983 123.514179,92.6710594 C123.189875,80.4523873 118.541521,68.3596808 109.262829,60.1539158 C100.416543,52.3080526 87.8227456,48.9429692 76.3820287,52.6139693 C65.6439701,56.0690283 57.4462911,65.7323964 56.725616,77.123294 C56.6715653,78.1130244 56.6715653,79.1027549 56.7616497,80.0924853 C55.5365021,77.2852499 55.1040971,74.1361076 55.410384,71.0769408 C55.9148565,66.1462837 58.473253,61.5755286 61.8243922,57.9945039 C68.3465016,51.0483957 77.8954464,47.6653171 87.318273,47.7193024 C96.8131672,47.7912828 105.893673,51.4262928 113.118441,57.5446264 C120.415276,63.7349404 125.748272,72.0666712 128.685023,81.1541961 C132.180297,91.9692506 132.378482,103.522104 130.666879,114.69706 C130.450676,116.100678 130.234474,117.504296 129.964221,118.889918 C129.892153,119.24982 129.982238,119.537742 130.14439,119.771678 C130.108356,119.879649 130.090339,120.005615 130.054305,120.113585 C129.748018,121.427227 131.58574,121.8951 132.054178,120.671433 C132.846921,118.601997 133.495529,116.46058 134.126119,114.337158 C139.405064,102.172472 141.458988,88.6401573 139.206879,75.5757155 Z" fill="#F4F6FA"></path>
                            <path d="M15.4669678,135.031522 C13.3049425,133.124042 11.4311873,131.03661 9.68355026,128.751233 C8.90882456,127.743507 7.16118749,128.643262 7.89987945,129.794948 C9.52139837,132.332257 11.6473899,134.59964 13.9895839,136.50712 C15.0165458,137.3169 16.4939298,135.931277 15.4669678,135.031522 Z" fill="#000000"></path>
                            <path d="M6.27836052,125.49412 C5.71983734,124.756321 5.14329727,124.000527 4.53072346,123.298718 C3.77401463,122.434953 2.27861384,123.568644 2.92722141,124.54038 C3.44971084,125.314169 4.0262509,126.051968 4.60279097,126.789767 C4.92709475,127.203654 5.62975295,127.167664 6.00810737,126.879742 C6.36844491,126.573826 6.60266431,125.926002 6.27836052,125.49412 Z" fill="#000000"></path>
                            <path d="M139.855486,46.7115769 C138.756457,43.7963709 137.29709,40.8811649 135.279199,38.4878167 C134.522491,37.5880618 132.991056,38.7577432 133.639664,39.7474736 C135.261183,42.2128022 136.7746,44.6601356 137.783545,47.4313808 C138.810507,50.2026261 139.332997,53.0458517 139.657301,55.9610577 C139.801436,57.2746999 141.801309,57.3466803 141.765275,55.9610577 C141.711225,52.8299105 140.954516,49.644778 139.855486,46.7115769 Z" fill="#000000"></path>
                            <path d="M80.4538429,151.784959 C78.4359527,152.936646 76.4721131,154.124322 74.4001723,155.150043 C72.3102145,156.193758 70.1662062,157.075518 68.0041809,157.975273 C66.7970502,158.479136 67.2474721,160.422607 68.5627041,159.990724 C73.0489065,158.497131 77.6071764,156.265739 81.4808049,153.530484 C82.5257838,152.792685 81.606923,151.119141 80.4538429,151.784959 Z" fill="#000000"></path>
                        </g>
                        <path d="M178.749315,78.8861731 C168.894083,76.2948788 159.182987,73.1457365 149.453873,70.1225599 C148.931384,70.7523884 148.354844,71.3462267 147.74227,71.9040747 C147.472017,72.138011 147.50805,72.497913 147.670202,72.7678395 C147.832354,73.1637316 164.750202,78.2203544 173.019948,80.685683 C175.380159,81.3874918 177.758387,82.1072958 180.118598,82.7731144 C180.262733,82.8091046 180.388851,82.8091046 180.496952,82.7731144 C182.01037,82.5571732 183.487754,81.5134575 184.532732,80.4517467 C182.622944,79.965879 180.695138,79.3900358 178.749315,78.8861731 Z" id="Path" fill="#FF9B90"></path>
                        <path d="M187.037078,73.4516532 C184.496699,72.7138542 181.938302,72.0840257 179.379906,71.4541972 C170.245349,69.222805 161.128809,66.9014372 152.06632,64.3821234 C151.958219,64.9579666 151.832101,65.5338097 151.669949,66.0736627 C151.345645,67.2073539 150.841173,68.2150794 150.210582,69.1508246 C151.868135,69.6726825 153.543704,70.1945403 155.201257,70.7163982 C160.714421,72.4439277 166.245602,74.1714572 171.7948,75.773021 C174.551383,76.5648053 177.325982,77.3205995 180.082564,78.0583985 C181.866235,78.5442662 183.631889,79.048129 185.415559,79.4980064 C186.172268,78.4722858 186.712775,77.3026044 186.946994,76.0609426 C187.091129,75.1791827 187.127163,74.2974229 187.037078,73.4516532 Z" id="Path" fill="#FF9B90"></path>
                        <path d="M151.742016,59.5954271 C152.192438,60.7471134 152.318556,61.9707801 152.228472,63.212442 C152.64286,63.3204126 153.039232,63.4463782 153.45362,63.5543488 C159.525307,65.2458881 165.615012,66.8294568 171.74075,68.3590402 C176.767458,69.6186972 181.848218,70.7343933 186.838893,72.1740012 C186.766825,71.8860796 186.676741,71.6161531 186.56864,71.3282316 C186.28037,70.5724374 185.938049,69.8706285 185.46961,69.222805 C184.983154,68.5569863 184.406614,67.8011922 183.613872,67.5492608 C183.45172,67.4952755 151.327628,58.5517114 151.742016,59.5954271 Z" id="Path" fill="#FF9B90"></path>
                        <path d="M145.346025,61.5388978 C145.364042,63.6443243 144.373114,65.8937117 143.147966,67.5492608 C142.769612,67.9811432 142.697544,68.2510696 143.057882,68.5929765 C144.030793,69.5287217 145.075772,70.6264227 146.102734,71.5261776 C146.499105,71.9040747 146.769358,72.138011 147.16573,71.7421188 C149.832227,69.042854 152.030286,64.4541038 150.895223,60.5311722 C150.354717,58.6956721 146.571173,60.2792408 145.940582,60.5311722 C145.165856,60.8370889 145.346025,61.394937 145.346025,61.5388978 Z" id="Path" fill="#FF9B90"></path>
                        <path d="M139.526574,63.8422704 C140.535519,65.2818783 141.094042,65.9836872 141.850751,67.0274029 C141.958852,67.1713637 142.265139,67.2973294 142.859696,66.5235402 C143.868641,65.2458881 144.445181,63.6803145 144.535266,62.0607556 C144.553283,61.6288733 144.228979,61.1430056 143.742523,61.2509762 C142.337207,61.5388978 141.364295,61.8987997 140.031046,62.4206576 C139.418473,62.672589 139.20227,63.3743979 139.526574,63.8422704 Z" id="Path" fill="#FF9B90"></path>
                        <path d="M8.32379715,77.728537 C3.72949353,77.728537 0,74.0035515 0,69.4148013 C0,64.8260511 3.72949353,61.1010656 8.32379715,61.1010656 C12.9181008,61.1010656 16.6475943,64.8260511 16.6475943,69.4148013 C16.6475943,74.0035515 12.9181008,77.728537 8.32379715,77.728537 Z M8.32379715,64.808056 C5.7834175,64.808056 3.71147665,66.8774923 3.71147665,69.4148013 C3.71147665,71.9521102 5.7834175,74.0215466 8.32379715,74.0215466 C10.8641768,74.0215466 12.9361176,71.9521102 12.9361176,69.4148013 C12.9361176,66.8774923 10.8821937,64.808056 8.32379715,64.808056 Z" id="Shape" fill="#53A5FF"></path>
                        <path d="M162.503918,16.6274714 C157.909615,16.6274714 154.180121,12.9024859 154.180121,8.31373568 C154.180121,3.72498547 157.909615,0 162.503918,0 C167.098222,0 170.82778,3.72498547 170.82778,8.31373568 C170.845732,12.9024859 167.098222,16.6274714 162.503918,16.6274714 Z M162.503918,3.70699037 C159.963539,3.70699037 157.891598,5.77642674 157.891598,8.31373568 C157.891598,10.8510446 159.963539,12.920481 162.503918,12.920481 C165.044298,12.920481 167.116239,10.8510446 167.116239,8.31373568 C167.116239,5.77642674 165.062315,3.70699037 162.503918,3.70699037 Z" id="Shape" fill="#53A5FF"></path>
                        <path d="M134.031426,119.843018 C133.310751,118.655342 131.455013,119.735048 132.175688,120.922724 C134.842186,125.385509 135.995266,130.406141 135.923198,135.58873 C135.905182,136.920367 137.887038,136.884377 137.977122,135.58873 C138.391511,130.11822 136.860076,124.521744 134.031426,119.843018 Z" id="Path" fill="#FFFFFF"></path>
                    </g>
                    <g id="Group" transform="translate(0.128495, 15.165329)">
                        <path d="M83.2034392,30.6818423 C90.5543249,27.2267833 97.9232276,23.7717243 105.274113,20.3166653 C106.625379,19.6868369 107.958628,19.0570084 109.309894,18.4091849 C110.444957,17.8693319 111.562003,17.3114838 112.480864,16.429724 C114.282552,14.6662043 114.480738,12.0929052 113.850147,9.77153741 C113.471792,8.42190499 112.823185,7.18024317 112.174577,5.95657645 C111.634071,4.93085581 111.075548,3.92313027 110.37289,3.00538023 C108.98559,1.18787524 107.093818,-0.0177963796 104.751624,0 C102.139177,0.0181938181 99.4546622,1.31384094 97.0584175,2.23159098 C94.3018354,3.29330181 91.5812869,4.42699304 88.8787554,5.65065976 C86.1401901,6.89232159 83.4376586,8.2239589 80.7711608,9.62757661 C78.6091355,10.7792629 75.9786715,11.876964 74.5012876,13.9284052 C73.1320049,15.7998955 72.8977855,18.3911898 73.8887138,20.4966163 C74.879642,22.6020429 76.9155491,24.0596459 79.1856756,24.4735332 C81.7981228,24.9414058 84.2844518,23.8437047 86.6266458,22.8539743 C89.4372786,21.6662978 92.2479114,20.4786212 95.0585442,19.3089398 C97.1845357,18.4091849 99.7249153,17.5994054 100.914029,15.4399935 C101.922974,13.5864984 101.328417,11.3011208 99.8690503,9.879508 C98.1934808,8.2779442 95.815253,8.40390989 93.7793459,9.14170895 C91.1488819,10.0954492 88.644536,11.517062 86.1221732,12.7227336 C84.8069412,13.3525621 83.4917092,14.0003856 82.1584603,14.6302141 C80.9333127,15.2240524 81.6720046,17.2035132 82.933186,16.6276701 C85.27538,15.529969 87.5995571,14.432268 89.9237343,13.334567 C91.8515401,12.4168169 93.9955484,11.0131992 96.1575737,10.8152531 C97.7790926,10.6712923 99.3465609,11.8589689 99.2024259,13.6044935 C99.0582909,15.4759837 96.5179112,16.2677681 95.0945779,16.8616064 L87.8157597,19.9207732 C85.6537344,20.8385232 83.3295573,22.1341703 80.9513295,22.3141213 C79.0595575,22.4580821 77.077701,21.5583272 76.1588403,19.8667879 C75.2399795,18.1752486 75.5282496,16.069822 76.8975322,14.7021945 C78.5010343,13.1006307 80.9152958,12.1468905 82.8971522,11.1211698 C85.2033125,9.9334933 87.5455065,8.79980207 89.9237343,7.73809123 C92.2479114,6.6943755 94.5901054,5.70464506 96.9503163,4.78689502 C99.0943246,3.94112537 101.328417,2.87941454 103.616561,2.42953707 C105.688502,2.01564979 107.292004,2.71745865 108.553185,4.37300774 C109.832383,6.04655194 110.931413,8.13398341 111.58002,10.1134443 C112.228628,12.1109003 111.976392,14.1263513 110.156687,15.3680132 C109.219809,15.9978416 108.12078,16.429724 107.093818,16.9155917 C105.904704,17.4734397 104.71559,18.0312878 103.526476,18.5891359 C92.9145358,23.5917733 82.3025953,28.5764157 71.6726379,33.5610581 C70.3213721,34.1908866 71.1501485,36.3502984 72.5194311,35.72047 C76.0327221,34.0469258 79.6180806,32.3553865 83.2034392,30.6818423" id="Path" fill="#FF9B90"></path>
                        <path d="M9.96483436,180.563021 C22.4505301,182.884389 34.7740739,185.907565 47.1516684,188.786781 C47.7462253,187.959006 48.3948329,187.167222 49.115508,186.411428 C49.4217949,186.087516 49.3497274,185.637639 49.115508,185.331722 C48.8812886,184.845854 27.4051712,180.095148 16.901332,177.809771 C13.8925135,177.143952 10.901712,176.478133 7.87487663,175.8663 C7.69470786,175.83031 7.53255597,175.848305 7.40643783,175.90229 C5.55069951,176.316177 3.80306244,177.73779 2.61394856,179.159403 C5.06424383,179.57329 7.51453909,180.113143 9.96483436,180.563021 Z" id="Path" fill="#AF8EFF"></path>
                        <path d="M0.181670176,188.066977 C3.38867427,188.750791 6.63171212,189.308639 9.87474997,189.866487 C21.4235681,191.809958 32.9543693,193.879394 44.4491368,196.182767 C44.5212043,195.462963 44.6473225,194.743159 44.7914575,194.04135 C45.0977444,192.619737 45.6382507,191.306095 46.3409089,190.082428 C44.2329343,189.59656 42.1069428,189.092698 39.9989682,188.60683 C32.9904031,186.969276 25.9638211,185.331722 18.9192222,183.838129 C15.4239481,183.10033 11.9106571,182.416516 8.41538294,181.750697 C6.16327332,181.318815 3.92918058,180.850942 1.65905409,180.45505 C0.812260869,181.786688 0.253737684,183.298276 0.0735689142,184.863849 C-0.0525492244,185.92556 -0.0165154705,187.023261 0.181670176,188.066977 Z" id="Path" fill="#AF8EFF"></path>
                        <path d="M45.2959301,202.067164 C44.6293056,200.681541 44.3590525,199.169953 44.3590525,197.622375 C43.836563,197.514404 43.3320905,197.406433 42.809601,197.316458 C35.1163946,195.768879 27.4051712,194.347267 19.6579142,192.997634 C13.2979566,191.899933 6.8839484,190.964188 0.560024592,189.650546 C0.668125853,189.992453 0.812260869,190.334359 0.956395885,190.676266 C1.37078405,191.576021 1.87525661,192.439786 2.52386418,193.19558 C3.17247175,193.969369 3.96521433,194.869124 4.99217632,195.121056 C5.19036197,195.139051 45.890487,203.326821 45.2959301,202.067164 Z" id="Path" fill="#AF8EFF"></path>
                        <path d="M53.0431871,199.061982 C52.8450015,196.452693 53.8539466,193.573477 55.2232293,191.378075 C55.6556343,190.802232 55.7277018,190.460325 55.2412461,190.064433 C53.944031,188.984727 52.5387146,187.72507 51.2054657,186.699349 C50.6829763,186.249472 50.3226387,185.997541 49.8722168,186.537394 C46.8093477,190.136413 44.4851706,196.038806 46.2508245,200.789512 C47.0796009,203.038899 51.6378707,200.699536 52.4125964,200.339634 C53.3314572,199.925747 53.061204,199.259929 53.0431871,199.061982 Z" id="Path" fill="#AF8EFF"></path>
                        <path d="M60.0697692,195.678904 C58.7004865,193.987365 57.9257608,193.177585 56.8807819,191.935923 C56.7366469,191.773967 56.3402756,191.648002 55.6736512,192.637732 C54.5385879,194.329271 53.9620479,196.308732 53.9980816,198.342178 C53.9980816,198.864036 54.4665204,199.439879 55.0610774,199.277924 C56.7726807,198.792056 57.9437777,198.252203 59.5472797,197.478414 C60.3220054,197.136507 60.5201911,196.236752 60.0697692,195.678904 Z" id="Path" fill="#AF8EFF"></path>
                        <path d="M176.08044,175.110506 C171.486136,175.110506 167.756643,171.38552 167.756643,166.79677 C167.756643,162.20802 171.486136,158.483034 176.08044,158.483034 C180.674743,158.483034 184.404237,162.20802 184.404237,166.79677 C184.404237,171.38552 180.674743,175.110506 176.08044,175.110506 Z M176.08044,162.190025 C173.54006,162.190025 171.468119,164.259461 171.468119,166.79677 C171.468119,169.334079 173.54006,171.403515 176.08044,171.403515 C178.620819,171.403515 180.69276,169.334079 180.69276,166.79677 C180.69276,164.259461 178.620819,162.190025 176.08044,162.190025 Z" id="Shape" fill="#53A5FF"></path>
                    </g>
                </g>
            </g>
        </g>
    </g>
</svg>