<?xml version="1.0" encoding="UTF-8"?>
<svg width="24px" height="26px" viewBox="0 0 24 26" version="1.1" xmlns="http://www.w3.org/2000/svg" xmlns:xlink="http://www.w3.org/1999/xlink">
    <title>D147C345-891E-473C-8D1A-EE4552AF96D2</title>
    <g id="Finbal_Final" stroke="none" stroke-width="1" fill="none" fill-rule="evenodd">
        <g id="Momotaro-home-Copy-52-(1)-Copy-15" transform="translate(-290.000000, -55.000000)" stroke="#2D3142">
            <g id="Group-12" transform="translate(290.000000, 56.000000)">
                <g id="$-copy" transform="translate(2.000000, 0.000000)" fill="#2D3142" fill-rule="nonzero" stroke-width="0.3">
                    <path d="M3.26492537,12 C3.16915423,12 3.09514925,11.9711111 3.04291045,11.9133333 C2.99067164,11.8555556 2.96455224,11.7822222 2.96455224,11.6933333 L2.96455224,10.76 C2.3289801,10.7066667 1.79353234,10.5577778 1.35820896,10.3133333 C0.922885572,10.0688889 0.592039801,9.77333333 0.365671642,9.42666667 C0.139303483,9.08 0.0174129353,8.71111111 0,8.32 C0,8.24888889 0.0282960199,8.18444444 0.0848880597,8.12666667 C0.1414801,8.06888889 0.208955224,8.04 0.287313433,8.04 L0.96641791,8.04 C1.06218905,8.04 1.13619403,8.06666667 1.18843284,8.12 C1.24067164,8.17333333 1.27549751,8.23555556 1.29291045,8.30666667 C1.34514925,8.52 1.4539801,8.73111111 1.61940299,8.94 C1.78482587,9.14888889 2.02207711,9.32222222 2.33115672,9.46 C2.64023632,9.59777778 3.03855721,9.66666667 3.5261194,9.66666667 C4.27487562,9.66666667 4.8255597,9.53111111 5.17817164,9.26 C5.53078358,8.98888889 5.70708955,8.62666667 5.70708955,8.17333333 C5.70708955,7.86222222 5.61349502,7.61111111 5.42630597,7.42 C5.23911692,7.22888889 4.9539801,7.05777778 4.57089552,6.90666667 C4.18781095,6.75555556 3.69154229,6.59111111 3.08208955,6.41333333 C2.44651741,6.22666667 1.91977612,6.02222222 1.50186567,5.8 C1.08395522,5.57777778 0.772699005,5.30222222 0.568097015,4.97333333 C0.363495025,4.64444444 0.26119403,4.22666667 0.26119403,3.72 C0.26119403,3.07111111 0.496268657,2.51333333 0.96641791,2.04666667 C1.43656716,1.58 2.10261194,1.30666667 2.96455224,1.22666667 L2.96455224,0.306666667 C2.96455224,0.217777778 2.99067164,0.144444444 3.04291045,0.0866666667 C3.09514925,0.0288888889 3.16915423,0 3.26492537,0 L3.76119403,0 C3.84825871,0 3.92008706,0.0288888889 3.9766791,0.0866666667 C4.03327114,0.144444444 4.06156716,0.217777778 4.06156716,0.306666667 L4.06156716,1.24 C4.6449005,1.31111111 5.13246269,1.47555556 5.52425373,1.73333333 C5.91604478,1.99111111 6.21206468,2.28888889 6.41231343,2.62666667 C6.61256219,2.96444444 6.7170398,3.29333333 6.72574627,3.61333333 C6.72574627,3.67555556 6.7039801,3.73555556 6.66044776,3.79333333 C6.61691542,3.85111111 6.54726368,3.88 6.45149254,3.88 L5.75932836,3.88 C5.69838308,3.88 5.63526119,3.86222222 5.56996269,3.82666667 C5.50466418,3.79111111 5.45460199,3.72444444 5.41977612,3.62666667 C5.36753731,3.26222222 5.16728856,2.95555556 4.81902985,2.70666667 C4.47077114,2.45777778 4.01803483,2.33333333 3.4608209,2.33333333 C2.8949005,2.33333333 2.43563433,2.44444444 2.08302239,2.66666667 C1.73041045,2.88888889 1.55410448,3.23555556 1.55410448,3.70666667 C1.55410448,4.00888889 1.63681592,4.26 1.80223881,4.46 C1.96766169,4.66 2.22885572,4.83555556 2.5858209,4.98666667 C2.94278607,5.13777778 3.40858209,5.29777778 3.98320896,5.46666667 C4.67972637,5.66222222 5.25,5.86888889 5.69402985,6.08666667 C6.1380597,6.30444444 6.46672886,6.57555556 6.68003731,6.9 C6.89334577,7.22444444 7,7.64 7,8.14666667 C7,8.64444444 6.88028607,9.08222222 6.64085821,9.46 C6.40143035,9.83777778 6.06187811,10.1377778 5.62220149,10.36 C5.18252488,10.5822222 4.66231343,10.72 4.06156716,10.7733333 L4.06156716,11.6933333 C4.06156716,11.7822222 4.03327114,11.8555556 3.9766791,11.9133333 C3.92008706,11.9711111 3.84825871,12 3.76119403,12 L3.26492537,12 Z" id="Path"></path>
                </g>
                <g id="$-copy-2" transform="translate(15.000000, 12.000000)" fill="#2D3142" fill-rule="nonzero" stroke-width="0.3">
                    <path d="M3.26492537,12 C3.16915423,12 3.09514925,11.9711111 3.04291045,11.9133333 C2.99067164,11.8555556 2.96455224,11.7822222 2.96455224,11.6933333 L2.96455224,10.76 C2.3289801,10.7066667 1.79353234,10.5577778 1.35820896,10.3133333 C0.922885572,10.0688889 0.592039801,9.77333333 0.365671642,9.42666667 C0.139303483,9.08 0.0174129353,8.71111111 0,8.32 C0,8.24888889 0.0282960199,8.18444444 0.0848880597,8.12666667 C0.1414801,8.06888889 0.208955224,8.04 0.287313433,8.04 L0.96641791,8.04 C1.06218905,8.04 1.13619403,8.06666667 1.18843284,8.12 C1.24067164,8.17333333 1.27549751,8.23555556 1.29291045,8.30666667 C1.34514925,8.52 1.4539801,8.73111111 1.61940299,8.94 C1.78482587,9.14888889 2.02207711,9.32222222 2.33115672,9.46 C2.64023632,9.59777778 3.03855721,9.66666667 3.5261194,9.66666667 C4.27487562,9.66666667 4.8255597,9.53111111 5.17817164,9.26 C5.53078358,8.98888889 5.70708955,8.62666667 5.70708955,8.17333333 C5.70708955,7.86222222 5.61349502,7.61111111 5.42630597,7.42 C5.23911692,7.22888889 4.9539801,7.05777778 4.57089552,6.90666667 C4.18781095,6.75555556 3.69154229,6.59111111 3.08208955,6.41333333 C2.44651741,6.22666667 1.91977612,6.02222222 1.50186567,5.8 C1.08395522,5.57777778 0.772699005,5.30222222 0.568097015,4.97333333 C0.363495025,4.64444444 0.26119403,4.22666667 0.26119403,3.72 C0.26119403,3.07111111 0.496268657,2.51333333 0.96641791,2.04666667 C1.43656716,1.58 2.10261194,1.30666667 2.96455224,1.22666667 L2.96455224,0.306666667 C2.96455224,0.217777778 2.99067164,0.144444444 3.04291045,0.0866666667 C3.09514925,0.0288888889 3.16915423,0 3.26492537,0 L3.76119403,0 C3.84825871,0 3.92008706,0.0288888889 3.9766791,0.0866666667 C4.03327114,0.144444444 4.06156716,0.217777778 4.06156716,0.306666667 L4.06156716,1.24 C4.6449005,1.31111111 5.13246269,1.47555556 5.52425373,1.73333333 C5.91604478,1.99111111 6.21206468,2.28888889 6.41231343,2.62666667 C6.61256219,2.96444444 6.7170398,3.29333333 6.72574627,3.61333333 C6.72574627,3.67555556 6.7039801,3.73555556 6.66044776,3.79333333 C6.61691542,3.85111111 6.54726368,3.88 6.45149254,3.88 L5.75932836,3.88 C5.69838308,3.88 5.63526119,3.86222222 5.56996269,3.82666667 C5.50466418,3.79111111 5.45460199,3.72444444 5.41977612,3.62666667 C5.36753731,3.26222222 5.16728856,2.95555556 4.81902985,2.70666667 C4.47077114,2.45777778 4.01803483,2.33333333 3.4608209,2.33333333 C2.8949005,2.33333333 2.43563433,2.44444444 2.08302239,2.66666667 C1.73041045,2.88888889 1.55410448,3.23555556 1.55410448,3.70666667 C1.55410448,4.00888889 1.63681592,4.26 1.80223881,4.46 C1.96766169,4.66 2.22885572,4.83555556 2.5858209,4.98666667 C2.94278607,5.13777778 3.40858209,5.29777778 3.98320896,5.46666667 C4.67972637,5.66222222 5.25,5.86888889 5.69402985,6.08666667 C6.1380597,6.30444444 6.46672886,6.57555556 6.68003731,6.9 C6.89334577,7.22444444 7,7.64 7,8.14666667 C7,8.64444444 6.88028607,9.08222222 6.64085821,9.46 C6.40143035,9.83777778 6.06187811,10.1377778 5.62220149,10.36 C5.18252488,10.5822222 4.66231343,10.72 4.06156716,10.7733333 L4.06156716,11.6933333 C4.06156716,11.7822222 4.03327114,11.8555556 3.9766791,11.9133333 C3.92008706,11.9711111 3.84825871,12 3.76119403,12 L3.26492537,12 Z" id="Path"></path>
                </g>
                <line x1="21.5" y1="2.5" x2="2.26933333" y2="21.6" id="r" stroke-width="1.5" stroke-linecap="round" stroke-linejoin="round"></line>
            </g>
        </g>
    </g>
</svg>