<!-- Generated by IcoMoon.io -->
<svg version="1.1" xmlns="http://www.w3.org/2000/svg" width="32" height="32" viewBox="0 0 32 32">
<title>Phone</title>
<path d="M7.456 1.333c1.231 0 2.321 0.524 3.072 1.552v0l3.096 4.357c0.623 0.886 0.947 1.688 0.947 2.519 0 0.943-0.403 1.74-1.186 2.601v0l-0.957 0.997 0.079 0.128c0.447 0.692 1.383 1.793 2.493 2.924v0l0.259 0.261 0.564 0.547c1.073 1.021 2.071 1.854 2.649 2.239v0l0.138 0.088 0.773-0.76c0.868-0.848 1.648-1.317 2.574-1.389v0l0.256-0.010c0.821 0 1.615 0.315 2.528 0.936v0l4.398 3.128c1.014 0.717 1.527 1.789 1.527 2.984 0 1.304-0.582 2.599-1.585 3.713-1.533 1.681-3.498 2.517-5.775 2.517-4.296 0-9.554-3.014-14.29-7.742-4.708-4.7-7.684-9.901-7.684-14.198 0-2.246 0.805-4.223 2.413-5.762 1.063-1.043 2.382-1.631 3.71-1.631zM7.456 4c-0.597 0-1.258 0.295-1.854 0.879-1.082 1.036-1.602 2.313-1.602 3.847 0 3.438 2.646 8.063 6.901 12.311 4.283 4.276 8.969 6.963 12.406 6.963 1.54 0 2.786-0.53 3.798-1.641 0.586-0.651 0.895-1.338 0.895-1.923 0-0.359-0.119-0.608-0.403-0.809v0l-4.378-3.114c-0.487-0.331-0.808-0.459-1.005-0.459-0.195 0-0.471 0.156-0.963 0.636v0l-1.015 0.999c-0.403 0.403-0.941 0.62-1.489 0.62-0.432 0-0.739-0.095-1.223-0.318-0.857-0.463-2.138-1.508-3.547-2.848v0l-0.587-0.569c-1.595-1.593-2.904-3.15-3.407-4.124-0.2-0.366-0.321-0.776-0.321-1.214 0-0.545 0.199-1.067 0.586-1.454v0l1.189-1.24c0.355-0.39 0.469-0.615 0.469-0.781 0-0.194-0.127-0.508-0.458-0.979v0l-3.082-4.337c-0.225-0.308-0.508-0.444-0.908-0.444z"></path>
</svg>
