<?xml version="1.0" encoding="UTF-8"?>
<svg width="26px" height="26px" viewBox="0 0 26 26" version="1.1" xmlns="http://www.w3.org/2000/svg" xmlns:xlink="http://www.w3.org/1999/xlink">
    <title>D2871F55-A4B9-4A4A-A9CA-492BE298D326</title>
    <g id="Finbal_Final" stroke="none" stroke-width="1" fill="none" fill-rule="evenodd">
        <g id="Customer-Landing-Page-Copy-60" transform="translate(-326.000000, -751.000000)" fill="#2D3142" fill-rule="nonzero" stroke="#2D3142">
            <g id="Pin-Copy" transform="translate(327.000000, 752.000000)">
                <path d="M22.1683676,10.555486 L13.4094328,1.8208967 C12.6053338,0.987662848 12.4043091,1.50484248 12.4043091,1.9070933 L12.4043091,5.92960154 L5.88536413,10.7566114 L1.9510229,10.7566114 C0.831027948,10.7566114 1.72128034,11.9633639 1.54897343,11.7622385 L6.48843833,16.675445 L2.35307237,20.8416142 C2.12332981,21.0714718 2.12332981,21.4449904 2.35307237,21.6748481 C2.58281492,21.9047057 2.95614657,21.9047057 3.18588912,21.6748481 L7.32125509,17.537411 L12.2320022,22.4793497 C12.0884131,22.3356887 13.2658437,23.1114581 13.2658437,22.0770989 L13.2658437,18.112055 L18.0904373,11.5898453 L21.7376003,11.5898453 C22.3406745,11.5611131 23.1447735,11.5611131 22.1683676,10.555486 Z M3.35819604,11.8771673 L5.91408195,11.8771673 L12.1458487,18.112055 L12.1458487,20.669221 L3.35819604,11.8771673 L3.35819604,11.8771673 Z M12.6914873,16.962767 L7.0340769,11.3025232 L12.8063586,7.1076218 L16.9417245,11.3025232 L12.6914873,16.962767 Z M17.8032591,10.4405572 L13.5530219,6.18819135 L13.5530219,3.6310254 L20.359145,10.4405572 L17.8032591,10.4405572 L17.8032591,10.4405572 Z" id="Shape" transform="translate(12.000000, 12.000000) rotate(8.000000) translate(-12.000000, -12.000000) "></path>
            </g>
        </g>
    </g>
</svg>