<?xml version="1.0" encoding="UTF-8"?>
<svg width="22px" height="20px" viewBox="0 0 22 20" version="1.1" xmlns="http://www.w3.org/2000/svg" xmlns:xlink="http://www.w3.org/1999/xlink">
    <title>Group</title>
    <g id="Page-1" stroke="none" stroke-width="1" fill="none" fill-rule="evenodd">
        <g id="Momotaro-home-Copy-89" transform="translate(-336.000000, -57.000000)" fill="#2D3142" fill-rule="nonzero">
            <g id="Group" transform="translate(336.000000, 57.000000)">
                <path d="M19.4231481,4.08163265 L18.3333333,4.08163265 L18.3333333,0.816326531 C18.3333333,0.365481837 17.9685283,0 17.5185185,0 L4.48148148,0 C4.03147169,0 3.66666667,0.365481837 3.66666667,0.816326531 L3.66666667,4.08163265 L2.57685185,4.08163265 C1.16111111,4.08163265 0,5.18367347 0,6.53061224 L0,14.6938776 C0,15.1447222 0.364805019,15.5102041 0.814814815,15.5102041 L3.66666667,15.5102041 L3.66666667,19.1836735 C3.66666667,19.6345182 4.03147169,20 4.48148148,20 L17.5185185,20 C17.9685283,20 18.3333333,19.6345182 18.3333333,19.1836735 L18.3333333,15.5102041 L21.1851852,15.5102041 C21.635195,15.5102041 22,15.1447222 22,14.6938776 L22,6.53061224 C22,5.18367347 20.8388889,4.08163265 19.4231481,4.08163265 Z M5.2962963,1.63265306 L16.7037037,1.63265306 L16.7037037,4.08163265 L5.2962963,4.08163265 L5.2962963,1.63265306 Z M16.7037037,18.3673469 L5.2962963,18.3673469 L5.2962963,13.0612245 L16.7037037,13.0612245 L16.7037037,18.3673469 Z M20.3703704,13.877551 L18.3333333,13.877551 L18.3333333,12.244898 C18.3333333,11.7940533 17.9685283,11.4285714 17.5185185,11.4285714 L4.48148148,11.4285714 C4.03147169,11.4285714 3.66666667,11.7940533 3.66666667,12.244898 L3.66666667,13.877551 L1.62962963,13.877551 L1.62962963,6.53061224 C1.62962963,6.08163265 2.05740741,5.71428571 2.57685185,5.71428571 L19.4231481,5.71428571 C19.9425926,5.71428571 20.3703704,6.08163265 20.3703704,6.53061224 L20.3703704,13.877551 Z M18.3333333,8.57142857 C18.3333333,9.06668846 18.0355484,9.51318188 17.5788353,9.70270963 C17.1221222,9.89223739 16.5964226,9.78747524 16.2468695,9.43727361 C15.8973164,9.08707198 15.7927482,8.56039709 15.981925,8.10283661 C16.1711018,7.64527614 16.6167684,7.34693878 17.1111111,7.34693878 C17.7861258,7.34693878 18.3333333,7.89516153 18.3333333,8.57142857 L18.3333333,8.57142857 Z" id="Shape"></path>
            </g>
        </g>
    </g>
</svg>