<?xml version="1.0" encoding="UTF-8"?>
<svg width="34px" height="34px" viewBox="0 0 34 34" version="1.1" xmlns="http://www.w3.org/2000/svg" xmlns:xlink="http://www.w3.org/1999/xlink">
    <title>Group 3</title>
    <g id="Page-1" stroke="none" stroke-width="1" fill="none" fill-rule="evenodd">
        <g id="Momotaro-home-Copy-52-(1)-Copy-8" transform="translate(-328.000000, -404.000000)">
            <g id="Group-12" transform="translate(19.000000, 167.000000)">
                <g id="Group-9" transform="translate(0.000000, 214.000000)">
                    <g id="Group-3" transform="translate(309.000000, 23.000000)">
                        <rect id="Rectangle-Copy-16" fill="#2D3142" x="0" y="0" width="34" height="34" rx="17"></rect>
                        <g id="Reload" transform="translate(9.000000, 7.000000)" fill="#FFFFFF" fill-rule="nonzero">
                            <path d="M8.50013727,19.2670717 C5.21009196,19.2670717 2.21547884,17.3685241 0.812123607,14.3927902 C-0.591231628,11.4170563 -0.15126444,7.89869305 1.94164305,5.36016269 C2.07060194,5.20407587 2.2730362,5.12864445 2.47269079,5.16228272 C2.67234538,5.19592098 2.83888804,5.33351848 2.90958374,5.52324356 C2.98027945,5.71296864 2.94438785,5.92599756 2.81542896,6.08208438 C0.622508809,8.74285872 0.568588772,12.5687538 2.6856539,15.2902707 C4.80271903,18.0117876 8.52430119,18.9007235 11.6427792,17.4297668 C14.7612572,15.95881 16.4422125,12.521548 15.6885121,9.15694485 C14.9348117,5.79234167 11.9481249,3.40067217 8.50013727,3.40066096 L5.10019211,3.40066096 C4.7872358,3.40066096 4.53353458,3.14695974 4.53353458,2.83400343 C4.53353458,2.52104712 4.7872358,2.26734591 5.10019211,2.26734591 L8.50013727,2.26734591 C13.1944819,2.26734591 17,6.07286422 17,10.7672088 C17,15.4615534 13.1944819,19.2670717 8.50013727,19.2670717 L8.50013727,19.2670717 Z" id="Path"></path>
                            <path d="M7.36682222,5.66729198 C7.2164326,5.66755966 7.07210447,5.6080345 6.96562869,5.50182707 L4.69899858,3.23519696 C4.47742552,3.01362389 4.47742552,2.65438298 4.69899859,2.43280991 C4.92057165,2.21123684 5.27981257,2.21123684 5.50138564,2.4328099 L7.76801575,4.69944001 C7.93050688,4.86152015 7.9791865,5.10560816 7.89130264,5.31762177 C7.80341878,5.52963537 7.59632858,5.6677017 7.36682222,5.66729198 Z" id="Path"></path>
                            <path d="M5.10019211,3.40066187 C4.87068575,3.40107159 4.66359554,3.26300526 4.57571168,3.05099166 C4.48782783,2.83897806 4.53650745,2.59489004 4.69899858,2.4328099 L6.96562869,0.166179795 C7.18720176,-0.0553932673 7.54644267,-0.0553932646 7.76801574,0.166179801 C7.98958881,0.387752867 7.98958881,0.746993785 7.76801575,0.968566853 L5.50138564,3.23519696 C5.39490986,3.34140439 5.25058173,3.40092955 5.10019211,3.40066187 Z" id="Path"></path>
                        </g>
                    </g>
                </g>
            </g>
        </g>
    </g>
</svg>