<?xml version="1.0" encoding="UTF-8"?>
<svg width="20px" height="20px" viewBox="0 0 20 20" version="1.1" xmlns="http://www.w3.org/2000/svg" xmlns:xlink="http://www.w3.org/1999/xlink">
    <title>60531FB4-DBAC-4CFD-833B-2881AAE30052</title>
    <g id="Finbal_Final" stroke="none" stroke-width="1" fill="none" fill-rule="evenodd">
        <g id="Momotaro-home-Copy-52-(1)-Copy-12" transform="translate(-55.000000, -428.000000)" fill="#212B36" fill-rule="nonzero" stroke="#212B36" stroke-width="0.5">
            <g id="Group-12" transform="translate(32.000000, 232.000000)">
                <g id="4544831_business_comerce_delivery_return_shop_icon" transform="translate(24.000000, 197.000000)">
                    <path d="M9.00779511,18 C11.412373,18 13.6723549,17.0639851 15.3753744,15.3631123 C16.9552196,13.7852587 17.8870604,11.6885853 17.999524,9.45819557 C18.0102348,9.23890066 17.8388618,9.04634902 17.6192901,9.03565171 C17.3997184,9.0249544 17.2069237,9.19611141 17.1962129,9.41540632 C17.0944602,11.4425471 16.2429504,13.3520175 14.8023458,14.7908061 C13.2546331,16.3365678 11.1928013,17.1923529 9.0024397,17.1923529 C6.81207811,17.1923529 4.75024629,16.3419165 3.20253358,14.7908061 C0.00535540732,11.5976582 0.00535540732,6.39876406 3.20253358,3.20561613 C5.9284359,0.483149974 10.1699185,0.0285141715 13.3938737,2.07704961 L12.4888099,3.1842215 L15.0861824,2.92213734 L14.8237675,0.328038935 L13.9079928,1.4512568 C10.3573578,-0.859362807 5.64995472,-0.372635066 2.6348604,2.63865854 C-0.8782868,6.1473772 -0.8782868,11.849045 2.6348604,15.3577637 C4.34323534,17.0639851 6.60321723,18 9.00779511,18 Z" id="Path"></path>
                    <path d="M13.2546331,7.15292462 C13.2546331,7.14757597 13.2546331,7.14222731 13.2492777,7.14222731 C13.2492777,7.13153 13.2439223,7.12618134 13.2439223,7.11548403 C13.2439223,7.11013537 13.2385669,7.09943806 13.2385669,7.0940894 C13.2385669,7.08874075 13.2332115,7.08339209 13.2332115,7.07804343 C13.2225007,7.05130015 13.2117899,7.02990553 13.1957236,7.0085109 C13.1957236,7.0085109 13.1957236,7.0085109 13.1957236,7.0085109 L11.4927041,4.51068832 C11.4177284,4.39836653 11.294554,4.33418265 11.1606689,4.33418265 L6.84421055,4.33418265 C6.71032537,4.33418265 6.587151,4.39836653 6.5121753,4.51068832 L4.80915577,7.00316224 C4.80915577,7.00316224 4.80915577,7.00316224 4.80915577,7.00316224 C4.79308955,7.02455687 4.78237874,7.05130015 4.77166792,7.07269478 C4.77166792,7.07804343 4.76631251,7.08339209 4.76631251,7.08874075 C4.76095711,7.0940894 4.76095711,7.10478672 4.76095711,7.11013537 C4.76095711,7.12083269 4.7556017,7.12618134 4.7556017,7.13687866 C4.7556017,7.14222731 4.7556017,7.14757597 4.75024629,7.14757597 C4.74489089,7.17431925 4.73953548,7.20106253 4.73953548,7.22780582 C4.73953548,7.22780582 4.73953548,7.22780582 4.73953548,7.22780582 L4.73953548,13.266439 C4.73953548,13.4857339 4.92161933,13.6675882 5.14119103,13.6675882 L12.858333,13.6675882 C13.0779047,13.6675882 13.2599885,13.4857339 13.2599885,13.266439 L13.2599885,7.23315447 C13.2599885,7.23315447 13.2599885,7.23315447 13.2599885,7.23315447 C13.2599885,7.20106253 13.2599885,7.17431925 13.2546331,7.15292462 Z M7.05842685,5.13648113 L10.9464526,5.13648113 L12.0978651,6.82665658 L5.90165887,6.82665658 L7.05842685,5.13648113 Z M12.4566774,12.8706384 L5.54820198,12.8706384 L5.54820198,7.63430371 L12.4620328,7.63430371 L12.4620328,12.8706384 L12.4566774,12.8706384 Z" id="Shape"></path>
                </g>
            </g>
        </g>
    </g>
</svg>