<?xml version="1.0" encoding="UTF-8"?>
<svg width="20px" height="20px" viewBox="0 0 20 20" version="1.1" xmlns="http://www.w3.org/2000/svg" xmlns:xlink="http://www.w3.org/1999/xlink">
    <title>Group</title>
    <g id="Finbal_Final" stroke="none" stroke-width="1" fill="none" fill-rule="evenodd">
        <g id="Customer-Landing-Page-Copy-55" transform="translate(-271.000000, -337.000000)" fill="#2D3142" fill-rule="nonzero">
            <g id="Group-6" transform="translate(0.000000, 316.000000)">
                <g id="Icon-4" transform="translate(249.000000, 1.000000)">
                    <g id="Group" transform="translate(22.000000, 20.000000)">
                        <path d="M14.6653738,12.8981737 L13.7386328,12.8981737 L13.4101677,12.5816251 C14.8945466,10.8581624 15.5312443,8.56223466 15.1463407,6.32099736 C14.5949884,3.06171925 11.87342,0.458986366 8.58876834,0.0603696186 C6.24859939,-0.235511144 3.90305481,0.566844968 2.23511613,2.2338059 C0.567177448,3.90076684 -0.235649282,6.24493645 0.0604050281,8.5837336 C0.459255582,11.8664598 3.06351508,14.5864329 6.3247049,15.1374619 C8.56725679,15.5221399 10.8645312,14.8858154 12.5890048,13.4023066 L12.905739,13.7305792 L12.905739,14.656777 L17.891371,19.6394863 C18.3723378,20.1201712 19.158308,20.1201712 19.6392749,19.6394863 C20.1202417,19.1588014 20.1202417,18.373292 19.6392749,17.892607 L14.6653738,12.8981737 Z M7.62683465,12.8981737 C4.70584089,12.8981737 2.34793026,10.5416453 2.34793026,7.6223638 C2.34793026,4.70308232 4.70584089,2.3465539 7.62683465,2.3465539 C10.5478284,2.3465539 12.905739,4.70308232 12.905739,7.6223638 C12.905739,10.5416453 10.5478284,12.8981737 7.62683465,12.8981737 Z" id="Shape"></path>
                    </g>
                </g>
            </g>
        </g>
    </g>
</svg>