<?xml version="1.0" encoding="UTF-8"?>
<svg width="13px" height="12px" viewBox="0 0 13 12" version="1.1" xmlns="http://www.w3.org/2000/svg" xmlns:xlink="http://www.w3.org/1999/xlink">
    <title>star</title>
    <defs>
        <linearGradient x1="0%" y1="7.3964497%" x2="100%" y2="92.6035503%" id="linearGradient-1">
            <stop stop-color="#FFE431" offset="0%"></stop>
            <stop stop-color="#FFC416" offset="100%"></stop>
        </linearGradient>
    </defs>
    <g id="Page-1" stroke="none" stroke-width="1" fill="none" fill-rule="evenodd">
        <g id="Momotaro-home-Copy-42" transform="translate(-297.000000, -77.000000)" fill="url(#linearGradient-1)">
            <g id="review" transform="translate(281.000000, 68.000000)">
                <g id="star" transform="translate(16.000000, 9.000000)">
                    <path d="M12.7201041,5.50474192 C12.9813005,5.23322345 13.0659134,4.86077094 12.947578,4.50956769 C12.8292425,4.15777419 12.5324842,3.90514396 12.156018,3.83313254 L9.12773397,3.25704117 C9.03882909,3.2399237 8.96218696,3.18621026 8.91742795,3.11006704 L7.41278956,0.515294842 C7.22516961,0.192423962 6.88365226,0 6.49982845,0 C6.11600464,0 5.77510042,0.192423962 5.58748048,0.515294842 L4.08284208,3.11006704 C4.03808308,3.18621026 3.96144094,3.2399237 3.87192293,3.25704117 L0.844252034,3.83313254 C0.46717273,3.90514396 0.171027521,4.15777419 0.0526920648,4.50956769 C-0.0662565285,4.86077094 0.0189695255,5.23322345 0.280165921,5.50474192 L2.37832101,7.6839728 C2.43963471,7.74831088 2.46906529,7.83507874 2.45802883,7.9218466 L2.09198599,10.8725441 C2.04661385,11.2396843 2.20419007,11.5891168 2.51566371,11.8063315 C2.69960483,11.9350077 2.9123634,12 3.12696138,12 C3.27595369,12 3.42617227,11.9686524 3.56842008,11.9054948 L6.36984339,10.6576903 C6.45261689,10.6210944 6.54704,10.6210944 6.62981351,10.6576903 L9.43184996,11.9054948 C9.77949869,12.0601423 10.1725196,12.0235463 10.4839932,11.8063315 C10.7954668,11.5891168 10.9536562,11.2396843 10.908284,10.8725441 L10.5416281,7.92243686 C10.5305916,7.83507874 10.5600222,7.74831088 10.6225622,7.6839728 L12.7201041,5.50474192 Z" id="Star-Icon"></path>
                </g>
            </g>
        </g>
    </g>
</svg>