<?xml version="1.0" encoding="UTF-8"?>
<svg width="16px" height="16px" viewBox="0 0 16 16" version="1.1" xmlns="http://www.w3.org/2000/svg" xmlns:xlink="http://www.w3.org/1999/xlink">
    <title>69F16ACD-79E5-47FF-86CE-44F28EFDC563</title>
    <g id="FLow" stroke="none" stroke-width="1" fill="none" fill-rule="evenodd">
        <g id="1-Agent-Landing-Page" transform="translate(-29.000000, -123.000000)">
            <rect fill="#FFFFFF" x="0" y="0" width="375" height="944"></rect>
            <g id="stats" transform="translate(16.000000, 117.000000)"></g>
            <g id="icon/day" transform="translate(29.000000, 123.000000)" fill="#7265E3" fill-rule="nonzero">
                <path d="M8.33309743,13.2901628 C8.65864591,13.2901628 8.92285916,13.554376 8.92285916,13.8799245 L8.92285916,13.8799245 L8.92285916,15.4097665 C8.92285916,15.7364945 8.65864591,15.9995282 8.33309743,15.9995282 C8.00754895,15.9995282 7.74333569,15.7364945 7.74333569,15.4097665 L7.74333569,15.4097665 L7.74333569,13.8799245 C7.74333569,13.554376 8.00754895,13.2901628 8.33309743,13.2901628 Z M4.82790753,11.8382873 C5.03235826,12.0427381 5.05507501,12.360889 4.89605777,12.5906065 L4.82790753,12.6722104 L3.7462845,13.755013 C3.6306912,13.8694268 3.4797122,13.9272234 3.32873319,13.9272234 C3.17775419,13.9272234 3.02677518,13.8694268 2.91236141,13.755013 C2.70686221,13.5495138 2.68402896,13.2321783 2.84386167,13.0018266 L2.91236141,12.9199104 L3.99398443,11.8382873 C4.22399151,11.6082803 4.59790045,11.6082803 4.82790753,11.8382873 Z M12.5906065,11.7701371 L12.6722104,11.8382873 L13.7538335,12.9199104 C13.9850201,13.151097 13.9850201,13.5238264 13.7538335,13.755013 C13.6394197,13.8694268 13.4884407,13.9272234 13.3374617,13.9272234 C13.2166785,13.9272234 13.0958953,13.8902335 12.9932295,13.8168577 L12.9199104,13.755013 L11.8382873,12.6722104 C11.6082803,12.4422033 11.6082803,12.0682944 11.8382873,11.8382873 C12.0427381,11.6338366 12.360889,11.6111198 12.5906065,11.7701371 Z M8.33309743,4.93795707 C10.2344893,4.93795707 11.7761264,6.47959424 11.7761264,8.38098608 C11.7761264,10.2823779 10.2344893,11.8240151 8.33309743,11.8240151 C6.43170559,11.8240151 4.89006841,10.2823779 4.89006841,8.38098608 C4.89006841,6.47959424 6.43170559,4.93795707 8.33309743,4.93795707 Z M2.78627035,7.74333569 C3.11181883,7.74333569 3.37603208,8.00754895 3.37603208,8.33309743 C3.37603208,8.65864591 3.11181883,8.92285916 2.78627035,8.92285916 L2.78627035,8.92285916 L1.2564284,8.92285916 C0.929700401,8.92285916 0.666666667,8.65864591 0.666666667,8.33309743 C0.666666667,8.00754895 0.929700401,7.74333569 1.2564284,7.74333569 L1.2564284,7.74333569 Z M15.4102383,7.74333569 C15.7357867,7.74333569 16,8.00754895 16,8.33309743 C16,8.65864591 15.7357867,8.92285916 15.4102383,8.92285916 L15.4102383,8.92285916 L13.8803963,8.92285916 C13.5536683,8.92285916 13.2906346,8.65864591 13.2906346,8.33309743 C13.2906346,8.00754895 13.5536683,7.74333569 13.8803963,7.74333569 L13.8803963,7.74333569 Z M13.7544232,2.91177164 C13.9588739,3.11622238 13.9815907,3.43437335 13.8225735,3.66409081 L13.7544232,3.74569474 L12.6728002,4.82849729 C12.5572069,4.94291106 12.4062279,5.00070771 12.2552489,5.00070771 C12.1042699,5.00070771 11.9532909,4.94291106 11.8376976,4.82849729 C11.6332468,4.62299809 11.6105301,4.30566259 11.7695473,4.07531087 L11.8376976,3.99339467 L12.9205001,2.91177164 C13.1505072,2.68176457 13.5244161,2.68176457 13.7544232,2.91177164 Z M3.66436991,2.84303164 L3.7462845,2.91118188 L4.82790753,3.99398443 C5.0579146,4.22399151 5.0579146,4.59790045 4.82790753,4.82790753 C4.71231423,4.94350083 4.56133522,5.00011795 4.41153574,5.00011795 C4.29075254,5.00011795 4.16996933,4.96388299 4.06730361,4.89020524 L3.99398443,4.82790753 L2.91236141,3.7462845 C2.68117481,3.5150979 2.68117481,3.14236848 2.91236141,2.91118188 C3.11681214,2.70673115 3.43403115,2.6840144 3.66436991,2.84303164 Z M8.33309743,0.666666667 C8.65864591,0.666666667 8.92285916,0.929700401 8.92285916,1.2564284 L8.92285916,1.2564284 L8.92285916,2.78627035 C8.92285916,3.11181883 8.65864591,3.37603208 8.33309743,3.37603208 C8.00754895,3.37603208 7.74333569,3.11181883 7.74333569,2.78627035 L7.74333569,2.78627035 L7.74333569,1.2564284 C7.74333569,0.929700401 8.00754895,0.666666667 8.33309743,0.666666667 Z" id="Shape"></path>
            </g>
        </g>
    </g>
</svg>