<?xml version="1.0" encoding="UTF-8"?>
<svg width="18px" height="16px" viewBox="0 0 18 16" version="1.1" xmlns="http://www.w3.org/2000/svg" xmlns:xlink="http://www.w3.org/1999/xlink">
    <title>ADA837FA-BD70-4BE9-B5F1-CDDBD4453DB4</title>
    <g id="Finbal_Final" stroke="none" stroke-width="1" fill="none" fill-rule="evenodd">
        <g id="Customer-Landing-Page-Copy-62" transform="translate(-36.000000, -409.000000)" fill="#2D3142" fill-rule="nonzero">
            <g id="Group-2" transform="translate(24.000000, 396.000000)">
                <path d="M28.2,13 C28.695,13 29.1189,13.1682636 29.4717,13.5047909 C29.8239,13.8418914 30,14.246928 30,14.7199007 L30,25.0393052 C30,25.5122779 29.8239,25.9173145 29.4717,26.254415 C29.1189,26.5909423 28.695,26.7592059 28.2,26.7592059 L15.6,26.7592059 L13.53,28.7370917 C13.245,29.0094093 12.9186,29.0701792 12.5508,28.9194012 C12.1836,28.7691965 12,28.5006054 12,28.1136277 L12,14.7199007 C12,14.246928 12.1764,13.8418914 12.5292,13.5047909 C12.8814,13.1682636 13.305,13 13.8,13 L28.2,13 Z M28.2,14.7199007 L13.8,14.7199007 L13.8,26.0497468 L14.8575,25.0393052 L28.2,25.0393052 L28.2,14.7199007 Z M25.1090909,21 C25.5509187,21 25.9090909,21.3581722 25.9090909,21.8 C25.9090909,22.2418278 25.5509187,22.6 25.1090909,22.6 L16.8909091,22.6 C16.4490813,22.6 16.0909091,22.2418278 16.0909091,21.8 C16.0909091,21.3581722 16.4490813,21 16.8909091,21 L25.1090909,21 Z M25.1090909,17 C25.5509187,17 25.9090909,17.3581722 25.9090909,17.8 C25.9090909,18.2418278 25.5509187,18.6 25.1090909,18.6 L16.8909091,18.6 C16.4490813,18.6 16.0909091,18.2418278 16.0909091,17.8 C16.0909091,17.3581722 16.4490813,17 16.8909091,17 L25.1090909,17 Z" id="Shape"></path>
            </g>
        </g>
    </g>
</svg>