<?xml version="1.0" encoding="UTF-8"?>
<svg width="56px" height="56px" viewBox="0 0 24 24" version="1.1" xmlns="http://www.w3.org/2000/svg" xmlns:xlink="http://www.w3.org/1999/xlink">
    <title>72AB975B-F460-4DEA-A09F-9331BF7E0E9E</title>
    <g id="Finbal_Final" stroke="none" stroke-width="1" fill="none" fill-rule="evenodd">
        <g id="Customer-Landing-Page-Copy-41" transform="translate(-33.000000, -1773.000000)">
            <g id="Group-32" transform="translate(0.000000, 652.000000)">
                <g id="Group-29" transform="translate(24.000000, 1076.000000)">
                    <g id="Group-28" transform="translate(0.000000, 34.000000)">
                        <g id="Group-34" transform="translate(0.000000, 2.000000)">
                            <g id="9027176_tree_structure_thin_icon" transform="translate(9.000000, 9.000000)">
                                <rect id="Rectangle" x="0" y="0" width="24" height="24"></rect>
                                <rect id="Rectangle" stroke="#000000" stroke-width="2" stroke-linecap="round" stroke-linejoin="round" x="2.25" y="9.375" width="5.25" height="5.25" rx="2.625"></rect>
                                <rect id="Rectangle" stroke="#000000" stroke-width="2" stroke-linecap="round" stroke-linejoin="round" x="15" y="3.75" width="6" height="6" rx="3"></rect>
                                <rect id="Rectangle" stroke="#000000" stroke-width="2" stroke-linecap="round" stroke-linejoin="round" x="15" y="14.25" width="6" height="6" rx="3"></rect>
                                <line x1="7.5" y1="12.003125" x2="11.25" y2="12.003125" id="Path" stroke="#000000" stroke-width="2" stroke-linecap="round" stroke-linejoin="round"></line>
                                <path d="M15,17.2500197 L13.5,17.2500197 C12.9024984,17.2525053 12.3287453,17.016257 11.9062442,16.5937558 C11.483743,16.1712547 11.2474947,15.5975016 11.2499803,15 L11.2499803,9 C11.2474947,8.4024984 11.483743,7.82874532 11.9062442,7.40624417 C12.3287453,6.98374302 12.9024984,6.74749472 13.5,6.74998028 L15,6.74998028" id="Path" stroke="#000000" stroke-width="2" stroke-linecap="round" stroke-linejoin="round"></path>
                            </g>
                        </g>
                    </g>
                </g>
            </g>
        </g>
    </g>
</svg>