<?xml version="1.0" encoding="UTF-8"?>
<svg width="18px" height="18px" viewBox="0 0 18 18" version="1.1" xmlns="http://www.w3.org/2000/svg" xmlns:xlink="http://www.w3.org/1999/xlink">
    <title>A83A6E3E-EE09-4A7E-9AC1-A4F1E5535381</title>
    <g id="Finbal_Final" stroke="none" stroke-width="1" fill="none" fill-rule="evenodd">
        <g id="Momotaro-home-Copy-52-(1)-Copy-12" transform="translate(-56.000000, -515.000000)" fill="#2D3142">
            <g id="Group-12" transform="translate(32.000000, 232.000000)">
                <g id="Group-17" transform="translate(24.000000, 283.000000)">
                    <path d="M10.5327486,0 C11.625673,0 12.6607813,0.497278404 13.3709272,1.35549767 L13.4928194,1.51066716 L17.5260425,6.92169939 C17.7990936,7.28802888 17.9612055,7.72948692 17.9938593,8.18975354 L18,8.36312517 L18,13.3043478 C18,14.5547068 17.06331,15.5767781 15.8822046,15.6481883 L15.75,15.6521739 L14.6877927,15.6525906 C14.1090341,17.0343805 12.7875847,18 11.25,18 C9.71241526,18 8.39096587,17.0343805 7.81220725,15.6525906 L5.25,15.6521739 L5.25,14.0869565 L7.5,14.0869565 C7.5,11.9258423 9.17893219,10.173913 11.25,10.173913 C13.266566,10.173913 14.9113636,11.8348487 14.9965354,13.9172168 L15,14.0869565 L15.75,14.0869565 C16.1346269,14.0869565 16.4516304,13.7848381 16.4949542,13.3956165 L16.5,13.3043478 L16.5,8.36312517 C16.5,8.22389855 16.4644213,8.08784943 16.3977641,7.96866359 L16.3420142,7.88264991 L12.3087911,2.47161769 C11.9129629,1.94056877 11.3195418,1.61421453 10.6808686,1.57030192 L10.5327486,1.56521739 L2.25,1.56521739 L2.25,0 L10.5327486,0 Z M11.25,11.7391304 C10.0073593,11.7391304 9,12.790288 9,14.0869565 C9,15.3836251 10.0073593,16.4347826 11.25,16.4347826 C12.4926407,16.4347826 13.5,15.3836251 13.5,14.0869565 C13.5,12.790288 12.4926407,11.7391304 11.25,11.7391304 Z M6.75,9.39130435 L6.75,10.9565217 L2.25,10.9565217 L2.25,9.39130435 L6.75,9.39130435 Z M4.5,4.69565217 L4.5,6.26086957 L0,6.26086957 L0,4.69565217 L4.5,4.69565217 Z" id="Shipping"></path>
                </g>
            </g>
        </g>
    </g>
</svg>