<?xml version="1.0" encoding="UTF-8"?>
<svg width="16px" height="16px" viewBox="0 0 16 16" version="1.1" xmlns="http://www.w3.org/2000/svg" xmlns:xlink="http://www.w3.org/1999/xlink">
    <title>9104217_refresh_repeat_reload_update_recycle_icon</title>
    <g id="Page-1" stroke="none" stroke-width="1" fill="none" fill-rule="evenodd">
        <g id="Momotaro-home-Copy-42" transform="translate(-308.000000, -275.000000)" fill="#35D850" fill-rule="nonzero">
            <g id="9104217_refresh_repeat_reload_update_recycle_icon" transform="translate(308.000000, 275.000000)">
                <path d="M14.5255874,7.14712718 C14.0098861,7.14712718 13.6660852,7.49092806 13.6660852,8.00662939 C13.6660852,11.358688 11.0016284,14.0231449 7.64956972,14.0231449 C7.47766928,14.0231449 7.21981861,14.0231449 7.04791817,14.0231449 C6.87601773,14.0231449 6.79006751,14.0231449 6.61816706,13.9371947 C6.44626662,13.9371947 6.3603164,13.8512445 6.18841595,13.8512445 C6.10246573,13.8512445 6.01651551,13.7652942 5.93056529,13.7652942 C5.50081418,13.5933938 5.07106307,13.4214934 4.64131197,13.2495929 C4.64131197,13.2495929 4.64131197,13.2495929 4.64131197,13.2495929 C4.46941152,13.1636427 4.29751108,12.9917422 4.12561064,12.905792 C4.03966041,12.8198418 3.95371019,12.8198418 3.86775997,12.7338916 C3.78180975,12.6479414 3.69585953,12.5619911 3.60990931,12.5619911 C3.60990931,12.4760409 3.43800886,12.3041405 3.35205864,12.2181903 C3.26610842,12.13224 3.26610842,12.13224 3.1801582,12.0462898 L4.72726219,11.7884391 C5.1570133,11.7024889 5.50081418,11.2727378 5.41486396,10.7570365 C5.32891374,10.3272854 4.89916263,9.98348449 4.3834613,10.0694347 L1.54710399,10.585136 C1.54710399,10.585136 1.54710399,10.585136 1.54710399,10.585136 L0.859502216,10.7570365 C0.601651551,10.7570365 0.429751108,10.9289369 0.343800886,11.1008374 C0.171900443,11.2727378 0.171900443,11.5305885 0.171900443,11.7024889 L0.859502216,15.3123982 C0.945452437,15.7421493 1.28925332,16 1.71900443,16 C1.80495465,16 1.80495465,16 1.89090487,16 C2.32065598,15.9140498 2.66445687,15.4842987 2.57850665,14.9685973 L2.32065598,13.5074436 C2.32065598,13.5074436 2.32065598,13.5074436 2.32065598,13.5074436 C2.57850665,13.679344 2.75040709,13.9371947 2.92230753,14.0231449 C2.92230753,14.0231449 2.92230753,14.0231449 3.00825776,14.0231449 C3.09420798,14.1090951 3.1801582,14.1090951 3.26610842,14.1950453 C3.43800886,14.3669458 3.69585953,14.452896 3.86775997,14.6247965 C3.86775997,14.6247965 3.86775997,14.6247965 3.86775997,14.6247965 C4.03966041,14.8826471 4.29751108,14.9685973 4.55536174,15.1404978 L4.64131197,15.1404978 C4.72726219,15.226448 4.89916263,15.226448 5.07106307,15.3123982 C5.41486396,15.3983484 5.75866485,15.4842987 6.01651551,15.5702489 C6.18841595,15.5702489 6.3603164,15.6561991 6.53221684,15.6561991 C6.53221684,15.6561991 6.61816706,15.6561991 6.61816706,15.6561991 C6.70411728,15.6561991 6.87601773,15.6561991 6.96196795,15.6561991 C7.13386839,15.6561991 7.39171906,15.6561991 7.5636195,15.6561991 C11.8611306,15.6561991 15.2991394,12.2181903 15.2991394,7.92067917 C15.3850897,7.49092806 14.9553386,7.14712718 14.5255874,7.14712718 Z" id="Path"></path>
                <path d="M0.859502216,8.86613161 C1.37520355,8.86613161 1.71900443,8.52233072 1.71900443,8.00662939 C1.71900443,4.65457075 4.3834613,1.99011388 7.73551994,1.99011388 C7.90742039,1.99011388 8.16527105,1.99011388 8.33717149,1.99011388 C8.50907194,1.99011388 8.59502216,1.99011388 8.7669226,2.0760641 C8.93882305,2.0760641 9.02477327,2.16201432 9.19667371,2.16201432 C9.28262393,2.16201432 9.36857415,2.24796455 9.45452437,2.24796455 C10.0561759,2.41986499 10.6578275,2.76366588 11.1735288,3.10746676 C11.259479,3.19341698 11.3454292,3.19341698 11.4313795,3.2793672 C11.5173297,3.36531743 11.6032799,3.45126765 11.6892301,3.45126765 C11.7751804,3.53721787 11.8611306,3.70911831 12.033031,3.79506853 C12.1189812,3.88101876 12.1189812,3.88101876 12.2049315,3.96696898 L10.6578275,4.22481964 C10.2280764,4.31076986 9.88427548,4.74052097 9.9702257,5.2562223 C10.0561759,5.68597341 10.3999768,5.94382407 10.8297279,5.94382407 C10.9156781,5.94382407 10.9156781,5.94382407 11.0016284,5.94382407 L14.6115377,5.2562223 C14.8693883,5.2562223 15.0412888,5.08432186 15.127239,4.91242141 C15.2131892,4.74052097 15.2991394,4.48267031 15.2991394,4.31076986 L14.6115377,0.700860557 C14.5255874,0.271109449 14.0958363,-0.0726914373 13.580135,0.0132587843 C13.1503839,0.0992090058 12.806583,0.528960114 12.8925332,1.04466144 L13.1503839,2.50581521 C13.1503839,2.50581521 13.1503839,2.50581521 13.1503839,2.50581521 C12.9784835,2.33391477 12.7206328,2.16201432 12.5487324,1.99011388 C12.5487324,1.99011388 12.5487324,1.99011388 12.4627821,1.99011388 C12.3768319,1.90416366 12.2908817,1.90416366 12.2049315,1.81821344 C12.033031,1.64631299 11.8611306,1.56036277 11.6032799,1.38846233 C11.6032799,1.38846233 11.6032799,1.38846233 11.5173297,1.38846233 C11.259479,1.21656189 11.0016284,1.13061166 10.7437777,0.958711222 L10.6578275,0.958711222 C10.5718773,0.872761 10.3999768,0.872761 10.2280764,0.786810779 C9.88427548,0.700860557 9.5404746,0.614910335 9.28262393,0.528960114 C9.11072349,0.528960114 8.93882305,0.443009892 8.7669226,0.443009892 C8.7669226,0.443009892 8.68097238,0.443009892 8.68097238,0.443009892 C8.59502216,0.443009892 8.42312172,0.443009892 8.33717149,0.443009892 C8.16527105,0.443009892 7.90742039,0.443009892 7.73551994,0.443009892 C3.43800886,0.443009892 0,3.88101876 0,8.17852984 C0,8.52233072 0.343800886,8.86613161 0.859502216,8.86613161 Z" id="Path"></path>
                <path d="M7.73551994,5.42812274 C6.27436618,5.42812274 5.1570133,6.54547563 5.1570133,8.00662939 C5.1570133,9.46778316 6.27436618,10.585136 7.73551994,10.585136 C9.19667371,10.585136 10.3140266,9.46778316 10.3140266,8.00662939 C10.3140266,6.54547563 9.19667371,5.42812274 7.73551994,5.42812274 Z M7.73551994,8.86613161 C7.21981861,8.86613161 6.87601773,8.52233072 6.87601773,8.00662939 C6.87601773,7.49092806 7.21981861,7.14712718 7.73551994,7.14712718 C8.25122127,7.14712718 8.59502216,7.49092806 8.59502216,8.00662939 C8.59502216,8.52233072 8.25122127,8.86613161 7.73551994,8.86613161 Z" id="Shape"></path>
            </g>
        </g>
    </g>
</svg>