<?xml version="1.0" encoding="UTF-8"?>
<svg width="32px" height="22px" viewBox="0 0 32 22" version="1.1" xmlns="http://www.w3.org/2000/svg" xmlns:xlink="http://www.w3.org/1999/xlink">
    <title>F09A1DD1-28BA-4A0B-A900-6CE805F46B85</title>
    <g id="Finbal_Final" stroke="none" stroke-width="1" fill="none" fill-rule="evenodd">
        <g id="Customer-Landing-Page-Copy-55" transform="translate(-40.000000, -981.000000)" fill="#8C80F8" fill-rule="nonzero">
            <g id="Group-6" transform="translate(0.000000, 316.000000)">
                <g id="7952168_box_logistics_shipping_package_delivery_icon" transform="translate(40.000000, 665.000000)">
                    <path d="M18,1 L24,1 L24,6.13 C24,6.61048773 23.6104877,7 23.13,7 L18.87,7 C18.3895123,7 18,6.61048773 18,6.13 L18,1 Z" id="Path"></path>
                    <path d="M29,22 L13,22 C11.3431458,22 10,20.6568542 10,19 L10,3 C10,1.34314575 11.3431458,0 13,0 L29,0 C30.6568542,0 32,1.34314575 32,3 L32,19 C32,20.6568542 30.6568542,22 29,22 Z M13,2 C12.4477153,2 12,2.44771525 12,3 L12,19 C12,19.5522847 12.4477153,20 13,20 L29,20 C29.5522847,20 30,19.5522847 30,19 L30,3 C30,2.44771525 29.5522847,2 29,2 L13,2 Z" id="Shape"></path>
                    <path d="M17,18 L15,18 C14.4477153,18 14,17.5522847 14,17 C14,16.4477153 14.4477153,16 15,16 L17,16 C17.5522847,16 18,16.4477153 18,17 C18,17.5522847 17.5522847,18 17,18 Z" id="Path"></path>
                    <path d="M7,12 L5,12 C4.44771525,12 4,11.5522847 4,11 C4,10.4477153 4.44771525,10 5,10 L7,10 C7.55228475,10 8,10.4477153 8,11 C8,11.5522847 7.55228475,12 7,12 Z" id="Path"></path>
                    <path d="M7,8 L3,8 C2.44771525,8 2,7.55228475 2,7 C2,6.44771525 2.44771525,6 3,6 L7,6 C7.55228475,6 8,6.44771525 8,7 C8,7.55228475 7.55228475,8 7,8 Z" id="Path"></path>
                    <path d="M7,4 L1,4 C0.44771525,4 0,3.55228475 0,3 C0,2.44771525 0.44771525,2 1,2 L7,2 C7.55228475,2 8,2.44771525 8,3 C8,3.55228475 7.55228475,4 7,4 Z" id="Path"></path>
                </g>
            </g>
        </g>
    </g>
</svg>