<?xml version="1.0" encoding="UTF-8"?>
<svg width="56px" height="56px" viewBox="0 0 24 24" version="1.1" xmlns="http://www.w3.org/2000/svg" xmlns:xlink="http://www.w3.org/1999/xlink">
    <title>Bass Guitar</title>
    <g id="Bass-Guitar" stroke="none" stroke-width="1" fill="none" fill-rule="evenodd">
        <path d="M19.603952,2.49393541 C19.8554946,2.74449452 19.8813664,3.1358809 19.6810724,3.41540207 L19.6059306,3.50408601 L17.715,5.402 L18.607,6.297 L20.4939354,4.40350616 C20.7444945,4.15196358 21.1358809,4.12609179 21.4154021,4.32638574 L21.504086,4.40152758 C21.7556286,4.6520867 21.7815004,5.04347307 21.5812064,5.32299425 L21.5060646,5.41167819 L19.5159703,7.41068656 C21.0197321,9.64859529 20.4363018,12.7317932 18.0537873,14.0018753 L18.0537873,14.0018753 L17.8811991,14.1027676 C17.3190525,14.4550741 16.8745873,14.9854414 16.6703623,15.5489114 L16.6703623,15.5489114 L15.6132397,18.3081848 C14.1582956,22.0409695 9.39253408,22.870646 6.41886886,19.9659 L6.41886886,19.9659 L4.02610754,17.5637469 C1.12882372,14.6550909 1.96258018,9.80032257 5.68238908,8.33904496 L5.68238908,8.33904496 L8.40867349,7.28665194 C9.10443866,6.99561189 9.61299541,6.54178711 9.95682067,5.90896664 L9.95682067,5.90896664 L10.0733557,5.70286155 C11.4394928,3.43007732 14.4553477,2.95169527 16.6189345,4.47790358 L18.5938014,2.49591399 C18.8722004,2.21642223 19.3244603,2.21553639 19.603952,2.49393541 Z M16.2714154,6.04754225 C14.7511777,4.52133746 12.3195907,4.73885441 11.307593,6.4219534 L11.307593,6.4219534 L11.2064864,6.60107833 L11.0815485,6.81624806 C10.5832759,7.62349555 9.86890317,8.22432917 8.94160648,8.61194716 L8.94160648,8.61194716 L6.20084933,9.67020909 C3.46826982,10.7436763 2.84779797,14.3565384 5.03823673,16.5555748 L5.03823673,16.5555748 L7.42404561,18.9508432 C9.67930144,21.153759 13.2104659,20.5390148 14.2807105,17.7932431 L14.2807105,17.7932431 L15.3317642,15.0501131 C15.6432904,14.1900535 16.2975829,13.4093056 17.1404537,12.8814262 L17.1404537,12.8814262 L17.5172299,12.6631573 C19.1894605,11.6333153 19.4132903,9.20174924 17.8900481,7.67252817 L17.8900481,7.67252817 Z M7.83523647,13.442069 L7.92362538,13.5175577 L10.5275127,16.1316655 C10.8059117,16.4111572 10.8050259,16.863417 10.5255341,17.1418161 C10.2739915,17.3923752 9.8825068,17.4167136 9.6037724,17.2153262 L9.5153835,17.1398375 L6.91149619,14.5257297 C6.63309717,14.2462379 6.63398301,13.7939781 6.91347477,13.5155791 C7.16501735,13.26502 7.55650207,13.2406816 7.83523647,13.442069 Z M13.3994641,7.86718769 C14.9217304,7.86718769 16.1546344,9.10493099 16.1546344,10.6303687 C16.1546344,12.1558064 14.9217304,13.3935497 13.3994641,13.3935497 C11.8771977,13.3935497 10.6442937,12.1558064 10.6442937,10.6303687 C10.6442937,9.10493099 11.8771977,7.86718769 13.3994641,7.86718769 Z M13.3994641,9.29575911 C12.6674314,9.29575911 12.0728651,9.89265915 12.0728651,10.6303687 C12.0728651,11.3680782 12.6674314,11.9649783 13.3994641,11.9649783 C14.1314967,11.9649783 14.726063,11.3680782 14.726063,10.6303687 C14.726063,9.89265915 14.1314967,9.29575911 13.3994641,9.29575911 Z" id="Combined-Shape" fill="#000000" fill-rule="nonzero"></path>
    </g>
</svg>