<?xml version="1.0" encoding="UTF-8"?>
<svg width="56px" height="56px" viewBox="0 0 24 24" version="1.1" xmlns="http://www.w3.org/2000/svg" xmlns:xlink="http://www.w3.org/1999/xlink">
    <title>Bass Acoustic</title>
    <g id="Bass-Acoustic" stroke="none" stroke-width="1" fill="none" fill-rule="evenodd">
        <g id="acoustic-guitar-svgrepo-com" transform="translate(3.000000, 3.000000)" fill="#000000" fill-rule="nonzero">
            <path d="M7.00001663,9 C6.73279944,9 6.48150885,9.10398541 6.29251825,9.29288401 C5.90248758,9.68276281 5.90248758,10.3171612 6.29255626,10.707116 C6.48150885,10.8959766 6.73276143,11 7.00001663,11 C7.26723382,11 7.51852441,10.8959766 7.707477,10.707078 C8.09750767,10.3171992 8.09750767,9.68280081 7.707477,9.29284602 C7.51852441,9.10398541 7.26727183,9 7.00001663,9 Z M7.17353676,10.1733977 C7.12720137,10.2197105 7.06558557,10.2452414 7.00001663,10.2452414 C6.93444769,10.2452034 6.87283189,10.2197105 6.82645849,10.1734357 C6.73078486,10.0777706 6.73078486,9.92215341 6.82642048,9.82652635 C6.87279388,9.78021352 6.93444769,9.75472057 7.00001663,9.75472057 C7.06558557,9.75472057 7.12716336,9.78021352 7.17353676,9.82648836 C7.26921039,9.92215341 7.26921039,10.0777706 7.17353676,10.1733977 Z" id="Shape"></path>
            <path d="M4.62074993,11.1064809 C4.47870734,10.9645064 4.24854708,10.9645064 4.10650449,11.1064809 C3.9644985,11.2484921 3.9644985,11.478734 4.10650449,11.6207452 L5.37921346,12.8935008 C5.45023475,12.9644881 5.54325801,13 5.63635448,13 C5.72941435,13 5.82247421,12.9644881 5.89349551,12.8935008 C6.0355015,12.7514896 6.0355015,12.5212477 5.89349551,12.3792365 L4.62074993,11.1064809 Z" id="Path"></path>
            <path d="M16.8334464,1.49310691 L15.5065708,0.166479518 C15.2844325,-0.0554931726 14.9244883,-0.0554931726 14.70235,0.166479518 L14.2801728,0.588559615 L14.0188167,0.327263759 C13.7966784,0.105291069 13.4367343,0.105291069 13.214596,0.327263759 C12.9925149,0.549293688 12.9925149,0.909269513 13.214596,1.13129944 L13.475952,1.3925953 L12.9532399,1.91518701 L12.6918267,1.65383392 C12.4696884,1.43186123 12.1097442,1.43186123 11.8876059,1.65383392 C11.6655248,1.87586385 11.6655248,2.23583967 11.8876059,2.4578696 L12.1490192,2.71922269 L9.66925729,5.19847105 C9.2317937,5.00082491 8.77703996,4.89499008 8.33436643,4.89499008 C7.64195906,4.89499008 7.01688022,5.15399637 6.52680191,5.64401912 C6.27248791,5.89827458 6.09506354,6.22007202 5.92347888,6.53133749 C5.77473782,6.80110471 5.60618753,7.10693248 5.45355333,7.20647103 C4.94813145,7.53605297 4.3686253,7.6061707 3.75505414,7.68035239 C2.91453549,7.78206602 1.96180266,7.89734529 1.14384136,8.71500385 C-0.621413827,10.4798527 -0.332805798,12.7928791 1.93569568,15.0609157 C3.22260925,16.3474758 4.49669834,17 5.72252387,17 C5.72263838,17 5.72275288,17 5.72286739,17 C6.66008489,17 7.52144331,16.6139804 8.28301126,15.8525878 C9.09885423,15.0369326 9.23122117,14.0979274 9.34807279,13.269508 C9.43332122,12.665179 9.51376048,12.0943921 9.8449641,11.5867398 C9.95483095,11.4183427 10.2464733,11.2405585 10.5284401,11.0685554 C10.8160749,10.8931753 11.1136142,10.7118422 11.3546457,10.470809 C11.9581978,9.86739585 12.2096492,9.0535723 12.0626257,8.17918993 C12.0145911,7.89345304 11.9253351,7.60777339 11.7996666,7.32964928 L14.943496,4.18654346 L15.204852,4.44783931 C15.3159212,4.55882566 15.4613989,4.61434745 15.6069911,4.61434745 C15.752526,4.61434745 15.8980609,4.55882566 16.0091301,4.44783931 C16.2312111,4.22580938 16.2312111,3.86583356 16.0091301,3.64380363 L15.7477741,3.38250777 L16.8333891,2.2971426 C17.0555274,2.07511267 17.0555274,1.71513684 16.8334464,1.49310691 Z M15.6271438,1.89509614 L13.604254,3.91752034 L13.0815992,3.39498587 L15.104489,1.37256166 L15.6271438,1.89509614 Z M10.5504822,9.66683053 C10.4054625,9.81181682 10.1776563,9.95073577 9.93633851,10.0978399 C9.54627969,10.3356678 9.14288112,10.5816236 8.89240302,10.9656398 C8.42299274,11.6851335 8.3162175,12.4425767 8.22198048,13.1108416 C8.1166938,13.8571804 8.02583465,14.5018056 7.47884772,15.0486093 C6.9306585,15.5967296 6.3563623,15.8630053 5.72292464,15.8630053 C5.72286739,15.8630053 5.72275288,15.8630053 5.72269563,15.8630053 C4.822234,15.8630053 3.79083672,15.3075584 2.73991647,14.2569373 C1.88456952,13.4017872 1.34737271,12.5424014 1.1864942,11.7718506 C1.01319198,10.9415422 1.26229603,10.204705 1.94806214,9.51909677 C2.48829332,8.97898993 3.13862036,8.9003436 3.89165774,8.80921918 C4.57416048,8.72668059 5.34769412,8.63309489 6.07491078,8.1588701 C6.46519861,7.90432844 6.69615374,7.48539649 6.91949433,7.08020189 C7.05283456,6.83842451 7.19064046,6.58840473 7.33096545,6.44811204 C7.60709251,6.17204853 7.94465112,6.03209927 8.33430917,6.03209927 C8.92034206,6.03209927 9.58721497,6.34914588 10.1183431,6.88009448 C10.5557494,7.31740014 10.8556361,7.85962482 10.9410563,8.36767783 C11.0279078,8.88380154 10.8964569,9.32093549 10.5504822,9.66683053 Z M10.9226211,6.07600156 C10.8345101,5.98791079 10.7435364,5.90462811 10.6505017,5.82552386 L12.3021686,4.17423708 L12.8248234,4.69677155 L11.1729274,6.34828729 C11.0937477,6.25504503 11.0105604,6.1639206 10.9226211,6.07600156 Z" id="Shape"></path>
        </g>
    </g>
</svg>