<?xml version="1.0" encoding="UTF-8"?>
<svg width="56px" height="56px" viewBox="0 0 24 24" version="1.1" xmlns="http://www.w3.org/2000/svg" xmlns:xlink="http://www.w3.org/1999/xlink">
    <title>Bassoon</title>
    <g id="Bassoon" stroke="none" stroke-width="1" fill="none" fill-rule="evenodd">
        <g id="Group-20" transform="translate(-1.000000, -1.000000)">
            <rect id="Rectangle" x="3.44388326" y="2.99943882" width="20" height="20"></rect>
            <path d="M11.9253614,0.999438818 L11.9253614,2.33275913 L12.1568471,2.33275913 L12.1568471,8.11053257 L11.2309042,8.11053257 L11.2309042,7.59201694 C11.2309042,6.61174351 10.400176,5.81424351 9.37905912,5.81424351 C8.40998479,5.81424351 7.61286662,6.53272007 7.53417205,7.44389194 L7.52721405,7.44389194 C7.52721405,7.56432163 7.42117577,7.66611851 7.29572833,7.66611851 L6.36978545,7.66611851 L5.44388326,8.99943882 L7.29572833,8.99943882 C8.13711728,8.99943882 8.83059788,8.38049351 8.90856002,7.59201694 L8.91608768,7.59201694 C8.91608768,7.35107944 9.12808287,7.14756382 9.37905912,7.14756382 C9.63003538,7.14756382 9.84203056,7.35107944 9.84203056,7.59201694 L9.84203056,9.27139194 L11.3272989,18.7772123 L12.1568471,18.7772123 L12.1568471,20.9994388 L16.3235087,20.9994388 L16.3235087,2.33275913 L16.5549944,2.33275913 L16.5549944,0.999438818 L11.9253614,0.999438818 Z M12.1568064,15.0978763 L11.2733846,9.44389194 L12.1568064,9.44389194 L12.1568064,15.0978763 Z M14.9345943,19.6661185 L13.5457207,19.6661185 L13.5457207,18.7772123 L14.9345943,18.7772123 L14.9345943,19.6661185 Z M14.9345943,10.1105326 C14.5510906,10.1105326 14.2401372,10.4090091 14.2401372,10.7772123 C14.2401372,11.1454154 14.5510499,11.4438919 14.9345943,11.4438919 L14.9345943,11.8883451 C14.5510906,11.8883451 14.2401372,12.1868216 14.2401372,12.5550248 C14.2401372,12.9231888 14.5510499,13.2217044 14.9345943,13.2217044 L14.9345943,13.6661576 C14.5510906,13.6661576 14.2401372,13.9646341 14.2401372,14.3328373 C14.2401372,14.7010013 14.5510499,14.9995169 14.9345943,14.9995169 L14.9345943,15.4439701 C14.5510906,15.4439701 14.2401372,15.7424466 14.2401372,16.1106498 C14.2401372,16.4788138 14.5510499,16.7773294 14.9345943,16.7773294 L14.9345943,17.4440091 L13.5457207,17.4440091 L13.5457207,9.44400913 L14.9345943,9.44400913 L14.9345943,10.1105326 Z M14.9345943,8.11053257 L13.5457207,8.11053257 L13.5457207,2.33275913 L14.9345943,2.33275913 L14.9345943,8.11053257 Z" id="Shape" fill="#000000" fill-rule="nonzero" transform="translate(10.999439, 10.999439) rotate(45.000000) translate(-10.999439, -10.999439) "></path>
        </g>
    </g>
</svg>