<?xml version="1.0" encoding="UTF-8"?>
<svg width="56px" height="56px" viewBox="0 0 24 24" version="1.1" xmlns="http://www.w3.org/2000/svg" xmlns:xlink="http://www.w3.org/1999/xlink">
    <title>Electric Guitar</title>
    <g id="Electric-Guitar" stroke="none" stroke-width="1" fill="none" fill-rule="evenodd">
        <path d="M20.5838421,2.40360128 C20.8669546,2.21700443 21.242238,2.25516233 21.4819993,2.49492373 L21.4819993,2.49492373 L22.5050763,3.51800065 C22.7448377,3.75776205 22.7829956,4.13304543 22.5963987,4.4161579 L22.5963987,4.4161579 L20.4771679,7.63154251 C20.228271,8.00917926 19.6955048,8.06334964 19.375693,7.74353781 L19.375693,7.74353781 L18.3056973,6.67370182 L13.513,11.406 L14.1012301,11.9949237 C14.3522814,12.2459751 14.3773866,12.6374114 14.1765455,12.9165397 L14.1012301,13.0050763 C13.8501788,13.2561276 13.4587425,13.2812327 13.1796142,13.0803917 L13.0910776,13.0050763 L11.9949237,11.9089224 C11.7427552,11.6567539 11.7186966,11.2632201 11.9219436,10.9840672 L11.9981102,10.8956034 L12.6176973,10.2817018 L5.188,12.572 L10.1246931,14.4637287 C10.2825297,14.5241767 10.4127501,14.6381658 10.4937504,14.7840917 L10.5362713,14.8753069 L12.427,19.811 L15.1058634,11.1203794 C15.2123756,10.7748066 15.5571983,10.5683616 15.9043062,10.6258538 L15.9988514,10.6481711 C16.3444242,10.7546833 16.5508691,11.099506 16.493377,11.4466139 L16.4710597,11.5411591 L13.1825981,22.2103898 C12.9944251,22.8209069 12.1799781,22.8836493 11.882416,22.36044 L11.8329595,22.2554623 L9.316,15.683 L2.74453767,13.1670405 C2.14793532,12.9385545 2.13967066,12.1217362 2.68156677,11.8597444 L2.78961017,11.8174019 L13.4588409,8.52894034 C13.7303289,8.44526252 14.0136496,8.53148813 14.1943591,8.72709982 L17.2956973,5.66370182 L17.2564622,5.62430704 C16.9612513,5.32909613 16.9846997,4.85243295 17.2870755,4.58508277 L17.3684575,4.52283205 Z M10.7973089,11.9196083 L10.8858455,11.9949237 L13.0050763,14.1141545 C13.2840222,14.3931004 13.2840222,14.8453611 13.0050763,15.124307 C12.7540249,15.3753584 12.3625886,15.4004635 12.0834603,15.1996224 L11.9949237,15.124307 L9.87569296,13.0050763 C9.59674704,12.7261303 9.59674704,12.2738697 9.87569296,11.9949237 C10.1267443,11.7438724 10.5181806,11.7187673 10.7973089,11.9196083 Z M20.883,3.917 L18.9296973,5.20370182 L19.7946973,6.06970182 L21.082,4.116 L20.883,3.917 Z" id="Combined-Shape" fill="#000000" fill-rule="nonzero"></path>
    </g>
</svg>