<?xml version="1.0" encoding="UTF-8"?>
<svg width="56px" height="56px" viewBox="0 0 24 24" version="1.1" xmlns="http://www.w3.org/2000/svg" xmlns:xlink="http://www.w3.org/1999/xlink">
    <title>Flute</title>
    <g id="Flute" stroke="none" stroke-width="1" fill="none" fill-rule="evenodd">
        <path d="M19.7949617,2.42113841 L19.8805575,2.49393629 L21.5040869,4.11112379 C21.6522185,4.25867674 21.7282636,4.463724 21.7121653,4.67218428 C21.6333538,5.69273185 21.0208403,6.84399761 20.025023,7.92070632 C20.1036767,8.35271235 20.0142443,8.81219309 19.7469224,9.21369343 L19.638319,9.36137132 L19.5276163,9.48262621 C19.109524,9.89908531 18.524396,10.0703882 17.9938172,9.99653491 L11.6397876,16.3259881 C11.6879314,16.7316803 11.5891304,17.1543479 11.3365602,17.5259679 L11.238319,17.6582463 L11.1276163,17.7795012 C10.804771,18.1010854 10.4008117,18.2748272 9.99031969,18.3007266 C10.0437359,19.2009551 9.7454118,20.1176556 9.0955815,20.848589 L8.93938102,21.0138762 L8.44526337,21.5060637 C8.1944171,21.7559301 7.80423498,21.7809168 7.52552154,21.5810236 L7.43708957,21.5060637 L2.4959131,16.5841887 C2.24367452,16.3329354 2.21845066,15.9402428 2.42024153,15.6607016 L2.4959131,15.5720613 L2.99003075,15.0798738 C3.73012845,14.3426671 4.69324163,13.9929282 5.64494128,14.0306571 C5.65333232,13.7102448 5.75426474,13.3869836 5.95001281,13.0945945 L6.05579868,12.9511287 L6.16650134,12.8298738 C6.60126415,12.3968093 7.18312658,12.2318559 7.7299493,12.3350135 L14.0599414,6.02915825 C13.9998891,5.61364952 14.0946998,5.17770153 14.3517749,4.79508913 L14.4557987,4.65425368 L14.5665013,4.53299879 C14.969207,4.13186617 15.4981194,3.96076412 16.0084913,4.01969262 C17.0168948,3.09636377 18.2326119,2.45266663 19.2682728,2.29395657 C19.4551668,2.26531597 19.6441367,2.3120888 19.7949617,2.42113841 Z M4.13181844,15.9689946 L3.99820455,16.0920012 L4.013,16.079 L7.941,19.991 L8.05221062,19.8715524 C8.6763634,19.1452082 8.73412813,18.1438055 8.2255048,17.3665486 L6.65110584,15.7984634 C5.86983242,15.2913624 4.86238586,15.3482062 4.13181844,15.9689946 Z M7.25558206,13.77152 L7.20110408,13.814223 L7.14218028,13.8779867 C7.04865873,13.9938775 7.04210916,14.129033 7.1254817,14.2482934 L7.17467513,14.3064363 L7.55749167,14.6873909 C7.66568066,14.7644735 7.77079024,14.8483133 7.87228051,14.9389104 L8.02173396,15.0798738 L8.93938102,15.9939363 C9.08584095,16.1398241 9.21708427,16.2944276 9.33311097,16.4559358 L9.64526337,16.7673738 C9.76938737,16.8910129 9.92271188,16.9086757 10.0385356,16.837855 L10.0930136,16.795152 L10.1519374,16.7313883 C10.2454589,16.6154975 10.2520085,16.480342 10.1686359,16.3610816 L10.1507143,16.3407064 L7.60871429,13.8097064 L7.5846677,13.788932 C7.4746638,13.7149324 7.35210181,13.7125028 7.25558206,13.77152 Z M14.8277143,7.28170644 L8.95671429,13.1287064 L10.8897143,15.0547064 L16.7607143,9.20670644 L14.8277143,7.28170644 Z M11.834488,12.1277362 C12.113434,12.4066822 12.113434,12.8589428 11.834488,13.1378888 C11.5555421,13.4168347 11.1032814,13.4168347 10.8243355,13.1378888 C10.5453896,12.8589428 10.5453896,12.4066822 10.8243355,12.1277362 C11.1032814,11.8487903 11.5555421,11.8487903 11.834488,12.1277362 Z M13.316841,10.6511737 C13.5957869,10.9301197 13.5957869,11.3823803 13.316841,11.6613263 C13.0378951,11.9402722 12.5856344,11.9402722 12.3066884,11.6613263 C12.0277425,11.3823803 12.0277425,10.9301197 12.3066884,10.6511737 C12.5856344,10.3722278 13.0378951,10.3722278 13.316841,10.6511737 Z M14.7991939,9.17461123 C15.0781398,9.45355715 15.0781398,9.90581785 14.7991939,10.1847638 C14.520248,10.4637097 14.0679873,10.4637097 13.7890414,10.1847638 C13.5100955,9.90581785 13.5100955,9.45355715 13.7890414,9.17461123 C14.0679873,8.89566531 14.520248,8.89566531 14.7991939,9.17461123 Z M15.654946,5.47503504 L15.6011041,5.517348 L15.5421803,5.58111174 C15.4486587,5.69700253 15.4421092,5.83215799 15.5254817,5.95141843 L15.5727143,6.00770644 L15.5527143,5.98370644 L18.1289371,8.55070503 C18.2078233,8.59559614 18.3423517,8.59385079 18.4397629,8.53819669 L18.4930136,8.498277 L18.5519374,8.43451326 C18.6454589,8.31862247 18.6520085,8.18346701 18.5686359,8.06420657 L18.5194425,8.00606371 L17.8747143,7.36370644 L16.044066,5.54042308 C15.9205764,5.42082725 15.7693609,5.40467211 15.654946,5.47503504 Z M19.148,3.781 L19.0990569,3.79495395 C18.6313856,3.93560768 18.1085399,4.20235055 17.6050199,4.56213278 L17.3906261,4.7219251 L17.311,4.785 L19.213,6.68 L19.2498635,6.6387198 C19.6616009,6.14320129 19.9607166,5.65281958 20.1303279,5.21079216 L20.1950404,5.0244383 L20.238,4.867 L19.148,3.781 Z" id="Combined-Shape" fill="#000000" fill-rule="nonzero"></path>
    </g>
</svg>