<?xml version="1.0" encoding="UTF-8"?>
<svg width="56px" height="56px" viewBox="0 0 24 24" version="1.1" xmlns="http://www.w3.org/2000/svg" xmlns:xlink="http://www.w3.org/1999/xlink">
    <title>Other (Orechtra)</title>
    <g id="Other-(Orechtra)" stroke="none" stroke-width="1" fill="none" fill-rule="evenodd">
        <path d="M11.5458943,4.33715321 C12.3475069,2.36312425 14.7279283,1.66315965 16.4153943,2.90277292 L16.4153943,2.90277292 L16.5920339,3.04209005 C17.888456,4.16154959 18.0891954,6.12605102 17.065424,7.43805725 L17.065424,7.43805725 L16.457,8.273 L17.4047586,12.4990757 C17.7390449,14.098711 17.2498763,15.7399156 16.1417219,16.7376247 L16.1417219,16.7376247 L15.9792254,16.8757031 L15.6466892,17.2073851 C15.60968,17.2390763 15.5723255,17.2700933 15.5346411,17.3004358 L15.5336542,22 C15.5336542,22.3944891 15.2138576,22.7142857 14.8193685,22.7142857 C14.4577535,22.7142857 14.1589009,22.4455677 14.1116034,22.0969243 L14.1050828,22 L14.1054692,18.0860519 C13.3911571,18.3258281 12.6352165,18.3806415 11.9056509,18.2483147 L11.9063305,22 C11.9063305,22.3944891 11.5865339,22.7142857 11.1920448,22.7142857 C10.8304298,22.7142857 10.5315772,22.4455677 10.4842797,22.0969243 L10.4777591,22 L10.4777659,17.7195215 C10.3266877,17.6311737 10.1793822,17.533015 10.0366562,17.4250197 L10.0366562,17.4250197 L9.865413,17.2876461 C8.52813712,16.1781931 7.97653961,14.3559134 8.41064151,12.6622864 L7.70810793,12.3470129 C7.34806101,12.1858054 7.18686984,11.7632451 7.34807738,11.4031982 C7.49462969,11.0758828 7.85717596,10.9129111 8.19239087,11.0071025 L8.29189207,11.0431677 L8.89253712,11.3118532 L9.19453712,10.5178532 L8.41784052,10.1472046 C8.06181109,9.97730845 7.91092027,9.55096152 8.08081644,9.1949321 C8.2352675,8.87126899 8.60166133,8.71714191 8.93449211,8.81943921 L9.03308895,8.85790802 L9.70453712,9.1778532 L10.0185371,8.3508532 L9.15600756,7.96057991 C8.79671454,7.79769904 8.63749102,7.37439346 8.80037189,7.01510044 C8.94844541,6.68847041 9.31174596,6.52718709 9.64651902,6.62293708 L9.74585136,6.65946477 L10.5275371,7.0138532 L10.8355371,6.2048532 L9.87900753,5.76692292 C9.52033472,5.6026808 9.36271751,5.1787745 9.52695963,4.82010169 C9.67627065,4.49403551 10.0401802,4.33413097 10.3745877,4.43114971 L10.4737809,4.46805379 L11.3445371,4.8668532 Z M15.5696407,4.05408399 C14.6384092,3.37000095 13.323488,3.75665447 12.8753188,4.85983227 L12.8753188,4.85983227 L12.4858272,5.8873524 C12.4810969,5.97427138 12.4602877,6.06178185 12.4218512,6.14571968 C12.3972695,6.19940131 12.3668712,6.24857923 12.3317457,6.29284843 L10.8002827,10.3196966 C10.7887527,10.3698633 10.7715872,10.4195515 10.748496,10.4679407 L10.7285371,10.5018532 L10.0114123,12.3921084 C10.0017288,12.4526839 9.98402247,12.5130006 9.95775913,12.5716581 C9.94222106,12.6063614 9.92425497,12.6392173 9.90415087,12.6701152 C9.42611419,13.9354647 9.78509155,15.3648016 10.7681897,16.1805488 L10.7681897,16.1805488 L10.9142789,16.2979906 C11.0374945,16.3911973 11.166038,16.4734329 11.2986882,16.5447495 C11.4327388,16.5633516 11.5539321,16.62027 11.6523665,16.7033133 C12.6538156,17.08395 13.8145591,16.8961177 14.6751622,16.161627 L14.6751622,16.161627 L15.024067,15.8163458 C15.8726529,15.1324427 16.2502463,13.9581844 16.0085852,12.801415 L16.0085852,12.801415 L14.9929345,8.27017812 C14.9480066,8.06973583 14.9915479,7.85965348 15.1124395,7.69357868 L15.1124395,7.69357868 L15.9247024,6.5784004 C16.4930778,5.84964909 16.3803841,4.74679251 15.6838211,4.14430543 L15.6838211,4.14430543 Z" id="Combined-Shape" fill="#000000" fill-rule="nonzero"></path>
    </g>
</svg>