<?xml version="1.0" encoding="UTF-8"?>
<svg width="56px" height="56px" viewBox="0 0 24 24" version="1.1" xmlns="http://www.w3.org/2000/svg" xmlns:xlink="http://www.w3.org/1999/xlink">
    <title>Other (Wood Wind)</title>
    <g id="Other-(Wood-Wind)" stroke="none" stroke-width="1" fill="none" fill-rule="evenodd">
        <g id="piccolo-svgrepo-com" transform="translate(2.000000, 2.000000)" fill="#000000" fill-rule="nonzero">
            <path d="M19.7536168,2.62746464 L17.3734809,0.246604195 C17.0448122,-0.0821685211 16.5118253,-0.0822079707 16.1831171,0.246525296 L5.18819992,11.2417911 L5.18788431,11.2414755 C4.8592156,10.9128211 4.32630755,10.9128211 3.99763884,11.2414755 L2.2125468,13.0264896 C1.88387808,13.3551046 1.88387808,13.8879499 2.21246789,14.2166043 L2.2125468,14.2166832 L0.246412771,16.183402 C-0.082177037,16.5120959 -0.0821375858,17.0448623 0.246531125,17.3734772 L2.626667,19.7535092 C2.95533572,20.0821636 3.48824376,20.0821636 3.81691248,19.7535092 L5.78288869,17.7876188 C6.11151795,18.1161154 6.64422875,18.1161943 6.97289746,17.7876977 L8.75881798,16.0026836 C9.0876445,15.6740292 9.08768395,15.1410655 8.75897579,14.8123717 L8.75866018,14.8120561 L11.5840828,11.9867568 L12.81662,13.2192797 C13.1452888,13.5479341 13.6781968,13.5479341 14.0068655,13.2192797 C14.3355342,12.8906253 14.3355342,12.3577405 14.0068655,12.0290862 L12.7742888,10.7966027 L14.108926,9.46202375 L15.3414633,10.6945467 C15.670132,11.023201 16.20304,11.023201 16.5317087,10.6945467 C16.8603774,10.3658923 16.8603774,9.83300751 16.5317087,9.50435314 L15.299132,8.27186967 L16.6337692,6.93729072 L17.8663065,8.16981363 C18.1949752,8.498468 18.7278832,8.498468 19.0565519,8.16981363 C19.3852207,7.84115927 19.3852207,7.30827447 19.0565519,6.97962011 L17.8239752,5.74713664 L19.7534985,3.81769762 C20.0821277,3.4889249 20.0821672,2.95615846 19.7536168,2.62746464 Z M3.22175029,17.9682189 L2.03174153,16.7783016 L3.40263446,15.4070345 L3.97763704,15.9821303 L4.59268267,16.5973858 L3.22175029,17.9682189 Z M6.37805088,16.0023285 L5.19822055,14.8222735 L3.997915,13.6215864 C3.997915,13.6215864 3.997915,13.6215864 3.997915,13.6215864 L4.59276158,13.0267658 L6.97341032,15.4073106 L6.37805088,16.0023285 Z M7.5683358,13.6218231 L6.97337087,13.0268841 L6.37840594,12.4319452 L16.7781609,2.03189449 L17.9682486,3.22232471 L7.5683358,13.6218231 Z" id="Shape"></path>
        </g>
    </g>
</svg>