<?xml version="1.0" encoding="UTF-8"?>
<svg width="16px" height="19px" viewBox="0 0 16 19" version="1.1" xmlns="http://www.w3.org/2000/svg" xmlns:xlink="http://www.w3.org/1999/xlink">
    <title>51939D3B-5C99-4562-B4EB-29B209E02928</title>
    <g id="Finbal_Final" stroke="none" stroke-width="1" fill="none" fill-rule="evenodd">
        <g id="Inventory-Search-Copy-33" transform="translate(-262.000000, -891.000000)">
            <g id="Menu-2-Copy" transform="translate(0.000000, 845.000000)">
                <g id="Group-58" transform="translate(263.000000, 46.000000)">
                    <path d="M10.6427474,12.4463208 L10.7891208,12.5966038 L10.9371575,12.4463208 C11.409885,11.9637089 12.0989003,11.7752275 12.744658,11.9518757 C13.3904158,12.1285239 13.89481,12.6434646 14.0678402,13.3027247 C14.2408705,13.9619848 14.0562494,14.665407 13.5835219,15.1480189 L10.7891208,18 L7.99638305,15.1480189 C7.26560973,14.4019655 7.26560973,13.1923741 7.99638307,12.4463208 C8.72715641,11.7002674 9.91197408,11.7002674 10.6427474,12.4463208 L10.6427474,12.4463208 Z M5.78498051,0 C8.5419566,0 10.7749828,2.27971698 10.7749828,5.09433962 C10.775943,7.83395714 8.65375759,10.0834268 5.97210559,10.185283 L5.78498051,10.1886792 C3.02800442,10.1886792 0.794978216,7.90896226 0.794978216,5.09433962 C0.794018025,2.3547221 2.91620343,0.105252461 5.59785544,0.00339622642 L5.78498051,0 Z M5.78498051,1.69811321 C3.94699645,1.69811321 2.45831253,3.21792453 2.45831253,5.09433962 C2.45831253,6.97075472 3.94699645,8.49056604 5.78498051,8.49056604 C7.62296457,8.49056604 9.11164849,6.97075472 9.11164849,5.09433962 C9.11164849,3.21792453 7.62296457,1.69811321 5.78498051,1.69811321 Z" id="Shape" fill="#2D3142" fill-rule="nonzero"></path>
                    <path d="M5.78498051,11.8867372 C2.07635609,12.2131532 0.148029256,14.1943037 0,17.8301887" id="Path-6" stroke="#2D3142" stroke-width="2" stroke-linecap="round"></path>
                </g>
            </g>
        </g>
    </g>
</svg>