<?xml version="1.0" encoding="UTF-8"?>
<svg width="18px" height="19px" viewBox="0 0 18 19" version="1.1" xmlns="http://www.w3.org/2000/svg" xmlns:xlink="http://www.w3.org/1999/xlink">
    <title>6E84EA73-3C96-464D-A558-7E963DB7F8BD</title>
    <g id="Finbal_Final" stroke="none" stroke-width="1" fill="none" fill-rule="evenodd">
        <g id="Inventory-Search-Copy-33" transform="translate(-321.000000, -890.000000)" fill-rule="nonzero">
            <g id="Menu-2-Copy" transform="translate(0.000000, 845.000000)">
                <g id="icon1-copy" transform="translate(321.000000, 46.000000)">
                    <path d="M17.490085,16.65 C17.7717033,16.65 18,16.9522078 18,17.325 C18,17.6744927 17.7993486,17.9619483 17.5422208,17.9965151 L17.490085,18 L0.509915014,18 C0.228296728,18 0,17.6977922 0,17.325 C0,16.9755073 0.200651421,16.6880517 0.457779166,16.6534849 L0.509915014,16.65 L17.490085,16.65 Z" id="Vector" fill="#2D3142"></path>
                    <path d="M12.7723483,1.92552971 L5.22764466,1.92552971 C3.38568663,1.92552971 1.89076263,3.41969307 1.89076263,5.26071279 L1.89076263,16.5719986 C1.89076263,16.8534734 2.11905936,17.0816537 2.40067765,17.0816537 L15.6084923,17.0816537 C15.8901106,17.0816537 16.1184073,16.8534734 16.1184073,16.5719986 L16.1184073,5.26988679 C16.1075839,3.41854426 14.6138106,1.92552971 12.7723483,1.92552971 Z" id="Vector" stroke="#2D3142" stroke-width="1.5"></path>
                    <path d="M9.0000035,12.8010866 C9.52572438,12.8010866 10.0010548,13.013089 10.3448673,13.3567262 C10.6885875,13.7002713 10.9006846,14.1752202 10.9006846,14.7005442 L10.9006846,16.3885221 L7.31116483,16.6 L7.09932235,14.7005442 C7.09932235,14.1752202 7.31141947,13.7002713 7.65513973,13.3567262 C7.99895217,13.013089 8.47428262,12.8010866 9.0000035,12.8010866 Z" id="Vector" stroke="#2D3142"></path>
                    <path d="M11.8361439,4.76022817 L10.8907626,4.76022817 C10.6091443,4.76022817 10.3808476,4.98840854 10.3808476,5.26988329 L10.3808476,6.21478365 C10.3808476,6.49625841 10.6091443,6.72443878 10.8907626,6.72443878 L11.8361439,6.72443878 C12.1177622,6.72443878 12.346059,6.49625841 12.346059,6.21478365 L12.346059,5.26988329 C12.346059,4.98840854 12.1177622,4.76022817 11.8361439,4.76022817 Z" id="Vector" stroke="#2D3142"></path>
                    <path d="M7.1184143,4.76022817 L6.17302948,4.76022817 C5.89141119,4.76022817 5.66311447,4.98840854 5.66311447,5.26988329 L5.66311447,6.21478365 C5.66311447,6.49625841 5.89141119,6.72443878 6.17302948,6.72443878 L7.1184143,6.72443878 C7.40003258,6.72443878 7.62832931,6.49625841 7.62832931,6.21478365 L7.62832931,5.26988329 C7.62832931,4.98840854 7.40003258,4.76022817 7.1184143,4.76022817 Z" id="Vector" stroke="#2D3142"></path>
                    <path d="M11.8361439,8.99852272 L10.8907626,8.99852272 C10.6091443,8.99852272 10.3808476,9.2267031 10.3808476,9.50817785 L10.3808476,10.4530782 C10.3808476,10.734553 10.6091443,10.9627333 10.8907626,10.9627333 L11.8361439,10.9627333 C12.1177622,10.9627333 12.346059,10.734553 12.346059,10.4530782 L12.346059,9.50817785 C12.346059,9.2267031 12.1177622,8.99852272 11.8361439,8.99852272 Z" id="Vector" stroke="#2D3142"></path>
                    <path d="M7.1184143,8.99852272 L6.17302948,8.99852272 C5.89141119,8.99852272 5.66311447,9.2267031 5.66311447,9.50817785 L5.66311447,10.4530782 C5.66311447,10.734553 5.89141119,10.9627333 6.17302948,10.9627333 L7.1184143,10.9627333 C7.40003258,10.9627333 7.62832931,10.734553 7.62832931,10.4530782 L7.62832931,9.50817785 C7.62832931,9.2267031 7.40003258,8.99852272 7.1184143,8.99852272 Z" id="Vector" stroke="#2D3142"></path>
                    <path d="M11.44127,0 L6.56649196,0 C5.42338848,0 4.5,0.751128208 4.5,1.68098377 L4.5,2.34295161 C4.5,2.54014399 4.69651646,2.7 4.93893179,2.7 L13.0609888,2.7 C13.3034041,2.7 13.5,2.54014399 13.5,2.34295161 L13.5,1.68098377 C13.5098569,0.753574763 12.586548,0 11.44127,0 Z" id="Vector" stroke="#2D3142" stroke-width="1.5" fill="#FFFFFF"></path>
                </g>
            </g>
        </g>
    </g>
</svg>