<?xml version="1.0" encoding="UTF-8"?>
<svg width="56px" height="56px" viewBox="0 0 24 24" version="1.1" xmlns="http://www.w3.org/2000/svg" xmlns:xlink="http://www.w3.org/1999/xlink">
    <title>2CA97F07-013D-48EF-91D5-E2D5046B405B</title>
    <g id="Finbal_Final" stroke="none" stroke-width="1" fill="none" fill-rule="evenodd">
        <g id="Customer-Landing-Page-Copy-77" transform="translate(-299.000000, -497.000000)">
            <g id="Group-3" transform="translate(16.000000, 348.000000)">
                <g id="Group-10" transform="translate(16.000000, 129.000000)">
                    <g id="Group" transform="translate(267.000000, 20.000000)">
                        <rect id="Rectangle" x="0" y="0" width="24" height="24"></rect>
                        <g transform="translate(3.600000, 2.400000)" id="Shape" stroke="#9C9EB9" stroke-linecap="round" stroke-linejoin="round" stroke-width="1.61">
                            <path d="M17.4315786,11.6210524 L17.4315786,3.87368413 C17.4315786,2.80399579 16.5644248,1.93684206 15.4947365,1.93684206 L1.93684206,1.93684206 C0.867153729,1.93684206 0,2.80399579 0,3.87368413 L0,17.4315786 C0,18.5012669 0.867153729,19.3684206 1.93684206,19.3684206 L9.68421032,19.3684206 M12.7952631,0 L12.7952631,3.87368413 M5.0478948,0 L5.0478948,3.87368413 M0,7.95315789 L17.4315786,7.95315789 M12.5894734,17.4315786 L14.5263155,19.3684206 L18.3999996,15.4947365"></path>
                        </g>
                    </g>
                </g>
            </g>
        </g>
    </g>
</svg>