<?xml version="1.0" encoding="UTF-8"?>
<svg width="20px" height="20px" viewBox="0 0 20 20" version="1.1" xmlns="http://www.w3.org/2000/svg" xmlns:xlink="http://www.w3.org/1999/xlink">
    <title>4135AB6C-2FBC-48A8-83C0-B3D100912C04</title>
    <g id="Finbal_Final" stroke="none" stroke-width="1" fill="none" fill-rule="evenodd">
        <g id="Momotaro-home-Copy-52-(1)-Copy-12" transform="translate(-55.000000, -682.000000)" fill="#2D3142" fill-rule="nonzero" stroke="#2D3142" stroke-width="0.3">
            <g id="Group-12" transform="translate(32.000000, 232.000000)">
                <g id="noun-discount-2828867" transform="translate(24.000000, 451.000000)">
                    <path d="M7.06307269,17.9208357 L0.0790502859,10.9003488 C0.0262889145,10.8475113 0,10.7948576 0,10.7155096 C0,10.6363453 0.0262884439,10.5835078 0.0790502859,10.5306703 L10.5155517,0.0791183336 C10.6208909,-0.0263727779 10.779175,-0.0263727779 10.8845095,0.0791183336 C11.6487046,0.844415509 12.8611196,0.844415509 13.6253147,0.0791183336 C13.7306539,-0.0263727779 13.888938,-0.0263727779 13.9942725,0.0791183336 L15.6809798,1.76825805 C15.786319,1.87374916 15.786319,2.03226154 15.6809798,2.13774794 C15.5756406,2.24323905 15.4173565,2.24323905 15.312022,2.13774794 L13.8097042,0.633640658 C12.913688,1.37263929 11.6222557,1.37263929 10.7261924,0.633640658 L0.632303457,10.7156934 L7.27371344,17.366681 L17.3676024,7.2582355 C17.0249335,6.80958132 16.8140575,6.28174873 16.8140575,5.70110695 C16.8140575,5.12046517 16.9986305,4.59260901 17.3676024,4.1439784 L15.312022,2.13774794 C15.2066828,2.03225683 14.9607206,1.72659008 15.0660598,1.62110368 C15.171399,1.51561728 15.5756453,1.66276694 15.6809798,1.76825805 L17.9209497,3.95914391 C18.0262889,4.06463502 18.0262889,4.2231474 17.9209497,4.32863379 C17.5519919,4.69812368 17.3411441,5.17329791 17.3411441,5.70110695 C17.3411441,6.22891598 17.552006,6.70408079 17.9209497,7.0735801 C17.9737111,7.12641756 18,7.17907121 18,7.2584193 C18,7.33758359 17.9737116,7.39042105 17.9209497,7.44325851 L7.43173871,17.920732 C7.40545027,17.9735695 7.32639951,18 7.24734922,18 C7.16859543,18 7.11583406,17.9736736 7.06307269,17.9208357 Z" id="Path"></path>
                    <path d="M13.5991529,5.75373703 C13.256484,5.75373703 12.8875262,5.62173529 12.6240723,5.35792032 C12.0970233,4.83011129 12.0970233,3.95910149 12.6240723,3.43129246 C12.9402734,3.11463532 13.3882674,2.98263828 13.8099913,3.03547574 C13.941803,3.0618021 14.0471422,3.19380431 14.0208532,3.32580606 C13.9945648,3.4578078 13.8627527,3.56329892 13.730941,3.53697209 C13.4673177,3.48413463 13.1773961,3.58980955 12.9930066,3.77446495 C12.6503377,4.11762801 12.6503377,4.64542761 12.9930066,4.98862838 C13.3356755,5.33182914 13.862715,5.33179144 14.2054216,4.98862838 C14.2844718,4.90946409 14.3635221,4.77746235 14.4162835,4.67197124 C14.4690449,4.53996949 14.6008565,4.46080521 14.7589524,4.51364267 C14.8907641,4.56648013 14.9698143,4.69848187 14.917053,4.85680573 C14.8380027,5.04164493 14.7324799,5.22629562 14.6008518,5.38461476 C14.2844671,5.62173529 13.9417935,5.75373703 13.5991341,5.75373703 L13.5991529,5.75373703 Z" id="Path"></path>
                    <path d="M7.27400052,11.7976906 C7.22123915,11.7976906 7.19495023,11.7976906 7.14218886,11.7713637 C7.0103772,11.6921995 6.95761583,11.5338709 7.03684966,11.4282007 L8.8816387,8.07626692 C8.96068899,7.94426517 9.11878956,7.89142771 9.2243076,7.9707758 C9.35611926,8.04994009 9.40888063,8.20826866 9.3296468,8.31393887 L7.48485775,11.6658726 C7.4583853,11.7450369 7.37933501,11.7976906 7.27399581,11.7976906 L7.27400052,11.7976906 Z" id="Path"></path>
                    <path d="M9.46144904,11.7976901 C8.98715674,11.7976901 8.61800127,11.4018734 8.61800127,10.953026 L8.61800127,10.5306986 C8.61800127,10.0557223 9.01324799,9.68603451 9.46144904,9.68603451 C9.90945714,9.68603451 10.3048968,10.0818512 10.3048968,10.5306986 L10.3048968,10.953026 C10.3311853,11.401864 9.93575076,11.7976901 9.46144904,11.7976901 Z M9.46144904,10.1877288 C9.27687601,10.1877288 9.11878015,10.3460574 9.11878015,10.5308919 L9.11878015,10.9532192 C9.11878015,11.1380584 9.27688072,11.2963823 9.46144904,11.2963823 C9.64601737,11.2963823 9.80411794,11.1380537 9.80411794,10.9532192 L9.80411794,10.5308919 C9.80393411,10.3462365 9.64583382,10.1877288 9.46144904,10.1877288 Z" id="Shape"></path>
                    <path d="M6.9577429,10.0557648 C6.4834506,10.0557648 6.11429513,9.65994804 6.11429513,9.21110064 L6.11429513,8.78877329 C6.11429513,8.313797 6.50954185,7.94410917 6.9577429,7.94410917 C7.40575099,7.94410917 7.80119067,8.33992588 7.80119067,8.78877329 L7.80119067,9.21110064 C7.82729557,9.65975481 7.43204461,10.0557648 6.9577429,10.0557648 Z M6.9577429,8.44580346 C6.77316987,8.44580346 6.61507401,8.60413203 6.61507401,8.78896652 L6.61507401,9.21129387 C6.61507401,9.39613307 6.77317458,9.55445693 6.9577429,9.55445693 C7.14231593,9.55445693 7.30041179,9.39612836 7.30041179,9.21129387 L7.30041179,8.78896652 C7.30022797,8.60412732 7.14212768,8.44580346 6.9577429,8.44580346 Z" id="Shape"></path>
                    <path d="M8.19641857,13.5396154 C6.14074405,13.5396154 4.45403676,11.8504757 4.45403676,9.79183668 C4.45403676,7.73319764 6.14074405,6.04405792 8.19641857,6.04405792 C10.2520931,6.04405792 11.9388004,7.73319764 11.9388004,9.79183668 C11.9388004,11.8504757 10.2520931,13.5396154 8.19641857,13.5396154 Z M8.19641857,6.57191409 C6.43064687,6.57191409 4.98113279,8.02356566 4.98113279,9.79183668 C4.98113279,11.5601548 6.43069393,13.0117593 8.19641857,13.0117593 C9.96214321,13.0117593 11.4117044,11.5601077 11.4117044,9.79183668 C11.4115205,8.02351853 9.96214321,6.57191409 8.19641857,6.57191409 Z" id="Shape"></path>
                </g>
            </g>
        </g>
    </g>
</svg>