<?xml version="1.0" encoding="UTF-8"?>
<svg width="19px" height="18px" viewBox="0 0 19 18" version="1.1" xmlns="http://www.w3.org/2000/svg" xmlns:xlink="http://www.w3.org/1999/xlink">
    <title>86C3E007-FC9F-46CC-B857-F3D7F5C1D26B</title>
    <g id="Finale" stroke="none" stroke-width="1" fill="none" fill-rule="evenodd">
        <g id="1-Agent-Landing-Page-Copy-331" transform="translate(-293.000000, -598.000000)" fill="#8C80F8">
            <g id="Group-8-Copy" transform="translate(293.000000, 598.000000)">
                <path d="M10.9906942,0 C12.1311371,0 13.21125,0.497278404 13.9522719,1.35549767 L14.0794637,1.51066716 L18.2880443,6.92169939 C18.5729673,7.28802888 18.7421274,7.72948692 18.776201,8.18975354 L18.7826087,8.36312517 L18.7826087,13.3043478 C18.7826087,14.5547068 17.8051931,15.5767781 16.5727352,15.6481883 L16.4347826,15.6521739 L15.3263924,15.6525906 C14.7224704,17.0343805 13.3435667,18 11.7391304,18 C10.1346942,18 8.75579047,17.0343805 8.15186844,15.6525906 L5.47826087,15.6521739 L5.47826087,14.0869565 L7.82608696,14.0869565 C7.82608696,11.9258423 9.5780162,10.173913 11.7391304,10.173913 C13.8433732,10.173913 15.5596837,11.8348487 15.6485586,13.9172168 L15.6521739,14.0869565 L16.4347826,14.0869565 C16.8361324,14.0869565 17.1669186,13.7848381 17.2121261,13.3956165 L17.2173913,13.3043478 L17.2173913,8.36312517 C17.2173913,8.22389855 17.1802657,8.08784943 17.1107103,7.96866359 L17.0525365,7.88264991 L12.8439559,2.47161769 C12.4309179,1.94056877 11.8116958,1.61421453 11.1452542,1.57030192 L10.9906942,1.56521739 L2.34782609,1.56521739 L2.34782609,0 L10.9906942,0 Z M11.7391304,11.7391304 C10.4424619,11.7391304 9.39130435,12.790288 9.39130435,14.0869565 C9.39130435,15.3836251 10.4424619,16.4347826 11.7391304,16.4347826 C13.035799,16.4347826 14.0869565,15.3836251 14.0869565,14.0869565 C14.0869565,12.790288 13.035799,11.7391304 11.7391304,11.7391304 Z M7.04347826,9.39130435 L7.04347826,10.9565217 L2.34782609,10.9565217 L2.34782609,9.39130435 L7.04347826,9.39130435 Z M4.69565217,4.69565217 L4.69565217,6.26086957 L0,6.26086957 L0,4.69565217 L4.69565217,4.69565217 Z" id="Shipping"></path>
            </g>
        </g>
    </g>
</svg>