<?xml version="1.0" encoding="UTF-8"?>
<svg width="56px" height="56px" viewBox="0 0 24 24" version="1.1" xmlns="http://www.w3.org/2000/svg" xmlns:xlink="http://www.w3.org/1999/xlink">
    <title>x / Icons / Outline / Filter</title>
    <g id="x-/-Icons-/-Outline-/-Filter" stroke="none" stroke-width="1" fill="none" fill-rule="evenodd">
        <path d="M7,2 L7,5.12601749 C8.72522721,5.57006028 10,7.13616057 10,9 C10,10.8638394 8.72522721,12.4299397 7,12.8739825 L7,22 L5,22 L5,12.8739825 C3.27477279,12.4299397 2,10.8638394 2,9 C2,7.13616057 3.27477279,5.57006028 5,5.12601749 L5,2 L7,2 Z M19,1.99706039 L19,11.1230779 C20.7252272,11.5671207 22,13.133221 22,14.9970604 C22,16.8608998 20.7252272,18.4270001 19,18.8710429 L19,21.9970604 L17,21.9970604 L17,18.8710429 C15.2747728,18.4270001 14,16.8608998 14,14.9970604 C14,13.133221 15.2747728,11.5671207 17,11.1230779 L17,1.99706039 L19,1.99706039 Z M18,12.9970604 C16.8954305,12.9970604 16,13.8924909 16,14.9970604 C16,16.1016299 16.8954305,16.9970604 18,16.9970604 C19.1045695,16.9970604 20,16.1016299 20,14.9970604 C20,13.8924909 19.1045695,12.9970604 18,12.9970604 Z M6,7 C4.8954305,7 4,7.8954305 4,9 C4,10.1045695 4.8954305,11 6,11 C7.1045695,11 8,10.1045695 8,9 C8,7.8954305 7.1045695,7 6,7 Z" id="Filter" fill="#2D3142"></path>
    </g>
</svg>