<?xml version="1.0" encoding="UTF-8"?>
<svg width="56px" height="56px" viewBox="0 0 24 24" version="1.1" xmlns="http://www.w3.org/2000/svg" xmlns:xlink="http://www.w3.org/1999/xlink">
    <title>D5286A38-2FDD-4A96-840A-315292F008FA</title>
    <g id="Finbal_Final" stroke="none" stroke-width="1" fill="none" fill-rule="evenodd">
        <g id="Customer-Landing-Page-Copy-41" transform="translate(-327.000000, -385.000000)" fill="#808D9E">
            <g id="Vector" transform="translate(327.000000, 385.000000)">
                <g transform="translate(7.000000, 7.000000)">
                    <path d="M9.29289,-0.7071 L9.3870988,-0.790287692 C9.77939633,-1.09530923 10.3466385,-1.06758 10.7071,-0.7071 C11.0976,-0.31658 11.0976,0.31659 10.7071,0.70711 L0.70711,10.7071 L-0.062324655,9.93767535 C-0.0208741685,9.97912583 0.0208641685,10.0208642 0.062314655,10.0623147 L0.7071,10.7071 C0.31658,11.0976 -0.31659,11.0976 -0.70711,10.7071 C-1.09763,10.3166 -1.09763,9.68342 -0.70711,9.29289 L9.29289,-0.7071 Z" id="Vector-border"></path>
                </g>
                <g transform="translate(7.000000, 7.000000)">
                    <path d="M-0.116620248,0.993272343 C-0.613955714,0.935507857 -1,0.512840714 -1,0 C-1,-0.55228 -0.55228,-1 0,-1 L10,-1 L10.1166239,-0.993272201 C10.613973,-0.935506531 11,-0.512831429 11,0 L11,10 L10.9932725,10.1166239 C10.9355092,10.613973 10.51285,11 10,11 C9.44771,11 9,10.5523 9,10 L9,1 L0,1 Z" id="Vector-border"></path>
                </g>
            </g>
        </g>
    </g>
</svg>