<?xml version="1.0" encoding="UTF-8"?>
<svg width="56px" height="56px" viewBox="0 0 24 24" version="1.1" xmlns="http://www.w3.org/2000/svg" xmlns:xlink="http://www.w3.org/1999/xlink">
    <title>x / Icons / Outline / Grid #3</title>
    <g id="x-/-Icons-/-Outline-/-Grid-#3" stroke="none" stroke-width="1" fill="none" fill-rule="evenodd">
        <path d="M19,2 C20.6568542,2 22,3.34314575 22,5 L22,5 L22,19 C22,20.6568542 20.6568542,22 19,22 L19,22 L5,22 C3.34314575,22 2,20.6568542 2,19 L2,19 L2,5 C2,3.34314575 3.34314575,2 5,2 L5,2 Z M11,13 L4,13 L4,19 C4,19.5522847 4.44771525,20 5,20 L5,20 L11,20 L11,13 Z M20,13 L13,13 L13,20 L19,20 C19.5522847,20 20,19.5522847 20,19 L20,19 L20,13 Z M19,4 L13,4 L13,11 L20,11 L20,5 C20,4.44771525 19.5522847,4 19,4 L19,4 Z M11,4 L5,4 C4.44771525,4 4,4.44771525 4,5 L4,5 L4,11 L11,11 L11,4 Z" id="Grid-#3" fill="#2D3142"></path>
    </g>
</svg>