<?xml version="1.0" encoding="UTF-8"?>
<svg width="56px" height="56px" viewBox="0 0 56 56" version="1.1" xmlns="http://www.w3.org/2000/svg" xmlns:xlink="http://www.w3.org/1999/xlink">
    <title>078BFC32-5212-4817-8381-952698017ABB</title>
    <g id="Finbal_Final" stroke="none" stroke-width="1" fill="none" fill-rule="evenodd" stroke-linecap="round" stroke-linejoin="round">
        <g id="Customer-Landing-Page-Copy-41" transform="translate(-46.000000, -144.000000)" stroke="#000000" stroke-width="2">
            <g id="Group-15" transform="translate(24.000000, 133.000000)">
                <g id="Group-9" transform="translate(18.000000, 12.000000)">
                    <g id="6613205_electric_guitar_instrument_music_icon-(4)" transform="translate(5.000000, 0.000000)">
                        <polyline id="Path" points="19.1578947 38 16 34.8604651 40 11"></polyline>
                        <polygon id="Path" points="46.1764706 14 40 14 40 7.82352941 47.8235294 0 54 6.17647059"></polygon>
                        <path d="M32.8908405,17.1071392 C28.3493655,13.9508668 22.3628756,14.3717031 18.6471233,18.15923 C17.8214005,19.0009027 16.9956778,20.2634117 16.5828164,21.3155025 C15.7570937,23.209266 13.8992175,24.471775 12.0413414,24.6821931 C10.1834652,24.8926113 8.11915835,25.1030294 6.46771287,25.9447021 C-1.78951453,30.3634835 -1.99594522,41.7260644 5.02269807,48.8802819 C12.0413414,56.0344995 23.1885984,55.8240813 27.5236427,47.4073548 C28.3493655,45.7240095 28.5557962,43.6198279 28.7622268,41.7260644 C28.9686575,39.8323009 30.2072416,37.9385374 32.0651178,37.0968648 C32.4779792,36.8864466 33.5101326,36.4656103 34.3358553,36.2551921 C35.9873008,35.8343558 37.2258849,34.3614286 37.845177,32.8885015 L37.845177,32.8885015 C38.2580384,31.6259925 37.845177,30.1530654 36.6065929,29.5218109 L33.3037019,27.6280474" id="Path"></path>
                        <line x1="10" y1="38" x2="16" y2="44" id="Path"></line>
                    </g>
                </g>
            </g>
        </g>
    </g>
</svg>