<?xml version="1.0" encoding="UTF-8"?>
<svg width="15px" height="16px" viewBox="0 0 15 16" version="1.1" xmlns="http://www.w3.org/2000/svg" xmlns:xlink="http://www.w3.org/1999/xlink">
    <title>7720223_copybook_lesson_task_homework_icon</title>
    <g id="Finbal_Final" stroke="none" stroke-width="1" fill="none" fill-rule="evenodd">
        <g id="Customer-Landing-Page-Copy-41" transform="translate(-39.000000, -299.000000)" fill="#333333" fill-rule="nonzero" stroke="#F3F3F3" stroke-width="0.5">
            <g id="Group-14" transform="translate(24.000000, 293.000000)">
                <g id="Group-13" transform="translate(16.000000, 4.000000)">
                    <g id="7720223_copybook_lesson_task_homework_icon" transform="translate(0.000000, 3.000000)">
                        <path d="M12.6,14 L2.1,14 C1.71340068,14 1.4,13.6865993 1.4,13.3 L1.4,0.7 C1.4,0.313400675 1.71340068,0 2.1,0 L12.6,0 C12.9865993,0 13.3,0.313400675 13.3,0.7 L13.3,11.2 C13.3,11.5865993 12.9865993,11.9 12.6,11.9 C12.2134007,11.9 11.9,11.5865993 11.9,11.2 L11.9,1.4 L2.8,1.4 L2.8,12.6 L12.6,12.6 C12.9865993,12.6 13.3,12.9134007 13.3,13.3 C13.3,13.6865993 12.9865993,14 12.6,14 Z" id="Path"></path>
                        <path d="M3.5,3.5 L0.7,3.5 C0.313400675,3.5 0,3.18659932 0,2.8 C0,2.41340068 0.313400675,2.1 0.7,2.1 L3.5,2.1 C3.88659932,2.1 4.2,2.41340068 4.2,2.8 C4.2,3.18659932 3.88659932,3.5 3.5,3.5 Z" id="Path"></path>
                        <path d="M3.5,6.3 L0.7,6.3 C0.313400675,6.3 0,5.98659932 0,5.6 C0,5.21340068 0.313400675,4.9 0.7,4.9 L3.5,4.9 C3.88659932,4.9 4.2,5.21340068 4.2,5.6 C4.2,5.98659932 3.88659932,6.3 3.5,6.3 Z" id="Path"></path>
                        <path d="M3.5,9.1 L0.7,9.1 C0.313400675,9.1 0,8.78659932 0,8.4 C0,8.01340068 0.313400675,7.7 0.7,7.7 L3.5,7.7 C3.88659932,7.7 4.2,8.01340068 4.2,8.4 C4.2,8.78659932 3.88659932,9.1 3.5,9.1 Z" id="Path"></path>
                        <path d="M3.5,11.9 L0.7,11.9 C0.313400675,11.9 0,11.5865993 0,11.2 C0,10.8134007 0.313400675,10.5 0.7,10.5 L3.5,10.5 C3.88659932,10.5 4.2,10.8134007 4.2,11.2 C4.2,11.5865993 3.88659932,11.9 3.5,11.9 Z" id="Path"></path>
                        <path d="M9.1,6.3 L6.3,6.3 C5.91340068,6.3 5.6,5.98659932 5.6,5.6 C5.6,5.21340068 5.91340068,4.9 6.3,4.9 L9.1,4.9 C9.48659932,4.9 9.8,5.21340068 9.8,5.6 C9.8,5.98659932 9.48659932,6.3 9.1,6.3 Z" id="Path"></path>
                        <path d="M9.1,9.1 L6.3,9.1 C5.91340068,9.1 5.6,8.78659932 5.6,8.4 C5.6,8.01340068 5.91340068,7.7 6.3,7.7 L9.1,7.7 C9.48659932,7.7 9.8,8.01340068 9.8,8.4 C9.8,8.78659932 9.48659932,9.1 9.1,9.1 Z" id="Path"></path>
                    </g>
                </g>
            </g>
        </g>
    </g>
</svg>