<?xml version="1.0" encoding="UTF-8"?>
<svg width="14px" height="14px" viewBox="0 0 14 14" version="1.1" xmlns="http://www.w3.org/2000/svg" xmlns:xlink="http://www.w3.org/1999/xlink">
    <title>FA707A93-6D14-4368-8BEC-1C5AA663D48A</title>
    <g id="Finbal_Final" stroke="none" stroke-width="1" fill="none" fill-rule="evenodd">
        <g id="Customer-Landing-Page-Copy-87" transform="translate(-288.000000, -300.000000)" fill="#212B36" fill-rule="nonzero">
            <g id="Group-35" transform="translate(-38.000000, 257.000000)">
                <g id="Group-24-Copy-2" transform="translate(310.000000, 36.000000)">
                    <g id="Group-2-Copy" transform="translate(16.000000, 5.000000)">
                        <path d="M7.70963705,12.5525 C7.80308719,12.5525 7.8906967,12.5378 7.97246558,12.5084 C8.05423446,12.4794667 8.1301627,12.43 8.20025031,12.36 L10.1627034,10.4 C10.2911973,10.2716667 10.3935252,10.12 10.4696871,9.945 C10.5453817,9.77 10.583229,9.58333333 10.583229,9.385 C10.583229,8.98833333 10.4430538,8.65 10.1627034,8.37 C9.88235294,8.09 9.54359616,7.95 9.14643304,7.95 C8.92448894,7.95 8.70558198,8.01416667 8.48971214,8.1425 C8.27337505,8.27083333 8.01335002,8.48666667 7.70963705,8.79 C7.359199,8.46333333 7.08468919,8.24166667 6.88610763,8.125 C6.68752607,8.00833333 6.48310388,7.95 6.27284105,7.95 C5.87567793,7.95 5.53692115,8.09 5.25657071,8.37 C4.97622028,8.65 4.83604506,8.98833333 4.83604506,9.385 C4.83604506,9.58333333 4.87389237,9.77 4.94958698,9.945 C5.02574885,10.12 5.12807676,10.2716667 5.25657071,10.4 L7.21902378,12.36 C7.28911139,12.43 7.36503963,12.4794667 7.44680851,12.5084 C7.52857739,12.5378 7.6161869,12.5525 7.70963705,12.5525 Z M7.70963705,12.5525 C7.80308719,12.5525 7.8906967,12.5378 7.97246558,12.5084 C8.05423446,12.4794667 8.1301627,12.43 8.20025031,12.36 L10.1627034,10.4 C10.2911973,10.2716667 10.3935252,10.12 10.4696871,9.945 C10.5453817,9.77 10.583229,9.58333333 10.583229,9.385 C10.583229,8.98833333 10.4430538,8.65 10.1627034,8.37 C9.88235294,8.09 9.54359616,7.95 9.14643304,7.95 C8.92448894,7.95 8.70558198,8.01416667 8.48971214,8.1425 C8.27337505,8.27083333 8.01335002,8.48666667 7.70963705,8.79 C7.359199,8.46333333 7.08468919,8.24166667 6.88610763,8.125 C6.68752607,8.00833333 6.48310388,7.95 6.27284105,7.95 C5.87567793,7.95 5.53692115,8.09 5.25657071,8.37 C4.97622028,8.65 4.83604506,8.98833333 4.83604506,9.385 C4.83604506,9.58333333 4.87389237,9.77 4.94958698,9.945 C5.02574885,10.12 5.12807676,10.2716667 5.25657071,10.4 L7.21902378,12.36 C7.28911139,12.43 7.36503963,12.4794667 7.44680851,12.5084 C7.52857739,12.5378 7.6161869,12.5525 7.70963705,12.5525 Z M7.60450563,16 C7.40592407,16 7.21902378,15.9619667 7.04380476,15.8859 C6.86858573,15.8103 6.71672924,15.7083333 6.58823529,15.58 L0.420525657,9.42 C0.292031706,9.29166667 0.189937422,9.14 0.114242804,8.965 C0.0380809345,8.79 0,8.60333333 0,8.405 L0,3.4 C0,3.015 0.137371715,2.6853 0.412115144,2.4109 C0.686391322,2.13696667 1.01627034,2 1.40175219,2 L6.41301627,2 C6.61159783,2 6.79849812,2.0378 6.97371715,2.1134 C7.14893617,2.18946667 7.30079266,2.29166667 7.42928661,2.42 L13.5969962,8.5975 C13.8656654,8.86583333 14,9.1953 14,9.5859 C14,9.97696667 13.8656654,10.3066667 13.5969962,10.575 L8.58573217,15.58 C8.45723821,15.7083333 8.30841886,15.8103 8.13927409,15.8859 C7.96966208,15.9619667 7.79140592,16 7.60450563,16 Z M7.58698373,14.6 L12.5982478,9.595 L6.41301627,3.4 L1.40175219,3.4 L1.40175219,8.405 L7.58698373,14.6 Z M3.15394243,6.2 C3.44597413,6.2 3.69408427,6.0978 3.89827284,5.8934 C4.10292866,5.68946667 4.20525657,5.44166667 4.20525657,5.15 C4.20525657,4.85833333 4.10292866,4.61053333 3.89827284,4.4066 C3.69408427,4.2022 3.44597413,4.1 3.15394243,4.1 C2.86191072,4.1 2.61380058,4.2022 2.40961202,4.4066 C2.2049562,4.61053333 2.10262829,4.85833333 2.10262829,5.15 C2.10262829,5.44166667 2.2049562,5.68946667 2.40961202,5.8934 C2.61380058,6.0978 2.86191072,6.2 3.15394243,6.2 Z" id="Shape"></path>
                    </g>
                </g>
            </g>
        </g>
    </g>
</svg>