<?xml version="1.0" encoding="UTF-8"?>
<svg width="24px" height="20px" viewBox="0 0 24 20" version="1.1" xmlns="http://www.w3.org/2000/svg" xmlns:xlink="http://www.w3.org/1999/xlink">
    <title>7C4AEE02-186B-4635-BD90-F395AD2A6399</title>
    <g id="Page-1" stroke="none" stroke-width="1" fill="none" fill-rule="evenodd">
        <g id="1-Agent-Landing-Page-Copy-29" transform="translate(-302.000000, -887.000000)" fill="#2D3142">
            <g id="Group-6" transform="translate(24.000000, 658.000000)">
                <g id="4092561_envelope_mail_mobile-ui_message_email_icon" transform="translate(278.000000, 229.000000)">
                    <path d="M19,0 C21.7614237,0 24,2.23857625 24,5 L24,5 L24,15 C24,17.7614237 21.7614237,20 19,20 L19,20 L5,20 C2.23857625,20 0,17.7614237 0,15 L0,15 L0,5 C0,2.23857625 2.23857625,0 5,0 L5,0 Z M15.051,11.577 L14.0180184,12.5168986 C12.9214324,13.513795 11.2708238,13.5553324 10.1280692,12.6415107 L9.98198162,12.5168986 L8.948,11.577 L3.62212967,17.6655612 C3.98557793,17.853815 4.3924308,17.9699174 4.82372721,17.9949073 L5,18 L19,18 C19.4967342,18 19.9652713,17.8792735 20.3778703,17.6655612 L15.051,11.577 Z M2,5.26 L2,15 C2,15.4258925 2.08874718,15.831057 2.24875728,16.1980093 L7.468,10.231 L2,5.26 Z M22,5.259 L16.531,10.231 L21.7512427,16.1980093 C21.8890211,15.8820412 21.9739633,15.5377417 21.9949073,15.1762728 L22,15 L22,5.259 Z M19,2 L5,2 C4.04419204,2 3.19278371,2.44698795 2.64340775,3.14333111 L11.3273272,11.0370185 C11.6769633,11.3548695 12.1955641,11.3813571 12.573361,11.1164812 L12.6726728,11.0370185 L21.3565922,3.14333111 C20.8072163,2.44698795 19.955808,2 19,2 L19,2 Z" id="Envelope"></path>
                </g>
            </g>
        </g>
    </g>
</svg>