<?xml version="1.0" encoding="UTF-8"?>
<svg width="64px" height="60px" viewBox="0 0 64 60" version="1.1" xmlns="http://www.w3.org/2000/svg" xmlns:xlink="http://www.w3.org/1999/xlink">
    <title>Icon 4 Copy</title>
    <g id="Page-1" stroke="none" stroke-width="1" fill="none" fill-rule="evenodd">
        <g id="Momotaro-home-Copy-411" transform="translate(-311.000000, -122.000000)" fill="#2D3142" fill-rule="nonzero" stroke="#2D3142">
            <g id="Tab" transform="translate(0.000000, 122.000000)">
                <g id="Icon-4-Copy" transform="translate(311.000000, 0.000000)">
                    <g id="Map" transform="translate(16.000000, 18.000000)">
                        <path d="M6.98541747,23.94525 C6.99222264,23.94975 7.00129619,23.9475 7.00810136,23.952 C7.06165191,23.9815369 7.12152756,23.9979913 7.1827673,24 C7.21649517,24 7.25006276,23.9953958 7.28257642,23.9865 L15.5001933,21.762 L23.7178101,23.9865 C23.7503238,23.9953958 23.7838913,24 23.8176192,24 C23.8787477,23.9981758 23.9384801,23.9814317 23.991529,23.95125 C23.9990903,23.9475 24.0074077,23.949 24.0142129,23.9445 L30.8193796,19.8195 C30.9638265,19.7315175 31.031766,19.5590636 30.9857281,19.39725 L27.217178,6.27225 C27.1859345,6.16149139 27.105083,6.07113285 26.9979194,6.02720936 C26.8907559,5.98328587 26.7691824,5.99067584 26.6682279,6.04725 L22.9163127,8.13525 C22.7456628,8.24211203 22.6894344,8.46291105 22.7884519,8.63733726 C22.8874693,8.81176348 23.1069637,8.87856897 23.2875723,8.78925 L26.6213479,6.933 L30.1804501,19.3275 L24.1200711,23.00175 L22.6804002,11.5785 C22.6545091,11.372843 22.4654397,11.2269438 22.2581018,11.252625 C22.050764,11.2783062 21.9036724,11.465843 21.9295635,11.6715 L23.3715027,23.11575 L15.8782581,21.087 L15.8782581,19.0395 C15.8782581,18.8323932 15.7089927,18.6645 15.5001933,18.6645 C15.2913938,18.6645 15.1221284,18.8323932 15.1221284,19.0395 L15.1221284,21.087 L7.62812766,23.11575 L9.07006687,11.6715 C9.0868155,11.5384632 9.03073753,11.4066693 8.92295699,11.3257638 C8.81517646,11.2448582 8.67206778,11.2271325 8.54753862,11.2792638 C8.42300946,11.331395 8.33597876,11.4454632 8.31923014,11.5785 L6.88031545,23.00175 L0.819936453,19.32825 L4.37903863,6.9345 L7.71281418,8.79075 C7.89342284,8.88006897 8.11291716,8.81326348 8.21193462,8.63883726 C8.31095207,8.46441105 8.25472372,8.24361203 8.08407383,8.13675 L4.33140246,6.048 C4.23066998,5.99079036 4.10890748,5.98307004 4.00165108,6.02709222 C3.89439468,6.07111439 3.81373356,6.16191718 3.78320848,6.273 L0.0146583949,19.398 C-0.0321955817,19.5598522 0.0359337607,19.732788 0.181006914,19.82025 L6.98541747,23.94525 Z" id="Path"></path>
                        <path d="M15.2438653,17.526 C15.3877392,17.6577297 15.6092041,17.658706 15.7542528,17.52825 C16.006044,17.301 21.9272951,11.9115 21.9272951,6.375 C21.9272951,2.79975 19.1046632,0 15.5001933,0 C11.8957233,0 9.07309138,2.79975 9.07309138,6.375 C9.07309138,11.8155 14.9920741,17.295 15.2438653,17.526 Z M15.5001933,0.75 C18.7326474,0.75 21.1711655,3.168 21.1711655,6.375 C21.1711655,10.94775 16.6396806,15.62775 15.5024616,16.73025 C14.3675111,15.615 9.82922102,10.8735 9.82922102,6.375 C9.82922102,3.168 12.2677391,0.75 15.5001933,0.75 Z" id="Shape"></path>
                        <path d="M18.9027766,6.375 C18.9027766,4.51425 17.3761509,3 15.5001933,3 C13.6242356,3 12.0976099,4.51425 12.0976099,6.375 C12.0976099,8.23575 13.6242356,9.75 15.5001933,9.75 C17.3761509,9.75 18.9027766,8.23575 18.9027766,6.375 Z M15.5001933,9 C14.0408631,9 12.8537395,7.8225 12.8537395,6.375 C12.8537395,4.9275 14.0408631,3.75 15.5001933,3.75 C16.9595234,3.75 18.146647,4.9275 18.146647,6.375 C18.146647,7.8225 16.9595234,9 15.5001933,9 Z" id="Shape"></path>
                    </g>
                </g>
            </g>
        </g>
    </g>
</svg>