<?xml version="1.0" encoding="UTF-8"?>
<svg width="24px" height="24px" viewBox="0 0 24 24" version="1.1" xmlns="http://www.w3.org/2000/svg" xmlns:xlink="http://www.w3.org/1999/xlink">
    <title>3937344_help_helpdesk_info_information_question_icon</title>
    <g id="Page-1" stroke="none" stroke-width="1" fill="none" fill-rule="evenodd">
        <g id="Momotaro-home-Copy-42" transform="translate(-327.000000, -370.000000)" fill="#9C9EB9" fill-rule="nonzero">
            <g id="3937344_help_helpdesk_info_information_question_icon" transform="translate(327.000000, 370.000000)">
                <path d="M12.1444364,18.2513455 C11.3794909,18.2513455 10.7140364,17.9410909 10.2593455,17.3681455 C9.83563636,16.8349091 9.65541818,16.1319273 9.76407273,15.4389818 L10.2859636,12.1147636 L10.1655273,12.1767273 C9.56203636,12.4869818 8.82109091,12.2491636 8.51083636,11.6456727 C8.20058182,11.0421818 8.4384,10.3012364 9.04189091,9.99098182 L11.3131636,8.82327273 C11.7246545,8.61163636 12.2199273,8.64916364 12.5947636,8.92014545 C12.9696,9.19112727 13.1607273,9.64974545 13.0887273,10.1066182 L12.1963636,15.7898182 C12.3752727,15.7710545 12.8365091,15.6584727 13.6952727,15.0619636 C14.2525091,14.6744727 15.0183273,14.8123636 15.4053818,15.3696 C15.7928727,15.9268364 15.6549818,16.6926545 15.0977455,17.0797091 C14.0247273,17.8258909 13.1044364,18.2077091 12.2849455,18.2478545 C12.2378182,18.2504727 12.1906909,18.2513455 12.1444364,18.2513455 Z" id="Path"></path>
                <circle id="Oval" cx="12.3504" cy="6.42894545" r="1.37149091"></circle>
                <path d="M12,24 C5.38298182,24 0,18.6170182 0,12 C0,5.38298182 5.38298182,0 12,0 C18.6170182,0 24,5.38341818 24,12 C24,18.6165818 18.6165818,24 12,24 Z M12,2.4576 C6.73832727,2.4576 2.4576,6.73832727 2.4576,12 C2.4576,17.2616727 6.73832727,21.5424 12,21.5424 C17.2616727,21.5424 21.5424,17.2616727 21.5424,12 C21.5424,6.73832727 17.2616727,2.4576 12,2.4576 Z" id="Shape"></path>
            </g>
        </g>
    </g>
</svg>