<?xml version="1.0" encoding="UTF-8"?>
<svg width="21px" height="21px" viewBox="0 0 21 21" version="1.1" xmlns="http://www.w3.org/2000/svg" xmlns:xlink="http://www.w3.org/1999/xlink">
    <title>74EF1F35-A4C2-436E-B109-074561EFC33D</title>
    <g id="Finbal_Final" stroke="none" stroke-width="1" fill="none" fill-rule="evenodd">
        <g id="Momotaro-home-Copy-52" transform="translate(-314.000000, -234.000000)" fill="#2D3142">
            <path d="M324.499918,234 C328.849182,234 332.374827,237.525794 332.374827,241.875312 L332.374827,245.502996 L334.861446,250.475499 C334.949854,250.652187 335,250.851667 335,251.062764 C335,251.787614 334.412173,252.375324 333.687507,252.375324 L327.12488,252.375324 C327.12488,253.824579 325.949602,255 324.499918,255 C323.050022,255 321.874932,253.824579 321.874932,252.375324 L315.312493,252.375324 C314.587451,252.375324 314,251.787614 314,251.062764 C314,250.904441 314.02822,250.752653 314.079539,250.612114 L314.138366,250.475499 L316.624985,245.502996 L316.624985,241.875312 C316.624985,237.525794 320.150818,234 324.499918,234 Z M324.506823,236.336209 C321.504437,236.336209 319.070478,238.769562 319.070478,241.771271 C319.070478,241.906226 319.075397,242.040032 319.085067,242.17252 L319.070478,242.172826 L319.07,246.445 L319.056244,246.445395 L317.111932,249.944962 L331.889242,249.944962 L329.944907,246.445395 L329.942,246.445 L329.942981,242.172826 L329.928391,242.17252 C329.938061,242.040032 329.942981,241.906226 329.942981,241.771271 C329.942981,238.769562 327.509021,236.336209 324.506823,236.336209 Z" id="activity"></path>
        </g>
    </g>
</svg>