<?xml version="1.0" encoding="UTF-8"?>
<svg width="32px" height="32px" viewBox="0 0 32 32" version="1.1" xmlns="http://www.w3.org/2000/svg" xmlns:xlink="http://www.w3.org/1999/xlink">
    <title>4E82198C-ED21-40C8-8D09-9200801B4B8B</title>
    <g id="Finbal_Final" stroke="none" stroke-width="1" fill="none" fill-rule="evenodd">
        <g id="Customer-Landing-Page-Copy-41" transform="translate(-24.000000, -381.000000)" fill="#FFD2D3" fill-rule="nonzero">
            <g id="9104200_ring_ringing_alert_bell_icon" transform="translate(24.000000, 381.000000)">
                <path d="M4.41866348,21.6499774 C3.46327678,22.446133 2.82635232,23.5607508 2.82635232,24.8345998 C2.82635232,27.0638354 4.5778946,28.8153777 6.80713023,28.8153777 L11.1063704,28.8153777 C11.7432948,30.7261511 13.4948371,32 15.5648416,32 C17.6348461,32 19.3863884,30.7261511 20.0233129,28.8153777 L24.322553,28.8153777 C26.5517887,28.8153777 28.3033309,27.0638354 28.3033309,24.8345998 C28.3033309,23.5607508 27.6664065,22.446133 26.7110198,21.6499774 L26.7110198,12.892266 C26.7110198,9.86687482 25.596402,7.15994584 23.3671663,5.08994133 C22.7302419,4.45301686 21.9340863,3.81609239 21.1379307,3.33839904 C17.7940773,1.42762565 13.335606,1.42762565 9.99175256,3.33839904 C6.48866799,5.24917244 4.41866348,8.91148812 4.41866348,12.892266 L4.41866348,21.6499774 Z M24.322553,25.6307553 L18.749464,25.6307553 L12.3802193,25.6307553 L6.80713023,25.6307553 C6.32943688,25.6307553 6.01097464,25.3122931 6.01097464,24.8345998 C6.01097464,24.3569064 6.32943688,24.0384442 6.80713023,24.0384442 L24.322553,24.0384442 C24.8002464,24.0384442 25.1187086,24.3569064 25.1187086,24.8345998 C25.1187086,25.3122931 24.8002464,25.6307553 24.322553,25.6307553 Z M7.60328581,12.892266 C7.60328581,10.0261059 9.19559697,7.47840807 11.5840637,6.04532802 C13.9725305,4.61224798 17.1571528,4.61224798 19.5456195,6.04532802 C20.182544,6.36379026 20.6602374,6.84148361 21.1379307,7.31917696 C22.7302419,8.752257 23.5263975,10.8222615 23.5263975,12.892266 L23.5263975,20.8538219 L7.60328581,20.8538219 L7.60328581,12.892266 Z" id="Shape"></path>
                <path d="M25.9148642,3.97532351 C26.3925575,4.45301686 26.8702509,4.93071021 27.1887131,5.56763467 C27.5071754,6.20455914 27.8256376,6.84148361 27.9848687,7.47840807 C28.1440998,8.11533254 28.7810243,8.59302589 29.5771799,8.59302589 C29.736411,8.59302589 29.8956421,8.59302589 30.0548732,8.59302589 C30.8510288,8.43379477 31.4879533,7.47840807 31.169491,6.68225249 C30.8510288,5.72686579 30.5325666,4.77147909 30.0548732,3.97532351 C29.5771799,3.17916793 28.9402554,2.38301235 28.3033309,1.74608788 C27.8256376,1.26839453 27.3479442,0.790701182 26.7110198,0.472238949 C25.9148642,-0.00545440014 24.9594775,0.153776716 24.4817841,0.949932298 C24.0040908,1.74608788 24.1633219,2.70147458 24.9594775,3.17916793 C25.2779397,3.33839904 25.596402,3.65686128 25.9148642,3.97532351 Z" id="Path"></path>
                <path d="M1.07481004,7.95610142 C1.23404115,8.11533254 1.39327227,8.11533254 1.55250339,8.11533254 C2.18942785,8.11533254 2.82635232,7.63763919 2.98558343,7.00071472 C3.14481455,6.36379026 3.46327678,5.72686579 3.94097013,5.24917244 C4.41866348,4.61224798 4.73712571,4.13455463 5.37405018,3.81609239 C5.69251241,3.49763016 6.01097464,3.17916793 6.48866799,3.01993681 C7.28482358,2.54224346 7.60328581,1.58685676 7.12559246,0.790701182 C6.64789911,-0.00545440014 5.69251241,-0.164685517 4.89635683,0.153776716 C4.25943236,0.472238949 3.6225079,0.949932298 3.30404567,1.26839453 C2.50789008,1.905319 1.87096562,2.70147458 1.39327227,3.49763016 C0.915578919,4.29378574 0.43788557,5.08994133 0.119423337,6.04532802 C-0.199038896,6.84148361 0.119423337,7.7968703 1.07481004,7.95610142 Z" id="Path"></path>
            </g>
        </g>
    </g>
</svg>