<?xml version="1.0" encoding="UTF-8"?>
<svg width="18px" height="16px" viewBox="0 0 18 16" version="1.1" xmlns="http://www.w3.org/2000/svg" xmlns:xlink="http://www.w3.org/1999/xlink">
    <title>9041670_box_open_icon</title>
    <g id="Finbal_Final" stroke="none" stroke-width="1" fill="none" fill-rule="evenodd" stroke-linecap="round" stroke-linejoin="round">
        <g id="Customer-Landing-Page-Copy-41" transform="translate(-143.000000, -299.000000)" stroke="#2D3142" stroke-width="0.838499197">
            <g id="Group-16" transform="translate(128.000000, 293.000000)">
                <g id="9041670_box_open_icon" transform="translate(16.000000, 7.000000)">
                    <path d="M2.52631579,5.03099518 L8.42105263,1.67699839 L13.4671814,4.54815279 C13.9919393,4.84673037 14.3157895,5.40239279 14.3157895,6.00419514 L14.3157895,9.92728958 C14.3157895,10.5290919 13.9919393,11.0847544 13.4671814,11.3833319 L9.25665507,13.779044 C8.73887368,14.073652 8.10323158,14.073652 7.58545021,13.779044 L3.37492389,11.3833319 C2.850166,11.0847544 2.52631579,10.5290919 2.52631579,9.92728958 C2.52631579,8.8829416 2.52631579,8.09968063 2.52631579,7.5775066" id="Path"></path>
                    <path d="M7.62256872,7.95688024 C8.12105516,8.22414661 8.72105011,8.22414661 9.21953651,7.95688024 L13.8947368,5.45024478" id="Path"></path>
                    <line x1="8.42105263" y1="8.38499197" x2="8.42105263" y2="13.8352368" id="Path"></line>
                    <polygon id="Path" points="2.52631579 5.03099518 8.42105263 8.38499197 5.89473684 9.22349117 0 5.86949438"></polygon>
                    <polygon id="Path" points="8.42105263 1.67699839 14.3157895 5.03099518 16 3.35399679 10.1052632 0"></polygon>
                </g>
            </g>
        </g>
    </g>
</svg>