<?xml version="1.0" encoding="UTF-8"?>
<svg width="19px" height="19px" viewBox="0 0 19 19" version="1.1" xmlns="http://www.w3.org/2000/svg" xmlns:xlink="http://www.w3.org/1999/xlink">
    <title>E7CFF37E-72E9-405D-84B4-6CC904A2336B</title>
    <g id="Finbal_Final" stroke="none" stroke-width="1" fill="none" fill-rule="evenodd">
        <g id="Inventory-Search-Copy-33" transform="translate(-96.000000, -891.000000)" fill="#2D3142" fill-rule="nonzero">
            <g id="Menu-2-Copy" transform="translate(0.000000, 845.000000)">
                <g id="vehicle_truck_bag_regular_icon_203102" transform="translate(96.000000, 46.000000)">
                    <path d="M3.35282284,0 C3.75995612,0 4.14166382,0.108847647 4.47043046,0.299048824 C4.79920826,0.108847647 5.18090479,0 5.58803807,0 C6.82251391,0 7.8232533,1.00077471 7.8232533,2.23529412 L7.8232533,3.35294118 L8.3820571,3.35294118 C8.69067327,3.35294118 8.94086091,3.60313765 8.94086091,3.91176471 L8.94086091,8.94117647 C8.94086091,10.1757294 7.94012153,11.1764706 6.70564568,11.1764706 L2.23521523,11.1764706 C1.8475395,11.1764706 1.48290884,11.0777824 1.16508359,10.9041 C0.470881616,10.5248824 0,9.78799529 0,8.94117647 L0,3.91176471 C0,3.60313765 0.25018764,3.35294118 0.558803807,3.35294118 L1.11760761,3.35294118 L1.11760761,2.23529412 C1.11760761,1.00077471 2.118347,0 3.35282284,0 Z M2.23521523,3.35294118 L4.47043046,3.35294118 L4.47043046,2.23529412 C4.47043046,1.61804 3.97005517,1.11764706 3.35282284,1.11764706 C2.73559051,1.11764706 2.23521523,1.61804 2.23521523,2.23529412 L2.23521523,3.35294118 Z M5.58803807,2.23529412 L5.58803807,3.35294118 L6.70564568,3.35294118 L6.70564568,2.23529412 C6.70564568,1.61804 6.2052704,1.11764706 5.58803807,1.11764706 C5.49165559,1.11764706 5.39813418,1.12985176 5.30891557,1.15278588 C5.48676047,1.47350588 5.58803807,1.84257529 5.58803807,2.23529412 Z M8.94086091,2.33068529 L8.94086091,2.23529412 L12.5736445,2.23529412 C13.6538122,2.23529412 14.5294578,3.11097059 14.5294578,4.19117647 L14.5294578,5.58830235 L15.5150759,5.58816824 C16.1501006,5.58807882 16.7306977,5.94685471 17.0146818,6.51489882 L18.822971,10.1315824 C18.9394257,10.3643882 19,10.6211118 19,10.8813 L19,15.0881235 C19,16.0139824 18.2494147,16.7645941 17.3235886,16.7645941 L15.591185,16.7645941 C15.3323471,18.0399412 14.2047928,19 12.8530464,19 C11.5013,19 10.3737456,18.0400529 10.1149077,16.7647059 L8.88551698,16.7647059 C8.62663435,18.0400529 7.49911356,19 6.1473895,19 C4.79566545,19 3.66813348,18.0400529 3.40926203,16.7647059 L3.12089691,16.7647059 C2.04072915,16.7647059 1.16508359,15.8890294 1.16508359,14.8088235 L1.16508359,12.1196529 C1.50114819,12.2328706 1.86101785,12.2941176 2.23521523,12.2941176 L2.2826912,12.2941176 L2.2826912,14.8088235 C2.2826912,15.2717529 2.65797266,15.6470588 3.12089691,15.6470588 L3.40926203,15.6470588 C3.66813348,14.3717118 4.79566545,13.4117647 6.1473895,13.4117647 C7.49911356,13.4117647 8.62663435,14.3717118 8.88551698,15.6470588 L10.1149077,15.6470588 C10.3737456,14.3717118 11.5013,13.4117647 12.8530464,13.4117647 C13.0443808,13.4117647 13.2312448,13.4309882 13.4118502,13.4676471 L13.4118502,4.19117647 C13.4118502,3.72823588 13.0365575,3.35294118 12.5736445,3.35294118 L9.96308071,3.35294118 C9.79471313,2.87658882 9.41719645,2.49905882 8.94086091,2.33068529 Z M14.5294578,13.9703647 C15.0659094,14.3733882 15.4527134,14.9650706 15.5910733,15.6469471 L17.3235886,15.6469471 C17.63216,15.6469471 17.8823924,15.3967059 17.8823924,15.0881235 L17.8823924,11.1763588 L14.5294578,11.1763588 L14.5294578,13.9703647 Z M14.5294578,10.0587565 L17.5370516,10.0587565 L16.0150936,7.01472176 C15.9204322,6.82538118 15.7268626,6.70581529 15.5151877,6.70581529 L14.5294578,6.70594941 L14.5294578,10.0587565 Z M6.1473895,14.5294118 C5.22152983,14.5294118 4.47097808,15.2800235 4.47097808,16.2058824 C4.47097808,17.1317412 5.22152983,17.8823529 6.1473895,17.8823529 C7.07324918,17.8823529 7.82380092,17.1317412 7.82380092,16.2058824 C7.82380092,15.2800235 7.07324918,14.5294118 6.1473895,14.5294118 Z M11.1766349,16.2058824 C11.1766349,17.1317412 11.9272202,17.8823529 12.8530464,17.8823529 C13.7788725,17.8823529 14.5294578,17.1317412 14.5294578,16.2058824 C14.5294578,15.2800235 13.7788725,14.5294118 12.8530464,14.5294118 C11.9272202,14.5294118 11.1766349,15.2800235 11.1766349,16.2058824 Z" id="Shape"></path>
                </g>
            </g>
        </g>
    </g>
</svg>