<?xml version="1.0" encoding="UTF-8"?>
<svg width="14px" height="13px" viewBox="0 0 14 13" version="1.1" xmlns="http://www.w3.org/2000/svg" xmlns:xlink="http://www.w3.org/1999/xlink">
    <title>64701BA1-B6C9-40CD-BBCD-965F99C3C561</title>
    <g id="Finbal_Final" stroke="none" stroke-width="1" fill="none" fill-rule="evenodd">
        <g id="E-commerce-#30---Addresses-Copy-9" transform="translate(-19.000000, -667.000000)" fill="#8C80F8" fill-rule="nonzero" stroke="#8C80F8">
            <g id="Group-49" transform="translate(-1.000000, 569.000000)">
                <g id="Button-Copy" transform="translate(20.000000, 16.000000)">
                    <g id="Group-5" transform="translate(0.000000, 56.000000)">
                        <g id="Group-9" transform="translate(1.000000, 8.000000)">
                            <path d="M10.3156663,28.5142578 C8.0677311,30.6857236 4.43091853,30.6857236 2.18298333,28.5142578 C2.042407,28.3739846 2.042407,28.1508025 2.18298333,28.0105293 C2.25099099,27.9420803 2.34481517,27.9034053 2.44286229,27.9034053 C2.54090942,27.9034053 2.6347336,27.9420803 2.70274126,28.0105293 C4.66119064,29.9074509 7.83542329,29.9068409 9.79309628,28.0091667 C11.7507693,26.1114925 11.7507693,23.0351538 9.79309628,21.1374796 C7.83542329,19.2398054 4.66119064,19.2391954 2.70274126,21.136117 L1.25353384,22.5406305 L3.30199159,22.5406305 C3.50461821,22.5406305 3.66887954,22.699826 3.66887954,22.8962036 C3.66887954,23.0925811 3.50461821,23.2517766 3.30199159,23.2517766 L0.366887954,23.2517766 C0.164261332,23.2517766 0,23.0925811 0,22.8962036 L0,20.0516192 C0,19.8552416 0.164261332,19.6960461 0.366887954,19.6960461 C0.569514576,19.6960461 0.733775908,19.8552416 0.733775908,20.0516192 L0.733775908,22.036902 L2.18298333,20.6323885 C4.42876174,18.4558705 8.06988785,18.4558705 10.3156662,20.6323886 C12.5614446,22.8089066 12.5614446,26.3377397 10.3156663,28.5142578 L10.3156663,28.5142578 Z" id="Path"></path>
                        </g>
                    </g>
                </g>
            </g>
        </g>
    </g>
</svg>