<?xml version="1.0" encoding="UTF-8"?>
<svg width="20px" height="20px" viewBox="0 0 20 20" version="1.1" xmlns="http://www.w3.org/2000/svg" xmlns:xlink="http://www.w3.org/1999/xlink">
    <title>87C8ADE8-0C3D-4670-8991-45C2636A9D7C</title>
    <g id="Finbal_Final" stroke="none" stroke-width="1" fill="none" fill-rule="evenodd">
        <g id="Momotaro-home-Copy-52-(1)-Copy-12" transform="translate(-55.000000, -558.000000)" fill="#2D3142" fill-rule="nonzero" stroke="#2D3142" stroke-width="0.5625">
            <g id="Group-12" transform="translate(32.000000, 232.000000)">
                <g id="noun-star-3323945" transform="translate(24.000000, 327.000000)">
                    <path d="M14.3148948,7.06043523 L10.7684265,6.71332557 L9.38782578,3.42634454 C9.32720564,3.28204831 9.18640413,3.18771867 9.02970409,3.18649332 L9.02690899,3.18649332 L9.02708372,3.18649332 C8.87143016,3.186668 8.73080307,3.27873003 8.6686132,3.42127767 L7.24221751,6.68710574 L3.69105351,6.98442771 L3.69105351,6.98460243 C3.53505112,6.99752944 3.40193726,7.10234344 3.3523231,7.25083001 C3.30288337,7.39931658 3.3467329,7.56300376 3.46360388,7.66694392 L6.12892227,10.0327653 L5.3141393,13.5017601 C5.27832713,13.6542671 5.33684938,13.8134106 5.46297728,13.9061705 C5.58893122,13.9991049 5.75838586,14.0080133 5.89342276,13.9287058 L8.96682582,12.1252042 L12.0131276,13.97289 C12.074271,14.0102739 12.1444973,14.0300119 12.2162979,14.0300119 C12.3347386,14.0300119 12.4468914,13.9762083 12.5211382,13.8837972 C12.5952062,13.791386 12.6236849,13.6703268 12.5981801,13.5545043 L11.8323226,10.0718696 L14.5323897,7.74428457 L14.5323897,7.74445925 C14.6511792,7.64226321 14.697475,7.47892932 14.6499583,7.32957069 C14.602616,7.18038647 14.4707231,7.07364679 14.3148951,7.05845066 L14.3148948,7.06043523 Z M11.1452508,9.63362708 L11.1452508,9.63380181 C11.0364163,9.72761269 10.9878531,9.87365304 11.0187736,10.0141033 L11.6382573,12.8315156 L9.17297871,11.3366771 C9.04999429,11.2622572 8.89626376,11.2612107 8.77223285,11.3338821 L6.28548784,12.793078 L6.94477378,9.9861304 L6.94494847,9.98630508 C6.97761626,9.84637807 6.93097296,9.69981449 6.82353824,9.60442943 L4.66661509,7.6893046 L7.5399784,7.44910455 L7.54015313,7.44910455 C7.68374974,7.43670167 7.80883161,7.34655969 7.86595899,7.21432019 L9.02031314,4.57176633 L10.1367881,7.23037497 L10.1367881,7.23020029 C10.1925157,7.36278861 10.3161978,7.45415326 10.4592711,7.46812852 L13.3291462,7.749029 L11.1452508,9.63362708 Z M9,0.000313045812 C6.61298417,0.000313045812 4.32390867,0.948528809 2.63611518,2.63638238 C0.948232254,4.32423596 0,6.61340581 0,9.00015652 C0,11.3869072 0.948232254,13.6761665 2.63611518,15.3639307 C4.32399811,17.0517842 6.61320778,18 9,18 C11.3867922,18 13.6760913,17.0517842 15.3638848,15.3639307 C17.0517677,13.6760771 18,11.3869072 18,9.00015652 C17.9973796,6.61407663 17.0482795,4.32638256 15.3608885,2.63906563 C13.6736764,0.951748709 11.3858978,0.00263852898 8.99968695,0 L9,0.000313045812 Z M9,17.2178327 C6.82053716,17.2178327 4.73029392,16.3520821 3.18932147,14.8109576 C1.64817014,13.270012 0.782404532,11.1798498 0.782404532,9.00038013 C0.782404532,6.82091047 1.64817014,4.7307483 3.18932147,3.18980266 C4.73029392,1.64867813 6.82049243,0.782927575 9,0.782927575 C11.1795076,0.782927575 13.2697061,1.64867813 14.8106785,3.18980266 C16.3518299,4.7307483 17.2175955,6.82091047 17.2175955,9.00038013 C17.2151497,11.1789554 16.3484757,13.2677312 14.80804,14.8082743 C13.2674253,16.3486833 11.1786131,17.2153283 9.00004472,17.2178327 L9,17.2178327 Z" id="Shape"></path>
                </g>
            </g>
        </g>
    </g>
</svg>