<?xml version="1.0" encoding="UTF-8"?>
<svg width="56px" height="56px" viewBox="0 0 24 24" version="1.1" xmlns="http://www.w3.org/2000/svg" xmlns:xlink="http://www.w3.org/1999/xlink">
    <title>C4285657-7A9B-490D-A980-1EAB86C4A5DA</title>
    <g id="Finbal_Final" stroke="none" stroke-width="1" fill="none" fill-rule="evenodd">
        <g id="Customer-Landing-Page-Copy-77" transform="translate(-17.000000, -292.000000)" fill="#FF9B90">
            <g id="Group-21" transform="translate(17.000000, 292.000000)">
                <path d="M7.6916556,-3.10752092e-16 L16.3083444,3.10752092e-16 C18.9829006,-1.80555915e-16 19.9527593,0.278476833 20.9305371,0.801398111 C21.9083149,1.32431939 22.6756806,2.09168511 23.1986019,3.06946289 C23.7215232,4.04724067 24,5.01709938 24,7.6916556 L24,16.3083444 C24,18.9829006 23.7215232,19.9527593 23.1986019,20.9305371 C22.6756806,21.9083149 21.9083149,22.6756806 20.9305371,23.1986019 C19.9527593,23.7215232 18.9829006,24 16.3083444,24 L7.6916556,24 C5.01709938,24 4.04724067,23.7215232 3.06946289,23.1986019 C2.09168511,22.6756806 1.32431939,21.9083149 0.801398111,20.9305371 C0.278476833,19.9527593 1.2037061e-16,18.9829006 -2.07168062e-16,16.3083444 L2.07168062e-16,7.6916556 C-1.2037061e-16,5.01709938 0.278476833,4.04724067 0.801398111,3.06946289 C1.32431939,2.09168511 2.09168511,1.32431939 3.06946289,0.801398111 C4.04724067,0.278476833 5.01709938,1.80555915e-16 7.6916556,-3.10752092e-16 Z" id="Rectangle" opacity="0.152683373"></path>
                <g id="9054813_bx_task_icon" transform="translate(7.000000, 6.000000)" fill-rule="nonzero">
                    <path d="M7.94444444,0 C8.28195179,0 8.55555556,0.26862915 8.55555556,0.6 L9.77777778,0.6 C10.4518333,0.6 11,1.1382 11,1.8 L11,10.8 C11,11.4618 10.4518333,12 9.77777778,12 L1.22222222,12 C0.548166667,12 0,11.4618 0,10.8 L0,1.8 C0,1.1382 0.548166667,0.6 1.22222222,0.6 L2.44444444,0.6 C2.44444444,0.26862915 2.71804821,0 3.05555556,0 Z M2.44444444,1.8 L1.22222222,1.8 L1.22222222,10.8 L9.77777778,10.8 L9.77777778,1.8 L8.55555556,1.8 L8.55555556,3 L2.44444444,3 L2.44444444,1.8 Z M8.5,8 C8.77614237,8 9,8.22385763 9,8.5 C9,8.77614237 8.77614237,9 8.5,9 L2.5,9 C2.22385763,9 2,8.77614237 2,8.5 C2,8.22385763 2.22385763,8 2.5,8 L8.5,8 Z M8.5,5 C8.77614237,5 9,5.22385763 9,5.5 C9,5.77614237 8.77614237,6 8.5,6 L2.5,6 C2.22385763,6 2,5.77614237 2,5.5 C2,5.22385763 2.22385763,5 2.5,5 L8.5,5 Z" id="Combined-Shape"></path>
                </g>
            </g>
        </g>
    </g>
</svg>