<?xml version="1.0" encoding="UTF-8"?>
<svg width="56px" height="56px" viewBox="0 0 24 24" version="1.1" xmlns="http://www.w3.org/2000/svg" xmlns:xlink="http://www.w3.org/1999/xlink">
    <title>x / Icons / Outline / Shipping</title>
    <g id="x-/-Icons-/-Outline-/-Shipping" stroke="none" stroke-width="1" fill="none" fill-rule="evenodd">
        <path d="M14.0436648,1 C15.5008974,1 16.8810417,1.63541129 17.8279029,2.7320248 L17.9904259,2.93029693 L23.3680567,9.84439366 C23.7321249,10.3124813 23.948274,10.8765666 23.9918124,11.4646851 L24,11.6862155 L24,18 C24,19.5976809 22.75108,20.9036609 21.1762728,20.9949073 L21,21 L19.5837237,21.0005324 C18.8120455,22.7661528 17.050113,24 15,24 C12.949887,24 11.1879545,22.7661528 10.4162763,21.0005324 L7,21 L7,19 L10,19 C10,16.2385763 12.2385763,14 15,14 C17.6887547,14 19.8818181,16.1223067 19.9953805,18.7831104 L20,19 L21,19 C21.5128358,19 21.9355072,18.6139598 21.9932723,18.1166211 L22,18 L22,11.6862155 C22,11.5083148 21.9525618,11.3344743 21.8636854,11.1821813 L21.7893522,11.0722749 L16.4117214,4.15817816 C15.8839506,3.47961565 15.0927224,3.06260745 14.2411582,3.0064969 L14.0436648,3 L3,3 L3,1 L14.0436648,1 Z M15,16 C13.3431458,16 12,17.3431458 12,19 C12,20.6568542 13.3431458,22 15,22 C16.6568542,22 18,20.6568542 18,19 C18,17.3431458 16.6568542,16 15,16 Z M9,13 L9,15 L3,15 L3,13 L9,13 Z M6,7 L6,9 L0,9 L0,7 L6,7 Z" id="Shipping" fill="#212B36"></path>
    </g>
</svg>