<!-- Generated by IcoMoon.io -->
<svg version="1.1" xmlns="http://www.w3.org/2000/svg" width="32" height="32" viewBox="0 0 32 32">
<title>Shipping</title>
<path d="M18.725 1.333c1.943 0 3.783 0.847 5.046 2.309l0.217 0.264 7.17 9.219c0.485 0.624 0.774 1.376 0.832 2.16l0.011 0.295v8.418c0 2.13-1.665 3.872-3.765 3.993l-0.235 0.007-1.888 0.001c-1.029 2.354-3.378 3.999-6.112 3.999s-5.083-1.645-6.112-3.999l-4.555-0.001v-2.667h4c0-3.682 2.985-6.667 6.667-6.667 3.585 0 6.509 2.83 6.66 6.377l0.006 0.289h1.333c0.684 0 1.247-0.515 1.324-1.178l0.009-0.155v-8.418c0-0.237-0.063-0.469-0.182-0.672l-0.099-0.147-7.17-9.219c-0.704-0.905-1.759-1.461-2.894-1.536l-0.263-0.009h-14.725v-2.667h14.725zM20 21.333c-2.209 0-4 1.791-4 4s1.791 4 4 4c2.209 0 4-1.791 4-4s-1.791-4-4-4zM12 17.333v2.667h-8v-2.667h8zM8 9.333v2.667h-8v-2.667h8z"></path>
</svg>
