<!-- Generated by IcoMoon.io -->
<svg version="1.1" xmlns="http://www.w3.org/2000/svg" width="32" height="32" viewBox="0 0 32 32">
<title>sparkle</title>
<path d="M12.214 21.493c0.496 0 0.925 0.348 1.027 0.834 0.391 1.864 1.848 3.321 3.712 3.712 0.486 0.102 0.834 0.53 0.834 1.027s-0.348 0.925-0.834 1.027c-1.864 0.391-3.321 1.848-3.712 3.712-0.102 0.486-0.53 0.834-1.027 0.834s-0.925-0.348-1.027-0.834c-0.391-1.864-1.848-3.321-3.712-3.712-0.486-0.102-0.834-0.53-0.834-1.027s0.348-0.925 0.834-1.027c1.864-0.391 3.321-1.848 3.712-3.712 0.102-0.486 0.53-0.834 1.027-0.834zM25.080 10.477c0.496 0 0.925 0.348 1.027 0.834 0.528 2.52 2.497 4.489 5.017 5.017 0.486 0.102 0.834 0.53 0.834 1.027s-0.348 0.925-0.834 1.027c-2.52 0.528-4.489 2.497-5.017 5.017-0.102 0.486-0.53 0.834-1.027 0.834s-0.925-0.348-1.027-0.834c-0.528-2.52-2.497-4.489-5.017-5.017-0.486-0.102-0.834-0.53-0.834-1.027s0.348-0.925 0.834-1.027c2.52-0.528 4.489-2.497 5.017-5.017 0.102-0.486 0.53-0.834 1.027-0.834zM9.782 0c0.496 0 0.925 0.348 1.027 0.834 0.829 3.956 3.922 7.049 7.878 7.878 0.486 0.102 0.834 0.53 0.834 1.027s-0.348 0.925-0.834 1.027c-3.956 0.829-7.049 3.921-7.878 7.878-0.102 0.486-0.53 0.834-1.027 0.834s-0.925-0.348-1.027-0.834c-0.829-3.956-3.922-7.049-7.878-7.878-0.486-0.102-0.834-0.53-0.834-1.027s0.348-0.925 0.834-1.027c3.956-0.829 7.049-3.922 7.878-7.878 0.102-0.486 0.53-0.834 1.027-0.834z"></path>
</svg>
