<?xml version="1.0" encoding="UTF-8"?>
<svg width="16px" height="16px" viewBox="0 0 16 16" version="1.1" xmlns="http://www.w3.org/2000/svg" xmlns:xlink="http://www.w3.org/1999/xlink">
    <title>3248A37E-B9C8-4223-AD3D-F20F502F42E0</title>
    <g id="Finbal_Final" stroke="none" stroke-width="1" fill="none" fill-rule="evenodd">
        <g id="Customer-Landing-Page-Copy-87" transform="translate(-166.000000, -299.000000)" stroke="#212B36" stroke-width="1.16666667">
            <g id="Group-35" transform="translate(-38.000000, 257.000000)">
                <g id="Group-24-Copy" transform="translate(190.000000, 36.000000)">
                    <g id="Group-13" transform="translate(15.000000, 7.000000)">
                        <path d="M14,7 C14,3.13541667 10.8645833,0 7,0 C3.13541667,0 0,3.13541667 0,7 C0,10.8645833 3.13541667,14 7,14 C10.8645833,14 14,10.8645833 14,7 Z" id="Path"></path>
                        <path d="M10.4934375,7.57859375 L10.4934375,6.99526042 C10.4885292,5.5448662 9.59091268,4.24727445 8.23545636,3.73112948 C6.88000003,3.21498451 5.34665511,3.58688912 4.37828125,4.66666667 M3.49598958,6.42286458 L3.49598958,7.00619792 C3.50106473,8.4582545 4.40021741,9.75710142 5.75752959,10.2730449 C7.11484177,10.7889885 8.64973299,10.4153739 9.61807292,9.33333333" id="Shape" stroke-linecap="round" stroke-linejoin="round"></path>
                        <path d="M2.62026042,7 L3.4803125,6.13958333 L4.37973958,7 M11.3797396,7 L10.5196875,7.86041667 L9.62026042,7" id="Shape" stroke-linecap="round" stroke-linejoin="round"></path>
                    </g>
                </g>
            </g>
        </g>
    </g>
</svg>