<?xml version="1.0" encoding="UTF-8"?>
<svg width="13px" height="14px" viewBox="0 0 13 14" version="1.1" xmlns="http://www.w3.org/2000/svg" xmlns:xlink="http://www.w3.org/1999/xlink">
    <title>9104217_refresh_repeat_reload_update_recycle_icon</title>
    <g id="Finbal_Final" stroke="none" stroke-width="1" fill="none" fill-rule="evenodd">
        <g id="Customer-Landing-Page-Copy-41" transform="translate(-262.000000, -300.000000)" fill="#2D3142" fill-rule="nonzero">
            <g id="Group-12" transform="translate(246.000000, 293.000000)">
                <g id="Group-2-Copy-2" transform="translate(16.000000, 5.000000)">
                    <g id="9104217_refresh_repeat_reload_update_recycle_icon" transform="translate(0.000000, 2.000000)">
                        <path d="M12.3337782,6.25373628 C11.8958926,6.25373628 11.6039689,6.55456205 11.6039689,7.00580072 C11.6039689,9.93885203 9.34155986,12.2702518 6.49530334,12.2702518 C6.34934146,12.2702518 6.13039866,12.2702518 5.98443678,12.2702518 C5.83847491,12.2702518 5.76549397,12.2702518 5.6195321,12.1950453 C5.47357023,12.1950453 5.40058929,12.1198389 5.25462742,12.1198389 C5.18164648,12.1198389 5.10866555,12.0446325 5.03568461,12.0446325 C4.67077993,11.8942196 4.30587525,11.7438067 3.94097056,11.5933938 C3.94097056,11.5933938 3.94097056,11.5933938 3.94097056,11.5933938 C3.79500869,11.5181874 3.64904682,11.3677745 3.50308495,11.292568 C3.43010401,11.2173616 3.35712307,11.2173616 3.28414214,11.1421551 C3.2111612,11.0669487 3.13818026,10.9917422 3.06519933,10.9917422 C3.06519933,10.9165358 2.91923746,10.7661229 2.84625652,10.6909165 C2.77327558,10.61571 2.77327558,10.61571 2.70029465,10.5405036 L4.0139515,10.3148842 C4.37885618,10.2396778 4.67077993,9.86364559 4.59779899,9.41240692 C4.52481806,9.0363747 4.15991337,8.73554893 3.72202776,8.81075537 L1.31365685,9.26199403 C1.31365685,9.26199403 1.31365685,9.26199403 1.31365685,9.26199403 L0.729809364,9.41240692 C0.510866555,9.41240692 0.364904682,9.56281981 0.291923746,9.7132327 C0.145961873,9.86364559 0.145961873,10.0892649 0.145961873,10.2396778 L0.729809364,13.3983484 C0.8027903,13.7743807 1.09471405,14 1.45961873,14 C1.53259966,14 1.53259966,14 1.6055806,14 C1.97048528,13.9247936 2.26240903,13.5487613 2.18942809,13.0975227 L1.97048528,11.8190131 C1.97048528,11.8190131 1.97048528,11.8190131 1.97048528,11.8190131 C2.18942809,11.969426 2.33538996,12.1950453 2.48135184,12.2702518 C2.48135184,12.2702518 2.48135184,12.2702518 2.55433277,12.2702518 C2.62731371,12.3454582 2.70029465,12.3454582 2.77327558,12.4206647 C2.91923746,12.5710776 3.13818026,12.646284 3.28414214,12.7966969 C3.28414214,12.7966969 3.28414214,12.7966969 3.28414214,12.7966969 C3.43010401,13.0223162 3.64904682,13.0975227 3.86798963,13.2479356 L3.94097056,13.2479356 C4.0139515,13.323142 4.15991337,13.323142 4.30587525,13.3983484 C4.59779899,13.4735549 4.88972274,13.5487613 5.10866555,13.6239678 C5.25462742,13.6239678 5.40058929,13.6991742 5.54655116,13.6991742 C5.54655116,13.6991742 5.6195321,13.6991742 5.6195321,13.6991742 C5.69251304,13.6991742 5.83847491,13.6991742 5.91145585,13.6991742 C6.05741772,13.6991742 6.27636053,13.6991742 6.4223224,13.6991742 C10.0713692,13.6991742 12.9906067,10.6909165 12.9906067,6.93059427 C13.0635876,6.55456205 12.6986829,6.25373628 12.3337782,6.25373628 Z" id="Path"></path>
                        <path d="M0.729809364,7.75786516 C1.16769498,7.75786516 1.45961873,7.45703938 1.45961873,7.00580072 C1.45961873,4.07274941 3.72202776,1.74134965 6.56828427,1.74134965 C6.71424615,1.74134965 6.93318896,1.74134965 7.07915083,1.74134965 C7.2251127,1.74134965 7.29809364,1.74134965 7.44405551,1.81655609 C7.59001738,1.81655609 7.66299832,1.89176253 7.80896019,1.89176253 C7.88194113,1.89176253 7.95492207,1.96696898 8.027903,1.96696898 C8.53876956,2.11738187 9.04963611,2.41820764 9.48752173,2.71903342 C9.56050267,2.79423986 9.6334836,2.79423986 9.70646454,2.8694463 C9.77944547,2.94465275 9.85242641,3.01985919 9.92540735,3.01985919 C9.99838828,3.09506564 10.0713692,3.24547852 10.2173311,3.32068497 C10.290312,3.39589141 10.290312,3.39589141 10.363293,3.47109786 L9.04963611,3.69671719 C8.68473143,3.77192363 8.39280768,4.14795585 8.46578862,4.59919451 C8.53876956,4.97522673 8.8306933,5.20084606 9.19559798,5.20084606 C9.26857892,5.20084606 9.26857892,5.20084606 9.34155986,5.20084606 L12.4067592,4.59919451 C12.625702,4.59919451 12.7716639,4.44878163 12.8446448,4.29836874 C12.9176257,4.14795585 12.9906067,3.92233652 12.9906067,3.77192363 L12.4067592,0.613252987 C12.3337782,0.237220768 11.9688736,-0.0636050077 11.5309879,0.0116014362 C11.1660833,0.0868078801 10.8741595,0.4628401 10.9471405,0.914078763 L11.1660833,2.19258831 C11.1660833,2.19258831 11.1660833,2.19258831 11.1660833,2.19258831 C11.0201214,2.04217542 10.8011786,1.89176253 10.6552167,1.74134965 C10.6552167,1.74134965 10.6552167,1.74134965 10.5822358,1.74134965 C10.5092548,1.6661432 10.4362739,1.6661432 10.363293,1.59093676 C10.2173311,1.44052387 10.0713692,1.36531743 9.85242641,1.21490454 C9.85242641,1.21490454 9.85242641,1.21490454 9.77944547,1.21490454 C9.56050267,1.06449165 9.34155986,0.989285207 9.12261705,0.838872319 L9.04963611,0.838872319 C8.97665517,0.763665875 8.8306933,0.763665875 8.68473143,0.688459431 C8.39280768,0.613252987 8.10088394,0.538046543 7.88194113,0.4628401 C7.73597926,0.4628401 7.59001738,0.387633656 7.44405551,0.387633656 C7.44405551,0.387633656 7.37107457,0.387633656 7.37107457,0.387633656 C7.29809364,0.387633656 7.15213177,0.387633656 7.07915083,0.387633656 C6.93318896,0.387633656 6.71424615,0.387633656 6.56828427,0.387633656 C2.91923746,0.387633656 0,3.39589141 0,7.15621361 C0,7.45703938 0.291923746,7.75786516 0.729809364,7.75786516 Z" id="Path"></path>
                        <path d="M6.56828427,4.7496074 C5.32760836,4.7496074 4.37885618,5.72729117 4.37885618,7.00580072 C4.37885618,8.28431026 5.32760836,9.26199403 6.56828427,9.26199403 C7.80896019,9.26199403 8.75771237,8.28431026 8.75771237,7.00580072 C8.75771237,5.72729117 7.80896019,4.7496074 6.56828427,4.7496074 Z M6.56828427,8.00580072 C5.98603946,8.00580072 5.59787625,7.60580072 5.59787625,7.00580072 C5.59787625,6.40580072 5.98603946,6.00580072 6.56828427,6.00580072 C7.15052909,6.00580072 7.5386923,6.40580072 7.5386923,7.00580072 C7.5386923,7.60580072 7.15052909,8.00580072 6.56828427,8.00580072 Z" id="Shape"></path>
                    </g>
                </g>
            </g>
        </g>
    </g>
</svg>