<?xml version="1.0" encoding="UTF-8"?>
<svg width="56px" height="56px" viewBox="0 0 24 24" version="1.1" xmlns="http://www.w3.org/2000/svg" xmlns:xlink="http://www.w3.org/1999/xlink">
    <title>Acoustic Guitar</title>
    <g id="Acoustic-Guitar" stroke="none" stroke-width="1" fill="none" fill-rule="evenodd">
        <path d="M18.3920709,2.50775441 C18.6736283,2.21170091 19.1456914,2.21170091 19.4272488,2.50775441 L19.4272488,2.50775441 L21.517589,4.70571627 C21.7798513,4.98148122 21.7798513,5.41444251 21.517589,5.69020746 L21.517589,5.69020746 L18.8698248,8.47429248 C18.7349878,8.61607157 18.5478945,8.6963326 18.3522358,8.6963326 L18.3522358,8.6963326 L16.2618956,8.6963326 C16.0555988,8.6963326 15.8697284,8.60887673 15.7393372,8.46901783 L9.304,15.235 L9.88136207,15.8420564 C10.1260358,16.0993272 10.1413124,16.4912702 9.93353164,16.7652718 L9.85601868,16.851891 C9.59874782,17.0965647 9.20680488,17.1118413 8.93280326,16.9040605 L8.8461841,16.8265476 L7.80101402,15.7275666 C7.56497794,15.4793782 7.54137433,15.1038607 7.73020319,14.8302064 L7.80101402,14.7430754 L12.9437257,9.33494551 C11.8441648,8.91703306 10.6242008,9.15851644 9.81168406,10.0128658 C9.59777441,10.2377886 9.37030317,10.5965626 9.25524185,10.8976953 C8.88492817,11.7737989 8.05157779,12.3956577 7.14728634,12.5013076 L6.69571518,12.5557274 L6.52791689,12.5796146 C6.08272896,12.6464872 5.76259195,12.7337589 5.5282945,12.8567716 C3.24586766,14.1167391 3.08836102,17.4911634 5.2129357,19.7251223 C7.31782735,21.9383849 10.4574168,21.7763612 11.6451806,19.3977685 C11.7547409,19.1673664 11.8330376,18.88038 11.8940081,18.5025167 L11.9581016,18.0246508 L12.0037503,17.6089166 L12.0239531,17.4671154 C12.1746732,16.6125807 12.7339662,15.8351404 13.4907732,15.482272 C13.7118322,15.3660519 14.1106137,15.2088096 14.4080277,15.130628 C14.6750223,15.0604428 14.9553217,14.7657121 15.0932585,14.4333473 C15.1332672,14.3071419 15.1090964,14.1928812 15.0395065,14.1259481 L14.9924523,14.0917505 L13.8776042,13.432362 C13.5380601,13.2315351 13.4256075,12.7934778 13.6264345,12.4539337 C13.8090044,12.1452572 14.1876325,12.0242598 14.5100696,12.1556955 L14.6048628,12.202764 L15.6884738,12.8447178 C16.4147656,13.2265604 16.7005674,14.090545 16.4356027,14.9187974 C16.1467242,15.6275508 15.6162575,16.2164826 14.9425684,16.4589836 L14.7712193,16.5122604 C14.5808872,16.5622933 14.2828887,16.6797962 14.1255772,16.7616157 C13.7890133,16.918901 13.5233715,17.2783479 13.4354594,17.700809 L13.417,17.815 L13.3560799,18.3662535 L13.3386806,18.4981753 C13.2557248,19.1087626 13.1386171,19.5837199 12.9293063,20.0235873 C11.258572,23.3697825 6.92058089,23.5936516 4.17775773,20.7096135 C1.45461761,17.8462718 1.66410879,13.3581303 4.85070053,11.5992061 C5.26583237,11.3809536 5.72628394,11.2554311 6.31570881,11.1668923 L6.98151147,11.0823873 C7.37648534,11.0362418 7.76978853,10.7427529 7.92970435,10.3656325 C8.1030389,9.90998568 8.4329917,9.38957492 8.77650609,9.0283746 C10.1350541,7.59988145 12.2450754,7.31527468 13.9836093,8.24157889 L15.5467245,6.59771429 L15.5476099,5.78408503 C15.5476099,5.63749501 15.5926785,5.49539002 15.6753598,5.37642908 L15.7443066,5.29183943 Z M6.65923266,15.7645434 L6.74585182,15.8420564 L8.83619199,18.0400182 C9.10805172,18.3258747 9.0967051,18.7779931 8.8108486,19.0498528 C8.55357774,19.2945266 8.1616348,19.3098032 7.88763317,19.1020224 L7.80101402,19.0245094 L5.71067385,16.8265476 C5.43881412,16.5406911 5.45016074,16.0885727 5.73601724,15.816713 C5.99328809,15.5720392 6.38523104,15.5567626 6.65923266,15.7645434 Z M18.909,4.036 L16.976,6.069 L16.976,7.267 L18.045,7.267 L20.014,5.197 L18.909,4.036 Z" id="Combined-Shape" fill="#000000" fill-rule="nonzero"></path>
    </g>
</svg>