<?xml version="1.0" encoding="UTF-8"?>
<svg width="56px" height="56px" viewBox="0 0 24 24" version="1.1" xmlns="http://www.w3.org/2000/svg" xmlns:xlink="http://www.w3.org/1999/xlink">
    <title>Other (Brass)</title>
    <g id="Other-(Brass)" stroke="none" stroke-width="1" fill="none" fill-rule="evenodd">
        <path d="M22,2.28571429 C22.7394421,2.28571429 22.9915915,3.27152367 22.3429611,3.62656348 C20.7273451,4.51090064 19.8677882,5.94330609 19.7960982,7.78616924 L19.7912088,8.04 L19.7912088,13.8 C19.7912088,18.1733325 16.1972926,21.7142857 11.7692308,21.7142857 L11.7692308,21.7142857 L4.09615385,21.7142857 C3.11940361,21.7142857 2.28571429,20.8928823 2.28571429,19.92 C2.28571429,18.9957618 3.0381189,18.2082333 3.9508006,18.1317911 L4.09615385,18.1257143 L5.05104972,18.126819 C4.22667183,16.8835605 3.74725275,15.3972989 3.74725275,13.8 C3.74725275,9.42666746 7.3411689,5.88571429 11.7692308,5.88571429 C13.0300511,5.88571429 14.2232444,6.17279185 15.2851028,6.68442117 C14.9697421,5.36731129 14.1650312,4.32567504 12.8878082,3.62656348 C12.2700649,3.28843033 12.4693555,2.37817058 13.1284942,2.29224591 L13.2307692,2.28571429 L22,2.28571429 Z M6.26194023,19.5545629 L4.09615385,19.5542857 C3.90367331,19.5542857 3.71428571,19.7408823 3.71428571,19.92 C3.71428571,20.076728 3.85928559,20.239182 4.02448248,20.2773466 L4.09615385,20.2857143 L7.17258766,20.2869384 C6.85096725,20.0647212 6.54662039,19.8198132 6.26194023,19.5545629 Z M11.7692308,7.31428571 C8.1254386,7.31428571 5.17582418,10.2204321 5.17582418,13.8 C5.17582418,15.5149602 5.85286075,17.0753473 6.95890577,18.2356308 C7.05065941,18.2914755 7.12770769,18.3682714 7.18495861,18.458829 C8.36982327,19.5900317 9.98643978,20.2857143 11.7692308,20.2857143 C15.4130229,20.2857143 18.3626374,17.3795679 18.3626374,13.8 C18.3626374,10.2204321 15.4130229,7.31428571 11.7692308,7.31428571 Z M11.7692308,8.04571429 C14.9865145,8.04571429 17.5989011,10.6196025 17.5989011,13.8 C17.5989011,16.9803975 14.9865145,19.5542857 11.7692308,19.5542857 C8.55194701,19.5542857 5.93956044,16.9803975 5.93956044,13.8 C5.93956044,10.6196025 8.55194701,8.04571429 11.7692308,8.04571429 Z M11.7692308,9.47428571 C9.33621671,9.47428571 7.36813187,11.4133672 7.36813187,13.8 C7.36813187,16.1866328 9.33621671,18.1257143 11.7692308,18.1257143 C12.2878469,18.1257143 12.7853384,18.0376096 13.247147,17.8758459 L13.2467143,16.6737143 L11.7692308,16.6742857 C11.3747417,16.6742857 11.0549451,16.3544891 11.0549451,15.96 C11.0549451,15.598385 11.323663,15.2995324 11.6723064,15.2522349 L11.7692308,15.2457143 L13.2467143,15.2457143 L13.2467143,14.5137143 L11.7692308,14.5142857 C11.3747417,14.5142857 11.0549451,14.1944891 11.0549451,13.8 C11.0549451,13.438385 11.323663,13.1395324 11.6723064,13.0922349 L11.7692308,13.0857143 L13.2467143,13.0857143 L13.2467143,12.3537143 L11.7692308,12.3542857 C11.3747417,12.3542857 11.0549451,12.0344891 11.0549451,11.64 C11.0549451,11.278385 11.323663,10.9795324 11.6723064,10.9322349 L11.7692308,10.9257143 L13.2467143,10.9247143 L13.247147,9.72415409 C12.8490593,9.58471072 12.4244564,9.50000165 11.9826637,9.47927998 Z M14.6769797,10.552776 L14.6769797,17.047224 C15.5929232,16.2541355 16.1703297,15.0927202 16.1703297,13.8 C16.1703297,12.5072798 15.5929232,11.3458645 14.6769797,10.552776 Z M19.936,3.714 L15.294,3.714 L15.386401,3.8168077 C16.2913646,4.86309519 16.7919173,6.17996159 16.8600852,7.68223986 C17.4323289,8.14731197 17.938806,8.68856721 18.3627223,9.29071449 L18.3626374,8.04 C18.3626374,6.38871914 18.8682492,4.94536252 19.8443682,3.8168077 L19.936,3.714 Z" id="Combined-Shape" fill="#000000" fill-rule="nonzero"></path>
    </g>
</svg>