<?xml version="1.0" encoding="UTF-8"?>
<svg width="56px" height="56px" viewBox="0 0 24 24" version="1.1" xmlns="http://www.w3.org/2000/svg" xmlns:xlink="http://www.w3.org/1999/xlink">
    <title>Cello</title>
    <g id="Cello" stroke="none" stroke-width="1" fill="none" fill-rule="evenodd">
        <path d="M20.2324513,2.42704121 L20.3096873,2.49395429 L22.504105,4.67995621 C22.8255221,5.00014071 22.7670372,5.52550083 22.4068879,5.77332446 L22.3184571,5.82536814 L21.0467127,6.45759725 L21.3891597,6.77602173 C21.6780684,7.04463567 21.6945205,7.49659703 21.4259065,7.78550567 C21.184154,8.04552345 20.79389,8.08485144 20.5076404,7.89429729 L20.4164226,7.82225248 L19.8627127,7.30759725 L19.2947127,7.96859725 L20.3096873,8.97909332 C20.5891686,9.25750281 20.5900375,9.70976267 20.311628,9.989244 C20.0610595,10.2407772 19.6696721,10.2666343 19.3901584,10.0663299 L19.3014773,9.99118473 L18.3617127,9.05459725 L17.0396294,10.5958035 C17.9695537,12.521762 17.6518781,14.8207787 16.1685533,16.4400537 L15.9939991,16.6220572 L15.9208518,16.6949239 C15.703678,16.9112649 15.3726793,16.964913 15.0982898,16.8282445 C14.4809398,16.5207533 13.7908631,16.6307421 13.2669255,17.151865 C12.6280633,17.7393223 12.6125769,18.7266506 13.2144033,19.3261691 C13.4563291,19.567167 13.4938384,19.9456921 13.3039159,20.2294833 C13.2442577,20.3186275 13.183063,20.4007152 13.1163735,20.481532 L12.9643706,20.6542283 L12.7111721,20.9122733 C10.3838502,23.3134697 6.48833314,23.3134697 4.09580138,20.9299584 C1.7441431,18.6680996 1.68535165,14.9180401 3.91112836,12.5132459 L4.04,12.378 L4.06951438,12.3379041 C4.21486119,12.1451342 4.37157266,12.0117241 4.63743606,11.8287447 L4.77991647,11.7326199 C5.02364056,11.5707591 5.33639334,11.5747866 5.57293556,11.7329617 L5.65778285,11.7994802 C6.26761335,12.3563476 7.29591194,12.340342 7.89050523,11.7480291 C8.39269566,11.2477646 8.50254899,10.5638144 8.19510947,9.95129346 C8.07407325,9.71014939 8.10039796,9.42486248 8.25522287,9.21151736 L8.32938877,9.12482678 L8.46349321,8.99153644 C10.0026691,7.38159981 12.4257545,6.98573489 14.4274686,7.89602638 L15.9207127,6.62259725 L14.9857892,5.69204762 C14.7063078,5.41363813 14.7054389,4.96137827 14.9838484,4.68189694 C15.234417,4.43036375 15.6258043,4.40450663 15.905318,4.60481105 L15.9939991,4.67995621 L17.0107127,5.69359725 L17.6747127,5.12759725 L17.1630647,4.58137122 C16.8933453,4.29349438 16.9080647,3.84147328 17.1959416,3.57175383 C17.4550307,3.32900633 17.8470767,3.31665435 18.1195205,3.52647365 L18.205559,3.6046307 L18.5287127,3.95059725 L19.167198,2.67957902 C19.3698491,2.27583123 19.8840645,2.16579733 20.2324513,2.42704121 Z M9.78801398,9.70753154 L9.669,9.811 L9.68876278,9.87292085 C9.95146316,10.8258851 9.72283928,11.8366702 9.04109444,12.6089355 L8.89871518,12.7601205 C7.95061557,13.704584 6.47572786,13.8824918 5.33322274,13.2971624 L5.195,13.22 L5.09505781,13.3430543 C3.2555206,15.1755368 3.2555206,18.1396571 5.09505781,19.9091029 C6.88032388,21.6875223 9.73685897,21.7414138 11.5293035,20.0707774 L11.789,19.813 L11.748925,19.7495795 C11.0983935,18.645516 11.2331399,17.205833 12.143947,16.2527836 L12.2793406,16.1200329 C13.069853,15.3325522 14.1536756,15.0553609 15.1718028,15.3339131 L15.223,15.349 L15.2820754,15.28069 C16.082511,14.2858959 16.3264813,13.0027015 15.9853651,11.8230564 L13.837288,14.3225935 C13.5913148,14.6089206 13.1712864,14.6503849 12.8759371,14.4353918 L12.7913714,14.3631886 L10.5969537,12.1771866 C10.3281324,11.9093963 10.3192188,11.4848263 10.5584622,11.2064052 L10.6376683,11.1275663 L13.1741454,8.96477832 C11.9995199,8.66879479 10.7270009,8.92718187 9.78801398,9.70753154 Z M7.72224348,14.885784 L7.80150632,14.9541652 L9.99592403,17.1401671 C10.2997722,17.44285 10.2664306,17.9347144 9.94654905,18.1972881 L9.86063838,18.2579124 L7.08104262,19.9338472 C6.83149267,20.0843114 6.51937774,20.066609 6.28998095,19.8983243 L6.20811832,19.8281934 L5.11090946,18.7351924 C4.90324618,18.5283255 4.84545136,18.2189965 4.95543183,17.9548821 L5.00457395,17.8582471 L6.68696086,15.0893114 C6.90863941,14.7244644 7.39155026,14.6399108 7.72224348,14.885784 Z M7.436,16.607 L6.517,18.119 L6.821,18.422 L8.339,17.506 L7.436,16.607 Z M18.67,6.156 L15.0987127,9.19959725 C15.0401739,9.27373544 14.9717792,9.33162379 14.8961245,9.37519963 L12.153,11.711 L13.254,12.808 L18.831,6.316 L18.67,6.156 Z M20,4.203 L19.578,5.044 L19.946,5.41 L20.79,4.99 L20,4.203 Z" id="Combined-Shape" fill="#000000" fill-rule="nonzero"></path>
    </g>
</svg>