<?xml version="1.0" encoding="UTF-8"?>
<svg width="56px" height="56px" viewBox="0 0 24 24" version="1.1" xmlns="http://www.w3.org/2000/svg" xmlns:xlink="http://www.w3.org/1999/xlink">
    <title>Clarinet</title>
    <g id="Clarinet" stroke="none" stroke-width="1" fill="none" fill-rule="evenodd">
        <g id="clarinet-music-and-multimedia-svgrepo-com" transform="translate(2.000000, 2.000000)">
            <rect id="Rectangle" x="0" y="0" width="20" height="20"></rect>
            <path d="M12.2503906,18.6666797 L11.8889062,15.9557422 L11.8889062,14 C12.2570703,14 12.5555859,13.7015234 12.5555859,13.3333203 C12.5555859,12.9651562 12.2571094,12.6666406 11.8889062,12.6666406 L11.8889062,11.7777344 C12.2570703,11.7777344 12.5555859,11.4792578 12.5555859,11.1110547 C12.5555859,10.7428516 12.2571094,10.444375 11.8889062,10.444375 L11.8889062,9.55546875 C12.2570703,9.55546875 12.5555859,9.25699219 12.5555859,8.88878906 C12.5555859,8.52058594 12.2571094,8.22210937 11.8889062,8.22210937 L11.8889062,3.98425781 C12.1753906,3.48550781 12.5111328,2.29621094 11.1148047,0.28625 L10.9158984,0 L8.86191406,0 L8.66296875,0.28625 C7.26671875,2.29621094 7.60242188,3.48550781 7.88890625,3.98425781 L7.88890625,15.9557422 L7.52742187,18.6666797 L7,18.6666797 L7,20 L12.7777734,20 L12.7777734,18.6666797 L12.2503906,18.6666797 Z M9.56824219,1.33332031 L10.2095703,1.33332031 C10.7971875,2.26597656 10.8406641,2.82871094 10.7971094,3.11109375 L8.98070312,3.11109375 C8.93714844,2.82871094 8.980625,2.26601562 9.56824219,1.33332031 Z M9.22222656,6.22222656 L9.22222656,4.44445312 L10.5555469,4.44445312 L10.5555469,6.22222656 L9.22222656,6.22222656 Z M10.5555859,7.55554688 L10.5555859,14.6666406 L9.22226562,14.6666406 L9.22226562,7.55554688 L10.5555859,7.55554688 Z M8.87257813,18.6666797 L9.228125,16 L10.5496484,16 L10.9051953,18.6666797 L8.87257813,18.6666797 Z" id="Shape" fill="#000000" fill-rule="nonzero" transform="translate(9.888887, 10.000000) rotate(45.000000) translate(-9.888887, -10.000000) "></path>
        </g>
    </g>
</svg>