<?xml version="1.0" encoding="UTF-8"?>
<svg width="56px" height="56px" viewBox="0 0 24 24" version="1.1" xmlns="http://www.w3.org/2000/svg" xmlns:xlink="http://www.w3.org/1999/xlink">
    <title>Double Bass</title>
    <g id="Double-Bass" stroke="none" stroke-width="1" fill="none" fill-rule="evenodd">
        <g id="double-bass-svgrepo-com" transform="translate(2.000000, 1.000000)">
            <rect id="Rectangle" x="1.60660172" y="1.60660172" width="18" height="18"></rect>
            <g id="Group" transform="translate(10.606602, 10.606602) rotate(45.000000) translate(-10.606602, -10.606602) translate(5.606602, 0.606602)" fill="#000000" fill-rule="nonzero">
                <path d="M7.27177189,14.9127088 C7.27177189,14.9127495 7.27169043,14.9127495 7.27169043,14.9127495 C7.2701833,14.9127495 7.2706721,14.9098167 7.27226069,14.9113646 C7.27201629,14.9111202 7.25046843,14.8828513 7.25046843,14.7866802 L7.25046843,13.1487169 C7.25046843,12.8329939 7.12602851,12.6574745 7.02175153,12.5658248 C6.82183299,12.390224 6.58472505,12.4109165 6.53922607,12.4168228 C6.37193483,12.4385743 6.25393075,12.5918534 6.27572301,12.7591853 C6.29751527,12.9265173 6.45075356,13.0445214 6.61804481,13.0227291 C6.61812627,13.0226884 6.61812627,13.0226884 6.61820774,13.0226884 C6.6196334,13.0226884 6.6191446,13.0256212 6.61763747,13.0240733 C6.61788187,13.0243177 6.63942974,13.0525866 6.63942974,13.1487169 L6.63942974,14.7866802 C6.63942974,15.1024033 6.76378819,15.2779633 6.86814664,15.369613 C7.01780041,15.5010998 7.18835031,15.5225255 7.28366599,15.5225255 C7.31564155,15.5225255 7.33918534,15.5200815 7.35059063,15.5186151 C7.51788187,15.4968635 7.63588595,15.3435845 7.61417515,15.1762525 C7.59238289,15.0089613 7.4392668,14.8910387 7.27177189,14.9127088 Z" id="Path"></path>
                <path d="M3.52606925,12.4168228 C3.48057026,12.4109165 3.24346232,12.3902648 3.04354379,12.5658248 C2.93922607,12.6574745 2.81482688,12.8329939 2.81482688,13.1487169 L2.81482688,14.7866802 C2.81482688,14.8828106 2.79327902,14.9111202 2.79303462,14.9113646 C2.79462322,14.9098167 2.79511202,14.9127495 2.79360489,14.9127495 C2.79360489,14.9127495 2.79352342,14.9127495 2.79352342,14.9127088 C2.62606925,14.8910387 2.47291242,15.0089206 2.45112016,15.1762525 C2.42940937,15.3435845 2.54737271,15.4968635 2.71470468,15.5186151 C2.72606925,15.5200815 2.74961303,15.5225255 2.78158859,15.5225255 C2.87690428,15.5225255 3.04745418,15.5010998 3.19710794,15.369613 C3.30150713,15.2779633 3.42582485,15.1024033 3.42582485,14.7866802 L3.42582485,13.1487169 C3.42582485,13.0525866 3.44737271,13.024277 3.44761711,13.0240733 C3.44610998,13.0256212 3.44562118,13.0226884 3.44704684,13.0226884 C3.44712831,13.0226884 3.44712831,13.0226884 3.44720978,13.0227291 C3.61450102,13.0445214 3.76773931,12.9265173 3.78953157,12.7591853 C3.81136456,12.5918534 3.69340122,12.4385743 3.52606925,12.4168228 Z" id="Path"></path>
                <path d="M9.35880989,12.7802221 C9.2970138,12.6694499 9.17398817,12.6087685 9.0494652,12.6274964 C8.86994492,12.6546067 8.71260163,12.6064787 8.56784418,12.4804544 C8.21604756,12.1741851 7.98869297,11.4568033 7.98869297,10.6528566 C7.98869297,10.0400726 8.24550896,9.90517509 8.43862681,9.85700617 C8.53397166,9.83324883 8.61207675,9.76430756 8.64821552,9.67205875 C8.82971878,9.20819771 8.92178565,8.71878016 8.92178565,8.21746348 C8.92178565,7.22791508 8.56145008,6.37653544 7.87971008,5.75528713 C7.28902522,5.21708729 6.49676451,4.88317604 5.57917144,4.78356695 L5.54627018,2.81837289 L5.60490969,2.81837289 C5.77338195,2.81837289 5.90923623,2.68110371 5.90923623,2.51169466 C5.90923623,2.49889596 5.90846732,2.4863426 5.90696997,2.47399369 L5.88916363,2.10585715 L6.33788339,2.10585715 C6.50554627,2.10585715 6.64140055,1.96854708 6.64140055,1.79917892 C6.64140055,1.62976987 6.50554627,1.4925007 6.33788339,1.4925007 L5.85945942,1.4925007 L5.85140609,1.32587219 L6.33792386,1.32587219 C6.50558674,1.32587219 6.64144102,1.18856213 6.64144102,1.01919397 C6.64144102,0.849825807 6.50558674,0.712515743 6.33792386,0.712515743 L5.82166141,0.712515743 L5.80126506,0.291671437 C5.79337361,0.12835506 5.65998794,9.09494702e-13 5.49811212,9.09494702e-13 L4.50188788,9.09494702e-13 C4.34001206,9.09494702e-13 4.20662639,0.12835506 4.19873494,0.291671437 L4.17833859,0.712515743 L3.66215708,0.712515743 C3.4944942,0.712515743 3.35863992,0.849825807 3.35863992,1.01919397 C3.35863992,1.18856213 3.4944942,1.32587219 3.66215708,1.32587219 L4.14863438,1.32587219 L4.14058105,1.4925007 L3.66215708,1.4925007 C3.4944942,1.4925007 3.35863992,1.62976987 3.35863992,1.79917892 C3.35863992,1.96854708 3.4944942,2.10585715 3.66215708,2.10585715 L4.11087684,2.10585715 L4.09193737,2.49668788 C4.08785001,2.58055415 4.11803985,2.66241679 4.17530342,2.72317997 C4.23260746,2.78394315 4.31204801,2.81837289 4.39513078,2.81837289 L4.45385123,2.81837289 L4.42094997,4.78393497 C3.50967006,4.88280803 2.72165858,5.21242578 2.1316617,5.74502363 C1.44255634,6.36713064 1.07829529,7.22206775 1.07829529,8.21742259 C1.07829529,8.71878016 1.17032169,9.20819771 1.35186542,9.67197697 C1.38800419,9.76430756 1.46606881,9.83320794 1.56145413,9.85696528 C1.75461245,9.90509331 2.0114689,10.0399908 2.0114689,10.6528157 C2.0114689,11.4567216 1.78411432,12.1740624 1.43223676,12.4803726 C1.28743884,12.6064378 1.12985273,12.6545658 0.950575266,12.6274555 C0.825971356,12.6085232 0.703026673,12.6693682 0.64123058,12.7801812 C0.221769869,13.5324425 0,14.3888516 0,15.2569146 C0,16.5332276 0.469277993,17.6281915 1.35712638,18.4234286 C2.12575323,19.1119416 3.15164122,19.5318864 4.33665314,19.6470747 L4.33665314,19.6933218 C4.33665314,19.8627308 4.47250742,20 4.64017029,20 L5.35974877,20 C5.52741165,20 5.66326593,19.8627308 5.66326593,19.6933218 L5.66326593,19.6473609 C6.85200099,19.5318046 7.88039805,19.1093655 8.64942959,18.4175812 C9.53298827,17.6228349 10,16.5298745 10,15.2569146 C10,14.388729 9.7782706,13.5322789 9.35880989,12.7802221 Z M5.56727704,5.95945297 C6.25657833,6.04598243 6.84634991,6.2977891 7.28242344,6.69517676 C7.78372007,7.15202548 8.04873958,7.78379478 8.04873958,8.52234827 C8.04873958,8.86478004 7.99298673,9.19983967 7.88291814,9.52022951 C7.57898587,9.64190691 7.19910738,9.95175981 7.19910738,10.7399449 C7.19910738,11.641132 7.47470261,12.440971 7.91844078,12.827226 C8.11871623,13.0015509 8.35060829,13.0949312 8.59808758,13.1026384 C8.88149484,13.6663458 9.0305499,14.2952109 9.0305499,14.9323045 C9.0305499,15.9274678 8.66946449,16.7783904 7.98609592,17.3930698 C7.39481353,17.9249057 6.56714346,18.2659226 5.63456369,18.3677921 L5.63456369,17.664945 C5.63456369,17.5137419 5.74629049,17.3830541 5.89449801,17.3609377 C6.03006625,17.340683 6.13044349,17.2231384 6.13044349,17.084669 L6.13044349,16.4314907 C6.13044349,16.2772717 6.0067407,16.1522433 5.85407443,16.1522433 L4.20713591,16.1522433 C4.05446964,16.1522433 3.93076684,16.2772717 3.93076684,16.4314907 L3.93076684,17.084669 C3.93076684,17.2231384 4.03118094,17.340683 4.16671233,17.3609377 C4.31484614,17.3830541 4.42657294,17.5137791 4.42657294,17.664945 L4.42657294,18.3677921 C3.49660947,18.2660716 2.67115035,17.927028 2.0801996,17.3976494 C1.39347775,16.7825605 1.0305499,15.9300369 1.0305499,14.9322673 C1.0305499,14.2953226 1.1796418,13.6664203 1.46301221,13.1026012 C1.71049149,13.094894 1.94249411,13.0014764 2.14269586,12.8271516 C2.58639717,12.4408593 2.86202925,11.6410948 2.86202925,10.7399076 C2.86202925,9.95164811 2.48211391,9.64179521 2.17814479,9.52015504 C2.06807621,9.19980244 2.01232336,8.86474281 2.01232336,8.52231104 C2.01232336,7.77951298 2.2802171,7.14506292 2.78700426,6.68758123 C3.2227093,6.29421474 3.80920131,6.04508883 4.49382275,5.9592668 L4.40026261,11.5486825 C4.39900973,11.6235581 4.42756787,11.6957901 4.47952526,11.7492194 C4.53148264,11.8026115 4.60249106,11.8326585 4.67659482,11.8326585 L5.38446811,11.8326585 C5.45857187,11.8326585 5.5295803,11.8025743 5.58153768,11.7492194 C5.63349506,11.6957901 5.66209005,11.6235581 5.66080033,11.5486825 L5.56727704,5.95945297 Z M5.20912332,0.61335645 L5.28617621,2.20501644 L4.71382379,2.20501644 L4.79091715,0.61335645 L5.20912332,0.61335645 Z" id="Shape"></path>
            </g>
        </g>
    </g>
</svg>