<?xml version="1.0" encoding="UTF-8"?>
<svg width="56px" height="56px" viewBox="0 0 24 24" version="1.1" xmlns="http://www.w3.org/2000/svg" xmlns:xlink="http://www.w3.org/1999/xlink">
    <title>Marching Percussion</title>
    <g id="Marching-Percussion" stroke="none" stroke-width="1" fill="none" fill-rule="evenodd">
        <path d="M11.6521739,3.28571429 C16.2757591,3.28571429 20.0186335,7.09681826 20.0186335,11.7916667 C20.0186335,13.8862913 19.2736022,15.8050038 18.0377236,17.28783 L20.5654988,20.5636341 C20.806497,20.8759505 20.7486823,21.3245006 20.4363659,21.5654988 C20.1524419,21.7845881 19.7559281,21.7567245 19.5051156,21.5151998 L19.4345012,21.4363659 L17.0245717,18.3126084 C15.5715332,19.5514069 13.6980749,20.297619 11.6521739,20.297619 C9.7344088,20.297619 7.96816243,19.6419512 6.55767638,18.5395093 L4.58861016,21.4046507 C4.36512777,21.7297311 3.92042975,21.8120926 3.59534933,21.5886102 C3.29982168,21.3854443 3.2048882,20.9994557 3.35797558,20.6867173 L3.41138984,20.5953493 L5.50090625,17.5572342 C4.1255085,16.0410785 3.28571429,14.0155161 3.28571429,11.7916667 C3.28571429,7.09681826 7.02858877,3.28571429 11.6521739,3.28571429 Z M11.6521739,4.71428571 C7.82340114,4.71428571 4.71428571,7.88007772 4.71428571,11.7916667 C4.71428571,13.5243073 5.32431038,15.1106186 6.33669379,16.3402808 L8.28095506,13.512016 C8.50443745,13.1869356 8.94913547,13.1045741 9.27421588,13.3280565 C9.56974353,13.5312223 9.66467701,13.917211 9.51158964,14.2299494 L9.45817538,14.3213173 L7.36853927,17.359216 C8.54846423,18.3051248 10.0362228,18.8690476 11.6521739,18.8690476 C13.367853,18.8690476 14.9390285,18.2333723 16.1507052,17.1797646 L11.7823273,11.5196992 C11.5413291,11.2073829 11.5991438,10.7588328 11.9114602,10.5178345 C12.1953842,10.2987452 12.591898,10.3266088 12.8427105,10.5681335 L12.9133249,10.6469674 L17.1389921,16.1237031 C18.0484641,14.9269025 18.5900621,13.4242423 18.5900621,11.7916667 C18.5900621,7.88007772 15.4809467,4.71428571 11.6521739,4.71428571 Z" id="Combined-Shape" fill="#000000" fill-rule="nonzero"></path>
    </g>
</svg>