<?xml version="1.0" encoding="UTF-8"?>
<svg width="56px" height="56px" viewBox="0 0 24 24" version="1.1" xmlns="http://www.w3.org/2000/svg" xmlns:xlink="http://www.w3.org/1999/xlink">
    <title>Viola</title>
    <g id="Viola" stroke="none" stroke-width="1" fill="none" fill-rule="evenodd">
        <g id="Group-22" transform="translate(2.000000, 2.000000)">
            <rect id="Rectangle" x="0.624748458" y="0.612922964" width="18.7741174" height="18.7741174"></rect>
            <g id="violin-svgrepo-com-(1)" transform="translate(10.000000, 10.000000) rotate(45.000000) translate(-10.000000, -10.000000) translate(5.244941, 0.612923)" fill="#000000" fill-rule="nonzero">
                <path d="M6.99636553,13.6339327 C6.60826932,13.5491192 6.32651088,13.1986446 6.32651088,12.8005379 C6.32651088,12.4948718 6.49203113,12.2106566 6.75838892,12.0587036 L7.08139908,11.8745926 L7.08139908,9.96142936 C7.08139908,8.4738739 5.87556538,7.26297999 4.38999001,7.25406962 L4.38999001,2.98680807 L4.81666116,2.98680807 L4.81666116,0 L2.68323206,0 L2.68323206,2.98680807 L3.10990321,2.98680807 L3.10990321,7.25406962 C1.62436451,7.26297999 0.418494144,8.4738739 0.418494144,9.96142936 L0.418494144,11.8745926 L0.741504301,12.0587036 C1.00793543,12.2106566 1.17338234,12.4948718 1.17338234,12.8005379 C1.17338234,13.1986446 0.891660572,13.5491192 0.503491027,13.6338961 L0,13.7438273 L0,15.7148163 C0,17.4017001 1.37241732,18.7741541 3.05933777,18.7741541 L4.44048212,18.7741541 C6.1273659,18.7741541 7.49981988,17.4017368 7.49981988,15.7148163 L7.49981988,13.743864 L6.99636553,13.6339327 Z M1.46980805,16.5126796 L1.77246736,16.5126796 C2.37906936,16.5126796 2.88985736,16.9304771 3.03245998,17.4933706 C2.34958813,17.4831402 1.75901013,17.0865003 1.46980805,16.5126796 Z M6.21987976,15.7147796 C6.21987976,16.6958373 5.42164976,17.4940673 4.44055545,17.4940673 L4.38999001,17.4940673 L4.38999001,14.933967 L3.10993988,14.933967 L3.10993988,15.6071585 C2.71968025,15.3695852 2.26176779,15.2326662 1.77246736,15.2326662 L1.28012346,15.2326662 L1.28012346,14.7049008 C1.98257613,14.3479359 2.4535058,13.6139852 2.4535058,12.8005746 C2.4535058,12.1690382 2.17156403,11.5744267 1.69861761,11.1729833 L1.69861761,9.96139269 C1.69861761,9.17966337 2.33022732,8.54295678 3.10997655,8.53408308 L3.10997655,10.6671088 L4.39002668,10.6671088 L4.39002668,8.53408308 C5.16973924,8.54299345 5.80138562,9.17970004 5.80138562,9.96142936 L5.80138562,11.1729833 C5.3284392,11.5743534 5.04649743,12.1690382 5.04649743,12.8005746 C5.04649743,13.6140219 5.51742709,14.3479359 6.21987976,14.7049008 L6.21987976,15.7147796 L6.21987976,15.7147796 Z" id="Shape"></path>
                <rect id="Rectangle" x="3.10986655" y="12.1604945" width="1.28005013" height="1.28005013"></rect>
                <rect id="Rectangle" x="8.23006705" y="2.84217094e-14" width="1.28005013" height="18.7741174"></rect>
            </g>
        </g>
    </g>
</svg>