<?xml version="1.0" encoding="UTF-8"?>
<svg width="56px" height="56px" viewBox="0 0 24 24" version="1.1" xmlns="http://www.w3.org/2000/svg" xmlns:xlink="http://www.w3.org/1999/xlink">
    <title>Drum Kit</title>
    <g id="Drum-Kit" stroke="none" stroke-width="1" fill="none" fill-rule="evenodd">
        <path d="M17.76,2.28571429 C19.8732736,2.28571429 21.5920212,2.86810122 21.7080428,4.02576374 L21.7142857,4.152 L21.7142857,7.608 C21.7142857,8.83967787 19.9294511,9.47428571 17.76,9.47428571 C16.7567967,9.47428571 15.8358377,9.33858454 15.1355795,9.07089401 C16.9276741,10.2216082 18.1142857,12.2322301 18.1142857,14.52 C18.1142857,16.4171346 17.2983044,18.1236865 15.99816,19.3078376 L17.1850763,20.4949237 C17.4640222,20.7738697 17.4640222,21.2261303 17.1850763,21.5050763 C16.9340249,21.7561276 16.5425886,21.7812327 16.2634603,21.5803917 L16.1749237,21.5050763 L14.8261001,20.1573592 C13.8854433,20.6901404 12.7982401,20.9942857 11.64,20.9942857 C10.4817599,20.9942857 9.39455668,20.6901404 8.45389994,20.1573592 L7.10507627,21.5050763 C6.82613035,21.7840222 6.37386965,21.7840222 6.09492373,21.5050763 C5.8438724,21.2540249 5.81876726,20.8625886 6.01960833,20.5834603 L6.09492373,20.4949237 L7.28283889,19.3087472 C5.98211354,18.1245605 5.16571429,16.4176204 5.16571429,14.52 C5.16571429,12.4212493 6.1643466,10.5557418 7.71236102,9.37272746 L7.72406173,9.36388932 C7.26491195,9.43731094 6.76366062,9.47428571 6.24,9.47428571 C4.25661142,9.47428571 2.59469537,8.94386399 2.32421656,7.91170474 C2.30931964,7.86847502 2.29854121,7.82341013 2.29223487,7.77692434 L2.28571429,7.68 L2.28571429,4.152 C2.28571429,2.91044313 4.05125231,2.28571429 6.24,2.28571429 C8.35327363,2.28571429 10.0720212,2.86810122 10.1880428,4.02576374 L10.1942857,4.152 L10.1942857,7.608 C10.1942857,7.84649465 10.1273649,8.0626027 10.0036891,8.25605161 C10.5253264,8.11829644 11.0741869,8.04571429 11.64,8.04571429 C12.6091049,8.04571429 13.5284785,8.2586387 14.353891,8.64025741 C14.094274,8.43604143 13.9177811,8.19243051 13.8442166,7.91170474 C13.8293196,7.86847502 13.8185412,7.82341013 13.8122349,7.77692434 L13.8057143,7.68 L13.8057143,4.152 C13.8057143,2.91044313 15.5712523,2.28571429 17.76,2.28571429 Z M11.64,9.47428571 C8.85332895,9.47428571 6.59428571,11.7333289 6.59428571,14.52 C6.59428571,17.3066711 8.85332895,19.5657143 11.64,19.5657143 C14.4266711,19.5657143 16.6857143,17.3066711 16.6857143,14.52 C16.6857143,11.7333289 14.4266711,9.47428571 11.64,9.47428571 Z M13.08,13.8057143 C14.2697791,13.8057143 15.2342857,14.7702209 15.2342857,15.96 C15.2342857,17.1497791 14.2697791,18.1142857 13.08,18.1142857 C11.8902209,18.1142857 10.9257143,17.1497791 10.9257143,15.96 C10.9257143,14.7702209 11.8902209,13.8057143 13.08,13.8057143 Z M13.08,15.2342857 C12.6791991,15.2342857 12.3542857,15.5591991 12.3542857,15.96 C12.3542857,16.3608009 12.6791991,16.6857143 13.08,16.6857143 C13.4808009,16.6857143 13.8057143,16.3608009 13.8057143,15.96 C13.8057143,15.5591991 13.4808009,15.2342857 13.08,15.2342857 Z M6.24,7.17028571 C5.44607215,7.17028571 4.70969127,7.28102806 4.18826665,7.46642348 C4.09983032,7.49786751 4.02065312,7.53047824 3.95173578,7.56311796 L3.95173578,7.56311796 L3.863,7.608 L3.95173578,7.65288204 L4.06268159,7.70167766 L4.18826665,7.74957652 C4.70969127,7.93497194 5.44607215,8.04571429 6.24,8.04571429 C7.03392785,8.04571429 7.77030873,7.93497194 8.29173335,7.74957652 C8.38016968,7.71813249 8.45934688,7.68552176 8.52826422,7.65288204 L8.52826422,7.65288204 L8.616,7.608 L8.52826422,7.56311796 L8.41731841,7.51432234 L8.29173335,7.46642348 C7.77030873,7.28102806 7.03392785,7.17028571 6.24,7.17028571 Z M17.76,7.17028571 C16.9660721,7.17028571 16.2296913,7.28102806 15.7082666,7.46642348 C15.6198303,7.49786751 15.5406531,7.53047824 15.4717358,7.56311796 L15.4717358,7.56311796 L15.383,7.608 L15.4717358,7.65288204 L15.5826816,7.70167766 L15.7082666,7.74957652 C16.2296913,7.93497194 16.9660721,8.04571429 17.76,8.04571429 C18.5539279,8.04571429 19.2903087,7.93497194 19.8117334,7.74957652 C19.9001697,7.71813249 19.9793469,7.68552176 20.0482642,7.65288204 L20.0482642,7.65288204 L20.136,7.608 L20.0482642,7.56311796 L19.9373184,7.51432234 L19.8117334,7.46642348 C19.2903087,7.28102806 18.5539279,7.17028571 17.76,7.17028571 Z M17.76,3.71428571 C16.9576047,3.71428571 16.2210065,3.82317414 15.7032705,4.00637305 C15.5277985,4.06846315 15.3897081,4.13518814 15.2965302,4.19753352 L15.234,4.243 L15.2339207,6.10889012 C15.9210122,5.86517999 16.8030917,5.74171429 17.76,5.74171429 C18.7173673,5.74171429 19.5998339,5.86529845 20.2870678,6.10924086 L20.285,4.243 C20.2145635,4.18373836 20.0975173,4.11751295 19.9412068,4.05366881 L19.8167295,4.00637305 C19.2989935,3.82317414 18.5623953,3.71428571 17.76,3.71428571 Z M6.24,3.71428571 C5.4376047,3.71428571 4.70100652,3.82317414 4.18327046,4.00637305 C4.00779846,4.06846315 3.86970808,4.13518814 3.7765302,4.19753352 L3.714,4.243 L3.7139207,6.10889012 C4.40101218,5.86517999 5.28309168,5.74171429 6.24,5.74171429 C7.19690832,5.74171429 8.07898782,5.86517999 8.7660793,6.10889012 L8.765,4.243 C8.6945635,4.18373836 8.57751733,4.11751295 8.42120682,4.05366881 L8.29672954,4.00637305 C7.77899348,3.82317414 7.0423953,3.71428571 6.24,3.71428571 Z" id="Combined-Shape" fill="#000000" fill-rule="nonzero"></path>
    </g>
</svg>