<?xml version="1.0" encoding="UTF-8"?>
<svg width="56px" height="56px" viewBox="0 0 24 24" version="1.1" xmlns="http://www.w3.org/2000/svg" xmlns:xlink="http://www.w3.org/1999/xlink">
    <title>Oboe</title>
    <g id="Oboe" stroke="none" stroke-width="1" fill="none" fill-rule="evenodd">
        <g id="oboe-music-and-multimedia-svgrepo-com" transform="translate(2.000000, 2.000000)" fill="#000000" fill-rule="nonzero">
            <path d="M19.7292613,1.8866667 L17.9409354,0.222277785 C17.6190203,-0.0773193692 17.1243313,-0.0736250527 16.8067521,0.230738962 L4.42839285,12.0949372 C4.42636159,12.0968837 4.42464284,12.0990685 4.42265064,12.1010547 C4.41858813,12.1050271 4.41425218,12.1084036 4.41022873,12.1124554 C2.8162784,13.7341412 1.7896736,14.3690075 1.72385308,14.3021126 C1.39842237,13.9711733 0.87076446,13.9711733 0.545333748,14.3021126 C-0.181777916,15.041532 -0.181777916,16.2407946 0.545333748,16.980214 L2.96952107,19.4454354 C3.69663273,20.1848549 4.87593332,20.1848549 5.60304498,19.4454354 C5.88503806,19.1586691 5.92269443,18.7174962 5.71597503,18.3894965 C5.76570174,18.2978139 5.85636609,18.1667252 5.99097589,18.0034603 C6.18730463,17.7652761 6.45027421,17.486971 6.86617396,17.0715391 C6.79332217,17.1443132 7.78672373,16.1605524 8.08902937,15.8530105 C8.09156844,15.8504285 8.09367782,15.8475683 8.09617783,15.8449863 C8.10063097,15.8403386 8.10547474,15.8362868 8.10984975,15.8315199 L19.7765662,3.08930576 C20.092075,2.74466178 20.070864,2.20457654 19.7292613,1.8866667 Z M5.69827966,15.8623456 C5.24655949,16.3135686 4.95351169,16.6236926 4.71370625,16.91463 C4.36444733,17.3383244 4.12347001,17.7428322 4.03022753,18.1271603 L1.92080683,15.9820335 C2.74295785,15.8484423 3.73507035,15.1206222 4.99292587,13.9032059 L6.31644567,15.2491288 C5.98335868,15.5804653 5.65972485,15.900838 5.69827966,15.8623456 Z M7.4785587,14.0337384 L6.19617185,12.7296446 L17.3866758,2.00397118 L17.9840215,2.55990623 L7.4785587,14.0337384 Z" id="Shape"></path>
        </g>
    </g>
</svg>