<?xml version="1.0" encoding="UTF-8"?>
<svg width="56px" height="56px" viewBox="0 0 24 24" version="1.1" xmlns="http://www.w3.org/2000/svg" xmlns:xlink="http://www.w3.org/1999/xlink">
    <title>Saxophone</title>
    <g id="Saxophone" stroke="none" stroke-width="1" fill="none" fill-rule="evenodd">
        <path d="M6.05454669,2.28571429 C8.70543276,2.28571429 10.8703484,4.39094182 10.9824556,7.02385673 L10.9870159,7.23846154 L10.9867143,8.13163692 L11.0000032,8.13186813 C11.3944923,8.13186813 11.7142889,8.45166474 11.7142889,8.84615385 C11.7142889,9.20776886 11.445571,9.50662143 11.0969276,9.55391897 L11.0000032,9.56043956 L10.9867143,9.55963692 L10.9867143,10.3236369 L11.0000032,10.3241758 C11.3944923,10.3241758 11.7142889,10.6439724 11.7142889,11.0384615 C11.7142889,11.4000766 11.445571,11.6989291 11.0969276,11.7462267 L11.0000032,11.7527473 L10.9867143,11.7526369 L10.9867143,12.5156369 L11.0000032,12.5164835 C11.3944923,12.5164835 11.7142889,12.8362801 11.7142889,13.2307692 C11.7142889,13.5923842 11.445571,13.8912368 11.0969276,13.9385344 L11.0000032,13.9450549 L10.9867143,13.9446369 L10.9867143,14.7086369 L11.0000032,14.7087912 C11.3944923,14.7087912 11.7142889,15.0285878 11.7142889,15.4230769 C11.7142889,15.7846919 11.445571,16.0835445 11.0969276,16.1308421 L11.0000032,16.1373626 L10.9867143,16.1366369 L10.9870159,16.8846154 C10.9870159,17.2947372 11.3225339,17.6318681 11.7272763,17.6318681 C12.0982901,17.6318681 12.4111362,17.3485845 12.4607007,16.9854723 L12.4675366,16.8846154 L12.4675366,14.1076923 C12.4675366,13.0334753 12.8129125,11.8904546 13.3845316,11.005413 L13.5320809,10.7897162 L13.5508381,10.759942 C13.4783825,10.0626051 13.6310358,9.41473075 14.0480607,8.91863221 L14.1683789,8.78717252 L14.2844797,8.67887702 C15.4758169,7.64832339 17.561883,8.1825442 19.0893103,9.71726198 C20.6661299,11.3017149 21.1799281,13.4815337 20.0149455,14.6521331 C19.6384124,15.0304711 19.1571712,15.2330048 18.624982,15.2806066 C18.4182985,15.7325905 18.2965572,16.2449633 18.2668818,16.7752246 L18.2597461,17.0307692 C18.2597461,20.1779433 15.7097811,22.7142857 12.6000039,22.7142857 C9.37075269,22.7142857 6.76997874,20.174754 6.65342975,16.9635643 L6.64935241,16.7384615 L6.64935241,6.65384615 C6.64935241,6.24372431 6.31383444,5.90659341 5.90909208,5.90659341 C5.27077569,5.90659341 4.67063334,5.60682322 4.25802624,5.07905136 L4.15025888,4.92951457 L3.34371429,3.71363692 L3,3.71428571 C2.60551089,3.71428571 2.28571429,3.39448911 2.28571429,3 C2.28571429,2.63838499 2.55443227,2.33953242 2.90307566,2.29223487 L3,2.28571429 L6.05454669,2.28571429 Z M6.05454669,3.71428571 L5.05671429,3.71363692 L5.34065162,4.1397162 C5.49011766,4.36499305 5.69634596,4.47802198 5.90909208,4.47802198 C7.05238263,4.47802198 7.99284621,5.3730594 8.07246443,6.49894745 L8.07792384,6.65384615 L8.07792384,16.7384615 C8.07792384,19.2678142 10.0861698,21.2857143 12.6000039,21.2857143 C14.8521318,21.2857143 16.7151181,19.5005623 16.8259583,17.2436927 L16.8311747,17.0307692 C16.8311747,16.3532824 16.9455022,15.6851485 17.1674795,15.0694699 C16.450375,14.8186897 15.7245887,14.3556218 15.0940131,13.722036 C14.7362798,13.3625709 14.4332602,12.9724623 14.1921447,12.570447 C14.031963,12.9889328 13.9311296,13.4368385 13.9037017,13.8706155 L13.896108,14.1076923 L13.896108,16.8846154 C13.896108,18.0821858 12.9225345,19.0604396 11.7272763,19.0604396 C10.5839857,19.0604396 9.64352212,18.1654021 9.56390391,17.0395141 L9.5584445,16.8846154 L9.55771429,16.1366369 L9.54545719,16.1373626 C9.15096808,16.1373626 8.83117148,15.817566 8.83117148,15.4230769 C8.83117148,15.0614619 9.09988946,14.7626093 9.44853285,14.7153118 L9.54545719,14.7087912 L9.55771429,14.7086369 L9.55771429,13.9446369 L9.54545719,13.9450549 C9.15096808,13.9450549 8.83117148,13.6252583 8.83117148,13.2307692 C8.83117148,12.8691542 9.09988946,12.5703016 9.44853285,12.5230041 L9.54545719,12.5164835 L9.55771429,12.5156369 L9.55771429,11.7526369 L9.54545719,11.7527473 C9.15096808,11.7527473 8.83117148,11.4329506 8.83117148,11.0384615 C8.83117148,10.6768465 9.09988946,10.377994 9.44853285,10.3306964 L9.54545719,10.3241758 L9.55771429,10.3236369 L9.55771429,9.55963692 L9.54545719,9.56043956 C9.15096808,9.56043956 8.83117148,9.24064295 8.83117148,8.84615385 C8.83117148,8.48453883 9.09988946,8.18568626 9.44853285,8.13838872 L9.54545719,8.13186813 L9.55771429,8.13163692 L9.5584445,7.23846154 C9.5584445,5.35854889 8.08960799,3.81998751 6.24650293,3.71950554 L6.05454669,3.71428571 Z M15.2514706,9.73412191 L15.1809398,9.79488907 L15.1225565,9.86284016 C14.7275157,10.3952832 15.0612224,11.6638962 16.106578,12.7143155 C16.7627223,13.3735905 17.5031938,13.7504729 18.0936607,13.8415466 C18.1943331,13.8244854 18.2994419,13.8307245 18.4008468,13.8605049 C18.6547799,13.8562822 18.8638491,13.7836077 19.0023802,13.6444122 C19.4846743,13.159794 19.1696176,11.8231476 18.0767454,10.7249825 C17.0348971,9.67816314 15.7804419,9.34331695 15.2514706,9.73412191 Z" id="Combined-Shape" fill="#000000" fill-rule="nonzero"></path>
    </g>
</svg>