<?xml version="1.0" encoding="UTF-8"?>
<svg width="56px" height="56px" viewBox="0 0 24 24" version="1.1" xmlns="http://www.w3.org/2000/svg" xmlns:xlink="http://www.w3.org/1999/xlink">
    <title>Trombone</title>
    <g id="Trombone" stroke="none" stroke-width="1" fill="none" fill-rule="evenodd">
        <path d="M22.707865,5.89877307 L22.7142857,6 L22.7142857,14.4705882 C22.7142857,15.202003 21.7454764,15.4607344 21.3808193,14.8267053 C20.484995,13.2691359 19.0250037,12.4356225 17.143748,12.3660874 L16.8846154,12.3613445 L10.3076923,12.3613445 C9.45444191,12.3613445 8.82967033,12.9648391 8.82967033,13.7647059 C8.82967033,14.5175217 9.38310121,15.0963884 10.1595711,15.1618854 L10.3076923,15.1680672 L13.2307692,15.1680672 C13.6252583,15.1680672 13.9450549,15.4878638 13.9450549,15.8823529 C13.9450549,16.243968 13.676337,16.5428205 13.3276936,16.5901181 L13.2307692,16.5966387 L10.3076923,16.5966387 C8.67632732,16.5966387 7.4010989,15.3648391 7.4010989,13.7647059 C7.4010989,12.2217203 8.58686614,11.0212286 10.1343078,10.9374473 L10.3076923,10.9327731 L16.8846154,10.9327731 C18.5527568,10.9327731 20.0120598,11.4195334 21.1551431,12.3622587 L21.285,12.474 L21.285,7.995 L21.1551431,8.1083295 C20.0755644,8.99868122 18.7139256,9.48232335 17.1606868,9.53331337 L16.8846154,9.53781513 L10.6730769,9.53781513 C8.43136499,9.53781513 6.63736264,11.2707214 6.63736264,13.4117647 C6.63736264,15.4859004 8.3209918,17.1770091 10.4642692,17.2806778 L10.6730769,17.2857143 L16.8846154,17.2857143 C17.7378658,17.2857143 18.3626374,16.6822198 18.3626374,15.8823529 C18.3626374,15.1295371 17.8092065,14.5506704 17.0327366,14.4851734 L16.8846154,14.4789916 L11.0384615,14.4789916 C10.6439724,14.4789916 10.3241758,14.159195 10.3241758,13.7647059 C10.3241758,13.4030909 10.5928938,13.1042383 10.9415372,13.0569408 L11.0384615,13.0504202 L16.8846154,13.0504202 C18.5159804,13.0504202 19.7912088,14.2822198 19.7912088,15.8823529 C19.7912088,17.4253385 18.6054416,18.6258302 17.0579999,18.7096115 L16.8846154,18.7142857 L10.6730769,18.7142857 C8.02885071,18.7142857 5.82576652,16.9039126 5.31864158,14.478919 L3,14.4789916 C2.60551089,14.4789916 2.28571429,14.159195 2.28571429,13.7647059 C2.28571429,13.4030909 2.55443227,13.1042383 2.90307566,13.0569408 L3,13.0504202 L5.22121892,13.0496906 C5.4072493,10.349554 7.65923155,8.22004688 10.453168,8.1134318 L10.6730769,8.1092437 L16.8846154,8.1092437 C18.8911116,8.1092437 20.4442758,7.27225093 21.3808193,5.64388291 C21.7281117,5.04004571 22.6233881,5.24596853 22.707865,5.89877307 Z M10.8127686,6.20080608 C11.0917145,6.479752 11.0917145,6.9320127 10.8127686,7.21095863 C10.5338227,7.48990455 10.081562,7.48990455 9.80261604,7.21095863 C9.52367011,6.9320127 9.52367011,6.479752 9.80261604,6.20080608 C10.081562,5.92186016 10.5338227,5.92186016 10.8127686,6.20080608 Z M13.0050763,6.20080608 C13.2840222,6.479752 13.2840222,6.9320127 13.0050763,7.21095863 C12.7261303,7.48990455 12.2738697,7.48990455 11.9949237,7.21095863 C11.7159778,6.9320127 11.7159778,6.479752 11.9949237,6.20080608 C12.2738697,5.92186016 12.7261303,5.92186016 13.0050763,6.20080608 Z M15.197384,6.20080608 C15.4763299,6.479752 15.4763299,6.9320127 15.197384,7.21095863 C14.918438,7.48990455 14.4661773,7.48990455 14.1872314,7.21095863 C13.9082855,6.9320127 13.9082855,6.479752 14.1872314,6.20080608 C14.4661773,5.92186016 14.918438,5.92186016 15.197384,6.20080608 Z M17.3896917,6.20080608 C17.6686376,6.479752 17.6686376,6.9320127 17.3896917,7.21095863 C17.1107457,7.48990455 16.658485,7.48990455 16.3795391,7.21095863 C16.1005932,6.9320127 16.1005932,6.479752 16.3795391,6.20080608 C16.658485,5.92186016 17.1107457,5.92186016 17.3896917,6.20080608 Z" id="Combined-Shape" fill="#000000" fill-rule="nonzero"></path>
    </g>
</svg>