<?xml version="1.0" encoding="UTF-8"?>
<svg width="56px" height="56px" viewBox="0 0 24 24" version="1.1" xmlns="http://www.w3.org/2000/svg" xmlns:xlink="http://www.w3.org/1999/xlink">
    <title>Trumpet</title>
    <g id="Trumpet" stroke="none" stroke-width="1" fill="none" fill-rule="evenodd">
        <path d="M21.6415094,6.28571429 C22.0031244,6.28571429 22.301977,6.55443227 22.3492746,6.90307566 L22.3557951,7 L22.3557951,18 C22.3557951,18.3944891 22.0359985,18.7142857 21.6415094,18.7142857 C21.2798944,18.7142857 20.9810419,18.4455677 20.9337443,18.0969243 L20.9272237,18 L20.9282618,17.5196826 C19.8124104,15.8056855 17.8314927,14.7065514 15.6826246,14.598125 C15.7987197,14.8504464 15.8724132,15.127261 15.896524,15.4217781 L15.896524,15.4217781 L15.902965,15.59375 C15.902965,16.9576045 14.7879355,18.0267857 13.3962264,18.0267857 L13.3962264,18.0267857 L9.09433962,18.0267857 C7.77964929,18.0267857 6.70080002,17.0697868 6.59404208,15.7657219 L6.59404208,15.7657219 L6.58760108,15.59375 C6.58760108,15.2334569 6.66541586,14.8937283 6.80558971,14.5888428 L6.129,14.589 L6.00989881,14.6799058 C5.47322408,15.0573001 4.80287283,15.2766976 4.11170795,15.2759049 L4.11170795,15.2759049 L3.94885239,15.2669055 C3.00249321,15.171994 2.28571429,14.408944 2.28571429,13.4625 L2.28571429,13.4625 L2.28571429,11.5375 C2.28571429,10.5173955 3.11395134,9.72321429 4.17711011,9.72384206 L4.17711011,9.72384206 L4.39989152,9.73379691 C4.98515899,9.7825971 5.56167335,9.99896297 6.03147652,10.3353674 L6.03147652,10.3353674 L6.128,10.41 L15.3320755,10.4107143 C17.5687778,10.4107143 19.6373851,9.3266389 20.8929417,7.52271259 L20.8929417,7.52271259 L20.9267143,7.47071429 L20.9272237,7 C20.9272237,6.60551089 21.2470203,6.28571429 21.6415094,6.28571429 Z M13.3962264,14.5892857 L9.09433962,14.5892857 C8.47850149,14.5892857 8.01617251,15.0326045 8.0155749,15.5645375 L8.0155749,15.5645375 L8.01960718,15.6778986 C8.06256922,16.1997083 8.51181515,16.5982143 9.09433962,16.5982143 L9.09433962,16.5982143 L13.3962264,16.5982143 C14.0120645,16.5982143 14.4743935,16.1548955 14.4749911,15.6229625 L14.4749911,15.6229625 L14.4709589,15.5096014 C14.4279968,14.9877917 13.9787509,14.5892857 13.3962264,14.5892857 L13.3962264,14.5892857 Z M20.927,9.648 L20.7699335,9.7922865 C19.2937046,11.09428 17.3692445,11.8392857 15.3320755,11.8392857 L15.3320755,11.8392857 L5.86792453,11.8392857 C5.68367359,11.8392857 5.50654967,11.7680869 5.37355909,11.6405646 L5.37355909,11.6405646 L5.24751559,11.5322439 C4.98092115,11.3262514 4.63318687,11.186691 4.31059932,11.1592704 L4.31059932,11.1592704 L4.14716981,11.1517857 C3.88982225,11.1517857 3.71428571,11.3201045 3.71428571,11.5375 L3.71428571,11.5375 L3.71428571,13.4625 C3.71428571,13.663356 3.86391974,13.8226496 4.05559324,13.8427803 L4.05559324,13.8427803 L4.14716981,13.8482143 C4.5467334,13.8482143 4.97150243,13.6931552 5.2597983,13.4591053 L5.2597983,13.4591053 L5.39509264,13.3396178 C5.52562405,13.2243368 5.69377468,13.1607143 5.86792453,13.1607143 L5.86792453,13.1607143 L15.3320755,13.1607143 C17.3895561,13.1607143 19.3540352,13.9182777 20.8186998,15.2236902 L20.8186998,15.2236902 L20.927,15.324 L20.927,9.648 Z M9.24092533,8.55742373 C9.51987125,8.83636965 9.51987125,9.28863035 9.24092533,9.56757627 C8.96197941,9.84652219 8.50971871,9.84652219 8.23077278,9.56757627 C7.95182686,9.28863035 7.95182686,8.83636965 8.23077278,8.55742373 C8.50971871,8.27847781 8.96197941,8.27847781 9.24092533,8.55742373 Z M11.3918687,8.55742373 C11.6708146,8.83636965 11.6708146,9.28863035 11.3918687,9.56757627 C11.1129228,9.84652219 10.6606621,9.84652219 10.3817162,9.56757627 C10.1027703,9.28863035 10.1027703,8.83636965 10.3817162,8.55742373 C10.6606621,8.27847781 11.1129228,8.27847781 11.3918687,8.55742373 Z M13.5428121,8.55742373 C13.821758,8.83636965 13.821758,9.28863035 13.5428121,9.56757627 C13.2638662,9.84652219 12.8116055,9.84652219 12.5326596,9.56757627 C12.2537137,9.28863035 12.2537137,8.83636965 12.5326596,8.55742373 C12.8116055,8.27847781 13.2638662,8.27847781 13.5428121,8.55742373 Z" id="Combined-Shape" fill="#000000" fill-rule="nonzero"></path>
    </g>
</svg>