<?xml version="1.0" encoding="UTF-8"?>
<svg width="56px" height="56px" viewBox="0 0 24 24" version="1.1" xmlns="http://www.w3.org/2000/svg" xmlns:xlink="http://www.w3.org/1999/xlink">
    <title>Tuba</title>
    <g id="Tuba" stroke="none" stroke-width="1" fill="none" fill-rule="evenodd">
        <g id="tuba-svgrepo-com" transform="translate(2.000000, 3.000000)" fill="#000000" fill-rule="nonzero">
            <path d="M19.2093359,1.33005748 L19.3303516,1.33005748 C19.7001562,1.33005748 20,1.03232105 20,0.665028739 C20,0.29777522 19.7001953,0 19.3303516,0 L18.8250781,0 C18.8240234,0 18.8229297,0 18.821875,0 L10.096875,0 C10.0958984,0 10.0949219,0 10.0939453,0 L9.58867187,0 C9.21886719,0 8.91902344,0.297736427 8.91902344,0.665028739 C8.91902344,1.03228226 9.21882812,1.33005748 9.58867187,1.33005748 L9.7096875,1.33005748 L11.2053516,3.95347424 L11.2053516,10.2344133 C10.6696484,10.2856589 10.18375,10.3300381 9.67503906,10.3300381 L9.41964844,10.3300381 L9.41964844,10.2413572 L10.1339453,10.2413572 C10.50375,10.2413572 10.8035938,9.94362081 10.8035938,9.5763285 C10.8035938,9.35842811 10.6975781,9.1656268 10.5345313,9.04432103 C10.6976172,8.92301525 10.8035938,8.73021394 10.8035938,8.51231355 C10.8035938,8.30748641 10.7101953,8.12446094 10.5635937,8.00245689 C10.7102344,7.88045284 10.8035938,7.69742738 10.8035938,7.49260023 C10.8035938,7.12534671 10.5037891,6.82757149 10.1339453,6.82757149 L9.41964844,6.82757149 L9.41964844,6.63310208 C9.41964844,4.92310577 8.01808594,3.54676822 6.29625,3.54676822 L5.3125,3.54676822 L5.3125,3.40234181 C5.3125,2.5214687 4.59238281,1.80476766 3.70535156,1.80476766 C2.81835938,1.80476766 2.09820312,2.52142991 2.09820312,3.40234181 L2.09820312,3.70806959 C0.892851562,4.13386178 0,5.28426878 0,6.63314088 L0,11.5223028 C0,15.0356314 2.86019531,17.8906037 6.38957031,17.9263708 C6.48457031,17.977694 6.5934375,18 6.70921875,18 L11.8842578,18 C15.1070312,18 17.7232422,15.4099452 17.7232422,12.2094047 L17.7232422,9.48004422 C17.9910938,9.33631609 18.2178125,9.18541124 18.4585937,9.02791158 C18.5738672,9.1211312 18.7222656,9.17722591 18.8825391,9.17722591 C19.2523437,9.17722591 19.5535937,8.87948948 19.5535937,8.51219717 L19.5535937,7.5811647 C19.5535937,7.21391118 19.2537891,6.91613596 18.8839453,6.91613596 C18.5141016,6.91613596 18.2142969,7.21387238 18.2142969,7.5811647 L18.2142969,7.64148784 C18.1359375,7.66003091 18.0567187,7.6923067 17.9864453,7.74044884 C17.9001953,7.79949181 17.8125,7.857371 17.7232422,7.91447432 L17.7232422,3.95347424 L19.2093359,1.33005748 Z M5.3125,6.73889065 L6.20535156,6.73889065 L6.20535156,10.4578223 C6.20535156,10.7041192 6.00691406,10.9044463 5.75890625,10.9044463 C5.51089844,10.9044463 5.3125,10.7041192 5.3125,10.4578223 L5.3125,6.73889065 Z M3.4375,10.4630206 L3.4375,6.72709757 L3.4375,5.39704009 L3.4375,4.86200676 L3.4375,3.53194928 L3.4375,3.40230301 C3.4375,3.25481195 3.55683594,3.13478635 3.70535156,3.13478635 C3.85386719,3.13478635 3.97320312,3.25481195 3.97320312,3.40230301 L3.97320312,3.53194928 L3.97320312,4.86200676 L3.97320312,5.39704009 L3.97320312,6.72709757 L3.97320312,10.4630206 L3.96800781,10.4630206 C3.96800781,10.4630206 4.76988281,12.2371417 5.75632812,12.2371417 C6.74277344,12.2371417 7.54464844,11.4374624 7.54464844,10.4578611 L7.54464844,6.63314088 C7.54464844,5.95158631 6.98253906,5.40887196 6.29625,5.40887196 L5.3125,5.40887196 L5.3125,4.87686449 L6.29625,4.87686449 C7.27960937,4.87686449 8.08035156,5.6565266 8.08035156,6.63314088 L8.08035156,10.4578611 C8.08035156,11.7325609 7.03578125,12.7721751 5.75226562,12.7721751 C4.46871094,12.7721751 3.43097656,11.7487376 3.43097656,10.4630206 L3.4375,10.4630206 Z M6.02683594,16.5871194 C3.39285156,16.3757751 1.33929688,14.1850168 1.33929688,11.522264 L1.33929688,6.63310208 C1.33929688,6.04069388 1.65179688,5.51528122 2.09824219,5.1936095 L2.09824219,5.95150873 C1.96429688,6.14702555 1.87503906,6.38137418 1.87503906,6.63310208 L1.87503906,11.522264 C1.87503906,13.889802 3.70539062,15.8401598 6.02683594,16.0499525 L6.02683594,16.5871194 L6.02683594,16.5871194 Z M6.4071875,14.7422786 C5.48207031,14.7285071 4.64945312,14.3261846 4.0671875,13.6943239 C4.57191406,13.9547027 5.14496094,14.1007584 5.751875,14.1007584 C7.35695312,14.1007584 8.72347656,13.0792994 9.21925781,11.6502809 C9.22839844,11.6506301 9.23734375,11.660018 9.2465625,11.660018 L9.675,11.660018 C10.1833594,11.6600568 10.6696484,11.6184706 11.2053516,11.5715699 L11.2053516,13.8309142 C11.2053516,14.2911545 10.8130469,14.6748175 10.3496094,14.6748175 L6.70921875,14.6748175 C6.60039062,14.6748563 6.49804687,14.6965804 6.4071875,14.7422786 Z M16.3839453,12.2094047 C16.3839453,14.676602 14.3685547,16.6699037 11.8842578,16.6699037 L7.36605469,16.6699037 L7.36605469,16.004875 L10.3495703,16.004875 C11.5514844,16.004875 12.5446094,15.0245754 12.5446094,13.8309142 L12.5446094,11.3885444 C13.8839063,11.1493079 15.1785547,10.7427958 16.3839453,10.1756807 L16.3839453,12.2094047 L16.3839453,12.2094047 Z M16.4715625,3.46375116 C16.4159375,3.56275094 16.3839453,3.66729813 16.3839453,3.78061254 L16.3839453,8.69394247 C15.1785938,9.32087646 13.8839453,9.77106946 12.5446484,10.034862 L12.5446484,3.78061254 C12.5446484,3.66725934 12.5078125,3.56271215 12.4522266,3.46375116 L11.2429688,1.33005748 L17.6760156,1.33005748 L16.4715625,3.46375116 Z" id="Shape"></path>
        </g>
    </g>
</svg>