<?xml version="1.0" encoding="UTF-8"?>
<svg width="56px" height="56px" viewBox="0 0 24 24" version="1.1" xmlns="http://www.w3.org/2000/svg" xmlns:xlink="http://www.w3.org/1999/xlink">
    <title>Violin</title>
    <g id="Violin" stroke="none" stroke-width="1" fill="none" fill-rule="evenodd">
        <g id="violin-svgrepo-com" transform="translate(2.000000, 2.000000)" fill="#000000" fill-rule="nonzero">
            <path d="M19.2639207,0.730139342 C18.2842038,-0.243445337 16.6946379,-0.243445337 15.7145251,0.730532741 L15.0358727,1.40407175 C14.5531005,1.88645801 14.5531005,2.66416916 15.0355164,3.14356559 L15.2745075,3.38106077 C15.2416893,3.40529417 15.2097816,3.43125853 15.1800116,3.46084216 L12.6762861,5.94889627 C11.0908374,4.82003687 8.93002071,4.84639463 7.37042278,6.05173085 L6.79180862,6.52703593 L2.86177701,2.62160335 C2.53197169,2.29386237 1.99722073,2.29386237 1.66741541,2.62160335 C1.33761009,2.94934434 1.33761009,3.48074817 1.66741541,3.80848915 L5.80928092,7.92442972 C5.82048425,7.97545361 5.83604222,8.02604477 5.85726124,8.07541638 C6.03037836,8.47802127 5.85979486,9.11898681 5.362771,9.61293901 C4.77671435,10.1947766 4.01722388,10.3090985 3.66030097,10.0049221 C3.34834972,9.7390235 2.88905295,9.73493215 2.57231158,9.99520515 L2.05038705,10.4240498 C2.00078363,10.4648059 1.95600991,10.511109 1.91697642,10.5619756 L0.911131555,11.8729002 C-0.368779114,13.5397332 -0.306705564,15.9026076 1.13836508,17.3719148 C1.15974246,17.3928043 2.48292251,18.708135 2.48292251,18.708135 C4.37181112,20.5841384 7.48700862,20.3912547 9.1264154,18.2967966 L9.9357864,17.2921728 C10.1864163,16.9810332 10.1822991,16.5376328 9.92588946,16.2311747 C9.62636875,15.8731813 9.74473604,15.1234015 10.3263193,14.5454586 C10.8030742,14.0722385 11.4192175,13.8956022 11.8300193,14.0399404 C11.8873028,14.0600825 11.9456947,14.0731827 12.0042449,14.0806573 L16.0245761,18.0758242 C16.3543814,18.4035652 16.8891324,18.4035652 17.2189377,18.0758242 C17.548743,17.7480832 17.548743,17.2166794 17.2189377,16.8889384 L13.3543842,13.0485741 L13.8164917,12.4746832 C15.0401878,10.9119043 15.0667907,8.75351882 13.91364,7.17185679 L13.8773776,7.12909428 L16.3743732,4.64772796 C16.4041432,4.61814433 16.4302711,4.58643634 16.4546571,4.55382354 L16.8360453,4.93282446 C17.3195697,5.41332241 18.1025753,5.41332241 18.5860997,4.93282446 L19.264277,4.25889206 C20.2453004,3.2840485 20.2453004,1.70411742 19.2639207,0.730139342 Z M12.4905405,11.4349287 L11.7745174,12.3239719 C10.8603577,12.2409646 9.87383161,12.6220899 9.13227438,13.3581007 C8.18018965,14.3042261 7.83122387,15.6376532 8.25770241,16.6892883 L7.80046421,17.2569242 C6.77743827,18.5637968 4.84737843,18.6833115 3.67708617,17.5209738 L2.36819728,16.2202776 C2.35446034,16.2054071 2.35446034,16.2054071 2.31297241,16.1665392 C1.50562039,15.3438625 1.46809123,13.914328 2.25406588,12.8907423 L3.19530358,11.6640445 C4.25589826,12.0932432 5.60180167,11.7481533 6.55681589,10.8000215 C7.33301238,10.0286834 7.71677576,8.99156476 7.58653216,8.05173374 L8.42709828,7.36088517 C9.29885952,6.6875822 10.5034348,6.62121573 11.4554799,7.16198246 L9.26821862,9.33555314 C8.9384133,9.66329413 8.9384133,10.194698 9.26821862,10.5224389 C9.59802394,10.8501799 10.1327749,10.8501799 10.4625802,10.5224389 L12.6644494,8.33435183 C13.255019,9.29345941 13.1990024,10.5301102 12.4905405,11.4349287 Z M18.0699154,3.0720456 L17.7110923,3.42862275 L16.5493906,2.2741924 L16.9084908,1.9177726 C17.2293493,1.59892244 17.7494528,1.59892244 18.0699154,1.91741854 C18.3912094,2.23622936 18.3912094,2.75276269 18.0699154,3.0720456 Z" id="Shape"></path>
        </g>
    </g>
</svg>