<?xml version="1.0" encoding="UTF-8"?>
<svg width="140px" height="136px" viewBox="0 0 140 136" version="1.1" xmlns="http://www.w3.org/2000/svg" xmlns:xlink="http://www.w3.org/1999/xlink">
    <title>46DD9017-8B36-4D30-B2C5-58EF85373605</title>
    <g id="CLient-Landing" stroke="none" stroke-width="1" fill="none" fill-rule="evenodd">
        <g id="Momotaro-home-Copy-73" transform="translate(-118.000000, -306.000000)" fill-rule="nonzero">
            <g id="Group-31" transform="translate(28.000000, 299.000000)">
                <g id="08_nothing_not_found-copy" transform="translate(159.512492, 74.652422) rotate(51.000000) translate(-159.512492, -74.652422) translate(117.041682, 19.598742)">
                    <g id="Group" transform="translate(11.800629, 0.000000)">
                        <g transform="translate(0.000000, 22.222609)" id="Path">
                            <path d="M4.46507164,21.1325182 C3.71198572,21.7569367 3.08987126,22.5975 2.54961396,23.4060419 C2.00935667,24.2145838 1.56732797,25.0791632 1.19897073,25.9757641 C0.838799197,26.872365 0.576856266,27.8009874 0.413141935,28.7536258 C0.331284769,29.2259424 0.273984753,29.6982589 0.249427603,30.1705755 C0.216684737,30.6669081 0.159384721,31.2272837 0.314913336,31.7156109 C0.454070518,32.1639114 1.19078501,32.219949 1.30538504,31.7156109 C1.40361364,31.2512998 1.35449934,30.7709779 1.37905649,30.2986613 C1.39542792,29.874377 1.43635651,29.458098 1.50184224,29.041819 C1.64099942,28.1292073 1.88657092,27.2406118 2.20581387,26.3760324 C2.51687109,25.535469 2.92615692,24.7269271 3.41729992,23.9664175 C3.92481435,23.1738863 4.53874309,22.5014356 5.14448612,21.7889581 C5.53740051,21.3326523 4.9398432,20.7402553 4.46507164,21.1325182 Z" fill="#FFFFFF"></path>
                            <path d="M49.5601843,0.870938911 C48.8398412,0.558729669 48.0048981,0.430643826 47.2354408,0.302557983 C46.4414262,0.17447214 45.639226,0.0784077578 44.8370258,0.0383809319 C43.2653682,-0.0416727199 41.5545534,-0.0256619895 40.0238244,0.374606269 C39.5408672,0.502692112 39.6145386,1.311234 40.1466102,1.2632018 C40.8996961,1.19915888 41.652782,1.07107304 42.405868,1.02304085 C43.1671396,0.975008658 43.9284113,0.967003293 44.6814972,1.00703012 C45.4427688,1.04705694 46.2122262,1.11910523 46.9653121,1.24719107 C47.7102123,1.37527692 48.4469268,1.62344324 49.191827,1.72751298 C49.6747843,1.79956127 50.1086273,1.11109987 49.5601843,0.870938911 Z" fill="#FFFFFF"></path>
                            <path d="M55.1019144,2.81624265 C54.2915284,2.23185099 53.2028281,1.85559883 52.2369136,1.62344324 C51.647542,1.47934666 51.4101562,2.32791537 51.9913421,2.51203877 C52.9245138,2.80023192 53.7512711,3.22451627 54.6353285,3.6087738 C55.1837715,3.84893476 55.5848717,3.16847872 55.1019144,2.81624265 Z" fill="#FFFFFF"></path>
                            <path d="M58.5808439,55.0992826 C58.0733295,55.8597923 57.6394865,56.6523235 57.0828578,57.3808117 C56.5262291,58.1092999 55.8877432,58.7737453 55.2738144,59.4461959 C54.8563429,59.8944964 55.4784573,60.478888 55.9450432,60.1026359 C56.7145005,59.4862228 57.3611722,58.7337184 57.9505437,57.957198 C58.5317296,57.1886829 59.1047298,56.356125 59.4567156,55.4595241 C59.6531728,54.9391753 58.8591583,54.6749983 58.5808439,55.0992826 Z" fill="#FFFFFF"></path>
                            <path d="M53.3992853,61.4315265 C52.8426566,61.8558108 52.3269565,62.3361328 51.8276278,62.8164547 C51.3855991,63.2327337 52.0404564,63.8411414 52.4906708,63.4648892 C53.0227424,63.0245942 53.5629997,62.560283 54.0459569,62.0639503 C54.4552428,61.6316606 53.8494997,61.0872958 53.3992853,61.4315265 Z" fill="#FFFFFF"></path>
                            <path d="M63.2467024,33.6208879 C62.3299021,28.4013898 59.7514014,23.3580097 55.6994717,19.7956222 C53.9886569,18.2906135 52.0158992,17.0497819 49.8957986,16.1371703 C48.8971412,15.6568484 47.8657409,15.2485748 46.8015978,14.9283602 C45.2790545,14.4720543 43.6910255,14.135829 42.1029965,14.04777 C42.0538822,14.04777 42.0047679,14.04777 41.9638393,14.0637807 C41.7755678,14.04777 41.5872963,14.0397646 41.3990248,14.0397646 C35.4807517,13.9036734 29.783493,17.0978141 26.0180634,21.4047006 C23.9961914,23.7182511 22.4163481,26.4320699 21.5159193,29.3460229 C21.4913621,29.4180711 21.4913621,29.4901194 21.4995478,29.546157 C21.1230049,30.7629725 20.9347334,32.0438309 20.9592905,33.3326947 C20.975662,34.1812634 21.0738906,35.0458429 21.2703478,35.8944116 C21.2376049,35.9104223 21.2457906,35.9104223 21.2130478,35.926433 C20.9511048,35.6142238 20.7382762,35.2539824 20.5663761,34.8857356 C20.3371761,34.3894029 20.1816475,33.8610488 20.0752332,33.3246893 C19.8869617,32.3720509 19.8705902,31.4034017 19.993376,30.4427579 C20.4026618,27.1845743 21.5895907,24.0624818 23.5050484,21.3166416 C24.0043771,20.6041641 24.5446344,19.923708 25.134006,19.2752735 C27.1231351,17.2739322 29.4560643,15.6008108 31.9936365,14.311947 C35.9555233,12.3026004 40.3921817,11.3339512 44.8533972,11.5180746 C49.4619557,11.702198 53.9886569,13.0791208 57.8932437,15.4807304 C58.3843867,15.7849342 58.867344,16.1051488 59.3421156,16.4413742 C59.7514014,16.7295673 61.0447446,16.2652561 60.1361301,15.1685211 C56.5671576,10.8776454 51.0745418,8.55608948 45.5409974,8.01172465 C39.9174101,7.45935445 34.0646228,8.55608948 29.0140357,11.0297473 C24.2335772,13.3753193 20.165276,17.0898088 17.8077897,21.8209796 C15.5321605,26.3840377 14.6726602,32.0438309 16.5471893,36.8870769 C17.4066895,39.1125684 18.9456043,41.2419955 21.2457906,42.194634 C23.2594769,43.0271919 25.9116491,43.0191866 27.6797639,41.6422638 C28.0399354,41.362076 28.3428069,41.033856 28.6129355,40.6736146 C28.6129355,40.6736146 28.6211213,40.6736146 28.6211213,40.6736146 C28.6702356,40.6736146 28.7111641,40.6656092 28.7602784,40.6576039 C28.5392641,40.9778185 28.3018783,41.2820223 28.0317497,41.5702155 C26.5828778,43.115251 24.585563,43.9558143 22.449091,43.9798304 C20.2798761,44.0038465 18.1024755,43.2513422 16.3916607,41.9464676 C14.6153602,40.5935609 13.3383884,38.6402518 12.6180454,36.5668622 C10.9645306,31.8116753 12.2333167,26.6402094 14.5580602,22.3173122 C16.7845751,18.1705331 20.0097474,14.6161509 23.6196484,11.5661068 C27.6224638,8.18784268 32.1164222,5.40998097 36.6103806,2.7121729 C37.1751951,2.37594756 37.7318238,2.03972223 38.2966383,1.70349689 C38.3211954,1.68748616 38.3457525,1.67147543 38.362124,1.6554647 C38.8287098,1.43931984 38.5585812,0.662799416 37.9937667,0.774874528 C31.2651077,2.09575978 24.7083487,4.76154639 19.2157329,8.82026653 C13.7313028,12.8709813 9.45835875,18.3066243 7.26458671,24.7109164 C5.14448612,30.9150744 5.04625752,37.9517904 7.87032974,43.9638197 C9.26190155,46.9258048 11.4884165,49.6476289 14.5089459,51.1366269 C17.3739467,52.5455711 20.7464619,52.8337643 23.8406628,52.0332278 C26.9103065,51.2406966 29.5379215,49.3354197 31.2078077,46.7016546 C32.8531367,44.0999109 33.5243655,40.945797 33.0741511,37.919769 C33.0250368,37.5995544 32.959551,37.2793397 32.8858796,36.9671305 C34.0973656,37.8317099 34.5148372,39.4728098 34.5639515,40.9297863 C34.6294372,42.8270578 34.1792228,44.7483455 33.3197226,46.4534882 C31.6089078,49.8717792 28.4737784,52.3214209 24.9621059,53.8184242 C21.2294192,55.4114919 16.7927608,56.1559908 12.9045454,54.6830036 C9.60570165,53.4341667 7.03538665,50.744364 5.31638616,47.7823789 C2.97527122,43.7556802 2.09121383,39.1285791 1.19897073,34.6375692 C1.09255641,34.1172205 0.388584785,34.237301 0.265799036,34.6615853 C0.216684737,34.7256283 0.183941871,34.8136873 0.167570438,34.9097517 C-0.331758274,40.3934268 0.200313304,46.141279 2.91797121,51.0565732 C4.12945726,53.2420379 5.76660058,55.1793363 7.78028685,56.6923503 C9.69574453,58.1253107 11.9222594,59.1499974 14.2470029,59.7503998 C18.9701614,60.9592099 23.9716342,60.3427968 28.2936926,58.1413214 C32.6075652,55.939846 36.2747663,52.2333619 38.247524,47.8624325 C39.3280385,45.4688283 39.835553,42.7710203 39.0579099,40.2093034 C38.3457525,37.8797421 36.512152,35.8944116 34.0482513,35.3180253 C33.8354227,35.2699931 33.6225941,35.2299663 33.4097655,35.2059502 C34.7031087,34.8216926 36.3811806,35.4301004 37.4535094,36.1826047 C39.0333527,37.2873451 39.9583387,39.0565308 40.3921817,40.8497326 C41.3253534,44.6923079 40.3676245,49.2553661 38.9269384,52.9538448 C37.7072667,56.0839426 35.6280946,58.9018311 32.9677368,61.0152475 C29.9799502,63.3848356 26.2800063,64.6256672 22.4572767,64.7697638 C17.537661,64.9538872 12.7572025,63.4248624 8.3942156,61.3034406 C8.00948692,61.1193172 7.66568682,61.4475372 7.68205825,61.7597465 C7.66568682,61.8558108 7.69024397,61.9518752 7.76391542,62.0479396 C9.41743017,64.1773667 11.8567737,65.8664988 14.304303,67.011266 C16.2115749,67.9078669 18.95379,68.4922586 20.0752332,68.7724464 C24.8638773,69.9572404 29.9472073,69.0686449 34.3020086,66.8511587 C38.7468527,64.5856404 42.2503394,60.8551402 44.4932257,56.5082269 C46.8097835,52.017217 47.8984838,46.9177994 47.7429552,41.8984355 C47.5956123,36.8550554 45.6801546,31.2112729 40.7932818,28.7456205 C38.5422097,27.6088586 35.7672518,27.2726333 33.3770226,28.209261 C31.2732934,29.0338136 29.5297358,30.7869886 28.9158071,32.9404318 C28.8503213,33.1725874 28.801207,33.404743 28.7602784,33.6368986 C28.5883784,32.7002709 28.7275356,31.7556378 29.0877071,30.8910583 C30.8067076,28.5214702 33.5407369,26.8883757 36.5530806,26.6642255 C38.534024,26.5201289 40.5313389,26.9284026 42.2748965,27.8570249 C43.9447827,28.7536258 45.3036116,30.1065325 46.3186405,31.6835895 C48.4960411,35.0538482 49.2982413,39.2326488 49.3637271,43.1712885 C49.4373985,47.4461535 48.5369697,51.7450346 46.678812,55.6276367 C44.7633543,59.622314 41.9065393,63.1686907 38.4439811,65.9945846 C38.0919953,66.2827778 38.4357954,66.8511587 38.8205241,66.8271426 C38.9269384,66.8591641 39.0497242,66.8511587 39.1725099,66.7951212 C39.8601101,66.4829119 40.5231532,66.1386812 41.1698248,65.7624291 C45.524626,63.6169912 49.1427127,60.2467324 51.7539563,56.2200338 C54.6353285,51.7770561 56.2561004,46.5015204 56.1169432,41.2259848 C55.9696003,35.7903418 53.8576855,30.4107364 49.6420414,26.7602899 C45.6228546,23.2699507 39.9010387,21.7729474 34.7031087,23.4060419 C29.8244216,24.943072 26.0999206,29.2419531 25.7724919,34.3093493 C25.7479347,34.7496443 25.7479347,35.1899394 25.7888633,35.6302345 C25.2322346,34.3813976 25.0357774,32.9804586 25.1749346,31.6195466 C25.4041346,29.4260765 26.5665064,27.3927137 28.0890497,25.7996461 C31.0522791,22.7095751 35.3907089,21.2045665 39.6718386,21.2285826 C43.9857113,21.260604 48.1113124,22.8776878 51.3937848,25.5995119 C54.709,28.3533576 57.1319721,32.0598416 58.4662439,36.1025511 C60.0542729,40.9137755 60.1443158,46.05322 59.3666727,51.0245518 C59.2684441,51.6489702 59.1702155,52.2733887 59.0474298,52.8898018 C59.0146869,53.0499091 59.0556155,53.177995 59.1292869,53.2820647 C59.1129155,53.3300969 59.1047298,53.3861345 59.0883584,53.4341667 C58.9492012,54.0185583 59.7841443,54.2266978 59.9969729,53.682333 C60.3571444,52.761716 60.6518302,51.8090775 60.9383303,50.8644445 C63.3367453,45.4528176 64.2699169,39.432783 63.2467024,33.6208879 Z" fill="#313F68" opacity="0.8"></path>
                            <path d="M7.02720093,60.0706144 C6.04491494,59.2220457 5.19360042,58.2934233 4.39958591,57.276742 C4.04760009,56.8284415 3.25358559,57.2287098 3.58919997,57.7410531 C4.32591446,58.8698096 5.29182901,59.8784856 6.35597217,60.7270544 C6.82255801,61.0872958 7.49378677,60.4708827 7.02720093,60.0706144 Z" fill="#FFFFFF"></path>
                            <path d="M2.85248547,55.8277709 C2.59872826,55.4995509 2.33678533,55.1633256 2.05847097,54.8511163 C1.71467087,54.4668588 1.03525639,54.9711968 1.32994219,55.4034865 C1.56732797,55.7477172 1.8292709,56.0759372 2.09121383,56.4041572 C2.23855673,56.5882806 2.55779968,56.5722698 2.72969973,56.444184 C2.89341406,56.3080928 2.99982837,56.0198996 2.85248547,55.8277709 Z" fill="#FFFFFF"></path>
                            <path d="M63.5413882,20.7802821 C63.0420595,19.483413 62.3790164,18.1865438 61.4622162,17.1218302 C61.1184161,16.721562 60.4226302,17.2419107 60.717316,17.6822058 C61.4540304,18.7789408 62.1416306,19.8676705 62.6000308,21.1004967 C63.0666166,22.333323 63.3040024,23.5981707 63.4513453,24.8950398 C63.516831,25.4794315 64.4254456,25.5114529 64.4090741,24.8950398 C64.384517,23.5021063 64.0407169,22.0851566 63.5413882,20.7802821 Z" fill="#FFFFFF"></path>
                            <path d="M36.5530806,67.5236094 C35.6362804,68.0359528 34.7440373,68.5643069 33.8026798,69.0206127 C32.8531367,69.4849239 31.8790365,69.8771868 30.8967505,70.277455 C30.3483075,70.5016052 30.5529504,71.3661847 31.1505077,71.1740559 C33.1887511,70.5096106 35.2597374,69.5169453 37.0196665,68.3001298 C37.494438,67.9719098 37.0769665,67.2274109 36.5530806,67.5236094 Z" fill="#FFFFFF"></path>
                        </g>
                        <path d="M69.3532469,35.0935901 C64.87566,33.9408175 60.4635587,32.5398786 56.0432718,31.1949772 C55.805886,31.475165 55.5439431,31.7393421 55.2656287,31.9875084 C55.142843,32.0915781 55.1592144,32.2516854 55.2328858,32.3717659 C55.3065573,32.5478839 62.9929452,34.7973916 66.7501891,35.8941266 C67.8225179,36.2063358 68.9030325,36.5265504 69.9753614,36.822749 C70.0408471,36.8387597 70.0981471,36.8387597 70.1472614,36.822749 C70.8348616,36.7266846 71.5060904,36.2623734 71.980862,35.7900568 C71.113176,35.573912 70.2373043,35.3177403 69.3532469,35.0935901 Z" id="Path" fill="#FFFFFF"></path>
                        <path d="M73.1186766,32.6759698 C71.9644905,32.3477498 70.8021188,32.067562 69.639747,31.7873743 C65.4895887,30.794709 61.3476161,29.7620169 57.2302007,28.6412657 C57.1810864,28.8974374 57.1237864,29.1536091 57.0501149,29.3937701 C56.902772,29.8981081 56.673572,30.3464085 56.3870719,30.7626875 C57.1401578,30.9948431 57.9014295,31.2269987 58.6545154,31.4591543 C61.1593446,32.2276693 63.6723596,32.9961844 66.1935603,33.7086619 C67.445975,34.060898 68.7065753,34.3971233 69.95899,34.7253433 C70.7693759,34.9414881 71.5715761,35.1656384 72.3819621,35.3657725 C72.7257622,34.9094667 72.9713337,34.3891179 73.077748,33.8367477 C73.1432337,33.4444848 73.1596051,33.052222 73.1186766,32.6759698 Z" id="Path" fill="#FFFFFF"></path>
                        <path d="M57.0828578,26.5118386 C57.2875007,27.024182 57.3448007,27.5685468 57.3038721,28.120917 C57.4921436,28.1689492 57.6722294,28.2249867 57.8605009,28.2730189 C60.6190874,29.0255233 63.3858596,29.7299954 66.1690032,30.4104514 C68.4528181,30.970827 70.7611902,31.4671596 73.0286337,32.1075889 C72.9958908,31.979503 72.9549622,31.8594225 72.9058479,31.7313367 C72.7748765,31.3951114 72.6193479,31.0829021 72.4065192,30.794709 C72.1855049,30.4985105 71.9235619,30.1622851 71.5633904,30.05021 C71.489719,30.0261939 56.8945863,26.0475274 57.0828578,26.5118386 Z" id="Path" fill="#FFFFFF"></path>
                        <path d="M54.1769284,27.376418 C54.1851141,28.3130458 53.7348997,29.3137164 53.178271,30.05021 C53.0063709,30.2423388 52.9736281,30.3624193 53.1373424,30.5145212 C53.5793711,30.9308002 54.0541427,31.4191275 54.5207285,31.8193957 C54.7008143,31.9875084 54.8236,32.0915781 55.0036858,31.9154601 C56.2151718,30.7146553 57.2138293,28.6732872 56.6981291,26.9281176 C56.4525576,26.1115703 54.7335571,26.8160425 54.4470571,26.9281176 C54.0950712,27.0642088 54.1769284,27.3123751 54.1769284,27.376418 Z" id="Path" fill="#FFFFFF"></path>
                        <path d="M51.532942,28.4011048 C51.9913421,29.041534 52.2450993,29.3537432 52.5888994,29.8180544 C52.6380137,29.8820973 52.7771709,29.9381349 53.0472995,29.5939042 C53.5056996,29.0255233 53.7676426,28.3290565 53.8085712,27.6085736 C53.8167569,27.4164449 53.669414,27.2003 53.4483996,27.2483322 C52.8099137,27.376418 52.367885,27.5365253 51.762142,27.7686809 C51.4838277,27.880756 51.3855991,28.1929653 51.532942,28.4011048 Z" id="Path" fill="#FFFFFF"></path>
                        <path d="M5.06248358,31.0645574 C2.97512585,31.0645574 1.28068252,29.4074468 1.28068252,27.3660787 C1.28068252,25.3247106 2.97512585,23.6676 5.06248358,23.6676 C7.14984131,23.6676 8.84428464,25.3247106 8.84428464,27.3660787 C8.84428464,29.4074468 7.14984131,31.0645574 5.06248358,31.0645574 Z M5.06248358,25.3167052 C3.90829754,25.3167052 2.96694014,26.2373222 2.96694014,27.3660787 C2.96694014,28.4948352 3.90829754,29.4154522 5.06248358,29.4154522 C6.21666962,29.4154522 7.15802702,28.4948352 7.15802702,27.3660787 C7.15802702,26.2373222 6.22485533,25.3167052 5.06248358,25.3167052 Z" id="Shape" fill="#FFFFFF"></path>
                        <path d="M61.9723777,7.39695743 C59.88502,7.39695743 58.1905766,5.73984683 58.1905766,3.69847871 C58.1905766,1.65711059 59.88502,0 61.9723777,0 C64.0597354,0 65.7542081,1.65711059 65.7542081,3.69847871 C65.7623645,5.73984683 64.0597354,7.39695743 61.9723777,7.39695743 Z M61.9723777,1.64910523 C60.8181917,1.64910523 59.8768342,2.56972222 59.8768342,3.69847871 C59.8768342,4.8272352 60.8181917,5.7478522 61.9723777,5.7478522 C63.1265637,5.7478522 64.0679211,4.8272352 64.0679211,3.69847871 C64.0679211,2.56972222 63.1347494,1.64910523 61.9723777,1.64910523 Z" id="Shape" fill="#FFFFFF"></path>
                        <path d="M49.0362984,53.3138012 C48.7088697,52.7854471 47.8657409,53.265769 48.1931696,53.7941231 C49.4046556,55.7794537 49.9285415,58.0129506 49.8957986,60.3184958 C49.8876129,60.9108928 50.7880417,60.894882 50.8289703,60.3184958 C51.0172418,57.8848647 50.3214559,55.3951962 49.0362984,53.3138012 Z" id="Path" fill="#FFFFFF"></path>
                    </g>
                    <g id="Group" transform="translate(0.000000, 6.746504)" fill="#FFFFFF">
                        <path d="M37.8023213,13.649236 C41.1420937,12.1122059 44.4900517,10.5751758 47.8298241,9.03814569 C48.4437528,8.75795791 49.0494959,8.47777013 49.6634246,8.18957698 C50.1791248,7.94941603 50.6866392,7.70124971 51.1041107,7.30898681 C51.9226824,6.52446102 52.0127253,5.3796938 51.7262252,4.3470017 C51.5543251,3.74659931 51.2596393,3.19422911 50.9649535,2.64986428 C50.7193821,2.19355846 50.4656248,1.74525801 50.1463819,1.33698439 C49.5160817,0.528442505 48.6565815,-0.00791696221 47.5924383,5.68434189e-14 C46.4055094,0.00809376815 45.1858376,0.584480061 44.0971373,0.992753685 C42.8447227,1.46507023 41.6086795,1.96940824 40.380822,2.51377307 C39.1365931,3.06614327 37.9087356,3.65854029 36.6972496,4.28295877 C35.7149636,4.79530215 34.5198489,5.28362942 33.8486202,6.19624105 C33.2265057,7.02879903 33.1200914,8.18157162 33.5703058,9.11819934 C34.0205202,10.0548271 34.9455062,10.7032616 35.9769065,10.887385 C37.1638354,11.0955245 38.2934643,10.6071973 39.3576074,10.1669022 C40.6345792,9.63854808 41.911551,9.11019398 43.1885228,8.58984524 C44.1544374,8.18957698 45.3086234,7.82933555 45.8488807,6.86869173 C46.3072808,6.04413911 46.0371522,5.02745774 45.3741091,4.39503389 C44.6128375,3.68255639 43.5323229,3.73859394 42.6073369,4.06681391 C41.4122223,4.49109827 40.2744077,5.12352212 39.1284074,5.65988158 C38.5308501,5.94006937 37.9332928,6.22826251 37.3275497,6.50845029 C36.770921,6.77262734 37.1065354,7.65321751 37.6795355,7.39704583 C38.7436787,6.90871855 39.7996361,6.42039128 40.8555936,5.932064 C41.7314652,5.52379038 42.7055655,4.89937189 43.6878515,4.81131288 C44.424566,4.74726995 45.1367233,5.27562406 45.0712376,6.05214448 C45.0057519,6.88470246 43.8515658,7.23693852 43.2048942,7.50111558 L39.8978647,8.86202766 C38.9155787,9.27030128 37.8596213,9.84668757 36.7791067,9.92674123 C35.9196065,9.99078415 35.0191777,9.59051589 34.6017061,8.83801156 C34.1842346,8.08550723 34.315206,7.14887951 34.9373205,6.54047175 C35.6658493,5.82799425 36.7627353,5.4037099 37.6631641,4.94740408 C38.7109358,4.41904998 39.775079,3.91471198 40.8555936,3.44239543 C41.911551,2.97808425 42.9756942,2.53778916 44.048023,2.12951554 C45.0221233,1.75326338 46.0371522,1.28094683 47.0767382,1.0808127 C48.0180956,0.896689303 48.7466244,1.20889855 49.3196245,1.94539214 C49.9008104,2.6898911 50.4001391,3.61851346 50.6948249,4.49910363 C50.9895107,5.38769917 50.8749107,6.28430007 50.0481533,6.83667027 C49.622496,7.11685805 49.1231673,7.30898681 48.6565815,7.52513167 C48.1163242,7.77329799 47.5760669,8.02146431 47.0358096,8.26963063 C42.2144225,10.4951222 37.3930355,12.7126083 32.5634627,14.9300945 C31.9495339,15.2102822 32.3260769,16.1709261 32.9481914,15.8907383 C34.5444061,15.1462393 36.1733637,14.393735 37.8023213,13.649236" id="Path"></path>
                        <path d="M4.52738341,80.3259226 C10.200085,81.3586147 15.7991151,82.7035161 21.4227024,83.9843745 C21.6928311,83.6161277 21.9875169,83.2638916 22.3149455,82.9276663 C22.4541027,82.7835697 22.4213598,82.5834356 22.3149455,82.4473444 C22.2085312,82.2311995 12.4511571,80.1177831 7.67888429,79.1011017 C6.31186962,78.8049032 4.95304067,78.5087047 3.57784029,78.2365223 C3.49598312,78.2205116 3.42231167,78.2285169 3.36501166,78.252533 C2.52188285,78.4366564 1.72786834,79.0690803 1.18761105,79.7015041 C2.3008685,79.8856275 3.41412596,80.1257885 4.52738341,80.3259226 Z" id="Path"></path>
                        <path d="M0.0825393088,83.6641599 C1.53959686,83.9683638 3.01302584,84.2165301 4.48645483,84.4646964 C9.73349915,85.3292758 14.9723578,86.2498928 20.1948449,87.2745796 C20.2275878,86.954365 20.2848878,86.6341504 20.3503736,86.3219411 C20.4895307,85.6895173 20.7351022,85.1051256 21.0543452,84.5607608 C20.0966163,84.3446159 19.1307018,84.1204657 18.1729729,83.9043208 C14.9887292,83.1758326 11.7962997,82.4473444 8.59568455,81.7828991 C7.00765553,81.4546791 5.4114408,81.1504752 3.82341178,80.8542767 C2.80019721,80.6621479 1.78516836,80.4540085 0.753768068,80.2778904 C0.369039389,80.8702874 0.115282175,81.5427381 0.0334250094,82.2392049 C-0.0238750067,82.7115214 -0.00750357353,83.1998487 0.0825393088,83.6641599 Z" id="Path"></path>
                        <path d="M20.5795736,89.892334 C20.2767021,89.2759209 20.1539164,88.6034702 20.1539164,87.9150088 C19.9165306,87.8669766 19.6873305,87.8189444 19.4499447,87.7789176 C15.9546438,87.0904562 12.4511571,86.4580323 8.93129893,85.8576299 C6.04174098,85.3693027 3.12762588,84.9530237 0.254439357,84.368632 C0.303553656,84.520734 0.369039389,84.6728359 0.434525122,84.8249378 C0.622796603,85.2252061 0.851996667,85.6094636 1.14668246,85.945689 C1.44136826,86.2899197 1.80153979,86.6901879 2.26812563,86.802263 C2.35816852,86.8102684 20.8497023,90.4527096 20.5795736,89.892334 Z" id="Path"></path>
                        <path d="M24.0994317,88.555438 C24.0093889,87.3946601 24.467789,86.1138016 25.0899034,85.1371471 C25.2863606,84.8809754 25.3191035,84.7288735 25.0980892,84.5527554 C24.5087176,84.0724335 23.8702317,83.512058 23.2644887,83.0557521 C23.0271029,82.855618 22.8633885,82.7435429 22.6587456,82.9837038 C21.2671738,84.5847769 20.2112164,87.2105367 21.0134166,89.3239531 C21.3899596,90.3246237 23.4609459,89.2839262 23.8129317,89.1238189 C24.2304032,88.9396955 24.1076175,88.643497 24.0994317,88.555438 Z" id="Path"></path>
                        <path d="M27.2918612,87.0504294 C26.6697467,86.297925 26.3177609,85.9376836 25.8429894,85.3853134 C25.7775036,85.3132651 25.5974179,85.2572276 25.2945464,85.6975226 C24.7788462,86.450027 24.5169033,87.3306171 24.5332747,88.2352234 C24.5332747,88.467379 24.7461034,88.7235507 25.016232,88.6515024 C25.7938751,88.4353575 26.3259467,88.1951966 27.0544754,87.8509659 C27.4064612,87.6988639 27.4965041,87.2985957 27.2918612,87.0504294 Z" id="Path"></path>
                        <path d="M47.1442201,103.360857 C45.0568624,103.360857 43.3624191,101.703746 43.3624191,99.6623779 C43.3624191,97.6210098 45.0568624,95.9638992 47.1442201,95.9638992 C49.2315778,95.9638992 50.9260212,97.6210098 50.9260212,99.6623779 C50.9260212,101.703746 49.2315778,103.360857 47.1442201,103.360857 Z M47.1442201,97.6130045 C45.9900341,97.6130045 45.0486767,98.5336215 45.0486767,99.6623779 C45.0486767,100.791134 45.9900341,101.711751 47.1442201,101.711751 C48.2984061,101.711751 49.2397636,100.791134 49.2397636,99.6623779 C49.2397636,98.5336215 48.2984061,97.6130045 47.1442201,97.6130045 Z" id="Shape"></path>
                    </g>
                </g>
            </g>
        </g>
    </g>
</svg>