<?xml version="1.0" encoding="UTF-8"?>
<svg width="20px" height="20px" viewBox="0 0 20 20" version="1.1" xmlns="http://www.w3.org/2000/svg" xmlns:xlink="http://www.w3.org/1999/xlink">
    <title>C475B5DD-21D1-46EA-ADFB-92FAB099542E</title>
    <g id="Finbal_Final" stroke="none" stroke-width="1" fill="none" fill-rule="evenodd">
        <g id="Customer-Landing-Page-Copy-67" transform="translate(-331.000000, -65.000000)" fill="#D8D8D8" stroke="#888888">
            <path d="M340.646447,65.6464466 C341.138071,65.5 341.263071,65.5559644 341.353553,65.6464466 C341.444036,65.7369288 341.5,65.8619288 341.5,66 L341.5,74.5 L350,74.5 C350.138071,74.5 350.263071,74.5559644 350.353553,74.6464466 C350.444036,74.7369288 350.5,74.8619288 350.5,75 C350.5,75.1380712 350.444036,75.2630712 350.353553,75.3535534 C350.263071,75.4440356 350.138071,75.5 350,75.5 L341.5,75.5 L341.5,84 C341.5,84.1380712 341.444036,84.2630712 341.353553,84.3535534 C341.263071,84.4440356 341.138071,84.5 341,84.5 C340.861929,84.5 340.736929,84.4440356 340.646447,84.3535534 C340.555964,84.2630712 340.5,84.1380712 340.5,84 L340.5,75.5 L332,75.5 C331.861929,75.5 331.736929,75.4440356 331.646447,75.3535534 C331.555964,75.2630712 331.5,75.1380712 331.5,75 C331.5,74.8619288 331.555964,74.7369288 331.646447,74.6464466 C331.736929,74.5559644 331.861929,74.5 332,74.5 L340.5,74.5 L340.5,66 C340.5,65.8619288 340.555964,65.7369288 340.646447,65.6464466 Z" id="Combined-Shape"></path>
        </g>
    </g>
</svg>