<?xml version="1.0" encoding="UTF-8"?>
<svg width="12px" height="12px" viewBox="0 0 12 12" version="1.1" xmlns="http://www.w3.org/2000/svg" xmlns:xlink="http://www.w3.org/1999/xlink">
    <title>Group 3</title>
    <g id="Finbal_Final" stroke="none" stroke-width="1" fill="none" fill-rule="evenodd" stroke-linecap="round" stroke-linejoin="round">
        <g id="Customer-Landing-Page-Copy-4" transform="translate(-120.000000, -897.000000)" stroke="#525860" stroke-width="1.33333333">
            <g id="Group-15-Copy" transform="translate(24.000000, 846.000000)">
                <g id="Address-2" transform="translate(78.000000, 29.000000)">
                    <g id="Title" transform="translate(12.000000, 16.000000)">
                        <g id="Group-3" transform="translate(6.666666, 6.666667)">
                            <path d="M9.98000019,3.13693333 L6.42466686,0.3742 C6.11266686,0.131666667 5.72866686,1.42108547e-14 5.33333353,1.42108547e-14 C4.93800019,1.42108547e-14 4.55400019,0.131666667 4.24200019,0.3742 L0.686000195,3.13693333 C0.472266861,3.303 0.299400195,3.5156 0.180533528,3.7586 C0.0616001946,4.0016 -0.000126472115,4.26853333 0,4.539 L0,9.33453333 C0,9.68786667 0.140466861,10.0266667 0.390533528,10.2765333 C0.640600195,10.5263333 0.979733528,10.6666667 1.33333353,10.6666667 L9.33333353,10.6666667 C9.68693353,10.6666667 10.0260669,10.5263333 10.2761335,10.2765333 C10.5262002,10.0266667 10.6666669,9.68786667 10.6666669,9.33453333 L10.6666669,4.539 C10.6666669,3.9908 10.4133335,3.47333333 9.98000019,3.13693333 Z" id="Path"></path>
                            <path d="M7.97920019,7.32633333 C6.50580019,8.215 4.11780019,8.215 2.64586686,7.32633333" id="Path"></path>
                        </g>
                    </g>
                </g>
            </g>
        </g>
    </g>
</svg>