<?xml version="1.0" encoding="UTF-8"?>
<svg width="18px" height="17px" viewBox="0 0 18 17" version="1.1" xmlns="http://www.w3.org/2000/svg" xmlns:xlink="http://www.w3.org/1999/xlink">
    <title>28ED5929-1A77-4601-BA2F-F7D6740840CA</title>
    <g id="Finbal_Final" stroke="none" stroke-width="1" fill="none" fill-rule="evenodd">
        <g id="Momotaro-home-Copy-52-(1)-Copy-12" transform="translate(-56.000000, -641.000000)" fill="#2D3142" fill-rule="nonzero">
            <g id="Group-12" transform="translate(32.000000, 232.000000)">
                <g id="noun-shipping-progress-3820671" transform="translate(24.000000, 409.000000)">
                    <path d="M3.83318991,0 C3.01085601,0 2.3331715,0.691232874 2.3331715,1.53000699 L2.3331715,10.710049 C2.3331715,11.5488231 3.01085601,12.240056 3.83318991,12.240056 L14.1666501,12.240056 C14.988984,12.240056 15.6666685,11.5488231 15.6666685,10.710049 L15.6666685,1.53000699 C15.6666685,0.691232874 14.988984,0 14.1666501,0 L7.99971725,0 C7.63155654,0 7.3330424,0.304482078 7.3330424,0.680003109 L7.3330424,3.81971346 C7.3330424,4.08397433 7.61548777,4.24714399 7.83765811,4.11129491 L8.99972952,3.40001166 L10.1618009,4.11129491 C10.3839751,4.24729553 10.6664166,4.08412509 10.6664166,3.81971346 L10.6664166,1.02000466 L14.1664596,1.02000466 C14.4521774,1.02000466 14.6664657,1.23857709 14.6664657,1.53000699 L14.6664657,10.710049 C14.6664657,11.0014789 14.4521774,11.2200513 14.1664596,11.2200513 L3.83299943,11.2200513 C3.54728164,11.2200513 3.33299329,11.0014789 3.33299329,10.710049 L3.33299329,1.53000699 C3.33299329,1.23857709 3.54728164,1.02000466 3.83299943,1.02000466 L5.49968656,1.02000466 C5.77588042,1.02000466 5.99969269,0.791717905 5.99969269,0.510002331 C5.99969269,0.228286758 5.77588042,0 5.49968656,0 L3.83318991,0 Z" id="Path"></path>
                    <path d="M17.8535525,14.4545346 C17.658312,14.2553909 17.3416224,14.2553909 17.14642,14.4545346 L16.6828715,14.9273505 L16.2138371,14.4489392 C16.0184481,14.2496439 15.701907,14.2496439 15.5067046,14.4489392 C15.3114641,14.648083 15.3114641,14.9709484 15.5067046,15.1700922 L15.975739,15.6485035 L15.5067046,16.1269149 L15.5067046,16.1270666 C15.3114641,16.3262104 15.3114641,16.6492313 15.5067046,16.8483362 C15.6004544,16.9439602 15.7275416,16.997696 15.8602743,16.997696 C15.9928706,16.997696 16.1199541,16.9439641 16.2138524,16.8483362 L16.6828867,16.3699249 L17.1464352,16.8427408 C17.3416757,17.0418845 17.6583653,17.0418845 17.8535677,16.8427408 C18.0487701,16.643597 18.0488082,16.3205761 17.8535677,16.1214712 L17.3900192,15.6486553 L17.8535677,15.1758394 L17.8535677,15.1756876 C17.9473174,15.0800636 18,14.9504356 18,14.8151966 C18,14.6798022 17.9473213,14.550178 17.8535677,14.454554 L17.8535525,14.4545346 Z M11.833282,15.1299915 C11.5570942,15.1299915 11.333282,15.3582782 11.333282,15.6399938 C11.333282,15.9217094 11.5570942,16.1499961 11.833282,16.1499961 L13.8333127,16.1499961 C14.1095065,16.1499961 14.3333188,15.9217094 14.3333188,15.6399938 C14.3333188,15.3582782 14.1095065,15.1299915 13.8333127,15.1299915 L11.833282,15.1299915 Z M1.3333497,14.2799876 C0.5970359,14.2799876 0,14.8889595 0,15.6399938 C0,16.3910281 0.5970359,17 1.3333497,17 C1.89259466,17 2.36966718,16.6480071 2.56772676,16.1499961 L7.7658858,16.1499961 C7.963953,16.6479915 8.441056,17 9.00026286,17 C9.73657666,17 10.3336126,16.3910281 10.3336126,15.6399938 C10.3336126,14.8889595 9.73657666,14.2799876 9.00026286,14.2799876 C8.4410179,14.2799876 7.96394538,14.6319805 7.7658858,15.1299915 L2.56772676,15.1299915 C2.36965956,14.631996 1.89255656,14.2799876 1.3333497,14.2799876 Z" id="Shape"></path>
                </g>
            </g>
        </g>
    </g>
</svg>