<?xml version="1.0" encoding="UTF-8"?>
<svg width="19px" height="21px" viewBox="0 0 19 21" version="1.1" xmlns="http://www.w3.org/2000/svg" xmlns:xlink="http://www.w3.org/1999/xlink">
    <title>8D402265-00DE-4D6E-AFE1-AAC7C2C54FA0</title>
    <g id="Finbal_Final" stroke="none" stroke-width="1" fill="none" fill-rule="evenodd" stroke-linecap="round" stroke-linejoin="round">
        <g id="Inventory-Search-Copy-33" transform="translate(-35.000000, -890.000000)" stroke="#2D3142" stroke-width="2">
            <g id="Menu-2-Copy" transform="translate(0.000000, 845.000000)">
                <g id="icon4" transform="translate(36.000000, 46.000000)">
                    <path d="M16.991155,17.3083333 C16.991155,17.7823777 16.6109931,18.1666667 16.1420395,18.1666667 L0.857960458,18.1666667 C0.389006914,18.1666667 0.00884495317,17.7823777 0.00884495317,17.3083333 C-0.179847381,13.3027778 2.65053763,11.3 8.5,11.3 C14.3494624,11.3 17.1798474,13.3027778 16.991155,17.3083333 Z M8.5,8.58333333 C6.15278981,8.58333333 4.25,6.66188872 4.25,4.29166667 C4.25,1.92144462 6.15278981,0 8.5,0 C10.8472102,0 12.75,1.92144462 12.75,4.29166667 C12.75,6.66188872 10.8472102,8.58333333 8.5,8.58333333 Z" id="Shape"></path>
                </g>
            </g>
        </g>
    </g>
</svg>