<?xml version="1.0" encoding="UTF-8"?>
<svg width="48px" height="44px" viewBox="0 0 48 44" version="1.1" xmlns="http://www.w3.org/2000/svg" xmlns:xlink="http://www.w3.org/1999/xlink">
    <title>Group 14</title>
    <g id="Page-1" stroke="none" stroke-width="1" fill="none" fill-rule="evenodd">
        <g id="Momotaro-home-Copy-52-(1)-Copy-7" transform="translate(-319.000000, -44.000000)">
            <g id="Group-14" transform="translate(319.000000, 44.000000)">
                <rect id="Rectangle" opacity="0.212091355" x="0" y="0" width="48" height="44" rx="8"></rect>
                <path d="M14.88,26.8164706 C16.4705801,26.8164706 17.76,25.5144093 17.76,23.9082353 C17.76,22.3020613 16.4705801,21 14.88,21 C13.2894199,21 12,22.3020613 12,23.9082353 C12,25.5144093 13.2894199,26.8164706 14.88,26.8164706 Z M24.48,26.8164706 C26.0705801,26.8164706 27.36,25.5144093 27.36,23.9082353 C27.36,22.3020613 26.0705801,21 24.48,21 C22.8894199,21 21.6,22.3020613 21.6,23.9082353 C21.6,25.5144093 22.8894199,26.8164706 24.48,26.8164706 Z M33.12,26.8164706 C34.7105801,26.8164706 36,25.5144093 36,23.9082353 C36,22.3020613 34.7105801,21 33.12,21 C31.5294199,21 30.24,22.3020613 30.24,23.9082353 C30.24,25.5144093 31.5294199,26.8164706 33.12,26.8164706 Z" id="Shape" fill="#2D3142" transform="translate(24.000000, 23.908235) rotate(90.000000) translate(-24.000000, -23.908235) "></path>
            </g>
        </g>
    </g>
</svg>