<?xml version="1.0" encoding="UTF-8"?>
<svg width="31px" height="14px" viewBox="0 0 31 14" version="1.1" xmlns="http://www.w3.org/2000/svg" xmlns:xlink="http://www.w3.org/1999/xlink">
    <title>Group</title>
    <g id="Page-1" stroke="none" stroke-width="1" fill="none" fill-rule="evenodd">
        <g id="Momotaro-home-Copy-52-(1)-Copy-7" transform="translate(-286.000000, -61.000000)" fill="#2D3142" fill-rule="nonzero">
            <g id="Group" transform="translate(286.000000, 61.000000)">
                <path d="M30.2619048,6.27721394 L22.5980159,6.27721394 C22.2262526,2.71178042 19.1598826,0 15.5,0 C11.8401174,0 8.77374739,2.71178042 8.40198413,6.27721394 L0.738095238,6.27721394 C0.330456494,6.27721394 0,6.60081628 0,7 C0,7.39918372 0.330456494,7.72278606 0.738095238,7.72278606 L8.40198413,7.72278606 C8.77374739,11.2882196 11.8401174,14 15.5,14 C19.1598826,14 22.2262526,11.2882196 22.5980159,7.72278606 L30.2619048,7.72278606 C30.6695435,7.72278606 31,7.39918372 31,7 C31,6.60081628 30.6695435,6.27721394 30.2619048,6.27721394 Z M15.5,12.5413598 C12.3747696,12.5413598 9.84126984,10.0604085 9.84126984,7 C9.84126984,3.93959148 12.3747696,1.45864018 15.5,1.45864018 C18.6252304,1.45864018 21.1587302,3.93959148 21.1587302,7 C21.1587302,10.0604085 18.6252304,12.5413598 15.5,12.5413598 L15.5,12.5413598 Z" id="Shape"></path>
            </g>
        </g>
    </g>
</svg>