<?xml version="1.0" encoding="UTF-8"?>
<svg width="23px" height="24px" viewBox="0 0 23 24" version="1.1" xmlns="http://www.w3.org/2000/svg" xmlns:xlink="http://www.w3.org/1999/xlink">
    <title>D691FC01-CA86-4011-BE75-7EF40AF4347B</title>
    <g id="Finbal_Final" stroke="none" stroke-width="1" fill="none" fill-rule="evenodd">
        <g id="E-commerce-#30---Addresses-Copy-21" transform="translate(-290.000000, -56.000000)" fill="#2D3142" fill-rule="nonzero">
            <g id="noun-log-4680788" transform="translate(290.000000, 56.000000)">
                <path d="M17.9031127,19.9832142 L2.74009544,19.9832142 C1.22932666,19.9832142 9.22156369e-05,18.7951987 9.22156369e-05,17.3350893 L9.22156369e-05,9.74801045 C9.22156369e-05,9.47889775 0.225946754,9.26059433 0.504419535,9.26059433 C0.782892316,9.26059433 1.00874685,9.47887547 1.00874685,9.74801045 L1.00874685,17.3350893 C1.00874685,18.2576506 1.78538695,19.0084265 2.74014155,19.0084265 L17.9031588,19.0084265 C18.3202916,19.0084265 18.6596036,18.680479 18.6596036,18.2773469 L18.6596036,12.4286209 C18.6596036,12.0254754 18.3202778,11.6975412 17.9031588,11.6975412 L4.53926863,11.6975412 C4.2608189,11.6975412 4.03494131,11.4792601 4.03494131,11.2101251 C4.03494131,10.9409901 4.26079585,10.722709 4.53926863,10.722709 L17.9031588,10.722709 C18.8764487,10.722709 19.6682122,11.4879229 19.6682122,12.4285763 L19.6682122,18.2773024 C19.6682122,19.2179557 18.8764487,19.9832142 17.9031588,19.9832142 L17.9031127,19.9832142 Z" id="Path"></path>
                <path d="M4.53876145,11.6974076 L2.01721706,11.6974076 C0.90486594,11.6974076 0,10.8228838 0,9.7478322 C0,8.67278065 0.90486594,7.79825685 2.01721706,7.79825685 L4.53876145,7.79825685 C4.81721117,7.79825685 5.04308877,8.01653799 5.04308877,8.28567297 C5.04308877,8.55480795 4.81723423,8.77308909 4.53876145,8.77308909 L2.01721706,8.77308909 C1.46106456,8.77308909 1.00860853,9.21035099 1.00860853,9.74787676 C1.00860853,10.2854025 1.4610415,10.7226644 2.01721706,10.7226644 L4.53876145,10.7226644 C4.81721117,10.7226644 5.04308877,10.9409456 5.04308877,11.2100806 C5.04308877,11.4792155 4.81723423,11.6974967 4.53876145,11.6974967 L4.53876145,11.6974076 Z" id="Path"></path>
                <path d="M20.1725395,23.3948597 L6.05202005,23.3948597 C4.93966893,23.3948597 4.03480299,22.5203359 4.03480299,21.4452843 L4.03480299,19.495709 C4.03480299,19.2265963 4.26065753,19.0082928 4.53913031,19.0082928 C4.81760309,19.0082928 5.04345763,19.226574 5.04345763,19.495709 L5.04345763,21.4452843 C5.04345763,21.9827878 5.4958906,22.420072 6.05206616,22.420072 L20.1725856,22.420072 C20.7287381,22.420072 21.1811941,21.9828101 21.1811941,21.4452843 L21.1811941,4.58847599 L17.4421267,0.974787676 L6.05211227,0.974787676 C5.49595976,0.974787676 5.04350374,1.41204958 5.04350374,1.94957535 L5.04350374,11.2099469 C5.04350374,11.4790596 4.8176492,11.697363 4.53917642,11.697363 C4.26070363,11.697363 4.03480299,11.4790819 4.03480299,11.2099469 L4.03480299,1.94957535 C4.03480299,0.874523801 4.93971504,0 6.05206616,0 L17.650949,0 C17.7847677,0 17.9130074,0.0513484727 18.0075653,0.142735653 L22.0419994,4.04188636 C22.1365574,4.13327354 22.1896874,4.2572086 22.1896874,4.38654454 L22.1896874,21.4452175 C22.1896874,22.520269 21.2848215,23.3948597 20.1724703,23.3948597 L20.1725395,23.3948597 Z" id="Path"></path>
                <path d="M21.1809175,4.87411663 L17.6508107,4.87411663 C17.372361,4.87411663 17.1464834,4.65583549 17.1464834,4.38670051 L17.1464834,0.974965923 C17.1464834,0.705853226 17.3723379,0.487549804 17.6508107,0.487549804 C17.9292835,0.487549804 18.155138,0.705830945 18.155138,0.974965923 L18.155138,3.89932895 L21.1809636,3.89932895 C21.4594133,3.89932895 21.6852909,4.11761009 21.6852909,4.38674507 C21.6852909,4.65588005 21.4594364,4.87416119 21.1809636,4.87416119 L21.1809175,4.87411663 Z" id="Path"></path>
                <path d="M6.05155897,18.0336389 L4.03434191,18.0336389 C3.75589218,18.0336389 3.53001459,17.8153577 3.53001459,17.5462227 L3.53001459,13.1596559 C3.53001459,12.8905432 3.75586913,12.6722398 4.03434191,12.6722398 C4.31281469,12.6722398 4.53866923,12.8905209 4.53866923,13.1596559 L4.53866923,17.0588066 L6.05155897,17.0588066 C6.3300087,17.0588066 6.55588629,17.2770878 6.55588629,17.5462227 C6.55588629,17.8153577 6.33003175,18.0336389 6.05155897,18.0336389 Z" id="Path"></path>
                <path d="M11.0948322,4.38661139 L7.06039804,4.38661139 C6.78194832,4.38661139 6.55607072,4.16833025 6.55607072,3.89919527 C6.55607072,3.63006029 6.78192526,3.41177915 7.06039804,3.41177915 L11.0948322,3.41177915 C11.3732819,3.41177915 11.5991595,3.63006029 11.5991595,3.89919527 C11.5991595,4.16833025 11.373305,4.38661139 11.0948322,4.38661139 Z" id="Path"></path>
                <path d="M15.1292663,6.33618674 L7.06039804,6.33618674 C6.78194832,6.33618674 6.55607072,6.1179056 6.55607072,5.84877062 C6.55607072,5.57963564 6.78192526,5.3613545 7.06039804,5.3613545 L15.1292663,5.3613545 C15.407716,5.3613545 15.6335936,5.57963564 15.6335936,5.84877062 C15.6335936,6.1179056 15.4077391,6.33618674 15.1292663,6.33618674 Z" id="Path"></path>
                <path d="M15.1292663,8.28576209 L7.06039804,8.28576209 C6.78194832,8.28576209 6.55607072,8.06748095 6.55607072,7.79834597 C6.55607072,7.52921099 6.78192526,7.31092985 7.06039804,7.31092985 L15.1292663,7.31092985 C15.407716,7.31092985 15.6335936,7.52921099 15.6335936,7.79834597 C15.6335936,8.06748095 15.4077391,8.28576209 15.1292663,8.28576209 Z" id="Path"></path>
                <path d="M9.07761511,18.0336389 C7.96526398,18.0336389 7.06039804,17.1591151 7.06039804,16.0840635 L7.06039804,14.6219043 C7.06039804,13.5468527 7.96526398,12.6723289 9.07761511,12.6723289 C10.1899662,12.6723289 11.0948322,13.5468527 11.0948322,14.6219043 L11.0948322,16.0840635 C11.0948322,17.1591151 10.1899662,18.0336389 9.07761511,18.0336389 Z M9.07761511,13.647072 C8.5214626,13.647072 8.06900658,14.0843339 8.06900658,14.6218597 L8.06900658,16.0840189 C8.06900658,16.6215224 8.52143954,17.0588066 9.07761511,17.0588066 C9.63379067,17.0588066 10.0862236,16.6215447 10.0862236,16.0840189 L10.0862236,14.6218597 C10.0862236,14.0843562 9.63379067,13.647072 9.07761511,13.647072 Z" id="Shape"></path>
                <path d="M14.8770565,18.0336389 C13.347568,18.0336389 12.1033946,16.8311853 12.1033946,15.3529839 C12.1033946,13.8747824 13.347568,12.6723289 14.8770565,12.6723289 C15.4285521,12.6723289 15.9615124,12.8284687 16.4184409,13.1240511 C16.6498791,13.2737517 16.7118388,13.5764417 16.5569442,13.8001415 C16.4020496,14.0238191 16.0888576,14.0838749 15.8573964,13.9340005 C15.56706,13.7463555 15.2281168,13.6471344 14.8770519,13.6471344 C13.903762,13.6471344 13.1119985,14.4123483 13.1119985,15.3530017 C13.1119985,16.2936551 13.903762,17.058869 14.8770519,17.058869 C15.6751321,17.058869 16.3512572,16.5443148 16.5687939,15.8403733 L15.1291695,15.8403733 C14.8507197,15.8403733 14.6248421,15.6220921 14.6248421,15.3529571 C14.6248421,15.0838222 14.8506967,14.865541 15.1291695,14.865541 L17.1463865,14.865541 C17.4248363,14.865541 17.6507139,15.0838222 17.6507139,15.3529571 C17.6507139,16.8311586 16.4065405,18.0336389 14.8770519,18.0336389 L14.8770565,18.0336389 Z" id="Path"></path>
            </g>
        </g>
    </g>
</svg>