<?xml version="1.0" encoding="UTF-8"?>
<svg width="22px" height="24px" viewBox="0 0 22 24" version="1.1" xmlns="http://www.w3.org/2000/svg" xmlns:xlink="http://www.w3.org/1999/xlink">
    <title>A520D04A-0DF3-48C0-A4D7-CB66BDED0C66</title>
    <g id="Finbal_Final" stroke="none" stroke-width="1" fill="none" fill-rule="evenodd">
        <g id="Customer-Landing-Page-Copy-60" transform="translate(-24.000000, -662.000000)" fill="#2D3142" fill-rule="nonzero">
            <g id="Trash" transform="translate(24.000000, 662.000000)">
                <path d="M8.55555556,19.2 C9.23057025,19.2 9.77777778,18.6627417 9.77777778,18 L9.77777778,10.8 C9.77777778,10.1372583 9.23057025,9.6 8.55555556,9.6 C7.88054086,9.6 7.33333333,10.1372583 7.33333333,10.8 L7.33333333,18 C7.33333333,18.6627417 7.88054086,19.2 8.55555556,19.2 Z M20.7777778,4.8 L15.8888889,4.8 L15.8888889,3.6 C15.8888889,1.6117749 14.2472663,-5.32907052e-16 12.2222222,-5.32907052e-16 L9.77777778,-5.32907052e-16 C7.7527337,-5.32907052e-16 6.11111111,1.6117749 6.11111111,3.6 L6.11111111,4.8 L1.22222222,4.8 C0.547207528,4.8 0,5.3372583 0,6 C0,6.6627417 0.547207528,7.2 1.22222222,7.2 L2.44444444,7.2 L2.44444444,20.4 C2.44444444,22.3882251 4.08606703,24 6.11111111,24 L15.8888889,24 C17.913933,24 19.5555556,22.3882251 19.5555556,20.4 L19.5555556,7.2 L20.7777778,7.2 C21.4527925,7.2 22,6.6627417 22,6 C22,5.3372583 21.4527925,4.8 20.7777778,4.8 Z M8.55555556,3.6 C8.55555556,2.9372583 9.10276308,2.4 9.77777778,2.4 L12.2222222,2.4 C12.8972369,2.4 13.4444444,2.9372583 13.4444444,3.6 L13.4444444,4.8 L8.55555556,4.8 L8.55555556,3.6 Z M17.1111111,20.4 C17.1111111,21.0627417 16.5639036,21.6 15.8888889,21.6 L6.11111111,21.6 C5.43609642,21.6 4.88888889,21.0627417 4.88888889,20.4 L4.88888889,7.2 L17.1111111,7.2 L17.1111111,20.4 Z M13.4444444,19.2 C14.1194591,19.2 14.6666667,18.6627417 14.6666667,18 L14.6666667,10.8 C14.6666667,10.1372583 14.1194591,9.6 13.4444444,9.6 C12.7694298,9.6 12.2222222,10.1372583 12.2222222,10.8 L12.2222222,18 C12.2222222,18.6627417 12.7694298,19.2 13.4444444,19.2 Z" id="Shape"></path>
            </g>
        </g>
    </g>
</svg>