<?xml version="1.0" encoding="UTF-8"?>
<svg width="56px" height="56px" viewBox="0 0 24 24" version="1.1" xmlns="http://www.w3.org/2000/svg" xmlns:xlink="http://www.w3.org/1999/xlink">
    <title>E98F92D4-DD1B-44F5-95EA-08BC2C1EB63F</title>
    <g id="Finbal_Final" stroke="none" stroke-width="1" fill="none" fill-rule="evenodd">
        <g id="Customer-Landing-Page-Copy-62" transform="translate(-33.000000, -347.000000)">
            <g id="Group-3" transform="translate(24.000000, 338.000000)">
                <g id="Group" transform="translate(9.000000, 9.000000)">
                    <rect id="Rectangle" x="0" y="0" width="24" height="24"></rect>
                    <path d="M19,3 L5,3 C3.9,3 3,3.9 3,5 L3,19 C3,20.1045695 3.8954305,21 5,21 L19,21 C20.1,21 21,20.1 21,19 L21,5 C21,3.9 20.1,3 19,3 Z M19,19 L5,19 L5,16 L8.56,16 C9.25,17.19 10.53,18 12.01,18 C13.49,18 14.76,17.19 15.46,16 L19,16 L19,19 Z M19,14 L14.01,14 C14.01,15.1 13.11,16 12.01,16 C10.91,16 10.01,15.1 10.01,14 L5,14 L5,5 L19,5 L19,14 Z" id="Shape" fill="#2D3142" fill-rule="nonzero"></path>
                </g>
            </g>
        </g>
    </g>
</svg>