<?xml version="1.0" encoding="UTF-8"?>
<svg width="56px" height="56px" viewBox="0 0 24 24" version="1.1" xmlns="http://www.w3.org/2000/svg" xmlns:xlink="http://www.w3.org/1999/xlink">
    <title>1D0189DC-30C6-4A93-B093-4D453B90073A</title>
    <g id="Finbal_Final" stroke="none" stroke-width="1" fill="none" fill-rule="evenodd">
        <g id="Customer-Landing-Page-Copy-62" transform="translate(-33.000000, -231.000000)">
            <g id="Group-9" transform="translate(24.000000, 222.000000)">
                <g id="Group" transform="translate(9.000000, 9.000000)">
                    <rect id="Rectangle" x="0" y="0" width="24" height="24"></rect>
                    <path d="M21,6.8 C21,5.81 20.19,5 19.2,5 L4.8,5 C3.81,5 3,5.81 3,6.8 L3,17.6 C3,18.59 3.81,19.4 4.8,19.4 L19.2,19.4 C20.19,19.4 21,18.59 21,17.6 L21,6.8 M19.2,6.8 L12,11.3 L4.8,6.8 L19.2,6.8 M19.2,17.6 L4.8,17.6 L4.8,8.6 L12,13.1 L19.2,8.6 L19.2,17.6 Z" id="Shape" fill="#2D3142" fill-rule="nonzero"></path>
                </g>
            </g>
        </g>
    </g>
</svg>