<?xml version="1.0" encoding="UTF-8"?>
<svg width="26px" height="26px" viewBox="0 0 26 26" version="1.1" xmlns="http://www.w3.org/2000/svg" xmlns:xlink="http://www.w3.org/1999/xlink">
    <title>0E23C6A8-59D3-43EE-8C0F-C9DE3112C080</title>
    <g id="Finbal_Final" stroke="none" stroke-width="1" fill="none" fill-rule="evenodd">
        <g id="Customer-Landing-Page-Copy-54" transform="translate(-32.000000, -1677.000000)">
            <g id="Group-29" transform="translate(24.000000, 1513.000000)">
                <g id="Group-39" transform="translate(0.000000, 154.000000)">
                    <g id="Group-38" transform="translate(0.000000, 2.000000)">
                        <g id="Group-40" transform="translate(9.000000, 9.000000)">
                            <path d="M3.51923077,20.4807692 C2.45769231,19.4192308 3.16153846,17.1923077 2.61923077,15.8884615 C2.07692308,14.5846154 0,13.4423077 0,12 C0,10.5576923 2.05384615,9.46153846 2.61923077,8.11153846 C3.18461538,6.76153846 2.45769231,4.58076923 3.51923077,3.51923077 C4.58076923,2.45769231 6.80769231,3.16153846 8.11153846,2.61923077 C9.41538462,2.07692308 10.5576923,0 12,0 C13.4423077,0 14.5384615,2.05384615 15.8884615,2.61923077 C17.2384615,3.18461538 19.4192308,2.45769231 20.4807692,3.51923077 C21.5423077,4.58076923 20.8384615,6.80769231 21.3807692,8.11153846 C21.9230769,9.41538462 24,10.5576923 24,12 C24,13.4423077 21.9461538,14.5384615 21.3807692,15.8884615 C20.8153846,17.2384615 21.5423077,19.4192308 20.4807692,20.4807692 C19.4192308,21.5423077 17.1923077,20.8384615 15.8884615,21.3807692 C14.5846154,21.9230769 13.4423077,24 12,24 C10.5576923,24 9.46153846,21.9461538 8.11153846,21.3807692 C6.76153846,20.8153846 4.58076923,21.5423077 3.51923077,20.4807692 Z" id="Path" stroke="#000000" stroke-width="2" stroke-linecap="round" stroke-linejoin="round"></path>
                            <line x1="12" y1="6.46153846" x2="12" y2="12.9230769" id="Path" stroke="#000000" stroke-width="2" stroke-linecap="round" stroke-linejoin="round"></line>
                            <circle id="Oval" fill="#000000" fill-rule="nonzero" cx="12" cy="17.0769231" r="1"></circle>
                        </g>
                    </g>
                </g>
            </g>
        </g>
    </g>
</svg>