<!-- Generated by IcoMoon.io -->
<svg version="1.1" xmlns="http://www.w3.org/2000/svg" width="32" height="32" viewBox="0 0 32 32">
<title>feed</title>
<path d="M27.867 6.952v2.429c0 0.894-0.756 1.619-1.689 1.619h-11.822c-0.933 0-1.689-0.725-1.689-1.619v-2.429c0-0.894 0.756-1.619 1.689-1.619h11.822c0.933 0 1.689 0.725 1.689 1.619zM27.867 14.886v2.429c0 0.894-0.756 1.619-1.689 1.619h-11.822c-0.933 0-1.689-0.725-1.689-1.619v-2.429c0-0.894 0.756-1.619 1.689-1.619h11.822c0.933 0 1.689 0.725 1.689 1.619zM27.867 22.819v2.429c0 0.894-0.756 1.619-1.689 1.619h-11.822c-0.933 0-1.689-0.725-1.689-1.619v-2.429c0-0.894 0.756-1.619 1.689-1.619h11.822c0.933 0 1.689 0.725 1.689 1.619zM8.167 5.333c1.565 0 2.833 1.269 2.833 2.833s-1.269 2.833-2.833 2.833c-1.565 0-2.833-1.269-2.833-2.833s1.269-2.833 2.833-2.833zM8.167 13.267c1.565 0 2.833 1.269 2.833 2.833s-1.269 2.833-2.833 2.833c-1.565 0-2.833-1.269-2.833-2.833s1.269-2.833 2.833-2.833zM8.167 21.2c1.565 0 2.833 1.269 2.833 2.833s-1.269 2.833-2.833 2.833c-1.565 0-2.833-1.269-2.833-2.833s1.269-2.833 2.833-2.833z"></path>
</svg>
