<?xml version="1.0" encoding="UTF-8"?>
<svg width="32px" height="32px" viewBox="0 0 32 32" version="1.1" xmlns="http://www.w3.org/2000/svg" xmlns:xlink="http://www.w3.org/1999/xlink">
    <title>B508B430-CF49-41B0-A18C-D8A9656C3901</title>
    <g id="Finbal_Final" stroke="none" stroke-width="1" fill="none" fill-rule="evenodd">
        <g id="Customer-Landing-Page-Copy-41" transform="translate(-211.000000, -1409.000000)">
            <g id="Group-32" transform="translate(0.000000, 652.000000)">
                <g id="Group-11" transform="translate(24.000000, 744.000000)">
                    <g id="Group-22" transform="translate(171.000000, 0.000000)">
                        <g id="9026656_files_thin_icon" transform="translate(16.000000, 13.000000)">
                            <rect id="Rectangle" x="0" y="0" width="32" height="32"></rect>
                            <path d="M21,28 L7,28 C6.44771525,28 6,27.5522847 6,27 L6,9 C6,8.44771525 6.44771525,8 7,8 L17,8 L22,13 L22,27 C22,27.5522847 21.5522847,28 21,28 Z" id="Path" stroke="#000000" stroke-width="2" stroke-linecap="round" stroke-linejoin="round"></path>
                            <path d="M10,8 L10,5 C10,4.44771525 10.4477153,4 11,4 L21,4 L26,9 L26,23 C26,23.5522847 25.5522847,24 25,24 L22,24" id="Path" stroke="#000000" stroke-width="2" stroke-linecap="round" stroke-linejoin="round"></path>
                            <line x1="11" y1="19" x2="17" y2="19" id="Path" stroke="#000000" stroke-width="2" stroke-linecap="round" stroke-linejoin="round"></line>
                            <line x1="11" y1="23" x2="17" y2="23" id="Path" stroke="#000000" stroke-width="2" stroke-linecap="round" stroke-linejoin="round"></line>
                        </g>
                    </g>
                </g>
            </g>
        </g>
    </g>
</svg>