<!-- Generated by IcoMoon.io -->
<svg version="1.1" xmlns="http://www.w3.org/2000/svg" width="32" height="32" viewBox="0 0 32 32">
<title>heart</title>
<path d="M16.201 28.444c-1.042 0.006-2.035-0.44-2.725-1.222l-8.477-9.621c-1.915-1.987-3.438-5.731-1.275-9.578 1.147-2.041 2.967-3.453 4.994-3.876 2.14-0.444 4.369 0.127 6.12 1.563 0.502 0.413 0.946 0.879 1.325 1.387 0.319-0.447 0.686-0.858 1.095-1.226 1.523-1.365 3.474-1.983 5.493-1.748 3.292 0.387 5.958 3.096 6.482 6.59 0.378 2.525-0.304 4.792-2.085 6.93l-8.237 9.55c-0.681 0.79-1.669 1.245-2.71 1.251v0z"></path>
</svg>
