<?xml version="1.0" encoding="UTF-8"?>
<svg width="20px" height="20px" viewBox="0 0 20 20" version="1.1" xmlns="http://www.w3.org/2000/svg" xmlns:xlink="http://www.w3.org/1999/xlink">
    <title>D011E62F-1D56-4593-A15C-934E6521600C</title>
    <g id="CLient-Landing" stroke="none" stroke-width="1" fill="none" fill-rule="evenodd">
        <g id="Momotaro-home-Copy-37" transform="translate(-325.000000, -65.000000)" fill="#888888" fill-rule="nonzero">
            <g id="Group" transform="translate(325.000000, 65.000000)">
                <path d="M10,0.666709066 L10.4333333,0.160043511 C10.1838507,-0.0533478369 9.81614934,-0.0533478369 9.56666667,0.160043511 L10,0.666709066 Z M0.666666667,8.66669152 L0.233333333,8.16002597 L-5.55111512e-17,8.36002553 L-5.55111512e-17,8.66669152 L0.666666667,8.66669152 Z M7.33333333,19.3333348 L7.33333333,20.0000022 C7.70152317,20.0000022 8,19.7015238 8,19.3333348 L7.33333333,19.3333348 Z M12.6666667,19.3333348 L12,19.3333348 C12,19.7015238 12.2984768,20.0000022 12.6666667,20.0000022 L12.6666667,19.3333348 Z M19.3333333,8.66669152 L20,8.66669152 L20,8.36002553 L19.7666667,8.16002597 L19.3333333,8.66669152 L19.3333333,8.66669152 Z M2,20 L7.33333333,20 L7.33333333,18.6666696 L2,18.6666696 L2,20 Z M19.7666667,8.16002597 L10.4333333,0.160043511 L9.56666667,1.17337462 L18.9,9.17335708 L19.7666667,8.16002597 Z M9.56666667,0.160043511 L0.233333333,8.16002597 L1.1,9.17335708 L10.4333333,1.17337462 L9.56666667,0.160043511 Z M8,19.3333436 L8,15.3333436 L6.66666667,15.3333436 L6.66666667,19.3333436 L8,19.3333436 Z M12,15.3333436 L12,19.3333436 L13.3333333,19.3333436 L13.3333333,15.3333436 L12,15.3333436 Z M12.6666667,20 L18,20 L18,18.6666696 L12.6666667,18.6666696 L12.6666667,20 Z M20,18.0000044 L20,8.66669152 L18.6666667,8.66669152 L18.6666667,18.0000044 L20,18.0000044 Z M0,8.66669152 L0,18.0000044 L1.33333333,18.0000044 L1.33333333,8.66669152 L0,8.66669152 Z M10,13.333348 C11.1045695,13.333348 12,14.2287765 12,15.3333436 L13.3333333,15.3333436 C13.3333333,13.4923984 11.8409492,12.0000175 10,12.0000175 L10,13.333348 L10,13.333348 Z M10,12.0000175 C8.15905083,12.0000175 6.66666667,13.4923984 6.66666667,15.3333436 L8,15.3333436 C8,14.8029118 8.21071368,14.294205 8.58578644,13.9191331 C8.96085919,13.5440612 9.46956702,13.333348 10,13.333348 L10,12.0000175 Z M18,20.0000044 C19.1045695,20.0000044 20,19.1045715 20,18.0000044 L18.6666667,18.0000044 C18.6666667,18.3681934 18.3681898,18.6666696 18,18.6666696 L18,20.0000044 Z M2,18.6666696 C1.63181017,18.6666696 1.33333333,18.3681934 1.33333333,18.0000044 L0,18.0000044 C0,19.1045715 0.8954305,20.0000044 2,20.0000044 L2,18.6666696 Z" id="Shape"></path>
            </g>
        </g>
    </g>
</svg>