<!-- Generated by IcoMoon.io -->
<svg version="1.1" xmlns="http://www.w3.org/2000/svg" width="32" height="32" viewBox="0 0 32 32">
<title>Love</title>
<path d="M2.36 5.206c3.082-3.272 8.071-3.395 11.291-0.296v0l0.293 0.296 2.055 2.182 2.058-2.182c3.111-3.303 8.142-3.384 11.347-0.242v0l0.237 0.242c3.146 3.341 3.146 8.726 0.010 12.055-8.353 9.070-12.13 12.739-13.65 12.739-1.392 0-4.673-3.073-11.616-10.54v0l-2.024-2.188c-3.146-3.341-3.146-8.726 0-12.066zM11.583 6.632c-2.15-1.862-5.287-1.716-7.282 0.402-2.179 2.314-2.179 6.096 0.010 8.42 3.436 3.731 6.177 6.607 8.219 8.625v0l0.867 0.845c0.69 0.663 1.278 1.201 1.759 1.612v0l0.386 0.32c0.165 0.133 0.31 0.243 0.434 0.329v0l0.024 0.016 0.154-0.11 0.303-0.235c0.601-0.482 1.419-1.225 2.448-2.224v0l0.564-0.553c1.653-1.634 3.765-3.83 6.337-6.592v0l1.892-2.044c2.179-2.314 2.179-6.096 0-8.409-2.136-2.268-5.565-2.268-7.702 0v0l-3.998 4.244-3.974-4.22-0.24-0.242z"></path>
</svg>
