<?xml version="1.0" encoding="UTF-8"?>
<svg width="19px" height="17px" viewBox="0 0 19 17" version="1.1" xmlns="http://www.w3.org/2000/svg" xmlns:xlink="http://www.w3.org/1999/xlink">
    <title>7BFF7F8D-8AB7-4278-8203-86DB88C4030E</title>
    <g id="Page-1" stroke="none" stroke-width="1" fill="none" fill-rule="evenodd">
        <g id="Customer-Landing-Page-Copy-30" transform="translate(-36.000000, -592.000000)" fill="#2D3142" fill-rule="nonzero">
            <g id="Group-26-Copy" transform="translate(16.000000, 233.000000)">
                <g id="Group-20" transform="translate(0.000000, 196.000000)">
                    <g id="Group-23" transform="translate(20.000000, 17.000000)">
                        <g id="Group-22" transform="translate(0.000000, 146.000000)">
                            <path d="M2.8809551,17 C2.3608962,17 1.91585185,16.8152037 1.54582206,16.4456111 C1.1751619,16.0753889 0.989831818,15.6305556 0.989831818,15.1111111 L0.989831818,7.60277778 C0.627366523,7.27222222 0.347795464,6.84722222 0.151118643,6.32777778 C-0.0461885523,5.80833333 -0.0502859861,5.24166667 0.138826342,4.62777778 L1.13166606,1.41666667 C1.25774095,1.00740741 1.48246943,0.668981481 1.80585151,0.401388889 C2.12860322,0.133796296 2.50273044,0 2.92823318,0 L16.07154,0 C16.4970427,0 16.8673877,0.129703704 17.1825749,0.389111111 C17.4977621,0.649148148 17.7262728,0.991666667 17.8681071,1.41666667 L18.8609468,4.62777778 C19.0500591,5.24166667 19.0462769,5.80046296 18.8496001,6.30416667 C18.6522929,6.80787037 18.3724066,7.24074074 18.0099413,7.60277778 L18.0099413,15.1111111 C18.0099413,15.6305556 17.8249264,16.0753889 17.4548967,16.4456111 C17.0842365,16.8152037 16.638877,17 16.1188181,17 L2.8809551,17 Z M11.5801222,6.61111111 C12.0056249,6.61111111 12.3286918,6.46535185 12.5493229,6.17383333 C12.7699539,5.88294444 12.8566304,5.55648148 12.8093523,5.19444444 L12.2892934,1.88888889 L10.4454482,1.88888889 L10.4454482,5.38333333 C10.4454482,5.71388889 10.5557637,6.00131481 10.7763948,6.24561111 C10.9970258,6.48927778 11.264935,6.61111111 11.5801222,6.61111111 Z M7.32509481,6.61111111 C7.6875601,6.61111111 7.98320571,6.48927778 8.21203163,6.24561111 C8.44022717,6.00131481 8.55432494,5.71388889 8.55432494,5.38333333 L8.55432494,1.88888889 L6.71047974,1.88888889 L6.19042084,5.19444444 C6.1273834,5.57222222 6.21027763,5.90277778 6.43910355,6.18611111 C6.66729909,6.46944444 6.96262951,6.61111111 7.32509481,6.61111111 Z M3.11734551,6.61111111 C3.401014,6.61111111 3.64906634,6.5087963 3.86150252,6.30416667 C4.07456908,6.09953704 4.20474139,5.83981481 4.25201948,5.525 L4.77207838,1.88888889 L2.92823318,1.88888889 L1.98267154,5.05277778 C1.88811538,5.36759259 1.9391757,5.70601852 2.13585253,6.06805556 C2.33315972,6.43009259 2.66032405,6.61111111 3.11734551,6.61111111 L3.11734551,6.61111111 Z M15.8824277,6.61111111 C16.3394491,6.61111111 16.6703957,6.43009259 16.8752674,6.06805556 C17.0801391,5.70601852 17.1274171,5.36759259 17.0171016,5.05277778 L16.0242619,1.88888889 L14.2276948,1.88888889 L14.7477537,5.525 C14.7950318,5.83981481 14.9252041,6.09953704 15.1382706,6.30416667 C15.3507068,6.5087963 15.5987592,6.61111111 15.8824277,6.61111111 L15.8824277,6.61111111 Z M2.8809551,15.1111111 L16.1188181,15.1111111 L16.1188181,8.45277778 C16.0400213,8.48425926 15.9889609,8.5 15.9656371,8.5 L15.8824277,8.5 C15.4569249,8.5 15.0824825,8.42916667 14.7591004,8.2875 C14.4363487,8.14583333 14.1173793,7.91759259 13.802192,7.60277778 C13.5185236,7.88611111 13.1954567,8.10648148 12.8329914,8.26388889 C12.4705261,8.4212963 12.0844217,8.5 11.6746784,8.5 C11.2491756,8.5 10.8510942,8.4212963 10.480434,8.26388889 C10.1104042,8.10648148 9.78355507,7.88611111 9.49988658,7.60277778 C9.23197745,7.88611111 8.92088767,8.10648148 8.56661724,8.26388889 C8.21171644,8.4212963 7.82939435,8.5 7.41965097,8.5 C6.96262951,8.5 6.5487887,8.4212963 6.17812854,8.26388889 C5.80809875,8.10648148 5.48124961,7.88611111 5.19758112,7.60277778 C4.86663454,7.93333333 4.5397854,8.16535185 4.2170337,8.29883333 C3.89365162,8.43294444 3.52708889,8.5 3.11734551,8.5 L3.0114426,8.5 C2.97172902,8.5 2.92823318,8.48425926 2.8809551,8.45277778 L2.8809551,15.1111111 Z M16.1188181,15.1111111 L2.8809551,15.1111111 L16.1188181,15.1111111 Z" id="Shape"></path>
                        </g>
                    </g>
                </g>
            </g>
        </g>
    </g>
</svg>