<!-- Generated by IcoMoon.io -->
<svg version="1.1" xmlns="http://www.w3.org/2000/svg" width="32" height="32" viewBox="0 0 32 32">
<title>messageOutline</title>
<path d="M30.857 4.008h-29.806c-0.080-0.011-0.16-0.011-0.24 0l-0.194 0.080c-0.062 0.030-0.12 0.068-0.171 0.114-0.065 0.044-0.123 0.098-0.171 0.16l-0.069 0.069c-0.004 0.034-0.004 0.069 0 0.103-0.037 0.069-0.068 0.142-0.091 0.217-0.048 0.091-0.086 0.187-0.114 0.286 0 0 0 0.114 0 0.114v20.571c0 0.631 0.512 1.143 1.143 1.143h29.714c0.631 0 1.143-0.512 1.143-1.143v-20.571c0-0.631-0.512-1.143-1.143-1.143zM16 14.077l-11.2-7.783h23.874l-12.674 7.783zM2.286 24.58v-17.246l13.063 9.040c0.066 0.039 0.135 0.073 0.206 0.103h0.091c0.112 0.052 0.232 0.086 0.354 0.103v0c0.163-0.004 0.322-0.043 0.469-0.114h0.080l13.166-8.126v16.24h-27.429z"></path>
</svg>
