<?xml version="1.0" standalone="no"?>
<!DOCTYPE svg PUBLIC "-//W3C//DTD SVG 20010904//EN"
 "http://www.w3.org/TR/2001/REC-SVG-20010904/DTD/svg10.dtd">
<svg version="1.0" xmlns="http://www.w3.org/2000/svg"
 width="128.000000pt" height="128.000000pt" viewBox="0 0 128.000000 128.000000"
 preserveAspectRatio="xMidYMid meet">

<g transform="translate(0.000000,128.000000) scale(0.100000,-0.100000)"
fill="#000000" stroke="none">
<path d="M501 1265 c-110 -24 -226 -89 -311 -175 -250 -250 -252 -649 -5 -895
122 -121 256 -183 419 -192 292 -16 560 170 649 452 31 99 31 271 0 370 -101
318 -428 510 -752 440z m-16 -301 c-48 -186 28 -375 198 -485 67 -44 179 -73
257 -67 27 1 50 0 50 -4 0 -5 -19 -22 -42 -39 -174 -128 -394 -108 -540 50
-151 163 -140 404 25 557 33 30 61 53 63 51 3 -2 -2 -30 -11 -63z"/>
</g>
</svg>
