<?xml version="1.0" encoding="UTF-8"?>
<svg width="70px" height="70px" viewBox="0 0 70 70" version="1.1" xmlns="http://www.w3.org/2000/svg" xmlns:xlink="http://www.w3.org/1999/xlink">
    <title>A2F03575-D68B-4FF9-9F42-F3E83D3E090E</title>
    <defs>
        <polygon id="path-1" points="0 0 69.5458678 0 69.5458678 69.5457071 0 69.5457071"></polygon>
    </defs>
    <g id="Bin" stroke="none" stroke-width="1" fill="none" fill-rule="evenodd">
        <g id="Customer-Landing-Page-Copy-126" transform="translate(-153.000000, -393.000000)">
            <g id="Group-2" transform="translate(53.000000, 223.000000)">
                <g id="Smile-Copy-2" transform="translate(100.386820, 170.357553)">
                    <g id="Group-3">
                        <mask id="mask-2" fill="white">
                            <use xlink:href="#path-1"></use>
                        </mask>
                        <g id="Clip-2"></g>
                        <path d="M69.5460285,34.7730946 C69.5460285,53.9789027 53.9784206,69.5457071 34.773416,69.5457071 C15.5676079,69.5457071 0,53.9789027 0,34.7730946 C0,15.5672865 15.5676079,-0.000321395776 34.773416,-0.000321395776 C53.9784206,-0.000321395776 69.5460285,15.5672865 69.5460285,34.7730946" id="Fill-1" fill="#A7BCF7" mask="url(#mask-2)"></path>
                    </g>
                    <path d="M50.6408861,45.5609848 L18.9046602,45.5609848 C17.9653811,45.5609848 17.2044766,44.8000803 17.2044766,43.8599977 C17.2044766,42.921522 17.9653811,42.159814 18.9046602,42.159814 L50.6408861,42.159814 C51.5801653,42.159814 52.3410698,42.921522 52.3410698,43.8599977 C52.3410698,44.8000803 51.5801653,45.5609848 50.6408861,45.5609848" id="Fill-4" fill="#6486E6"></path>
                    <path d="M52.9669881,28.8556359 C52.9669881,30.8820363 51.3238522,32.5259757 49.2958448,32.5259757 C47.268641,32.5259757 45.6247016,30.8820363 45.6247016,28.8556359 C45.6247016,26.828432 47.268641,25.1844927 49.2958448,25.1844927 C51.3238522,25.1844927 52.9669881,26.828432 52.9669881,28.8556359" id="Fill-6" fill="#6486E6"></path>
                    <path d="M23.9197199,28.8556359 C23.9197199,30.8820363 22.2757805,32.5259757 20.2485767,32.5259757 C18.2213728,32.5259757 16.5774334,30.8820363 16.5774334,28.8556359 C16.5774334,26.828432 18.2213728,25.1844927 20.2485767,25.1844927 C22.2757805,25.1844927 23.9197199,26.828432 23.9197199,28.8556359" id="Fill-8" fill="#6486E6"></path>
                </g>
            </g>
        </g>
    </g>
</svg>