<?xml version="1.0" encoding="UTF-8"?>
<svg width="14px" height="17px" viewBox="0 0 14 17" version="1.1" xmlns="http://www.w3.org/2000/svg" xmlns:xlink="http://www.w3.org/1999/xlink">
    <title>Group</title>
    <g id="Page-1" stroke="none" stroke-width="1" fill="none" fill-rule="evenodd">
        <g id="Momotaro-home-Copy-52-(1)-Copy-5" transform="translate(-198.000000, -194.000000)" fill="#888888" fill-rule="nonzero">
            <g id="Group-54" transform="translate(182.000000, 92.000000)">
                <g id="Group" transform="translate(16.000000, 102.000000)">
                    <path d="M9.89090909,8.81481481 C9.89090909,9.16254966 9.61413966,9.44444444 9.27272727,9.44444444 L4.32727273,9.44444444 C3.98586034,9.44444444 3.70909091,9.16254966 3.70909091,8.81481481 C3.70909091,8.46707997 3.98586034,8.18518519 4.32727273,8.18518519 L9.27272727,8.18518519 C9.61413966,8.18518519 9.89090909,8.46707997 9.89090909,8.81481481 Z M9.27272727,10.7037037 L4.32727273,10.7037037 C3.98586034,10.7037037 3.70909091,10.9855985 3.70909091,11.3333333 C3.70909091,11.6810682 3.98586034,11.962963 4.32727273,11.962963 L9.27272727,11.962963 C9.61413966,11.962963 9.89090909,11.6810682 9.89090909,11.3333333 C9.89090909,10.9855985 9.61413966,10.7037037 9.27272727,10.7037037 Z M13.6,2.51851852 L13.6,14.4814815 C13.5957577,15.8706272 12.4911612,16.9956791 11.1272727,17 L2.47272727,17 C1.10883879,16.9956791 0.00424229663,15.8706272 0,14.4814815 L0,2.51851852 C0,1.82304883 0.553538855,1.25925926 1.23636364,1.25925926 L2.47272727,1.25925926 L2.47272727,0.62962963 C2.47272727,0.281894787 2.7494967,0 3.09090909,0 C3.43232148,0 3.70909091,0.281894787 3.70909091,0.62962963 L3.70909091,1.25925926 L6.18181818,1.25925926 L6.18181818,0.62962963 C6.18181818,0.281894787 6.45858761,0 6.8,0 C7.14141239,0 7.41818182,0.281894787 7.41818182,0.62962963 L7.41818182,1.25925926 L9.89090909,1.25925926 L9.89090909,0.62962963 C9.89090909,0.281894787 10.1676785,0 10.5090909,0 C10.8505033,0 11.1272727,0.281894787 11.1272727,0.62962963 L11.1272727,1.25925926 L12.3636364,1.25925926 C13.0464611,1.25925926 13.6,1.82304883 13.6,2.51851852 Z M12.3636364,2.51851852 L11.1272727,2.51851852 L11.1272727,3.14814815 C11.1272727,3.49588299 10.8505033,3.77777778 10.5090909,3.77777778 C10.1676785,3.77777778 9.89090909,3.49588299 9.89090909,3.14814815 L9.89090909,2.51851852 L7.41818182,2.51851852 L7.41818182,3.14814815 C7.41818182,3.49588299 7.14141239,3.77777778 6.8,3.77777778 C6.45858761,3.77777778 6.18181818,3.49588299 6.18181818,3.14814815 L6.18181818,2.51851852 L3.70909091,2.51851852 L3.70909091,3.14814815 C3.70909091,3.49588299 3.43232148,3.77777778 3.09090909,3.77777778 C2.7494967,3.77777778 2.47272727,3.49588299 2.47272727,3.14814815 L2.47272727,2.51851852 L1.23636364,2.51851852 L1.23636364,14.4814815 C1.23636364,15.1769512 1.78990249,15.7407407 2.47272727,15.7407407 L11.1272727,15.7407407 C11.8100975,15.7407407 12.3636364,15.1769512 12.3636364,14.4814815 L12.3636364,2.51851852 Z" id="Shape"></path>
                </g>
            </g>
        </g>
    </g>
</svg>