<?xml version="1.0" encoding="UTF-8"?>
<svg width="21px" height="19px" viewBox="0 0 21 19" version="1.1" xmlns="http://www.w3.org/2000/svg" xmlns:xlink="http://www.w3.org/1999/xlink">
    <title>9041670_box_open_icon</title>
    <g id="Page-1" stroke="none" stroke-width="1" fill="none" fill-rule="evenodd" stroke-linecap="round" stroke-linejoin="round">
        <g id="Momotaro-home-Copy-42" transform="translate(-305.000000, -207.000000)" stroke="#E8101B">
            <g id="9041670_box_open_icon" transform="translate(306.000000, 208.000000)">
                <path d="M3,6 L10,2 L15.9922779,5.42415879 C16.6154279,5.7802445 17,6.44293138 17,7.16064507 L17,11.8393549 C17,12.5570686 16.6154279,13.2197555 15.9922779,13.5758412 L10.9922779,16.4329841 C10.3774125,16.7843357 9.6225875,16.7843357 9.00772212,16.4329841 L4.00772212,13.5758412 C3.38457213,13.2197555 3,12.5570686 3,11.8393549 C3,10.5938582 3,9.6597357 3,9.0369873" id="Path"></path>
                <path d="M9.05180035,9.48943096 C9.643753,9.8081747 10.356247,9.8081747 10.9481996,9.48943096 L16.5,6.5" id="Path"></path>
                <line x1="10" y1="10" x2="10" y2="16.5" id="Path"></line>
                <polygon id="Path" points="3 6 10 10 7 11 0 7"></polygon>
                <polygon id="Path" points="10 2 17 6 19 4 12 0"></polygon>
            </g>
        </g>
    </g>
</svg>