<?xml version="1.0" encoding="UTF-8"?>
<svg width="250px" height="325px" viewBox="0 0 250 325" version="1.1" xmlns="http://www.w3.org/2000/svg" xmlns:xlink="http://www.w3.org/1999/xlink">
    <title>44F15F36-A226-4257-BD2C-58E38D1BE941</title>
    <defs>
        <polygon id="path-1" points="0 0 70.6344908 0 70.6344908 70.6342228 0 70.6342228"></polygon>
    </defs>
    <g id="Finbal_Final" stroke="none" stroke-width="1" fill="none" fill-rule="evenodd">
        <g id="Momotaro-home-Copy-83" transform="translate(-63.000000, -264.000000)">
            <g id="Group-3" transform="translate(63.000000, 264.000000)">
                <g id="Online-shopping-order" transform="translate(0.000000, 90.000000)">
                    <path d="M71.370988,15.9412188 L115.970578,28.3272243 C121.485726,29.8592132 127.297276,28.8954756 131.562338,25.7430338 L153.106049,9.82054847 C161.483292,3.62910688 174.491679,6.46203746 179.918427,15.6602154 L198.889165,47.817412 C202.275422,53.5571666 208.930417,57.1404804 215.846452,56.947941 L230.784049,56.5326804 C245.492845,56.1236644 255.225215,71.601748 246.988373,82.301733 L196.736354,147.578823 C193.939779,151.212093 193.065135,155.873627 194.334981,160.378007 L207.053207,205.495705 C210.686986,218.388558 196.970355,228.620204 183.635406,222.96475 L156.727348,211.55393 C146.289854,207.127607 134.687554,212.46459 132.949705,222.491207 L132.949705,222.491207 C130.720974,235.350755 113.198963,239.403449 103.132752,229.386198 L90.8118082,217.125083 C85.7917023,212.129467 78.1362229,210.25403 71.5082687,212.396941 L66.5817634,213.989293 C52.0580885,218.685172 37.4980136,204.404996 43.7318057,191.577711 L55.5753867,167.205349 C58.8118833,160.544528 56.413631,152.414163 49.7981569,147.626698 L7.21097755,116.806869 C-4.33828193,108.448579 -1.50426734,92.2378051 12.0709226,89.0052252 L50.6821615,79.8101695 C60.4228516,77.4903303 65.357677,67.9008291 61.3661365,59.0502627 L51.1886441,36.4856897 C45.5996553,24.092399 57.4141161,12.0654534 71.370988,15.9412188 Z" id="Path" fill="#8C80F8" fill-rule="nonzero"></path>
                    <path d="M215.668611,0 C214.436205,0 213.4118,0.882558828 213.187158,2.04924332 L176.005927,7.23635794 C175.699125,6.18415632 174.72984,5.41399885 173.579594,5.41399885 C172.182867,5.41399885 171.051341,6.54737923 171.051341,7.94407021 C171.051341,8.19281026 171.088782,8.43322428 171.155342,8.6601085 L132.952825,27.0637497 C132.488983,26.5038244 131.789059,26.146846 131.005935,26.146846 C130.185371,26.146846 129.457367,26.5402508 128.995605,27.14701 L91.4368514,16.8987119 C91.3536509,15.5769552 90.2585253,14.5299573 88.9158784,14.5299573 C87.5191512,14.5299573 86.3876254,15.6633377 86.3876254,17.0600287 C86.3876254,17.231753 86.4053055,17.400355 86.4375456,17.5627125 L48.4742301,39.796326 C48.0311878,39.4143696 47.4560648,39.1812408 46.8247816,39.1812408 C45.4280544,39.1812408 44.2965286,40.3146212 44.2965286,41.7113122 C44.2965286,43.1090439 45.4290944,44.2413835 46.8247816,44.2413835 C48.2215088,44.2413835 49.3530346,43.1080032 49.3530346,41.7113122 C49.3530346,41.5395879 49.3353545,41.3720266 49.3031144,41.2086283 L87.2643499,18.9750148 C87.7073922,19.3569713 88.2825151,19.5901 88.9137984,19.5901 C89.7842829,19.5901 90.5518068,19.1498614 91.0062892,18.4796162 L128.475602,28.703977 C128.490162,30.0881789 129.615448,31.2069888 131.002815,31.2069888 C132.399542,31.2069888 133.531068,30.0736084 133.531068,28.6769174 C133.531068,28.6519393 133.527948,28.628002 133.526908,28.6040647 L172.121507,10.0110063 C172.533349,10.3013765 173.034632,10.4741416 173.576474,10.4741416 C174.63416,10.4741416 175.538965,9.82367073 175.916486,8.90156328 L213.4118,3.67177777 C213.828842,4.49501366 214.680606,5.06014272 215.666531,5.06014272 C217.063258,5.06014272 218.194787,3.92676233 218.194787,2.53007136 C218.196864,1.13338038 217.065338,0 215.668611,0 Z" id="Path" fill="#000000" fill-rule="nonzero"></path>
                    <path d="M215.668611,14.5299573 C214.271884,14.5299573 213.140358,15.6633377 213.140358,17.0600287 C213.140358,17.1911636 213.153878,17.3191763 213.172598,17.4440667 L175.290403,37.3214146 C174.840081,36.906154 174.239998,36.6501287 173.578554,36.6501287 C172.373188,36.6501287 171.367503,37.4941797 171.113742,38.623397 L133.771309,43.2391381 C133.365707,42.3846796 132.497303,41.7924909 131.489538,41.7924909 C130.864494,41.7924909 130.292492,42.0204159 129.851529,42.3971686 L91.4316513,24.8958605 C91.4389314,24.8146818 91.4441314,24.733503 91.4441314,24.6502427 C91.4441314,23.252511 90.3115656,22.1201714 88.9158784,22.1201714 C87.9081132,22.1201714 87.0407487,22.7113193 86.6341066,23.564737 L49.3363945,19.2966076 C49.1907938,18.0372961 48.1237483,17.0589879 46.8258216,17.0589879 C45.4290944,17.0589879 44.2975686,18.1923683 44.2975686,19.5890593 C44.2975686,20.986791 45.4301344,22.1191306 46.8258216,22.1191306 C47.7399863,22.1191306 48.5376704,21.6320581 48.9827927,20.9045715 L86.4469057,25.1914345 C86.6954669,26.3279371 87.7053121,27.1792734 88.9158784,27.1792734 C89.6397221,27.1792734 90.2907655,26.8732919 90.7514878,26.3851786 L129.012245,43.8136339 C128.978965,43.9770322 128.961285,44.146675 128.961285,44.3204808 C128.961285,45.7182125 130.09385,46.8505521 131.489538,46.8505521 C132.699064,46.8505521 133.708909,46.0002567 133.95747,44.8647948 L171.290543,40.2511352 C171.694065,41.1118383 172.565589,41.7092307 173.578554,41.7092307 C174.975282,41.7092307 176.106807,40.5758503 176.106807,39.1791593 C176.106807,39.0365761 176.092247,38.8971152 176.069367,38.7618172 L213.931802,18.8948768 C214.385245,19.3236672 214.994688,19.5890593 215.667571,19.5890593 C217.064298,19.5890593 218.195825,18.4556789 218.195825,17.0589879 C218.195825,15.6633377 217.065338,14.5299573 215.668611,14.5299573 Z" id="Path" fill="#000000" fill-rule="nonzero"></path>
                    <path d="M74.4234037,77.605854 L72.8737958,73.6332985 C72.3787532,72.3635794 72.539954,70.9325436 73.304358,69.804367 L75.6963703,66.2751724 C76.221573,65.4998112 76.2590132,64.5516849 75.7972508,63.7378158 C75.3354884,62.9229059 74.4962041,62.4680967 73.5685193,62.5242974 L69.3148974,62.7709559 C67.9576904,62.8458902 66.6452037,62.2547423 65.8090394,61.1786033 L63.1944659,57.8117663 C62.7264635,57.2102108 62.04942,56.880292 61.3193362,56.880292 C61.1529354,56.880292 60.9844545,56.8979848 60.8138936,56.9323297 C59.8976489,57.1207061 59.2081254,57.7732584 58.9720442,58.6787138 L57.8925186,62.8032193 C57.5472368,64.1218537 56.5769118,65.1844629 55.2966652,65.6475981 L51.2884846,67.0963268 C50.40864,67.4147973 49.821037,68.1599767 49.7170365,69.0893694 C49.613036,70.0198029 50.0207181,70.8763429 50.8080021,71.382149 L54.3949806,73.6842954 C55.5410665,74.420108 56.2513901,75.673175 56.2961104,77.0344804 L56.4344311,81.2963653 C56.4645912,82.2320025 56.990834,83.0219343 57.8425983,83.4080538 C58.6943627,83.795214 59.6355676,83.6713644 60.3583713,83.078135 L63.6541483,80.3763393 C64.7076737,79.5125141 66.118961,79.2231846 67.4252077,79.6020189 L71.5186688,80.7874369 C72.4182734,81.0476252 73.3303581,80.7905592 73.9606014,80.0994989 C74.5898046,79.411561 74.7634855,78.4780053 74.4234037,77.605854 Z" id="Path" fill="#FFFFFF" fill-rule="nonzero"></path>
                    <path d="M77.1294977,67.2493175 C78.0197423,65.9358868 78.0863026,64.2623554 77.3031786,62.8812758 C76.5200545,61.5012368 75.0453269,60.698816 73.4665988,60.7924838 L69.2129769,61.0391424 C68.4277729,61.0849355 67.6623289,60.7394054 67.1756064,60.1139127 L64.5610329,56.7470756 C63.5875879,55.4940086 62.0192599,54.9122275 60.4644518,55.2317388 C58.9106838,55.55125 57.6959576,56.7023232 57.2934755,58.2384751 L56.2139499,62.3629806 C56.0132289,63.1289751 55.449546,63.7461418 54.7059422,64.0156969 L50.6977615,65.4644255 C49.2063939,66.0035358 48.1695085,67.3180072 47.9916676,68.8957893 C47.8148667,70.4735714 48.5335104,71.9847452 49.8688773,72.8423259 L53.4558557,75.1444723 C54.1214592,75.5722219 54.5343413,76.2997085 54.5603414,77.0906811 L54.6986621,81.352566 C54.7496224,82.938674 55.6793872,84.3322428 57.1229146,84.9879174 C57.6751575,85.2387389 58.2596405,85.3625886 58.8389235,85.3625886 C59.7738883,85.3625886 60.696373,85.0420365 61.4534969,84.4207068 L64.7492739,81.7189111 C65.3607971,81.217268 66.1792813,81.048666 66.9405652,81.2693057 L71.0340263,82.4547237 C72.5576341,82.8960032 74.1686024,82.4422347 75.2377279,81.2703465 C76.3068534,80.0984582 76.613655,78.4519864 76.0374921,76.9730759 L74.4878841,73.0005204 C74.1998026,72.2626263 74.2934031,71.4310644 74.7374854,70.7764306 L77.1294977,67.2493175 Z M71.5165888,80.7905592 L67.4231277,79.6051411 C66.115841,79.2263069 64.7055937,79.5156363 63.6520683,80.3794616 L60.3562913,83.0812573 C59.6324476,83.6744867 58.6922827,83.7972955 57.8405183,83.4111761 C56.9887539,83.0240158 56.4625112,82.2351248 56.4323511,81.2994875 L56.2940304,77.0376026 C56.2503501,75.6752565 55.5400265,74.4232303 54.3929006,73.6874177 L50.8059221,71.3852713 C50.018638,70.8794652 49.6109559,70.0229252 49.7149565,69.0924917 C49.818957,68.1620582 50.40656,67.4168788 51.2864046,67.099449 L55.2945852,65.6507204 C56.5758718,65.1875852 57.5461968,64.1239353 57.8904386,62.8063415 L58.9699641,58.6818361 C59.2070854,57.7763807 59.8955689,57.1227876 60.8118136,56.935452 C60.9813345,56.9011071 61.1508554,56.8834143 61.3172562,56.8834143 C62.04734,56.8834143 62.7243835,57.2133331 63.1923859,57.8148885 L65.8069594,61.1817256 C66.6431237,62.2578645 67.9566504,62.8490124 69.3128174,62.7740782 L73.5664393,62.5274196 C74.4941241,62.4701782 75.3334084,62.9260282 75.7951708,63.740938 C76.2569332,64.5548071 76.219493,65.5039742 75.6942903,66.2782947 L73.302278,69.8074892 C72.537874,70.9346251 72.3766732,72.3667017 72.8717157,73.6364207 L74.4213237,77.6089762 C74.7614055,78.4811275 74.5877246,79.4146833 73.9564413,80.1057435 C73.3282781,80.7936814 72.4151534,81.0507475 71.5165888,80.7905592 Z" id="Shape" fill="#000000" fill-rule="nonzero"></path>
                    <path d="M49.6473561,88.5774756 C49.037913,87.7781771 48.8600721,86.7301384 49.1720737,85.7747269 L50.0571182,83.065646 C50.2172791,82.5775326 50.0924784,82.0706858 49.7253565,81.7116259 C49.3582346,81.352566 48.849672,81.2391239 48.3650295,81.4098074 L45.6776557,82.3548114 C44.7302108,82.6888932 43.6798054,82.533821 42.8675612,81.9416324 L40.5660294,80.2618565 C40.3320281,80.0911729 40.0637068,80.0037496 39.7922654,80.0037496 C39.5842643,80.0037496 39.3741832,80.0547466 39.1765822,80.1588219 C38.7210599,80.3971544 38.4579385,80.8457191 38.4693786,81.3598512 L38.5369789,84.2094339 C38.560899,85.2148016 38.0897766,86.1670909 37.2754524,86.7561573 L34.9676805,88.4276071 C34.5516784,88.7283849 34.3551174,89.2112944 34.4403978,89.7181413 C34.5267182,90.2249881 34.87096,90.6152706 35.3639226,90.7620169 L38.0928966,91.5779675 C39.0559416,91.8652154 39.8151455,92.609354 40.1240271,93.5658064 L40.9986716,96.2780095 C41.1567524,96.7671636 41.5540344,97.1033269 42.0615571,97.1782612 C42.5690797,97.2542362 43.0464421,97.0450448 43.3386836,96.6224989 L44.957972,94.2776816 C45.5278949,93.4513235 46.4670197,92.9590472 47.4695849,92.9590472 C47.4716649,92.9590472 47.4737449,92.9590472 47.4758249,92.9590472 L50.3233596,92.9642509 C50.3243996,92.9642509 50.3254396,92.9642509 50.3264796,92.9642509 C50.8392023,92.9642509 51.2801645,92.6905328 51.5079257,92.2305198 C51.7356869,91.7705069 51.6857666,91.2511709 51.374805,90.8431956 L49.6473561,88.5774756 Z" id="Path" fill="#FFFFFF" fill-rule="nonzero"></path>
                    <path d="M52.7538521,89.790994 L51.0253632,87.525274 C50.7622419,87.1797439 50.6852815,86.7270162 50.8204822,86.3138371 L51.7055267,83.6047562 C52.0695286,82.4911501 51.7752071,81.2911615 50.9390428,80.4720886 C50.1018385,79.6530158 48.8975123,79.3865829 47.7930266,79.7737432 L45.1056527,80.7187472 C44.6958906,80.8634119 44.2424483,80.7957629 43.8909265,80.5397376 L41.5893946,78.8599617 C40.6440298,78.1699423 39.4126634,78.078356 38.3747381,78.6216292 C37.3378527,79.1649025 36.7107295,80.2295931 36.7388096,81.4004406 L36.80641,84.2500233 C36.81681,84.6840174 36.612969,85.0961557 36.2614472,85.3500995 L33.9536753,87.0215494 C33.0051904,87.7084466 32.538228,88.8522345 32.733749,90.0064299 C32.92927,91.1606254 33.7477542,92.0868959 34.86888,92.4220184 L37.5978541,93.2379691 C38.0138562,93.3628595 38.3424979,93.6834115 38.4756186,94.0976313 L39.3502631,96.8098345 C39.7101049,97.9244813 40.6523498,98.7227391 41.8098758,98.8934227 C41.9617165,98.9163193 42.1125173,98.9267268 42.2633181,98.9267268 C43.2565232,98.9267268 44.188368,98.444858 44.765571,97.6080923 L46.3848593,95.263275 C46.6313406,94.9062967 47.0369427,94.6929422 47.4706249,94.6929422 C47.4716649,94.6929422 47.4727049,94.6929422 47.4737449,94.6929422 L50.3212796,94.698146 C50.3233596,94.698146 50.3254396,94.698146 50.3275196,94.698146 C51.4954456,94.698146 52.542731,94.0476751 53.0616937,93.0006773 C53.5827364,91.9526387 53.4641758,90.7214275 52.7538521,89.790994 Z M51.5089657,92.2315606 C51.2812045,92.6905328 50.8402423,92.9652917 50.3275196,92.9652917 C50.3264796,92.9652917 50.3254396,92.9652917 50.3243996,92.9652917 L47.4768649,92.9600879 C47.4747849,92.9600879 47.4727049,92.9600879 47.4706249,92.9600879 C46.4680598,92.9600879 45.5299749,93.4523642 44.959012,94.2787224 L43.3397236,96.6235397 C43.0474821,97.0460855 42.5690797,97.2552769 42.0625971,97.1793019 C41.5540344,97.1043677 41.1577924,96.7682044 40.9997116,96.2790503 L40.1250671,93.5668471 C39.8161855,92.609354 39.0569816,91.8662562 38.0939366,91.5790082 L35.3649626,90.7630576 C34.87304,90.6152706 34.5277583,90.2260289 34.4414378,89.719182 C34.3561574,89.2123352 34.5527184,88.7304664 34.9687205,88.4286479 L37.2764924,86.757198 C38.0908166,86.1670909 38.561939,85.2148016 38.5380189,84.2104746 L38.4704186,81.360892 C38.4579385,80.8467598 38.7220999,80.3981952 39.1776222,80.1598626 C39.3752232,80.0557873 39.5853043,80.0047904 39.7933054,80.0047904 C40.0637068,80.0047904 40.3320281,80.0911729 40.5670694,80.2628972 L42.8686012,81.9426731 C43.6808454,82.5359025 44.7312508,82.689934 45.6786957,82.3558522 L48.3660695,81.4108482 C48.850712,81.2401646 49.3592746,81.3536067 49.7263965,81.7126666 C50.0935184,82.0717265 50.2172791,82.5785734 50.0581582,83.0666867 L49.1731137,85.7757676 C48.8611121,86.73222 49.037913,87.7792178 49.6483961,88.5785164 L51.376885,90.8442364 C51.6878466,91.2522117 51.7377669,91.7705069 51.5089657,92.2315606 Z M199.480928,161.787187 C200.911975,157.253666 202.678944,153.098979 204.829675,149.230498 C208.346974,142.907922 212.407154,139.355831 216.905178,138.66373 C217.009178,138.648119 217.113179,138.633548 217.217179,138.621059 C218.613906,138.447253 219.749592,138.625222 220.593037,139.150802 C222.321526,140.230064 222.650167,142.768461 221.967924,144.599146 C221.19624,146.671286 219.40015,148.280291 217.746542,149.579151 C215.707091,151.18087 213.49812,152.653536 211.365069,154.077287 C208.624655,155.90485 205.7896,157.794858 203.244707,160.000214 C202.629024,160.53308 202.044541,161.081557 201.488138,161.641482 C196.644833,169.541841 190.971604,180.785099 189.646637,191.779617 C189.363756,194.127557 189.328396,196.090417 189.405356,197.660914 C190.843683,193.4136 194.643863,187.014008 204.566554,180.582152 C207.66473,177.297534 210.897067,174.4594 214.332204,172.0001 C220.214475,167.792334 225.404101,166.319668 229.763804,167.619569 C229.864684,167.649751 229.964525,167.680974 230.064365,167.714278 C231.400772,168.155557 232.351337,168.802906 232.88902,169.638631 C233.990386,171.353792 233.201022,173.789155 231.802214,175.151501 C230.218286,176.693898 227.907394,177.379754 225.856504,177.844971 C223.328251,178.419467 220.702237,178.804545 218.164624,179.178176 C214.906287,179.656922 211.53563,180.15128 208.292893,181.053613 C207.284088,181.334617 206.309603,181.659332 205.370478,182.019432 C205.369438,182.019432 205.369438,182.020473 205.368398,182.020473 C205.853041,182.068348 206.414644,182.148486 207.062567,182.277539 C209.838341,182.160975 212.502835,182.274417 215.101808,182.628273 C219.998154,183.294355 223.26897,184.995987 224.827938,187.687375 C224.864339,187.74982 224.899699,187.812265 224.932979,187.875751 C225.391621,188.721884 225.561142,189.48996 225.436342,190.157083 C225.1805,191.526714 223.647532,192.367643 222.314245,192.388458 C220.804158,192.413436 219.33463,191.670338 218.095984,190.939729 C216.569256,190.039478 215.083088,188.999765 213.646841,187.995438 C211.801871,186.704904 209.894502,185.370658 207.859211,184.297641 C207.66473,184.195648 207.469209,184.096776 207.274728,184.001027 C204.541594,183.391145 203.424628,183.665904 203.369508,183.680475 C203.225987,183.726268 203.079346,183.727309 202.941026,183.696086 C197.068115,187.981908 193.97618,192.067906 192.358971,195.065275 C189.992959,199.45101 190.18848,202.503539 190.1916,202.543088 C190.19264,202.557659 190.19056,202.572229 190.19056,202.58784 C190.1916,202.616982 190.1916,202.646123 190.18848,202.674223 C190.1864,202.700242 190.18328,202.726261 190.17808,202.751239 C190.17392,202.777258 190.16768,202.803276 190.1604,202.828255 C190.15312,202.854273 190.1448,202.879251 190.1344,202.90423 C190.12504,202.928167 190.11464,202.952104 190.1032,202.975001 C190.09176,202.998938 190.078239,203.020794 190.064719,203.04369 C190.050159,203.066587 190.035599,203.088443 190.018959,203.109258 C190.003359,203.129032 189.986719,203.148807 189.970079,203.16754 C189.951359,203.187314 189.932639,203.206048 189.912879,203.223741 C189.893118,203.241434 189.872318,203.257045 189.850478,203.272656 C189.829678,203.287227 189.808878,203.301797 189.785998,203.315327 C189.761038,203.329898 189.733998,203.343427 189.706958,203.354876 C189.693437,203.36112 189.681997,203.369446 189.668477,203.37465 C189.660157,203.377772 189.652877,203.377772 189.644557,203.379854 C189.592557,203.397547 189.538477,203.411076 189.482316,203.418362 C189.470876,203.419402 189.459436,203.423565 189.447996,203.424606 C189.445916,203.424606 189.443836,203.425647 189.441756,203.425647 C189.381436,203.430851 189.322156,203.426688 189.264955,203.419402 C189.257675,203.418362 189.250395,203.419402 189.243115,203.418362 C189.243115,203.418362 189.243115,203.418362 189.242075,203.418362 C189.242075,203.418362 189.242075,203.418362 189.241035,203.418362 C189.178635,203.407954 189.119354,203.38818 189.062154,203.365283 C189.049674,203.360079 189.037194,203.354876 189.024714,203.348631 C188.968554,203.322612 188.915513,203.29139 188.867673,203.253923 C188.861433,203.248719 188.856233,203.242474 188.848953,203.237271 C188.805273,203.200844 188.766793,203.160255 188.731432,203.115502 C188.723112,203.105095 188.714792,203.095728 188.707512,203.085321 C188.671112,203.033283 188.639912,202.978123 188.615992,202.917759 C188.613912,202.912556 188.610792,202.909433 188.608712,202.90423 C188.548392,202.749157 187.152704,199.015975 187.999269,191.751517 C189.265995,180.878767 194.662583,169.815559 199.480928,161.787187 Z" id="Shape" fill="#000000" fill-rule="nonzero"></path>
                    <ellipse id="Oval" fill="#FFFFFF" fill-rule="nonzero" cx="216.545336" cy="143.670794" rx="1.73368893" ry="1.73493581"></ellipse>
                    <ellipse id="Oval" fill="#FFFFFF" fill-rule="nonzero" cx="226.300586" cy="172.989856" rx="1.73368893" ry="1.73493581"></ellipse>
                    <ellipse id="Oval" fill="#FFFFFF" fill-rule="nonzero" cx="221.384481" cy="188.524141" rx="1.44456744" ry="1.44560638"></ellipse>
                    <path d="M74.9621265,150.26917 C78.9515871,155.875709 82.3316045,161.9152 84.9222578,168.385564 C86.2357846,171.667059 87.3631504,175.280554 86.4240256,178.687981 C85.3985803,182.409715 82.046643,185.114633 78.4284644,186.454082 C69.5894588,189.726211 59.3714062,185.903524 52.5562511,179.389449 C45.741096,172.875374 41.6330748,164.093497 37.7600949,155.495834 C34.7107992,148.726774 31.6687835,141.846354 27.2300407,135.846411 C25.3278709,133.274709 15.2834991,123.871503 18.4804756,120.305882 C22.825618,115.280084 38.5172188,116.783973 50.0425582,125.327517 C59.5346871,132.36405 68.1396914,140.682791 74.9621265,150.26917 Z" id="Path" fill="#000000" fill-rule="nonzero"></path>
                    <path d="M31.5387829,126.394289 C31.8351844,126.018577 32.3811872,125.955091 32.7555891,126.252746 C48.8995923,139.039442 60.6693329,154.626805 67.7008091,165.450639 C67.7392893,165.509962 67.7756895,165.568244 67.8141697,165.626527 C66.3508822,158.30899 62.1191004,143.179559 51.0690435,133.562998 C50.7279217,133.266383 50.6915215,132.748088 50.987923,132.406721 C51.2843246,132.065354 51.8022472,132.028927 52.143369,132.325542 C60.2221306,139.355831 64.6837536,149.146197 67.0040055,156.121326 C69.1276965,162.504267 69.8837804,167.640384 70.0803414,169.212963 C76.1217325,179.01894 79.1866283,186.029455 79.2199084,186.107511 C79.4102294,186.546709 79.2084684,187.057719 78.7695861,187.248177 C78.7654261,187.250259 78.7612661,187.251299 78.7571061,187.253381 C78.3213438,187.435513 77.8179812,187.233607 77.6287002,186.797531 C77.5631799,186.645581 74.5835646,179.878603 68.6773741,170.288061 C68.643054,170.243308 68.6128938,170.195434 68.5879337,170.143396 C66.4112025,166.616283 63.8392692,162.711376 60.874214,158.616012 C58.7130828,159.160326 51.9842482,159.738985 43.4000439,149.608292 C43.1067624,149.262762 43.1504427,148.746548 43.4946844,148.453056 C43.8399662,148.159563 44.3568489,148.202234 44.6490904,148.547764 C51.8105673,156.998681 57.4723564,157.427472 59.7946884,157.138142 C52.6051314,147.415425 43.2378031,136.764355 31.6781436,127.607807 C31.3058217,127.315356 31.2423813,126.770001 31.5387829,126.394289 Z" id="Path" fill="#FFFFFF" fill-rule="nonzero"></path>
                    <path d="M71.1577869,61.3034937 C71.1401068,54.5573306 75.8814912,46.3509905 81.7408814,42.9675015 L132.289302,13.7764519 C135.238757,12.0727387 137.912611,11.9145442 139.842861,13.037517 L144.360644,15.6758267 C144.365844,15.678949 144.371044,15.6820713 144.376244,15.6851935 L144.405364,15.7018456 L144.405364,15.7028863 C146.309614,16.8112886 147.49106,19.1644319 147.50042,22.5156577 L147.44738,156.905014 C147.46506,163.64181 142.723676,171.857517 136.864285,175.242047 L86.316905,204.433096 C83.3674498,206.135769 80.695676,206.291882 78.7654261,205.167868 L78.7643861,205.168909 L74.2008426,202.505621 C72.2955528,201.397219 71.1141067,199.039912 71.1047466,195.69285 L71.1577869,61.3034937 Z" id="Path" fill="#000000" fill-rule="nonzero"></path>
                    <path d="M87.2113096,47.3199319 L97.0164801,41.657193 C97.2473613,41.5239766 97.5167227,41.4708982 97.780884,41.5083653 L103.153552,42.2629114 C103.417713,42.3003786 103.687074,42.2483409 103.917956,42.1140837 L119.755157,32.9700249 C119.866438,32.9054982 119.967318,32.8232787 120.052599,32.7275294 L127.867199,23.9102671 C127.952479,23.8134771 128.05336,23.7322983 128.164641,23.6677716 L138.959896,17.4336591 C142.129832,15.602974 146.090173,17.8926313 146.090173,21.5550423 L146.070413,157.123572 C146.069373,163.923854 142.443914,170.206882 136.558524,173.605982 L128.302961,178.374714 L97.1319207,196.373502 L83.7605718,204.096933 C80.9983176,205.692408 77.5454998,203.697284 77.5465396,200.505293 L77.5662999,64.0281859 C77.5694199,57.1342359 81.2447989,50.7648254 87.2113096,47.3199319 Z" id="Path"></path>
                    <path d="M83.7626518,204.096933 L97.1340007,196.373502 L128.305041,178.374714 L136.560604,173.605982 C142.445994,170.206882 146.071453,163.922813 146.072493,157.123572 L146.092253,21.5550423 C146.092253,17.8926313 142.131912,15.6040148 138.961976,17.4336591 L128.166721,23.6677716 C128.05544,23.7322983 127.954559,23.8145178 127.869279,23.9102671 L120.054679,32.7275294 C119.969398,32.8243194 119.868518,32.9054982 119.757237,32.9700249 L103.920036,42.1140837 C103.689154,42.2473001 103.419793,42.2993378 103.155632,42.2629114 L97.7829641,41.5083653 C97.5188027,41.4708982 97.2494413,41.5239766 97.0185601,41.657193 L87.2133896,47.3199319 C81.2468789,50.7658662 77.5715,57.1352766 77.5704599,64.0281859 L77.5506977,200.505293 C77.5475798,203.697284 81.0003976,205.692408 83.7626518,204.096933 Z" id="Path" fill="#FFFFFF" fill-rule="nonzero"></path>
                    <path d="M118.830592,31.7492212 L108.299498,37.8324245 C107.719175,38.1675471 107.249093,37.9687632 107.249093,37.3880228 C107.249093,36.8072825 107.719175,36.0652253 108.299498,35.7301028 L118.830592,29.6468995 C119.410915,29.3117769 119.880998,29.5105608 119.880998,30.0913012 C119.880998,30.6720415 119.410915,31.4140987 118.830592,31.7492212 Z M73.6693999,85.82052 C73.8753209,86.0557303 74.0510818,86.3325707 74.1790025,86.6229409 C74.3246032,86.9518189 74.4078037,87.297349 74.4078037,87.6147788 L74.4067637,98.7851843 C74.4057236,99.2035672 74.2590829,99.4970596 74.0240417,99.6344391 L73.0693168,100.18812 C73.305398,100.05074 73.4520387,99.7572479 73.4530787,99.3388651 L73.4541187,88.1684596 C73.4551588,87.8510298 73.3709183,87.5054997 73.2253176,87.1766216 C73.0973969,86.8872922 72.921636,86.6094111 72.7157149,86.3752416 C72.542034,86.1774984 72.346513,86.0088964 72.138512,85.8892098 L71.7755501,85.6800183 C71.4105082,85.4687454 71.0787465,85.4500118 70.8374653,85.5905135 L71.7911502,85.035792 C72.0313914,84.8952903 72.3641931,84.9150646 72.729235,85.1252968 L73.0921969,85.3344882 C73.300198,85.4541749 73.496759,85.6227769 73.6693999,85.82052 Z" id="Shape" fill="#FFFFFF" fill-rule="nonzero"></path>
                    <path d="M73.4873989,88.1799078 L73.4062785,99.3503134 C73.3979585,100.193324 72.8061954,100.524283 72.0771517,100.095493 L71.7162698,99.8831791 C70.9934661,99.4585517 70.4089831,98.436532 70.4173031,97.5935218 L70.4984235,86.4231162 C70.5067436,85.5894728 71.1047466,85.2543502 71.8275504,85.6779368 L72.1884322,85.8902505 C72.918516,86.3190409 73.495719,87.3462644 73.4873989,88.1799078 Z" id="Path" fill="#000000" fill-rule="nonzero"></path>
                    <path d="M104.106197,37.7137786 C103.393793,38.1248762 102.81867,39.1229586 102.820744,39.9420315 C102.82283,40.7611044 103.402113,41.0920639 104.114517,40.6809664 C104.82692,40.2698688 105.403083,39.2717864 105.401009,38.4527135 C105.397883,37.6325999 104.8186,37.3016403 104.106197,37.7137786 Z M118.720352,176.899967 C118.845153,176.874989 118.962673,176.8625 119.067714,176.8625 C119.272595,176.8625 119.431716,176.909333 119.510756,176.997797 C119.628277,177.129973 119.628277,177.42971 119.511796,177.778362 C119.156114,178.847216 117.871708,179.980597 116.762022,180.204359 C116.3949,180.278252 116.092258,180.240785 115.973698,180.105487 C115.857217,179.973311 115.856177,179.673574 115.972658,179.324922 C116.33354,178.239416 117.592986,177.127892 118.720352,176.899967 Z" id="Shape" fill="#FFFFFF" fill-rule="nonzero"></path>
                    <path d="M114.746491,181.192033 C115.143773,181.641639 115.736577,181.879971 116.42506,181.879971 C116.637221,181.879971 116.858742,181.857075 117.086503,181.811282 C118.776512,181.469915 120.524761,179.926477 121.066604,178.296658 C121.375486,177.368306 121.255885,176.499277 120.737962,175.912292 C120.21796,175.323225 119.364115,175.097382 118.39795,175.293044 C116.708982,175.634411 114.961773,177.177848 114.41889,178.807668 C114.108968,179.73706 114.228569,180.606089 114.746491,181.192033 Z M115.971618,179.325963 C116.33354,178.238375 117.591946,177.127892 118.720352,176.899967 C118.845153,176.874989 118.962673,176.8625 119.067714,176.8625 C119.272595,176.8625 119.431716,176.909333 119.510756,176.997797 C119.628277,177.129973 119.628277,177.42971 119.511796,177.778362 C119.156114,178.847216 117.871708,179.980597 116.762022,180.204359 C116.3949,180.278252 116.092258,180.240785 115.973698,180.105487 C115.856177,179.974352 115.855137,179.674615 115.971618,179.325963 Z" id="Shape" fill="#000000" fill-rule="nonzero"></path>
                    <g id="Group" transform="translate(76.662535, 26.772339)">
                        <polygon id="Path" fill="#FFFFFF" fill-rule="nonzero" points="30.7123982 74.8103905 1.73368893 58.0677916 1.73368893 42.7936956 30.7123982 72.4093726"></polygon>
                        <rect id="Rectangle" x="33.591133" y="25.206005" width="1" height="42.1879772"></rect>
                        <polygon id="Rectangle" transform="translate(50.534937, 36.540951) rotate(-44.398000) translate(-50.534937, -36.540951) " points="50.4924982 15.4544011 50.5925334 15.4543652 50.5773767 57.6275009 50.4773415 57.6275368"></polygon>
                        <polygon id="Path" points="34.7829792 29.2129054 59.7805479 54.7602775 59.7805479 54.7602775"></polygon>
                        <rect id="Rectangle" x="60.4128712" y="56.3984232" width="1" height="2.25114946"></rect>
                        <polygon id="Path" points="1.73368893 58.0677916 30.7123982 74.8103905 30.7123982 72.4093726 1.73368893 42.7936956"></polygon>
                        <polygon id="Path" points="88.1206939 38.3861053 88.1206939 38.3861053 74.9885462 24.965591"></polygon>
                        <polygon id="Path" points="7.40171812 37.8397098 25.7307725 56.5711883"></polygon>
                        <polygon id="Path" points="13.9443918 35.7998332 12.8565462 34.6872679 12.8565462 34.6872679"></polygon>
                        <polygon id="Path" points="83.9440324 24.5388821 94.1080047 34.9266412 94.1080047 34.9266412"></polygon>
                        <rect id="Rectangle" x="56.4764509" y="11.9842747" width="1" height="42.1879772"></rect>
                        <polygon id="Path" fill="#FFFFFF" fill-rule="nonzero" points="58.626142 8.24276642 53.1713139 11.3952083 82.6658658 41.5385471 88.1206939 38.3861053 74.9885462 24.965591"></polygon>
                        <polygon id="Path" fill="#FFFFFF" fill-rule="nonzero" points="83.292989 45.4288831 88.7405371 42.2806042 88.7405371 40.0315363 83.292989 43.1787744"></polygon>
                        <polygon id="Path" fill="#FFFFFF" fill-rule="nonzero" points="7.40171812 37.8397098 25.7307725 56.5711883 36.89523 67.9830486 42.3510981 64.8306068 13.9443918 35.7998332 12.8565462 34.6872679"></polygon>
                        <polygon id="Path" fill="#FFFFFF" fill-rule="nonzero" points="37.5317133 71.8713031 42.9803014 68.7230242 42.9803014 66.470834 37.5317133 69.6180721"></polygon>
                        <polygon id="Path" fill="#FFFFFF" fill-rule="nonzero" points="76.6785549 44.9980112 47.184003 14.8546724 41.7291749 18.0060735 71.2237268 48.1494123"></polygon>
                        <polygon id="Path" fill="#FFFFFF" fill-rule="nonzero" points="71.84461 52.0439113 77.2921581 48.8956324 77.2921581 46.6455237 71.84461 49.7927618"></polygon>
                        <polygon id="Path" fill="#FFFFFF" fill-rule="nonzero" points="98.830669 32.1988267 69.3371571 2.05548784 64.6134528 4.78434308 83.9440324 24.5388821 94.1080047 34.9266412"></polygon>
                        <polygon id="Path" fill="#FFFFFF" fill-rule="nonzero" points="94.741368 36.5637462 94.741368 38.8128141 99.3225916 36.1661784 99.3225916 33.9171104"></polygon>
                        <polygon id="Path" fill="#FFFFFF" fill-rule="nonzero" points="65.236416 51.6088764 35.7418641 21.4655375 30.285996 24.6169386 34.7829792 29.2129054 59.7805479 54.7602775"></polygon>
                        <polygon id="Path" fill="#FFFFFF" fill-rule="nonzero" points="60.4128712 58.6495727 65.8604192 55.5012939 65.8604192 53.2511852 60.4128712 56.3984232"></polygon>
                        <polygon id="Path" fill="#FFFFFF" fill-rule="nonzero" points="53.7932371 58.2197416 24.2986852 28.0764027 18.8438571 31.2278038 48.338409 61.3711427"></polygon>
                        <polygon id="Path" fill="#FFFFFF" fill-rule="nonzero" points="48.9644922 65.2646009 54.4120403 62.1173628 54.4120403 59.8651726 48.9644922 63.0124107"></polygon>
                        <path d="M100.622598,31.6638795 C100.611158,31.6565942 100.597638,31.6545127 100.585158,31.6482682 L69.6179586,0 L0.697843594,39.8192226 C0.643763316,39.8296301 0.590723043,39.8442007 0.538722775,39.8650158 C0.212161093,39.9982322 0,40.315662 0,40.6684773 L0,58.5683939 C0,58.8785384 0.165360852,59.1647456 0.433682234,59.3198179 L31.1460804,77.0636215 C31.2802411,77.1406372 31.4300019,77.1801858 31.5797627,77.1801858 C31.7295234,77.1801858 31.8792842,77.141678 32.0134449,77.0636215 L100.623638,37.4182047 C100.89196,37.2631324 101.057321,36.9769253 101.057321,36.6667808 L101.057321,32.4153034 C101.056281,32.1051589 100.89092,31.8189517 100.622598,31.6638795 Z M94.741368,38.8128141 L94.741368,36.5637462 L99.3225916,33.9171104 L99.3225916,36.1661784 L94.741368,38.8128141 Z M88.1206939,38.3861053 L82.6658658,41.5375064 L53.1713139,11.3941675 L58.626142,8.24276642 L74.9885462,24.965591 L88.1206939,38.3861053 L88.1206939,38.3861053 Z M77.2921581,48.8956324 L71.84461,52.0439113 L71.84461,49.7927618 L77.2921581,46.6455237 L77.2921581,48.8956324 Z M13.9443918,35.7998332 L42.3510981,64.8306068 L36.89627,67.9820079 L25.7307725,56.5711883 L7.40171812,37.838669 L7.40171812,37.838669 L12.8565462,34.6872679 L12.8565462,34.6872679 L13.9443918,35.7998332 Z M30.7123982,74.8103905 L1.73368893,58.0677916 L1.73368893,42.7936956 L30.7123982,72.4093726 L30.7123982,74.8103905 Z M42.9803014,68.7230242 L37.5327533,71.8713031 L37.5327533,69.6180721 L42.9803014,66.470834 L42.9803014,68.7230242 Z M18.8438571,31.2278038 L18.8438571,31.2278038 L24.2986852,28.0764027 L53.7932371,58.2197416 L48.338409,61.3711427 L48.338409,61.3711427 L18.8438571,31.2278038 Z M54.4120403,62.1173628 L48.9644922,65.2656417 L48.9644922,63.0134514 L54.4120403,59.8662134 L54.4120403,62.1173628 Z M34.7829792,29.2129054 L30.285996,24.6169386 L35.7408241,21.4655375 L35.7408241,21.4655375 L65.235376,51.6088764 L65.235376,51.6088764 L59.7805479,54.7602775 L59.7805479,54.7602775 L34.7829792,29.2129054 Z M65.8604192,55.5012939 L60.4128712,58.6495727 L60.4128712,58.6495727 L60.4128712,56.3984232 L60.4128712,56.3984232 L65.8604192,53.2511852 L65.8604192,55.5012939 Z M41.7291749,18.0060735 L41.7291749,18.0060735 L47.184003,14.8546724 L76.6785549,44.9980112 L71.2237268,48.1494123 L71.2237268,48.1494123 L41.7291749,18.0060735 Z M88.7405371,42.2806042 L83.292989,45.4288831 L83.292989,43.1787744 L88.7405371,40.0315363 L88.7405371,42.2806042 Z M83.9440324,24.5388821 L64.6134528,4.78330233 L69.3361171,2.05444708 L98.830669,32.1977859 L94.1080047,34.9266412 L94.1080047,34.9266412 L83.9440324,24.5388821 Z" id="Shape" fill="#000000" fill-rule="nonzero"></path>
                    </g>
                    <g id="Group" transform="translate(167.598524, 66.974559)" fill-rule="nonzero">
                        <polygon id="Rectangle" fill="#FFFFFF" transform="translate(22.468599, 14.532989) rotate(-14.662000) translate(-22.468599, -14.532989) " points="3.48693054 6.67015993 41.4530354 6.66347384 41.4502666 22.3958176 3.4841617 22.4025037"></polygon>
                        <path d="M11.6064598,27.303123 L39.1489216,20.0927839 C39.1499616,20.0927839 39.1510017,20.0917431 39.1530817,20.0917431 L44.9386315,18.577447 L40.0828465,0 L0,10.4928751 L4.85578501,29.0703222 L11.6064598,27.303123 C11.6054198,27.3041638 11.6054198,27.3041638 11.6064598,27.303123 C11.6064598,27.3041638 11.6064598,27.303123 11.6064598,27.303123 Z M9.23524757,22.1919834 C7.52131874,21.4447225 5.71378943,21.991118 4.88386515,22.3283221 L3.51521811,17.0933328 C5.41218788,16.5386113 6.6778744,15.5603031 7.27899749,14.1823457 C7.89260065,12.7752472 7.63467932,11.3067442 7.33723779,10.3659032 L33.0804904,3.62702537 C33.6452133,5.40983584 34.5999382,6.60566142 35.924905,7.18432027 C36.5541083,7.45907915 37.1968316,7.55899147 37.7989947,7.55899147 C38.7547596,7.55899147 39.606524,7.30712917 40.1452468,7.10001925 L41.4223734,11.9853154 C39.6210841,12.548363 38.4136379,13.5079375 37.8312349,14.8442648 C37.2186717,16.2513633 37.475553,17.7198663 37.7729946,18.6607073 L11.9673416,25.4162372 C11.3932587,23.8176401 10.477014,22.7342159 9.23524757,22.1919834 Z M39.4546832,18.2204686 C39.2342021,17.5616718 39.0074809,16.4865736 39.421403,15.5374065 C39.7854049,14.7006409 40.6080492,14.0741074 41.8633356,13.6671728 L42.8232606,17.3389506 L39.4546832,18.2204686 Z M39.7032445,5.40775433 C39.1790818,5.63255705 37.8000347,6.11442585 36.6102686,5.58988616 C35.7865843,5.22666325 35.1667411,4.41799791 34.760099,3.18678671 L38.8431601,2.11793304 L39.7032445,5.40775433 Z M5.65658913,10.8061419 C5.87707027,11.4649387 6.10483144,12.5400369 5.68986931,13.489204 C5.30922735,14.362396 4.4262628,15.0055816 3.07529584,15.4114754 L2.11329088,11.7334531 L5.65658913,10.8061419 Z M5.32794744,24.0257907 C5.70962941,23.8478219 7.24571732,23.2119216 8.55092404,23.7864175 C9.29764789,24.1152955 9.87485086,24.8146818 10.2794129,25.8585574 L6.09443139,26.9544706 L5.32794744,24.0257907 Z" id="Shape" fill="#000000"></path>
                        <path d="M23.4396407,20.193737 C22.5077959,20.193737 21.5697111,19.8409216 20.7241867,19.1602689 C19.6706613,18.3120549 18.8802572,17.0381729 18.4975353,15.5748737 C17.6832111,12.4598989 18.9936178,9.4094509 21.4178703,8.77355062 C23.8431628,8.13765033 26.4785364,10.1567118 27.2928606,13.2727273 L27.2928606,13.2727273 C27.6755825,14.7360265 27.6090222,16.2336705 27.1056596,17.4898598 C26.5658968,18.8355539 25.5955718,19.7534983 24.3714855,20.0740503 C24.0646839,20.1541883 23.7526823,20.193737 23.4396407,20.193737 Z M22.334115,10.3919221 C22.1729142,10.3919221 22.0137934,10.4116964 21.8567526,10.4522857 C20.382025,10.8384052 19.611381,12.9833979 20.1740239,15.1356758 C20.4631454,16.2419966 21.0445084,17.1911636 21.8109923,17.8083303 C22.5015559,18.3640926 23.2555598,18.5722433 23.9326033,18.3953152 C24.6106868,18.2173464 25.1660496,17.6667879 25.4957313,16.843552 C25.8618132,15.9297706 25.9044534,14.818246 25.6153319,13.7119252 C25.1130093,11.788613 23.685082,10.3919221 22.334115,10.3919221 Z M11.1873376,18.3568073 C10.8025356,18.3568073 10.4510138,18.0987005 10.3490933,17.708418 C10.2284527,17.2452828 10.5050941,16.7706992 10.9678965,16.6499719 L15.7727212,15.3927418 C16.2355236,15.2730552 16.7097661,15.5488548 16.8304067,16.0119901 C16.9510473,16.4751253 16.6744059,16.9497088 16.2116035,17.0704362 L11.4067788,18.3276662 C11.3339784,18.3474405 11.260138,18.3568073 11.1873376,18.3568073 Z M29.4914319,13.565179 C29.1066299,13.565179 28.7551081,13.3070721 28.6531876,12.9167896 C28.532547,12.4536544 28.8091884,11.9790709 29.2719908,11.8583435 L34.0768155,10.6011135 C34.5396179,10.4803861 35.0138603,10.7572265 35.134501,11.2203617 C35.2551416,11.6834969 34.9785002,12.1580805 34.5156978,12.2788079 L29.710873,13.5360379 C29.6380727,13.5558122 29.5642323,13.565179 29.4914319,13.565179 Z" id="Shape" fill="#000000"></path>
                    </g>
                    <g id="Group" transform="translate(138.457574, 81.694974)" fill-rule="nonzero">
                        <path d="M31.5735226,31.5972713 L54.9778032,51.4891898 C49.1464931,58.3592025 40.581009,62.3255135 31.5735226,62.3255135 C14.7285559,62.3255135 0.867364467,48.454353 0.867364467,31.5972713 C0.867364467,14.7401895 14.7285559,0.869029035 31.5735226,0.869029035 C33.8719345,0.869029035 36.1620263,1.12713586 38.4032378,1.63814575 L31.5735226,31.5972713 Z" id="Path" fill="#FFFFFF"></path>
                        <path d="M31.5735226,63.192461 C23.1952395,63.192461 15.2818387,59.8911914 9.29036785,53.8954115 C3.299937,47.9006723 0,39.9815801 0,31.5962305 C0,23.2119216 3.29889699,15.2928295 9.29036785,9.29704954 C15.2818387,3.30126958 23.1941995,0 31.5735226,0 C33.9332948,0 36.2951469,0.266432854 38.5956388,0.790972535 C39.0626012,0.897129375 39.3538027,1.36234612 39.2477222,1.82964436 L32.5355276,31.2746377 L55.5383661,50.8262299 C55.9034079,51.1363744 55.9481282,51.6838106 55.6371666,52.0491151 C49.6290556,59.1314415 40.8576504,63.192461 31.5735226,63.192461 Z M31.5735226,1.73597656 C23.6580419,1.73597656 16.1804033,4.85719582 10.5165342,10.5251385 C4.853705,16.1920404 1.73368893,23.6760976 1.73368893,31.5972713 C1.73368893,39.5184449 4.85266499,47.0014614 10.5165342,52.669404 C16.1804033,58.336306 23.6580419,61.458566 31.5735226,61.458566 C40.0578863,61.458566 48.0898477,57.8700485 53.7464368,51.5807761 L31.0119197,32.2581496 C30.7654385,32.0489582 30.6562379,31.7200802 30.7279983,31.4047319 L37.3621924,2.30422788 C35.4589826,1.92747518 33.5152126,1.73597656 31.5735226,1.73597656 Z" id="Shape" fill="#000000"></path>
                        <path d="M45.618795,2.64663573 L35.2405815,29.0859335 L63.4413668,25.8554351 C62.712323,20.7869664 60.6905526,15.9838897 57.5663765,11.9155849 C54.4422004,7.8483209 50.3248192,4.65633042 45.618795,2.64663573 Z" id="Path" fill="#FFFFFF"></path>
                        <path d="M65.2748962,26.518395 C64.6228128,20.8213112 62.4336016,15.4062716 58.9412636,10.8592203 C55.4489256,6.31216898 50.7845016,2.80066723 45.4503141,0.703549255 C45.0041518,0.527661941 44.5018292,0.748301648 44.3271083,1.19374408 L33.1002505,29.7946865 C32.9889699,30.0777714 33.0347301,30.3993642 33.2198511,30.6397782 C33.385212,30.8541734 33.6400133,30.9790638 33.9072946,30.9790638 C33.9395348,30.9790638 33.972815,30.9769823 34.0060952,30.97386 L64.5136123,27.4800511 C64.7424135,27.4540322 64.9504145,27.3385086 65.0939353,27.1574175 C65.235376,26.9763265 65.3008963,26.7473607 65.2748962,26.518395 Z M35.2405815,29.0859335 L45.618795,2.64663573 C50.3248192,4.65633042 54.4422004,7.84728015 57.5663765,11.9155849 C60.6905526,15.9838897 62.712323,20.7859256 63.4413668,25.8554351 L35.2405815,29.0859335 Z" id="Shape" fill="#000000"></path>
                        <g transform="translate(34.422168, 29.684120)">
                            <path d="M30.7008879,1.7757719 L3.68570877,3.06838754 L26.6500671,17.3662569 C29.3062407,12.804635 30.7060879,7.62688715 30.7060879,2.33465644 C30.7060879,2.14836159 30.7040079,1.96206675 30.7008879,1.7757719 Z" id="Path" fill="#FFFFFF"></path>
                            <path d="M32.4033767,0.825564105 C32.3804966,0.346817571 31.9832145,-0.0247313701 31.496492,0.00128746328 L0.82569404,1.46874967 C0.44713209,1.48644247 0.123690425,1.74975307 0.0280099317,2.11713899 C-0.0676705611,2.48452492 0.0872902371,2.87168516 0.408651892,3.0715098 L26.4805462,19.3041396 C26.6230269,19.3926036 26.7811077,19.4352745 26.9371085,19.4352745 C27.22623,19.4352745 27.5091115,19.2906098 27.6734323,19.0262584 C30.7913684,14.0129496 32.438797,8.24093162 32.438797,2.33569719 C32.4397769,1.83197258 32.4272968,1.32408495 32.4033767,0.825564105 Z M3.68570877,3.06838754 L30.7008879,1.7757719 C30.7050479,1.96206675 30.7060879,2.14836159 30.7060879,2.33465644 C30.7060879,7.6258464 29.3062407,12.804635 26.6500671,17.3662569 L3.68570877,3.06838754 Z" id="Shape" fill="#000000"></path>
                        </g>
                    </g>
                    <g id="Group" transform="translate(91.220157, 118.265104)" fill-rule="nonzero">
                        <path d="M63.6091807,9.27505414 C63.3626995,9.29066544 63.1162182,9.17618258 62.9477373,8.98884698 C62.7792565,8.80151138 62.700216,8.55068982 62.7303762,8.30090902 L63.4490199,2.49350541 L8.57729728,34.3603318 L18.1495066,33.397635 C18.1786267,33.3945127 18.2077469,33.3934719 18.235827,33.3934719 C18.4802283,33.3934719 18.7152695,33.4975473 18.8806303,33.6807199 C19.0657513,33.8857483 19.1406317,34.1677924 19.0844714,34.4383883 L17.640944,41.3427459 L73.4476314,9.06378122 L63.6091807,9.27505414 Z" id="Path" fill="#FFFFFF"></path>
                        <path d="M77.637813,7.89189296 C77.5327724,7.51618101 77.1916507,7.25807418 76.8037287,7.25807418 C76.7974887,7.25807418 76.7912486,7.25807418 76.7850086,7.25807418 L64.5743057,7.51930327 L65.3844699,0.97400554 C65.4250301,0.647208993 65.2763093,0.325616213 65.0017479,0.143484379 C64.7271865,-0.0376067015 64.3735847,-0.0480142349 64.0886232,0.116424792 L4.23735493,34.8744639 C3.88479311,35.0794923 3.72255227,35.5030789 3.84735292,35.8912799 C3.97319357,36.2805217 4.35591554,36.5261395 4.75839761,36.4876316 L17.1438214,35.2418499 L15.5453332,42.8872239 C15.4756528,43.2223464 15.6087735,43.5668358 15.8854149,43.7677012 C16.0362157,43.8769803 16.2150966,43.9321402 16.3939775,43.9321402 C16.5437383,43.9321402 16.6934991,43.8936323 16.8276598,43.8155758 L77.2363709,8.87540486 C77.5795727,8.67870248 77.7438935,8.27280868 77.637813,7.89189296 Z M19.0834314,34.4383883 C19.1395917,34.1677924 19.0647113,33.886789 18.8795903,33.6807199 C18.7142295,33.4965065 18.4802283,33.3934719 18.234787,33.3934719 C18.2056669,33.3934719 18.1765467,33.3945127 18.1484666,33.397635 L8.57625727,34.3603318 L63.4479799,2.49350541 L62.7293362,8.30090902 C62.698136,8.55068982 62.7771764,8.80255213 62.9466973,8.98884698 C63.1162182,9.17514182 63.3616595,9.29066544 63.6081407,9.27505414 L73.4465914,9.06482197 L17.639904,41.3437867 L19.0834314,34.4383883 Z" id="Shape" fill="#000000"></path>
                        <path d="M15.5463732,42.8882646 L17.1427814,35.2564204 L5.49576141,36.4158196 L1.76422219,102.64624 L17.6950242,111.789258 L15.5286931,43.093293 C15.5255731,43.0246033 15.5318131,42.9559136 15.5463732,42.8882646 Z" id="Path" fill="#FFFFFF"></path>
                        <path d="M17.263422,43.1422084 L19.0813514,34.4529588 C19.1375117,34.182363 19.0626313,33.9013596 18.8775103,33.6952904 C18.6934294,33.4892212 18.421988,33.3851459 18.1463866,33.4122055 L4.58471672,34.7620626 C4.15935452,34.8047335 3.82967283,35.1502636 3.8047127,35.5759317 L0.00141310875,103.082315 C-0.0173069877,103.410153 0.15117388,103.720297 0.435095342,103.883695 L18.1765467,114.066426 C18.3096674,114.143442 18.4594282,114.180909 18.6081489,114.180909 C18.7631097,114.180909 18.9170305,114.139279 19.0543112,114.057059 C19.3236726,113.894702 19.4838335,113.600168 19.4744734,113.285861 L17.263422,43.1422084 Z M1.76422219,102.64624 L5.49576141,36.4158196 L17.1427814,35.2564204 L15.5463732,42.8882646 C15.5318131,42.9559136 15.5266131,43.0246033 15.5286931,43.093293 L17.6950242,111.789258 L1.76422219,102.64624 Z" id="Shape" fill="#000000"></path>
                        <polygon id="Path" fill="#000000" points="0.871897592 103.134353 14.0726856 97.9607681 16.3939775 43.0651927 18.610229 113.315002"></polygon>
                        <polygon id="Path" fill="#000000" points="62.7927765 8.51842647 62.8426968 15.48627 74.4345965 8.78902234"></polygon>
                        <polygon id="Path" fill="#FFFFFF" points="17.2769421 43.557469 19.4318332 111.844418 78.8702193 77.7014637 75.9977245 9.59352466"></polygon>
                        <path d="M77.6690131,8.08859534 C77.6565331,7.78573612 77.4859722,7.51097724 77.2207708,7.36527177 C76.9545295,7.21956631 76.6321278,7.22268857 76.3700465,7.37463855 L15.9613353,42.3148095 C15.6846939,42.4750855 15.518293,42.7737817 15.5282326,43.093293 L17.7449445,113.343102 C17.7543045,113.647002 17.9227854,113.924884 18.1890268,114.07267 C18.3200675,114.146564 18.4656682,114.18299 18.611269,114.18299 C18.7599897,114.18299 18.9087105,114.144482 19.0428712,114.067467 L80.1910261,78.9430824 C80.4718276,78.7817656 80.6392684,78.4778657 80.6257484,78.1541914 L77.6690131,8.08859534 Z M19.4318332,111.844418 L17.2769421,43.557469 L75.9977245,9.59352466 L78.8712593,77.7014637 L19.4318332,111.844418 Z" id="Shape" fill="#000000"></path>
                        <path d="M57.8953913,25.5597216 C58.0701122,26.309064 57.7289904,27.237416 57.1351474,27.6349837 C56.5413043,28.0315108 55.9173011,27.7463443 55.7436202,26.9970019 C55.5688993,26.2476595 55.9089811,25.3193076 56.5038641,24.9217398 C57.0987472,24.5252128 57.7217104,24.8103792 57.8953913,25.5597216 Z M40.2371403,36.3315186 C40.4118612,37.080861 40.0707395,38.009213 39.4768964,38.40574 C38.8830534,38.802267 38.2590502,38.5171006 38.0853693,37.7677582 C37.9106484,37.0184158 38.2507301,36.0900638 38.8456132,35.6924961 C39.4404962,35.2970098 40.0634595,35.5821762 40.2371403,36.3315186 Z" id="Shape" fill="#000000"></path>
                        <path d="M49.5659884,51.1809872 C48.5863034,51.1809872 47.6232584,50.9405732 46.6851736,50.4607859 C41.2792257,47.6944635 38.5627317,37.7125983 38.4504111,37.2900524 C38.3266505,36.8269172 38.6012119,36.3523337 39.0640143,36.228484 C39.5268167,36.1056751 40.0010591,36.3793933 40.1248198,36.8425285 C40.1508199,36.9393186 42.7549933,46.5028009 47.4755776,48.9173487 C48.719424,49.553249 49.9736705,49.6156942 51.3069574,49.105725 C54.4872937,47.8922067 56.666105,45.8616969 57.7841107,43.072478 C60.5203648,36.2451361 56.1877025,26.9689016 56.1429823,26.8762746 C55.9381012,26.4433212 56.1211422,25.9260668 56.5537844,25.7210383 C56.9853866,25.5170507 57.5022693,25.6991825 57.7081903,26.1310952 C57.9016313,26.5380297 62.4121346,36.1754056 59.395079,43.7125413 C58.0898723,46.9721807 55.5772194,49.3315685 51.9247205,50.726178 C51.1311965,51.030078 50.3428724,51.1809872 49.5659884,51.1809872 Z" id="Path" fill="#000000"></path>
                    </g>
                    <line x1="87.6616319" y1="122.442548" x2="116.545701" y2="109.102172" id="Path" fill="#FFFFFF" fill-rule="nonzero"></line>
                    <path d="M87.6626719,123.310537 C87.3350702,123.310537 87.0209886,123.123201 86.8753879,122.806812 C86.6746668,122.371777 86.8639478,121.856604 87.2986701,121.655739 L116.182739,108.315363 C116.616421,108.113456 117.132264,108.303914 117.332985,108.738949 C117.533706,109.173984 117.344425,109.689157 116.909703,109.890022 L88.0256338,123.230399 C87.9070732,123.284518 87.7843526,123.310537 87.6626719,123.310537 Z M114.608171,125.418062 C114.40745,124.983027 113.891607,124.792569 113.457925,124.994476 L87.2976301,137.076581 C86.8629078,137.277446 86.6736268,137.792619 86.8743479,138.227654 C87.0209886,138.545084 87.3340302,138.731379 87.6616319,138.731379 C87.7833126,138.731379 87.9070732,138.70536 88.0245938,138.651241 L114.184889,126.569135 C114.619611,126.36827 114.808892,125.853097 114.608171,125.418062 Z M107.644295,121.423651 C107.443574,120.988616 106.927731,120.798158 106.494049,121.000064 L87.2986701,129.866242 C86.8639478,130.067107 86.6746668,130.58228 86.8753879,131.017315 C87.0220286,131.334745 87.3350702,131.52104 87.6626719,131.52104 C87.7843526,131.52104 87.9081132,131.495021 88.0256338,131.440902 L107.221013,122.574724 C107.654695,122.373859 107.845016,121.858686 107.644295,121.423651 Z M226.369226,69.3818211 C224.697938,69.3818211 223.603852,68.6897201 222.893528,67.8789733 C221.34184,66.1044888 220.911278,62.7990563 221.655922,58.6537357 C219.846313,58.3862621 217.778782,58.1281553 215.41797,57.8877413 C206.248243,56.9531448 197.154436,56.7408311 197.063955,56.7387496 C196.611553,56.7283421 196.253791,56.3536708 196.262972,55.9009431 C196.272511,55.4482154 196.655233,55.1006038 197.100356,55.0995631 C197.191876,55.1016446 206.341843,55.314999 215.575011,56.25584 C217.990943,56.5024986 220.117754,56.7658092 221.993924,57.0416088 C222.011604,56.9697968 222.029284,56.8969441 222.046964,56.8240914 C223.21385,52.1094787 225.587142,47.2762203 228.395157,43.8958534 C228.96092,43.21416 229.574523,42.6459087 230.227646,42.1921402 C230.073725,41.9798265 229.921885,41.7643906 229.774204,41.5468731 C227.258431,37.8646878 225.763943,33.8733988 225.675543,30.5991888 C225.597542,27.707976 226.646908,25.5161495 228.631238,24.4264808 C229.02748,24.2089633 229.525643,24.353628 229.743004,24.7511958 C229.960365,25.1477228 229.815804,25.6462437 229.418522,25.8637611 C227.600593,26.8618436 227.269871,28.9662468 227.312511,30.5544364 C227.398832,33.7360194 228.99836,37.7647755 231.671174,41.3980454 C234.305507,40.3021322 237.394323,40.813142 240.464419,42.9675015 C243.560515,45.1395537 246.244769,48.8685729 245.147563,50.7440104 C244.440359,51.9533657 242.717071,51.9106949 240.026577,50.6170385 C236.79112,49.062153 233.730384,46.5747525 231.228131,43.4962041 C230.575008,43.9406058 230.051885,44.4661863 229.654603,44.943892 C226.808109,48.3710928 224.648017,53.0565643 223.604892,57.2934711 C233.658624,58.9441059 235.510873,60.9798194 235.923756,62.4764227 C236.537359,64.7015534 233.820865,66.4083888 232.9275,66.9693549 C230.101806,68.7459208 227.970835,69.3818211 226.369226,69.3818211 Z M223.25961,58.9035165 C222.630407,62.3494508 222.833208,65.3208016 224.125935,66.7997121 C225.883544,68.8094068 229.410202,67.2461953 232.058056,65.5820307 C233.719984,64.5371143 234.533268,63.5900288 234.346067,62.9124984 C234.177587,62.3026169 232.83494,60.4812986 223.25961,58.9035165 Z M232.728859,42.745821 C234.90039,45.3466636 237.630404,47.6467284 240.7369,49.1402095 C243.146593,50.2975272 243.732116,49.9207745 243.735236,49.9166115 C244.062837,49.3556454 242.59331,46.4623512 239.525294,44.3100733 C236.69336,42.3222344 234.433428,42.1775697 232.728859,42.745821 Z M57.4973166,214.438899 C57.4453163,214.438899 57.391236,214.433695 57.3381957,214.423287 C56.8941135,214.335864 56.606032,213.903952 56.6933924,213.460591 C58.1129997,206.266904 53.3705753,197.608877 48.1622285,193.712296 C47.9240673,193.534327 47.6505458,193.340747 47.3489443,193.148208 C46.0302175,201.654285 43.7775659,208.803219 41.5592345,211.106407 C40.6336297,212.067022 39.8338656,212.03684 39.324263,211.841178 C38.4173783,211.493567 37.1860119,210.256111 36.9509707,203.546374 C36.7835299,198.75995 37.3576128,192.648646 41.0496318,190.715967 C42.4858792,189.964543 44.1966881,189.951013 46.0395775,190.643114 C47.5673454,178.869072 47.3312642,164.109108 42.4837992,152.729511 C39.9742663,146.837807 37.3742529,143.856048 34.9354404,144.088136 C28.661088,144.704262 23.1012194,164.768946 21.4892111,172.448665 C21.3956106,172.892026 20.9608884,173.17511 20.5188861,173.082483 C20.0758438,172.988816 19.7929624,172.554821 19.8855228,172.111461 C19.9000829,172.040689 21.4049707,164.928181 23.9051435,157.809428 C27.3527613,147.993043 31.0094201,142.827784 34.7752795,142.458317 C38.0783365,142.13152 41.0922721,145.283962 43.990767,152.088407 C49.3613547,164.696093 48.8299119,179.859869 48.0343078,187.77688 C47.9115872,188.995602 47.7680664,190.201835 47.6058256,191.387253 C48.1123082,191.675542 48.6250309,192.013787 49.1419135,192.399906 C54.7475424,196.593101 59.8425286,205.958841 58.2991607,213.77802 C58.2222003,214.169344 57.8800385,214.438899 57.4973166,214.438899 Z M43.4749243,191.775454 C42.9050014,191.775454 42.3413185,191.890978 41.8088358,192.1699 C39.517704,193.368847 38.3736981,197.389278 38.5879392,203.490174 C38.8084203,209.779446 39.9004259,210.308149 39.911866,210.312312 C39.908746,210.311271 40.2727478,210.263396 40.9373113,209.250743 C42.7126004,206.544785 44.6459704,200.209719 45.8086964,192.318727 C45.0671725,191.999216 44.2663684,191.775454 43.4749243,191.775454 Z" id="Shape" fill="#000000" fill-rule="nonzero"></path>
                    <g id="Group" transform="translate(150.218317, 148.616030)" fill-rule="nonzero">
                        <polygon id="Path" fill="#FFFFFF" points="14.4879516 22.4224141 15.9418791 75.7110664 42.5327361 60.4338482 39.8339222 8.07354785"></polygon>
                        <path d="M41.4927307,6.58318907 C41.4771306,6.28345211 41.3076097,6.01285625 41.0444884,5.86715078 C40.781367,5.72248607 40.4620854,5.72456757 40.200004,5.87235455 L13.1806649,21.1693471 C12.9019434,21.3275416 12.7324226,21.6272785 12.7404498,21.9478306 L14.2477104,77.2097512 C14.2560304,77.5146919 14.4245113,77.792573 14.6897126,77.9424415 C14.8217933,78.016335 14.9673941,78.0538021 15.1140348,78.0538021 C15.2627556,78.0538021 15.4114764,78.0152942 15.5456371,77.9382785 L43.8566629,61.6723446 C44.1395443,61.5099871 44.3069852,61.2019241 44.2903451,60.8751276 L41.4927307,6.58318907 Z M15.9418791,75.7110664 L14.4879516,22.4224141 L39.8328822,8.07354785 L42.5316961,60.4338482 L15.9418791,75.7110664 Z" id="Shape" fill="#000000"></path>
                        <path d="M12.7584227,21.7511282 L13.9013886,16.1466715 L4.98542267,17.0781457 L1.76452608,68.5756615 L14.2123502,75.6777623 L12.7407426,21.9478306 C12.7397026,21.8822631 12.7449026,21.8156549 12.7584227,21.7511282 Z" id="Path" fill="#FFFFFF"></path>
                        <path d="M14.4775516,22.000909 L15.8368386,15.3348839 C15.8919588,15.064288 15.8149984,14.7832846 15.6298775,14.5792969 C15.4447565,14.3753093 15.1743551,14.2691525 14.8977137,14.2993343 L4.07645798,15.4295924 C3.65525581,15.4733041 3.32765413,15.8157119 3.30165399,16.2382578 L0.00171699604,69.0075741 C-0.0190831111,69.3374929 0.150437762,69.6518004 0.43747924,69.8151987 L14.6928327,77.9476453 C14.8259534,78.0236203 14.9736341,78.0610874 15.1223549,78.0610874 C15.2762757,78.0610874 15.4312365,78.0194573 15.5674772,77.9372377 C15.8357986,77.775921 15.9969994,77.4824285 15.9886793,77.1691618 L14.4775516,22.000909 Z M1.76452608,68.5767022 L4.98542267,17.0791865 L13.9013886,16.1477122 L12.7584227,21.7521689 C12.7449026,21.8166956 12.7397026,21.8833039 12.7407426,21.9488713 L14.2123502,75.678803 L1.76452608,68.5767022 Z" id="Shape" fill="#000000"></path>
                        <polygon id="Path" fill="#000000" points="0.869081464 69.0606525 15.1150748 77.1868546 13.8847485 32.2044547 11.4188958 65.0860156"></polygon>
                        <path d="M29.5711493,7.1379106 C29.4078685,6.95161575 29.3319481,6.70495721 29.3621082,6.45933943 L29.8498707,2.48678395 L8.13351888,15.0060058 L14.8987537,14.2993343 C14.9289139,14.296212 14.959074,14.2941305 14.9892342,14.2941305 C15.2325954,14.2941305 15.4655566,14.3961244 15.6309175,14.5782562 C15.8160384,14.7832846 15.8929988,15.064288 15.8378786,15.3348839 L14.8373934,20.2305876 L37.3680695,7.47511468 L30.2159526,7.43140304 C29.9694713,7.43140304 29.7344301,7.32420545 29.5711493,7.1379106 Z" id="Path" fill="#FFFFFF"></path>
                        <path d="M41.4656906,6.40938327 C41.3668901,6.0295083 41.0247283,5.76307545 40.6316063,5.75995319 L31.2008377,5.70271175 L31.7811607,0.972487842 C31.8217209,0.645691295 31.6730001,0.325139268 31.3994787,0.144048188 C31.1259573,-0.0370428928 30.7723555,-0.0484911795 30.488434,0.115947847 L3.73325622,15.5399123 C3.37861439,15.7438999 3.21533355,16.169568 3.3411742,16.5588098 C3.46701484,16.9480515 3.84765681,17.1999138 4.2553389,17.1541207 L13.9024286,16.1466715 L12.7573827,21.7500874 C12.6897823,22.0831285 12.821863,22.4255363 13.0964244,22.625361 C13.2472252,22.7356808 13.4261061,22.7908408 13.6060271,22.7908408 C13.7526678,22.7908408 13.9003486,22.7533736 14.0324293,22.6784394 L41.0517684,7.38144688 C41.3949702,7.18890751 41.5644911,6.79029899 41.4656906,6.40938327 Z M14.8384334,20.2316283 L15.8389186,15.3359246 C15.8940389,15.0653288 15.8170785,14.7843254 15.6319575,14.5792969 C15.4665966,14.3971651 15.2325954,14.2951713 14.9902742,14.2951713 C14.960114,14.2951713 14.9299539,14.296212 14.8997937,14.3003751 L8.13455889,15.0070466 L29.8509107,2.4878247 L29.3631482,6.46038018 C29.3329881,6.70599797 29.4089085,6.95265651 29.5721893,7.13895135 C29.7354701,7.32420545 29.9705114,7.4324438 30.2180326,7.43348455 L37.3701495,7.47719619 L14.8384334,20.2316283 Z" id="Shape" fill="#000000"></path>
                        <polygon id="Path" fill="#000000" points="29.7396302 6.99012363 29.7396302 12.2833951 39.021678 7.04632431"></polygon>
                        <path d="M35.8850218,14.4492028 C35.9079019,14.2691525 35.8985419,14.0870206 35.8423816,13.9205001 C35.6645407,13.3980419 35.1320579,13.2179916 34.6526155,13.5208508 C34.173173,13.8226693 33.9287717,14.4908329 34.1066127,15.0143318 C34.1617329,15.1756486 34.2522134,15.2994983 34.362454,15.3910846 C34.9302969,17.2519515 36.3821444,22.8460007 34.6120553,26.5354713 C33.9110917,27.9956482 32.805566,28.9677118 31.2330779,29.506822 C29.3589882,30.1489668 27.6606595,30.0698696 26.1859319,29.2726525 C23.2541568,27.688626 21.9000698,23.7368855 21.5984682,22.7377623 C21.6286284,22.5462637 21.6203083,22.3516429 21.559988,22.173674 C21.3821471,21.6512159 20.8496644,21.4722063 20.3702219,21.7740248 C19.8907794,22.0758432 19.6463782,22.7440069 19.8242191,23.2675058 C19.8751794,23.418415 19.9583798,23.5370609 20.0592603,23.6276064 C20.580303,25.2064293 22.133031,29.0499313 25.3549676,30.7963154 C26.4376132,31.3833003 27.5992991,31.6767927 28.8285855,31.6767927 C29.7781104,31.6767927 30.7692355,31.5019462 31.7946807,31.1501716 C33.8039711,30.4622336 35.2786987,29.1612919 36.1783033,27.2848137 C38.3976748,22.6461761 36.3717443,15.9145835 35.8850218,14.4492028 Z" id="Path" fill="#000000"></path>
                    </g>
                </g>
                <g id="Group-76" transform="translate(88.000000, 0.000000)">
                    <path d="M73.2724915,35.3171842 C73.2724915,54.4205193 57.7861848,69.9067194 38.6834461,69.9067194 C19.5799795,69.9067194 4.09367278,54.4205193 4.09367278,35.3171842 C4.09367278,16.2138492 19.5799795,0.728376979 38.6834461,0.728376979 C57.7861848,0.728376979 73.2724915,16.2138492 73.2724915,35.3171842" id="Fill-67" fill="#FFFFFF"></path>
                    <g id="Group-71" transform="translate(3.365509, 0.000000)">
                        <mask id="mask-2" fill="white">
                            <use xlink:href="#path-1"></use>
                        </mask>
                        <g id="Clip-70"></g>
                        <path d="M35.3177186,1.45588043 C16.6459235,1.45588043 1.45589045,16.6458089 1.45589045,35.3174754 C1.45589045,53.9884139 16.6459235,69.1783424 35.3177186,69.1783424 C53.9887857,69.1783424 69.1788188,53.9884139 69.1788188,35.3174754 C69.1788188,16.6458089 53.9887857,1.45588043 35.3177186,1.45588043 M35.3177186,70.6342228 C15.8437279,70.6342228 0,54.7906041 0,35.3174754 C0,15.8436188 15.8437279,0 35.3177186,0 C54.7917093,0 70.6347092,15.8436188 70.6347092,35.3174754 C70.6347092,54.7906041 54.7917093,70.6342228 35.3177186,70.6342228" id="Fill-69" fill="#8C80F8" mask="url(#mask-2)"></path>
                    </g>
                    <path d="M68.9458763,32.0822907 C68.6947352,32.0822907 68.4683442,31.907585 68.4130204,31.6513501 C65.0593767,16.1054589 51.0646297,4.8216576 35.1357323,4.8216576 C31.5061974,4.8216576 27.9341701,5.38945097 24.5186511,6.50975096 C24.2303848,6.60365524 23.9231919,6.44787604 23.829287,6.16106759 C23.73611,5.87498709 23.8918903,5.56634044 24.1779728,5.47170821 C27.7041395,4.31573915 31.3904541,3.72974728 35.1357323,3.72974728 C51.5749193,3.72974728 66.0188085,15.3753348 69.4801881,31.421321 C69.5435193,31.7161368 69.3564374,32.0065849 69.0616196,32.0699157 C69.0230385,32.078651 68.9844574,32.0822907 68.9458763,32.0822907 M0.54595892,39.4468618 C0.244589596,39.4468618 0,39.237943 0,38.9365757 L0,38.8645097 C0,28.9623389 4.21189108,19.4678147 11.5561305,12.816625 C11.7796097,12.6142576 12.1246557,12.6310002 12.3270245,12.8544779 C12.5293932,13.0779555 12.5126505,13.4229992 12.2891713,13.6253666 C5.17350673,20.0705492 1.09191784,29.2702576 1.09191784,38.8645097 C1.09191784,39.1666049 0.847328244,39.4468618 0.54595892,39.4468618 M58.2945817,65.1031147 C58.145353,65.1031147 57.9968521,65.0419677 57.8891162,64.9225855 C57.6867475,64.6991079 57.7049461,64.3540642 57.9284253,64.1516968 C65.0783033,57.7028745 69.1788188,48.4864234 69.1788188,38.8645097 L69.1780908,38.7240172 C69.175907,38.42265 69.4183127,38.1766062 69.72041,38.1744223 L69.7240497,38.1744223 C70.0239632,38.1744223 70.2678248,38.4160985 70.2700087,38.7167378 L70.2707366,38.8645097 C70.2707366,48.7950701 66.0384631,58.3070649 58.6600102,64.9626222 C58.5559141,65.0565265 58.4248839,65.1031147 58.2945817,65.1031147 M35.1357323,74 C18.6608759,74 4.21043519,62.323839 0.775261667,46.2370882 C0.711930432,45.9422724 0.899740301,45.6525522 1.19455812,45.5892214 C1.48792004,45.5266185 1.77982608,45.7144271 1.84242937,46.0092429 C5.17132289,61.5958987 19.1726214,72.9080897 35.1357323,72.9080897 C38.740517,72.9080897 42.28925,72.3475757 45.6843866,71.2418345 C45.9726529,71.1493861 46.2791178,71.3058933 46.3730227,71.5919738 C46.4661997,71.8787822 46.3089636,72.1874289 46.0228811,72.2806052 C42.5178248,73.4212875 38.8555324,74 35.1357323,74" id="Fill-72" fill="#000000"></path>
                    <polygon id="Fill-74" fill="#8C80F8" points="55.2916621 18.3178148 31.4609192 42.1483936 22.0260211 32.7135604 15.4672346 39.2723018 31.4609192 55.2658762 61.8504486 24.8765561"></polygon>
                </g>
            </g>
        </g>
    </g>
</svg>