<?xml version="1.0" encoding="UTF-8"?>
<svg width="18px" height="20px" viewBox="0 0 18 20" version="1.1" xmlns="http://www.w3.org/2000/svg" xmlns:xlink="http://www.w3.org/1999/xlink">
    <title>C8743C66-D9C5-45EA-B50B-6966E0B29FA1</title>
    <g id="Finbal_Final" stroke="none" stroke-width="1" fill="none" fill-rule="evenodd">
        <g id="Momotaro-home-Copy-52-(1)-Copy-12" transform="translate(-55.000000, -471.000000)" fill-rule="nonzero" stroke="#2D3142" stroke-width="1.125">
            <g id="Group-12" transform="translate(32.000000, 232.000000)">
                <g id="Group-22" transform="translate(24.000000, 240.000000)">
                    <path d="M14.9572831,8.883 L14.9572831,18 L1.0434886,18 L1.0434886,8.883 C1.92420503,9.10386834 2.85263393,8.98215788 3.65232507,8.541 L3.65232507,14.9478261 L12.3484466,14.9478261 L12.3484466,8.55 C13.1494934,8.98730537 14.0775759,9.10576872 14.9572831,8.883 L14.9572831,8.883 Z" id="Path"></path>
                    <path d="M1.91310076,0 L5.39154938,0 L4.80890923,5.427 C4.6120432,6.93483146 3.38296351,8.06934364 1.91310076,8.1 C0.469544582,8.1 -0.3304986,6.957 0.130395842,5.535 L1.91310076,0 Z" id="Path"></path>
                    <path d="M6.26116153,0 L9.73961015,0 L10.3483387,5.67 C10.4961727,7.02 9.5569916,8.1 8.24387724,8.1 L7.75689444,8.1 C7.15016294,8.11628939 6.56710143,7.85613245 6.1620086,7.3883759 C5.75691576,6.92061936 5.57062412,6.29241211 5.65243302,5.67 L6.26116153,0 Z" id="Path"></path>
                    <path d="M10.6092223,0 L14.0876709,0 L15.8703758,5.535 C16.3312703,6.957 15.522531,8.1 14.0876709,8.1 C12.6163732,8.07313195 11.3852554,6.93673842 11.1918624,5.427 L10.6092223,0 Z" id="Path"></path>
                </g>
            </g>
        </g>
    </g>
</svg>