<?xml version="1.0" encoding="UTF-8"?>
<svg width="19px" height="23px" viewBox="0 0 19 23" version="1.1" xmlns="http://www.w3.org/2000/svg" xmlns:xlink="http://www.w3.org/1999/xlink">
    <title>F6A90484-AE47-40FF-9EBA-B7E2A97CF243</title>
    <defs>
        <filter x="-72.2%" y="-50.0%" width="244.4%" height="200.0%" filterUnits="objectBoundingBox" id="filter-1">
            <feOffset dx="0" dy="2" in="SourceAlpha" result="shadowOffsetOuter1"></feOffset>
            <feGaussianBlur stdDeviation="0.5" in="shadowOffsetOuter1" result="shadowBlurOuter1"></feGaussianBlur>
            <feColorMatrix values="0 0 0 0 0.956862745   0 0 0 0 0.964705882   0 0 0 0 0.980392157  0 0 0 1 0" type="matrix" in="shadowBlurOuter1" result="shadowMatrixOuter1"></feColorMatrix>
            <feMerge>
                <feMergeNode in="shadowMatrixOuter1"></feMergeNode>
                <feMergeNode in="SourceGraphic"></feMergeNode>
            </feMerge>
        </filter>
    </defs>
    <g id="Finbal_Final" stroke="none" stroke-width="1" fill="none" fill-rule="evenodd">
        <g id="Customer-Landing-Page-Copy-44" transform="translate(-137.000000, -198.000000)" fill="#35D850" fill-rule="nonzero">
            <g id="Group-34" transform="translate(24.000000, 133.000000)">
                <g id="icon" transform="translate(118.000000, 70.000000)" filter="url(#filter-1)">
                    <g id="7067441_achievment_badge_medal_icon">
                        <path d="M4.5,0 C2.58924703,0.00709758936 0.889826547,1.16625428 0.256007022,2.89478261 C-0.377812503,4.62331094 0.191082361,6.54728041 1.67671827,7.69954576 L1.67671827,12.453555 C1.67671827,12.6586445 1.79755607,12.8461318 1.98885263,12.9378506 C2.18014918,13.0295694 2.40906759,13.0097759 2.58016843,12.8867222 L4.5,11.5060019 C6.50453002,12.9462826 6.59487504,13.1303787 7.01272074,12.9354535 C7.43056643,12.7405283 7.32328173,12.7134553 7.32328173,7.69954576 C8.80891764,6.54728041 9.3778125,4.62331094 8.74399298,2.89478261 C8.11017345,1.16625428 6.41075297,0.00709758936 4.5,0 Z M1.11205975,4.33167131 C1.11040897,2.92724491 2.05006107,1.68080558 3.44131384,1.24194139 C4.83256662,0.803077197 6.36039187,1.27116232 7.22855585,2.40225187 C8.09671982,3.53334142 8.10863988,5.07131722 7.25810383,6.21465551 C6.40756778,7.35799381 4.88716668,7.84780288 3.48926514,7.4288163 C2.07633121,7.00532413 1.11373266,5.75120027 1.11205975,4.33167131 Z M6.19396904,11.3706372 C4.18379245,9.9249419 4.81056099,9.93035649 2.80603096,11.3706372 L2.80603096,8.34929646 C3.8951086,8.75810567 5.1048914,8.75810567 6.19396904,8.34929646 L6.19396904,11.3706372 Z" id="Shape"></path>
                        <path d="M3.37068731,4.91644694 L3.20129041,5.90731675 C3.18424523,6.00895937 3.22879324,6.11107662 3.3162357,6.17080547 C3.40367816,6.23053433 3.51888137,6.23753747 3.61348954,6.18887539 L4.5,5.72863531 L5.38651046,6.18887539 C5.48111863,6.23753747 5.59632184,6.23053433 5.6837643,6.17080547 C5.77120676,6.11107662 5.81575477,6.00895937 5.79870959,5.90731675 L5.62931269,4.91644694 L6.36336594,4.21255035 C6.43998853,4.1388214 6.46574513,4.02949719 6.42961807,3.93134237 C6.39349101,3.83318756 6.30187858,3.76358589 6.19396904,3.75231028 L5.18888074,3.60611637 L4.75409536,2.70729457 C4.70692215,2.61389553 4.60822277,2.55457335 4.5,2.55457335 C4.39177723,2.55457335 4.29307785,2.61389553 4.24590464,2.70729457 L3.79982613,3.59528719 L2.80603096,3.75231028 C2.70009111,3.76707245 2.61197107,3.83802094 2.57847716,3.93552172 C2.54498325,4.03302249 2.57187772,4.14030162 2.64792719,4.21255035 L3.37068731,4.91644694 Z" id="Path"></path>
                    </g>
                </g>
            </g>
        </g>
    </g>
</svg>