<?xml version="1.0" encoding="UTF-8"?>
<svg width="17px" height="18px" viewBox="0 0 17 18" version="1.1" xmlns="http://www.w3.org/2000/svg" xmlns:xlink="http://www.w3.org/1999/xlink">
    <title>8DFABB76-EF56-4674-ABFA-E926B31F92E3</title>
    <g id="Finbal_Final" stroke="none" stroke-width="1" fill="none" fill-rule="evenodd">
        <g id="Momotaro-home-Copy-88" transform="translate(-314.000000, -688.000000)" fill="#2D3142" fill-rule="nonzero">
            <g id="Group-5" transform="translate(0.000000, 661.000000)">
                <g id="noun-log-4680788" transform="translate(314.000000, 27.000000)">
                    <path d="M13.7159623,15.3750807 L2.09924645,15.3750807 C0.941813773,15.3750807 7.0648397e-05,14.4610218 7.0648397e-05,13.337614 L7.0648397e-05,7.50011714 C7.0648397e-05,7.29306189 0.173102701,7.12509929 0.386446729,7.12509929 C0.599790756,7.12509929 0.772822809,7.29304475 0.772822809,7.50011714 L0.772822809,13.337614 C0.772822809,14.0474325 1.3678236,14.6250793 2.09928178,14.6250793 L13.7159976,14.6250793 C14.0355721,14.6250793 14.2955264,14.3727565 14.2955264,14.0625868 L14.2955264,9.56257821 C14.2955264,9.2523982 14.0355615,9.00008571 13.7159976,9.00008571 L3.47763199,9.00008571 C3.26430562,9.00008571 3.09125591,8.83214025 3.09125591,8.62506786 C3.09125591,8.41799546 3.26428796,8.25005 3.47763199,8.25005 L13.7159976,8.25005 C14.4616561,8.25005 15.0682432,8.83880541 15.0682432,9.56254393 L15.0682432,14.0625525 C15.0682432,14.786291 14.4616561,15.3750807 13.7159976,15.3750807 L13.7159623,15.3750807 Z" id="Path"></path>
                    <path d="M3.47724342,8.99997714 L1.54543367,8.99997714 C0.69323739,8.99997714 0,8.32712443 0,7.49997714 C0,6.67283557 0.69323739,5.99997714 1.54543367,5.99997714 L3.47724342,5.99997714 C3.69056979,5.99997714 3.8636195,6.16792261 3.8636195,6.374995 C3.8636195,6.58206739 3.69058745,6.75001286 3.47724342,6.75001286 L1.54543367,6.75001286 C1.11935319,6.75001286 0.772716836,7.08644207 0.772716836,7.50001429 C0.772716836,7.9135865 1.11933553,8.25001571 1.54543367,8.25001571 L3.47724342,8.25001571 C3.69056979,8.25001571 3.8636195,8.41796118 3.8636195,8.62503357 C3.8636195,8.83210597 3.69058745,9.00005143 3.47724342,9.00005143 L3.47724342,8.99997714 Z" id="Path"></path>
                    <path d="M15.4546193,18 L4.63658361,18 C3.78438733,18 3.09114994,17.3271416 3.09114994,16.5 L3.09114994,15 C3.09114994,14.792939 3.26418199,14.6249764 3.47752602,14.6249764 C3.69087005,14.6249764 3.8639021,14.7929219 3.8639021,15 L3.8639021,16.5 C3.8639021,16.9135522 4.21052079,17.2499986 4.63661893,17.2499986 L15.4546546,17.2499986 C15.8807351,17.2499986 16.2273715,16.9135694 16.2273715,16.5 L16.2273715,3.53037244 L13.3627909,0.750001429 L4.63665426,0.750001429 C4.21057378,0.750001429 3.86393742,1.08643064 3.86393742,1.5 L3.86393742,8.62493071 C3.86393742,8.83198597 3.69090537,8.99994857 3.47756134,8.99994857 C3.26421731,8.99994857 3.09114994,8.83200311 3.09114994,8.62493071 L3.09114994,1.5 C3.09114994,0.672858424 3.78442265,0 4.63661893,0 L13.5227742,0 C13.6252957,0 13.7235429,0.0395075038 13.7959857,0.109820781 L16.8868531,3.10982649 C16.9592959,3.18013977 17,3.27549538 17,3.37500643 L17,16.4999457 C17,17.3270901 16.3067626,18 15.4545663,18 L15.4546193,18 Z" id="Path"></path>
                    <path d="M16.2271595,3.75014429 L13.5226683,3.75014429 C13.3093419,3.75014429 13.1362922,3.58219882 13.1362922,3.37512071 L13.1362922,0.750138572 C13.1362922,0.54308332 13.3093242,0.375120715 13.5226683,0.375120715 C13.7360123,0.375120715 13.9090443,0.543066177 13.9090443,0.750138572 L13.9090443,3.00014286 L16.2271949,3.00014286 C16.4405212,3.00014286 16.6135709,3.16808832 16.6135709,3.37516071 C16.6135709,3.58223311 16.4405389,3.75017857 16.2271949,3.75017857 L16.2271595,3.75014429 Z" id="Path"></path>
                    <path d="M4.63623037,13.8750779 L3.0907967,13.8750779 C2.87747033,13.8750779 2.70442062,13.7071324 2.70442062,13.50006 L2.70442062,10.1250364 C2.70442062,9.91798118 2.87745267,9.75001857 3.0907967,9.75001857 C3.30414072,9.75001857 3.47717278,9.91796403 3.47717278,10.1250364 L3.47717278,13.1250421 L4.63623037,13.1250421 C4.84955673,13.1250421 5.02260645,13.2929876 5.02260645,13.50006 C5.02260645,13.7071324 4.8495744,13.8750779 4.63623037,13.8750779 Z" id="Path"></path>
                    <path d="M8.49999117,3.37505786 L5.40912382,3.37505786 C5.19579746,3.37505786 5.02274774,3.20711239 5.02274774,3.00004 C5.02274774,2.79296761 5.1957798,2.62502214 5.40912382,2.62502214 L8.49999117,2.62502214 C8.71331753,2.62502214 8.88636725,2.79296761 8.88636725,3.00004 C8.88636725,3.20711239 8.7133352,3.37505786 8.49999117,3.37505786 Z" id="Path"></path>
                    <path d="M11.5908585,4.87506071 L5.40912382,4.87506071 C5.19579746,4.87506071 5.02274774,4.70711525 5.02274774,4.50004286 C5.02274774,4.29297046 5.1957798,4.125025 5.40912382,4.125025 L11.5908585,4.125025 C11.8041849,4.125025 11.9772346,4.29297046 11.9772346,4.50004286 C11.9772346,4.70711525 11.8042025,4.87506071 11.5908585,4.87506071 Z" id="Path"></path>
                    <path d="M11.5908585,6.37506357 L5.40912382,6.37506357 C5.19579746,6.37506357 5.02274774,6.20711811 5.02274774,6.00004571 C5.02274774,5.79297332 5.1957798,5.62502786 5.40912382,5.62502786 L11.5908585,5.62502786 C11.8041849,5.62502786 11.9772346,5.79297332 11.9772346,6.00004571 C11.9772346,6.20711811 11.8042025,6.37506357 11.5908585,6.37506357 Z" id="Path"></path>
                    <path d="M6.9545575,13.8750779 C6.10236121,13.8750779 5.40912382,13.2022194 5.40912382,12.375075 L5.40912382,11.2500871 C5.40912382,10.4229456 6.10236121,9.75008714 6.9545575,9.75008714 C7.80675378,9.75008714 8.49999117,10.4229456 8.49999117,11.2500871 L8.49999117,12.375075 C8.49999117,13.2022194 7.80675378,13.8750779 6.9545575,13.8750779 Z M6.9545575,10.5000543 C6.52847702,10.5000543 6.18184066,10.8364835 6.18184066,11.2500557 L6.18184066,12.3750407 C6.18184066,12.7885958 6.52845936,13.1250421 6.9545575,13.1250421 C7.38065564,13.1250421 7.72727433,12.7886129 7.72727433,12.3750407 L7.72727433,11.2500557 C7.72727433,10.8365006 7.38065564,10.5000543 6.9545575,10.5000543 Z" id="Shape"></path>
                    <path d="M11.3976351,13.8750779 C10.2258608,13.8750779 9.27267268,12.9499104 9.27267268,11.8125825 C9.27267268,10.6752546 10.2258608,9.75008714 11.3976351,9.75008714 C11.8201479,9.75008714 12.2284603,9.87022109 12.5785231,10.0976421 C12.7558329,10.2128217 12.8033016,10.4457113 12.6846335,10.6178259 C12.5659653,10.7899234 12.3260222,10.8361304 12.1486947,10.720817 C11.9262618,10.576443 11.6665901,10.5001023 11.3976316,10.5001023 C10.6519731,10.5001023 10.045386,11.0888577 10.045386,11.8125962 C10.045386,12.5363347 10.6519731,13.1250901 11.3976316,13.1250901 C12.0090582,13.1250901 12.5270522,12.7291922 12.6937118,12.1875798 L11.5907843,12.1875798 C11.377458,12.1875798 11.2044083,12.0196343 11.2044083,11.8125619 C11.2044083,11.6054895 11.3774403,11.4375441 11.5907843,11.4375441 L13.136218,11.4375441 C13.3495444,11.4375441 13.5225941,11.6054895 13.5225941,11.8125619 C13.5225941,12.9498898 12.5694059,13.8750779 11.3976316,13.8750779 L11.3976351,13.8750779 Z" id="Path"></path>
                </g>
            </g>
        </g>
    </g>
</svg>