<?xml version="1.0" encoding="UTF-8"?>
<svg width="17px" height="17px" viewBox="0 0 17 17" version="1.1" xmlns="http://www.w3.org/2000/svg" xmlns:xlink="http://www.w3.org/1999/xlink">
    <title>Group</title>
    <g id="Page-1" stroke="none" stroke-width="1" fill="none" fill-rule="evenodd">
        <g id="E-commerce-#30---Addresses-Copy-21" transform="translate(-290.000000, -59.000000)" fill="#2D3142" fill-rule="nonzero">
            <g id="Group" transform="translate(290.000000, 59.000000)">
                <path d="M12.75,6.375 L7.08333333,6.375 C6.69213164,6.375 6.375,6.69213164 6.375,7.08333333 C6.375,7.47453503 6.69213164,7.79166667 7.08333333,7.79166667 L12.75,7.79166667 C13.1412017,7.79166667 13.4583333,7.47453503 13.4583333,7.08333333 C13.4583333,6.69213164 13.1412017,6.375 12.75,6.375 Z M12.75,9.20833333 L7.08333333,9.20833333 C6.69213164,9.20833333 6.375,9.52546497 6.375,9.91666667 C6.375,10.3078684 6.69213164,10.625 7.08333333,10.625 L12.75,10.625 C13.1412017,10.625 13.4583333,10.3078684 13.4583333,9.91666667 C13.4583333,9.52546497 13.1412017,9.20833333 12.75,9.20833333 Z" id="Shape"></path>
                <path d="M15.5833333,0 L1.41666667,0 C0.634263271,0 0,0.634263271 0,1.41666667 L0,15.5833333 C0,16.3657367 0.634263271,17 1.41666667,17 L15.5833333,17 C16.3657367,17 17,16.3657367 17,15.5833333 L17,1.41666667 C17,0.634263271 16.3657367,0 15.5833333,0 Z M3.54166667,15.5833333 L1.41666667,15.5833333 L1.41666667,1.41666667 L3.54166667,1.41666667 L3.54166667,15.5833333 Z M15.5833333,15.5833333 L4.95833333,15.5833333 L4.95833333,1.41666667 L15.5833333,1.41666667 L15.5833333,15.5833333 Z" id="Shape"></path>
            </g>
        </g>
    </g>
</svg>