<?xml version="1.0" encoding="UTF-8"?>
<svg width="42px" height="42px" viewBox="0 0 42 42" version="1.1" xmlns="http://www.w3.org/2000/svg" xmlns:xlink="http://www.w3.org/1999/xlink">
    <title>C87BFB87-64C1-400F-A6BB-B628591435BE</title>
    <g id="Finbal_Final" stroke="none" stroke-width="1" fill="none" fill-rule="evenodd">
        <g id="Customer-Landing-Page-Copy-54" transform="translate(-24.000000, -1609.000000)">
            <g id="Group-29" transform="translate(24.000000, 1513.000000)">
                <g id="Group-37" transform="translate(0.000000, 94.000000)">
                    <g id="Group-36" transform="translate(0.000000, 2.000000)">
                        <path d="M0,21 C0,9.40202 9.40202,0 21,0 C32.598,0 42,9.40202 42,21 C42,32.598 32.598,42 21,42 C9.40202,42 0,32.598 0,21 Z" id="Rectangle-8889" fill="#E9ECF2"></path>
                        <g id="9027000_receipt_thin_icon" transform="translate(11.000000, 13.000000)" stroke="#000000" stroke-linecap="round" stroke-linejoin="round" stroke-width="2">
                            <line x1="4.58333333" y1="5.83333333" x2="15.4166667" y2="5.83333333" id="Path"></line>
                            <line x1="4.58333333" y1="9.16666667" x2="15.4166667" y2="9.16666667" id="Path"></line>
                            <path d="M0,16.6666667 L0,0.833333333 C0,0.373096042 0.373096042,0 0.833333333,0 L19.1666667,0 C19.626904,0 20,0.373096042 20,0.833333333 L20,16.6666667 L16.6666667,15 L13.3333333,16.6666667 L10,15 L6.66666667,16.6666667 L3.33333333,15 L0,16.6666667 Z" id="Path"></path>
                        </g>
                    </g>
                </g>
            </g>
        </g>
    </g>
</svg>