<?xml version="1.0" encoding="UTF-8"?>
<svg width="71px" height="69px" viewBox="0 0 71 69" version="1.1" xmlns="http://www.w3.org/2000/svg" xmlns:xlink="http://www.w3.org/1999/xlink">
    <title>EAB8D996-543E-4ECC-AC7E-890A599698BB</title>
    <g id="Bin" stroke="none" stroke-width="1" fill="none" fill-rule="evenodd">
        <g id="Customer-Landing-Page-Copy-126" transform="translate(-151.000000, -485.000000)">
            <g id="Group-2" transform="translate(53.000000, 223.000000)">
                <g id="Smile-Copy-3" transform="translate(98.679589, 262.000000)">
                    <path d="M69.6427586,34.4256818 C69.6427586,53.4386364 54.0536782,68.8497727 34.8213793,68.8497727 C15.5898851,68.8497727 0,53.4386364 0,34.4256818 C0,15.4119318 15.5898851,0 34.8213793,0 C54.0536782,0 69.6427586,15.4119318 69.6427586,34.4256818" id="Fill-1" fill="#FFEEC0"></path>
                    <path d="M23.8011951,29.4605381 C23.8011951,32.2041881 22.2332826,34.4280881 20.2999701,34.4280881 C18.3674451,34.4280881 16.8003201,32.2041881 16.8003201,29.4605381 C16.8003201,26.7176756 18.3674451,24.4914131 20.2999701,24.4914131 C22.2332826,24.4914131 23.8011951,26.7176756 23.8011951,29.4605381" id="Fill-1" fill="#FFC832"></path>
                    <path d="M52.1862389,29.4605381 C52.1862389,32.2041881 50.6199014,34.4280881 48.6873764,34.4280881 C46.7532764,34.4280881 45.1853639,32.2041881 45.1853639,29.4605381 C45.1853639,26.7176756 46.7532764,24.4914131 48.6873764,24.4914131 C50.6199014,24.4914131 52.1862389,26.7176756 52.1862389,29.4605381" id="Fill-4" fill="#FFCC41"></path>
                    <path d="M44.6868764,48.2859618 C45.5728139,48.4662993 46.1807639,47.1488118 45.5932889,46.2833493 C43.0102889,42.4757868 39.0027014,40.0298118 34.4934764,40.0298118 C29.9842514,40.0298118 25.9758764,42.4757868 23.3936639,46.2833493 C22.8061889,47.1488118 23.4133514,48.4662993 24.2992889,48.2859618 C27.3603014,47.6598993 30.8237264,47.3078868 34.4934764,47.3078868 C38.1632264,47.3078868 41.6266514,47.6598993 44.6868764,48.2859618" id="Fill-7" fill="#FFC832"></path>
                </g>
            </g>
        </g>
    </g>
</svg>