<!-- Generated by IcoMoon.io -->
<svg version="1.1" xmlns="http://www.w3.org/2000/svg" width="32" height="32" viewBox="0 0 32 32">
<title>search</title>
<path d="M13.767 4c5.394 0 9.767 4.284 9.767 9.567 0 2.276-0.811 4.366-2.166 6.008l6.631 6.496-1.975 1.935-6.704-6.567c-1.577 1.069-3.49 1.695-5.553 1.695-5.394 0-9.767-4.283-9.767-9.567s4.373-9.567 9.767-9.567zM13.746 6.74c-3.861 0-6.991 3.066-6.991 6.848s3.13 6.849 6.991 6.849c3.861 0 6.991-3.066 6.991-6.849s-3.13-6.848-6.991-6.848z"></path>
</svg>
