<?xml version="1.0" encoding="UTF-8"?>
<svg width="21px" height="17px" viewBox="0 0 21 17" version="1.1" xmlns="http://www.w3.org/2000/svg" xmlns:xlink="http://www.w3.org/1999/xlink">
    <title>send</title>
    <g id="Page-1" stroke="none" stroke-width="1" fill="none" fill-rule="evenodd">
        <g id="Momotaro-home-Copy-91" transform="translate(-306.000000, -772.000000)" fill="#2D3142" fill-rule="nonzero">
            <g id="send" transform="translate(306.913484, 772.571138)">
                <path d="M0.45,15.0764047 C0.85,15.6764047 1.55,15.9764047 2.15,15.9764047 C2.45,15.9764047 2.65,15.9764047 2.95,15.7764047 L17.95,9.97640469 C18.85,9.67640469 19.35,8.87640469 19.35,7.97640469 C19.35,7.07640469 18.85,6.27640469 17.95,5.97640469 L2.95,0.176404687 C2.05,-0.223595313 1.05,0.0764046867 0.45,0.876404687 C-0.15,1.57640469 -0.15,2.67640469 0.45,3.47640469 L3.65,7.97640469 L0.45,12.4764047 C-0.15,13.2764047 -0.15,14.3764047 0.45,15.0764047 Z M2.05,13.6764047 L5.45,8.97640469 C5.55,8.97640469 5.65,8.97640469 5.65,8.97640469 L11.65,8.97640469 C12.25,8.97640469 12.65,8.57640469 12.65,7.97640469 C12.65,7.37640469 12.25,6.97640469 11.65,6.97640469 L5.65,6.97640469 C5.55,6.97640469 5.45,6.97640469 5.45,6.97640469 L2.05,2.27640469 C2.05,2.27640469 1.95,2.17640469 2.05,2.07640469 C2.05,1.97640469 2.15,1.97640469 2.15,1.97640469 C2.15,1.97640469 2.25,1.97640469 2.25,1.97640469 L17.15,7.77640469 C17.15,7.77640469 17.25,7.77640469 17.25,7.97640469 C17.25,8.17640469 17.15,8.17640469 17.15,8.17640469 L2.25,13.9764047 C2.25,13.9764047 2.15,14.0764047 2.05,13.8764047 C1.95,13.7764047 2.05,13.6764047 2.05,13.6764047 Z" id="Shape"></path>
            </g>
        </g>
    </g>
</svg>