<?xml version="1.0" encoding="UTF-8"?>
<svg width="15px" height="15px" viewBox="0 0 15 15" version="1.1" xmlns="http://www.w3.org/2000/svg" xmlns:xlink="http://www.w3.org/1999/xlink">
    <title>366B880E-0EC6-463F-A41F-9DD7D6008184</title>
    <g id="Final" stroke="none" stroke-width="1" fill="none" fill-rule="evenodd">
        <g id="Customer-Landing-Page-Copy-41" transform="translate(-97.000000, -542.000000)" fill="#35D850">
            <g id="Group-7" transform="translate(24.000000, 437.000000)">
                <g id="Group-2" transform="translate(80.151650, 112.840990) rotate(-45.000000) translate(-80.151650, -112.840990) translate(74.000000, 109.000000)">
                    <path d="M1.80330086,4.68198052 L12.3033009,4.68198052 L12.3033009,4.68198052 L12.3033009,7.68198052 L1.80330086,7.68198052 C0.974873734,7.68198052 0.303300859,7.01040764 0.303300859,6.18198052 C0.303300859,5.35355339 0.974873734,4.68198052 1.80330086,4.68198052 Z" id="Rectangle"></path>
                    <path d="M-9.09494702e-13,0 L3,0 L3,5.5 C3,6.32842712 2.32842712,7 1.5,7 C0.671572875,7 -9.09393249e-13,6.32842712 -9.09494702e-13,5.5 L-9.09494702e-13,0 L-9.09494702e-13,0 Z" id="Rectangle"></path>
                </g>
            </g>
        </g>
    </g>
</svg>