<?xml version="1.0" encoding="UTF-8"?>
<svg width="23px" height="12px" viewBox="0 0 23 12" version="1.1" xmlns="http://www.w3.org/2000/svg" xmlns:xlink="http://www.w3.org/1999/xlink">
    <title>Group</title>
    <g id="Finbal_Final" stroke="none" stroke-width="1" fill="none" fill-rule="evenodd">
        <g id="Customer-Landing-Page-Copy-4" transform="translate(-66.000000, -275.000000)" fill="#60D39C">
            <g id="Group-12" transform="translate(24.000000, 257.000000)">
                <g id="IPS-Graph---Light" transform="translate(0.500000, 16.000000)">
                    <g id="Group" transform="translate(42.180000, 2.000000)">
                        <g id="Vector">
                            <path d="M12.9567,10.1994 C12.7686,10.3915 12.5111,10.4997 12.2423,10.4997 C11.9735,10.4997 11.716,10.3915 11.5279,10.1994 L7.345,5.928 L0.71443,12.6997 C0.32799,13.0943 -0.30514,13.1009 -0.69971,12.7144 C-1.09428,12.328 -1.10087,11.6949 -0.71442,11.3003 L6.63113,3.80029 L6.73069449,3.7113588 C6.90537806,3.57515972 7.121535,3.5 7.34556,3.5 C7.61438,3.5 7.87188,3.60823 8.05998,3.80029 L12.241,8.07 L20.832,-0.69971 L20.911,-0.621 L20.8866742,-0.646169656 C20.8517758,-0.680350727 20.832,-0.69972 20.832,-0.69972 C21.2184,-1.09429 21.8515,-1.10088 22.2461,-0.71443 C22.6407,-0.32799 22.6472,0.30514 22.2608,0.69971 L12.9567,10.1994 Z" id="Vector-border"></path>
                        </g>
                        <g id="Vector" transform="translate(15.670000, 0.000000)">
                            <path d="M-0.116620248,0.993272343 C-0.613955714,0.935507857 -1,0.512840714 -1,0 C-1,-0.55228 -0.55228,-1 0,-1 L5.87645,-1 L5.99307025,-0.993272201 C6.49040571,-0.935506531 6.87645,-0.512831429 6.87645,0 L6.87645,6 L6.8697222,6.11662025 C6.81195653,6.61395571 6.38928143,7 5.87645,7 C5.32416,7 4.87645,6.55228 4.87645,6 L4.876,1 L0,1 Z" id="Vector-border"></path>
                        </g>
                    </g>
                </g>
            </g>
        </g>
    </g>
</svg>