<?xml version="1.0" encoding="UTF-8"?>
<svg width="16px" height="16px" viewBox="0 0 16 16" version="1.1" xmlns="http://www.w3.org/2000/svg" xmlns:xlink="http://www.w3.org/1999/xlink">
    <title>Shape</title>
    <g id="Finbal_Final" stroke="none" stroke-width="1" fill="none" fill-rule="evenodd" stroke-linecap="round" stroke-linejoin="round">
        <g id="Customer-Landing-Page-Copy-41" transform="translate(-347.000000, -299.000000)" stroke="#2D3142">
            <g id="Group-24" transform="translate(332.000000, 293.000000)">
                <g id="Group-2-Copy" transform="translate(16.000000, 5.000000)">
                    <path d="M5.33907263,11.2196562 C5.55682903,11.2196562 5.74474774,11.3689258 5.7894064,11.5772852 C5.96085426,12.3769258 6.6000016,13.0018945 7.41772764,13.1694844 C7.630842,13.2131797 7.78347002,13.3969297 7.78347002,13.6098281 C7.78347002,13.8227266 7.63081403,14.0065039 7.41772764,14.0501719 C6.59997363,14.2177891 5.96079833,14.8427578 5.78935047,15.6423711 C5.74469182,15.8507852 5.55674514,16 5.3390167,16 C5.1212603,16 4.93334159,15.8507305 4.88868293,15.6423711 C4.71726303,14.8427578 4.07808774,14.2177617 3.26038966,14.0501445 C3.0472753,14.0064766 2.89464727,13.8226992 2.89464727,13.6098008 C2.89464727,13.3969023 3.04730326,13.213125 3.26038966,13.169457 C4.0781157,13.0018398 4.717291,12.3768711 4.88873886,11.5772578 C4.93339752,11.3688711 5.12134419,11.2196562 5.33907263,11.2196562 Z M10.9830657,6.49397266 C11.2008221,6.49397266 11.3887409,6.64324219 11.4333995,6.85160156 C11.665082,7.93236328 12.5289768,8.77712109 13.6342856,9.00369141 C13.847372,9.04735937 14,9.23113672 14,9.44403516 C14,9.65693359 13.847344,9.84068359 13.6342576,9.88437891 C12.5289768,10.1108945 11.665082,10.955625 11.4333436,12.0364141 C11.3886849,12.2448281 11.2007383,12.394043 10.9830098,12.394043 C10.7652534,12.394043 10.5773347,12.2447734 10.532676,12.0364141 C10.3009935,10.955625 9.43709877,10.1108945 8.33181795,9.88432422 C8.11870358,9.84062891 7.96607556,9.65687891 7.96607556,9.44398047 C7.96607556,9.23108203 8.11873155,9.04730469 8.33181795,9.00363672 C9.43712673,8.77709375 10.3010215,7.93236328 10.532732,6.85157422 C10.5773906,6.6431875 10.7653373,6.49397266 10.9830657,6.49397266 Z M4.27204669,2 C4.48980309,2 4.67772181,2.14924219 4.72240843,2.35757422 C5.08619333,4.05469141 6.4427595,5.38116406 8.178351,5.73693359 C8.39140943,5.78060156 8.54406542,5.96437891 8.54406542,6.17727734 C8.54406542,6.39020313 8.39140943,6.57395313 8.17832303,6.61762109 C6.44273153,6.97330859 5.0861374,8.29975391 4.72229657,9.99684375 C4.67763791,10.2052305 4.48969124,10.3544727 4.2719628,10.3544727 C4.0542064,10.3544727 3.86628769,10.2052031 3.82162903,9.99684375 C3.45781616,8.29975391 2.10130592,6.97330859 0.365742387,6.61753906 C0.152628026,6.57387109 0,6.39009375 0,6.17719531 C0,5.96429688 0.15265599,5.78051953 0.365742387,5.73685156 C2.10133389,5.38113672 3.45790006,4.05469141 3.82171292,2.35760156 C3.86637158,2.14924219 4.05429029,2 4.27204669,2 Z" id="Shape"></path>
                </g>
            </g>
        </g>
    </g>
</svg>