<?xml version="1.0" encoding="UTF-8"?>
<svg width="56px" height="56px" viewBox="0 0 24 24" version="1.1" xmlns="http://www.w3.org/2000/svg" xmlns:xlink="http://www.w3.org/1999/xlink">
    <title>8C779AB3-22CD-47EF-BD68-C51D51266A47</title>
    <g id="Finbal_Final" stroke="none" stroke-width="1" fill="none" fill-rule="evenodd">
        <g id="Customer-Landing-Page-Copy-62" transform="translate(-33.000000, -289.000000)">
            <g id="Group-5" transform="translate(24.000000, 280.000000)">
                <g id="Group" transform="translate(9.000000, 9.000000)">
                    <rect id="Rectangle" x="0" y="0" width="24" height="24"></rect>
                    <path d="M16.875,8 C14.595,8 12.75,9.78909091 12.75,12 C12.75,12.9672727 13.1025,13.8545455 13.695,14.5454545 L10.305,14.5454545 C10.8975,13.8545455 11.25,12.9672727 11.25,12 C11.25,9.78909091 9.405,8 7.125,8 C4.845,8 3,9.78909091 3,12 C3,14.2109091 4.845,16 7.125,16 L16.875,16 C19.155,16 21,14.2109091 21,12 C21,9.78909091 19.155,8 16.875,8 Z M7.125,14.5454545 C5.6775,14.5454545 4.5,13.4036364 4.5,12 C4.5,10.5963636 5.6775,9.45454545 7.125,9.45454545 C8.5725,9.45454545 9.75,10.5963636 9.75,12 C9.75,13.4036364 8.5725,14.5454545 7.125,14.5454545 Z M16.875,14.5454545 C15.4275,14.5454545 14.25,13.4036364 14.25,12 C14.25,10.5963636 15.4275,9.45454545 16.875,9.45454545 C18.3225,9.45454545 19.5,10.5963636 19.5,12 C19.5,13.4036364 18.3225,14.5454545 16.875,14.5454545 Z" id="Shape" fill="#2D3142" fill-rule="nonzero"></path>
                </g>
            </g>
        </g>
    </g>
</svg>